<?xml version="1.0" encoding="utf-8"?>
<svg xmlns="http://www.w3.org/2000/svg" fill="none" height="97" viewBox="0 0 126 97" width="126">
<path d="M122.594 52.1255C122.594 52.1255 104.132 93.6668 66.513 93.6668C28.8938 93.6668 10.4323 52.1255 10.4323 52.1255C10.4323 52.1255 28.8938 10.5842 66.513 10.5842C104.132 10.5842 122.594 52.1255 122.594 52.1255Z" fill="black"/>
<path clip-rule="evenodd" d="M125.373 53.3607L122.594 52.1254L125.373 50.8902C125.723 51.6766 125.723 52.5743 125.373 53.3607ZM10.4323 52.1254C7.65275 53.3607 7.65328 53.3619 7.65388 53.3632L7.65543 53.3667L7.65982 53.3765L7.67372 53.4074L7.72205 53.5135C7.76339 53.6036 7.82301 53.732 7.90092 53.8961C8.05671 54.2244 8.28581 54.696 8.58843 55.2904C9.19343 56.4788 10.0937 58.1608 11.2912 60.1722C13.6824 64.1888 17.2787 69.552 22.1015 74.9273C31.7145 85.6417 46.4924 96.7084 66.513 96.7084C86.5336 96.7084 101.312 85.6417 110.925 74.9273C115.747 69.552 119.344 64.1888 121.735 60.1722C122.932 58.1608 123.833 56.4788 124.438 55.2904C124.74 54.696 124.969 54.2244 125.125 53.8961C125.203 53.732 125.263 53.6036 125.304 53.5135L125.352 53.4074L125.366 53.3765L125.372 53.3632C125.373 53.3619 125.373 53.3607 122.594 52.1254C125.373 50.8902 125.373 50.889 125.372 50.8876L125.366 50.8743L125.352 50.8434L125.304 50.7374C125.263 50.6473 125.203 50.5189 125.125 50.3547C124.969 50.0265 124.74 49.5549 124.438 48.9605C123.833 47.7721 122.932 46.09 121.735 44.0786C119.344 40.0621 115.747 34.6989 110.925 29.3235C101.312 18.6091 86.5336 7.54248 66.513 7.54248C46.4924 7.54248 31.7145 18.6091 22.1015 29.3235C17.2787 34.6989 13.6824 40.0621 11.2912 44.0786C10.0937 46.09 9.19343 47.7721 8.58843 48.9605C8.28581 49.5549 8.05671 50.0265 7.90092 50.3547C7.82301 50.5189 7.76339 50.6473 7.72205 50.7374L7.67372 50.8434L7.65982 50.8743L7.65543 50.8841L7.65388 50.8876C7.65328 50.889 7.65275 50.8902 10.4323 52.1254ZM10.4323 52.1254L7.65275 53.3607C7.30325 52.5743 7.30325 51.6766 7.65275 50.8902L10.4323 52.1254ZM10.4323 52.1254C10.4323 52.1254 28.8939 10.5841 66.513 10.5841C104.132 10.5841 122.594 52.1254 122.594 52.1254C122.594 52.1254 104.132 93.6667 66.513 93.6667C28.8939 93.6667 10.4323 52.1254 10.4323 52.1254Z" fill="black" fill-rule="evenodd"/>
<path d="M115.947 45.4788C115.947 45.4788 97.4855 87.0201 59.8664 87.0201C22.2472 87.0201 3.78564 45.4788 3.78564 45.4788C3.78564 45.4788 22.2472 3.9375 59.8664 3.9375C97.4855 3.9375 115.947 45.4788 115.947 45.4788Z" fill="#FFDAE4"/>
<path clip-rule="evenodd" d="M118.727 46.7141L115.947 45.4788L118.727 44.2435C119.076 45.03 119.076 45.9277 118.727 46.7141ZM3.78569 45.4788C1.00615 46.7141 1.00667 46.7153 1.00727 46.7166L1.00882 46.7201L1.01321 46.7299L1.02711 46.7608L1.07544 46.8669C1.11679 46.957 1.1764 47.0853 1.25431 47.2495C1.41011 47.5778 1.6392 48.0494 1.94182 48.6438C2.54683 49.8321 3.44707 51.5142 4.64455 53.5256C7.0358 57.5422 10.6321 62.9054 15.4549 68.2807C25.0679 78.9951 39.8458 90.0618 59.8664 90.0618C79.887 90.0618 94.6649 78.9951 104.278 68.2807C109.101 62.9054 112.697 57.5422 115.088 53.5256C116.286 51.5142 117.186 49.8321 117.791 48.6438C118.094 48.0494 118.323 47.5778 118.479 47.2495C118.556 47.0853 118.616 46.957 118.657 46.8669L118.706 46.7608L118.72 46.7299L118.726 46.7166C118.726 46.7153 118.727 46.7141 115.947 45.4788C118.727 44.2435 118.726 44.2424 118.726 44.241L118.72 44.2277L118.706 44.1968L118.657 44.0908C118.616 44.0007 118.556 43.8723 118.479 43.7081C118.323 43.3799 118.094 42.9083 117.791 42.3139C117.186 41.1255 116.286 39.4434 115.088 37.432C112.697 33.4155 109.101 28.0523 104.278 22.6769C94.6649 11.9625 79.887 0.895874 59.8664 0.895874C39.8458 0.895874 25.0679 11.9625 15.4549 22.6769C10.6321 28.0523 7.0358 33.4155 4.64455 37.432C3.44707 39.4434 2.54683 41.1255 1.94182 42.3139C1.6392 42.9083 1.41011 43.3799 1.25431 43.7081C1.1764 43.8723 1.11679 44.0007 1.07544 44.0908L1.02711 44.1968L1.01321 44.2277L1.00882 44.2375L1.00727 44.241C1.00667 44.2424 1.00615 44.2435 3.78569 45.4788ZM3.78569 45.4788L1.00615 46.7141C0.656643 45.9277 0.656643 45.03 1.00615 44.2435L3.78569 45.4788ZM3.78569 45.4788C3.78569 45.4788 22.2473 3.93754 59.8664 3.93754C97.4855 3.93754 115.947 45.4788 115.947 45.4788C115.947 45.4788 97.4855 87.0201 59.8664 87.0201C22.2473 87.0201 3.78569 45.4788 3.78569 45.4788Z" fill="black" fill-rule="evenodd"/>
<path d="M83.5535 43.7845C84.1699 58.4497 73.8214 70.7942 60.4395 71.3567C47.0575 71.9192 35.7096 60.4867 35.0932 45.8215C34.4768 31.1563 44.8253 18.8118 58.2072 18.2493C71.5891 17.6869 82.9371 29.1193 83.5535 43.7845Z" fill="white"/>
<path clip-rule="evenodd" d="M86.5924 43.6567C87.2682 59.7323 75.8834 73.7517 60.5672 74.3955C45.251 75.0393 32.7299 62.0248 32.0542 45.9491C31.3785 29.8734 42.7632 15.854 58.0794 15.2102C73.3957 14.5664 85.9167 27.581 86.5924 43.6567ZM60.4395 71.3565C73.8214 70.794 84.1699 58.4496 83.5535 43.7844C82.937 29.1192 71.5891 17.6867 58.2072 18.2492C44.8252 18.8117 34.4767 31.1562 35.0932 45.8213C35.7096 60.4865 47.0575 71.919 60.4395 71.3565Z" fill="black" fill-rule="evenodd"/>
<path d="M74.0788 42.9451C74.4368 51.463 68.0182 58.6501 59.7425 58.998C51.4668 59.3458 44.4677 52.7227 44.1097 44.2048C43.7517 35.6869 50.1702 28.4997 58.4459 28.1519C66.7217 27.804 73.7207 34.4272 74.0788 42.9451Z" fill="#FC75FF"/>
<path clip-rule="evenodd" d="M77.1178 42.8174C77.5429 52.9305 69.9065 61.6152 59.8704 62.0371C49.8342 62.4589 41.4959 54.4457 41.0708 44.3326C40.6457 34.2196 48.2822 25.5349 58.3183 25.113C68.3544 24.6912 76.6927 32.7044 77.1178 42.8174ZM59.7426 58.9981C68.0183 58.6502 74.4369 51.4631 74.0789 42.9452C73.7208 34.4273 66.7218 27.8041 58.446 28.152C50.1703 28.4999 43.7518 35.687 44.1098 44.2049C44.4678 52.7228 51.4669 59.3459 59.7426 58.9981Z" fill="black" fill-rule="evenodd"/>
<path d="M65.5746 42.0213C65.7526 46.2558 62.5618 49.8286 58.4478 50.0016C54.3338 50.1745 50.8544 46.882 50.6764 42.6476C50.4984 38.4131 53.6892 34.8403 57.8032 34.6674C61.9173 34.4944 65.3966 37.7869 65.5746 42.0213Z" fill="black"/>
</svg>