<?xml version="1.0" encoding="utf-8"?>
<svg xmlns="http://www.w3.org/2000/svg" fill="none" height="56" viewBox="0 0 56 56" width="56">
<path d="M13.0648 48.1376C13.8622 48.1376 14.5086 47.4914 14.5086 46.6939C14.5086 45.8965 13.8622 45.2502 13.0648 45.2502C12.2675 45.2502 11.6211 45.8965 11.6211 46.6939C11.6211 47.4914 12.2675 48.1376 13.0648 48.1376Z" fill="#FFD809"/>
<path d="M13.0648 48.2623C12.6489 48.2623 12.25 48.0971 11.9559 47.8028C11.8103 47.6572 11.6948 47.4844 11.616 47.2941C11.5371 47.1039 11.4966 46.8999 11.4966 46.694C11.4966 46.4881 11.5371 46.2842 11.616 46.0939C11.6948 45.9037 11.8103 45.7308 11.9559 45.5852C12.1015 45.4395 12.2744 45.324 12.4646 45.2451C12.6549 45.1663 12.8588 45.1257 13.0648 45.1257C13.4807 45.1257 13.8796 45.2909 14.1737 45.5852C14.4678 45.8793 14.633 46.2781 14.633 46.694C14.633 47.1099 14.4678 47.5087 14.1737 47.8028C14.0281 47.9485 13.8552 48.064 13.665 48.1429C13.4747 48.2217 13.2708 48.2623 13.0648 48.2623ZM13.0648 45.3747C12.805 45.3797 12.5524 45.4612 12.3388 45.609C12.125 45.7569 11.9598 45.9647 11.8638 46.2063C11.7678 46.4476 11.7452 46.712 11.7989 46.9662C11.8525 47.2205 11.9801 47.4533 12.1656 47.6354C12.3511 47.8174 12.5861 47.9406 12.8413 47.9896C13.0966 48.0384 13.3605 48.0108 13.6001 47.9103C13.8007 47.8262 13.9773 47.6937 14.1144 47.5248C14.2514 47.3559 14.3445 47.1557 14.3854 46.9421C14.4264 46.7285 14.4139 46.508 14.349 46.3004C14.2842 46.0928 14.169 45.9044 14.0138 45.7521C13.8886 45.6294 13.7402 45.5328 13.5773 45.4679C13.4144 45.4031 13.2401 45.3714 13.0648 45.3747Z" fill="#FFD809"/>
<path d="M20.7813 43.3833V43.4331C20.7813 43.458 20.7813 43.4829 20.7564 43.458L20.607 43.01C20.5494 42.8718 20.4996 42.7304 20.4577 42.5867L20.4079 42.4873L20.3332 42.2882L20.0345 41.5414C19.6114 40.4959 19.1384 39.3011 18.5908 37.9818C17.5204 35.368 16.2011 32.2566 14.7574 28.8711L12.5171 23.5693C12.1189 22.6483 11.7455 21.7273 11.3472 20.7814L10.7498 19.3625C10.6776 19.1509 10.5946 18.9432 10.5009 18.7402L22.0259 16.5248C27.0292 17.9686 32.7543 19.6115 37.185 20.8312L40.2219 23.7435L42.9351 26.3074C47.8637 30.9622 49.2578 32.0575 48.0877 30.6385C47.4905 29.9416 46.2708 28.5976 44.5034 26.7804L41.5164 23.6689L39.749 21.8766L37.7576 19.8355L30.4144 17.5703L26.4318 16.3755L22.0757 15.0811L15.778 16.251L8.50952 17.645L9.70434 20.5574L10.6004 22.6732C11.1979 24.0671 11.7953 25.486 12.4176 26.9048C13.6871 29.7176 14.9317 32.5554 16.2011 35.3929L18.4414 40.5457L19.462 42.9851L20.856 46.47L21.528 48.1626L21.6027 48.3617V48.4115V48.2623C21.6027 48.1127 21.6276 47.9386 21.6276 47.7893V46.8681C21.6525 45.6983 21.6774 44.5534 21.7023 43.458C21.7272 41.9396 21.7521 40.5457 21.777 39.2264C21.8516 34.2729 21.9512 30.5889 22.001 27.6765C22.0508 24.7641 22.1254 22.6234 22.1752 20.7814C22.2001 19.8853 22.2001 19.0389 22.225 18.2175V17.0227C22.2462 16.816 22.2546 16.6081 22.2499 16.4004V15.8777L23.9923 14.2597L26.2077 12.1936C27.7759 10.725 27.8506 10.5259 26.9545 11.2229C26.5064 11.5464 25.8095 12.119 24.9134 12.8408L23.4696 14.0605L21.6525 15.579C21.5529 18.3669 21.4285 21.6526 21.304 25.0379C21.1795 28.4231 21.1049 31.7588 21.0053 34.8206C20.8808 39.6495 20.7813 43.3833 20.7813 43.3833Z" fill="#1E1D1C"/>
<path d="M24.6397 46.9428L24.8886 46.8182L25.3864 46.5693L26.8799 45.7979C28.1993 45.1256 30.066 44.105 32.3312 42.7859C34.5964 41.4666 37.2847 39.8238 40.197 37.9318L44.7772 34.9448L50.2784 31.3107L43.5825 21.9014L36.9364 12.5918L27.6267 10.252L21.3041 12.542L15.9772 14.5085C8.73366 17.1719 7.28993 17.8938 9.8538 17.1968C11.1482 16.8732 13.4382 16.1762 16.5 15.1806L21.6775 13.5128L27.6765 11.5214L31.7836 12.6167L36.1149 13.7866L38.9524 17.844L42.089 22.2748L45.3249 26.8549L48.2621 30.9372L42.4373 34.87C40.2718 36.3389 38.0813 37.7826 35.8909 39.2014C32.1571 41.6158 28.7716 43.6321 25.6851 45.2751L24.1418 46.0964L23.8929 46.221L23.8431 46.2708H23.7933L23.8431 46.1711C23.9178 45.9969 24.0174 45.8474 24.092 45.6982L25.9091 42.2382C28.4233 37.4589 30.2901 33.974 31.7337 31.2359L35.1441 24.8636L36.4386 22.3744L37.7577 19.7856L37.3844 18.765C37.2598 18.4165 37.1355 18.0929 37.0109 17.7196C36.8866 17.3462 36.4632 16.2509 36.1398 15.4046C35.393 13.3883 35.2186 13.1145 35.4675 14.0355C35.5672 14.5085 35.7912 15.2552 36.09 16.2509C36.3887 17.2466 36.7371 18.3916 37.1355 19.7358L34.9697 23.6687C34.1485 25.1374 33.302 26.7056 32.4309 28.2987C30.6885 31.4848 28.8962 34.8205 27.2533 37.8571C25.6104 40.894 23.9676 43.9308 22.8474 45.997C22.3994 46.868 21.9762 47.6397 21.6028 48.3117L21.553 48.4612H21.5281C21.5348 48.4612 21.5411 48.4584 21.5458 48.454C21.5504 48.4492 21.553 48.4428 21.553 48.4363H21.6028C21.6927 48.4102 21.777 48.368 21.8517 48.3117L22.3247 48.0877L23.1461 47.6895L24.6397 46.9428Z" fill="#1E1D1C"/>
<path d="M11.3473 20.5324C12.1135 19.3732 13.1804 18.4439 14.4339 17.8441L13.8862 17.7943C12.4356 19.0985 11.3901 20.7919 10.8743 22.6732C10.8245 22.8972 11.4966 22.6732 11.5962 22.5487C12.9421 20.4819 14.6347 18.663 16.5995 17.172H15.9772C14.2347 19.2132 12.3927 21.4286 12.0193 24.1667C11.9696 24.4156 12.6416 24.1916 12.7412 24.0422C14.1762 21.3868 16.0438 18.9892 18.2672 16.948H17.5951C15.5291 19.7857 13.4382 22.698 12.4674 26.0834C12.3927 26.3074 13.0648 26.1331 13.1395 26.0087C15.5075 22.6503 18.1111 19.4644 20.9307 16.475L20.2337 16.5497C18.4166 19.7359 16.5497 22.947 14.4836 25.9838C14.2098 26.407 13.9111 26.8301 13.6124 27.2284L14.3094 27.1537L20.8809 16.8733L20.159 16.9978C17.9757 20.8332 16.0466 24.8078 14.3841 28.896C14.3094 29.0954 14.9815 28.9459 15.0811 28.8216C17.6449 24.9632 19.5616 20.7316 21.4534 16.5248C21.5281 16.3755 20.8311 16.4502 20.7315 16.6493C18.9642 20.2586 17.3462 23.9675 15.9274 27.7511C15.5042 28.8465 15.1059 29.9665 14.7326 31.0868C14.6579 31.2858 15.3549 31.1612 15.4544 30.9871C17.2467 27.2035 19.1136 23.4697 20.9556 19.7359C21.5032 18.6158 22.0508 17.4956 22.5735 16.3755L21.8517 16.4999C19.9848 20.6071 17.9934 24.6645 16.5248 28.921C16.0767 30.1656 15.7034 31.4102 15.3549 32.6797C15.2802 32.8788 15.9772 32.7295 16.0767 32.5554C18.1926 28.2988 20.3582 24.0422 22.1753 19.6114C22.2499 19.4372 21.553 19.5119 21.4534 19.7359C19.5014 24.3555 17.8712 29.1046 16.5746 33.9492C16.5248 34.1483 17.2218 34.024 17.2964 33.8249L21.8268 21.9513L21.1049 22.0757C19.4123 26.5563 17.8938 31.1114 16.5497 35.7415C16.4999 35.9406 17.1969 35.7913 17.2715 35.6169C18.8149 31.9329 20.4079 28.249 21.9761 24.5898L21.2543 24.6894C20.4328 26.7057 19.6861 28.7219 19.014 30.788C18.3419 32.8538 17.7694 34.9449 17.2467 37.0608C17.172 37.2599 17.869 37.1104 17.9436 36.9362C19.3343 33.9179 20.5153 30.8074 21.4783 27.6267C21.553 27.4524 20.8311 27.552 20.7813 27.7511C19.5165 31.3524 18.4691 35.0265 17.6449 38.7534C17.5951 38.9774 18.2921 38.8282 18.3419 38.6538C19.2878 36.0898 20.2337 33.551 21.1547 30.9871L20.4577 31.1114C19.711 34.0489 18.9891 36.9861 18.2672 39.9482C18.1926 40.1722 18.8895 39.998 18.9642 39.8236L21.4783 34.6212L20.7564 34.7458C20.135 36.9525 19.7101 39.2099 19.4869 41.4916C19.462 41.7405 20.1341 41.5414 20.1839 41.3919L21.2294 38.8778L20.5324 38.9774L19.935 42.9602C19.9101 43.1842 20.632 43.0596 20.6569 42.8605L21.2294 38.8778C21.2792 38.6288 20.6071 38.8282 20.5324 38.9774L19.4869 41.4916L20.1839 41.3919C20.4276 39.1031 20.8606 36.8385 21.4783 34.6212C21.5281 34.4221 20.8311 34.5716 20.7564 34.7458L18.2672 39.9482L18.9642 39.8236C19.711 36.8864 20.4328 33.9492 21.1547 30.9871C21.2045 30.788 20.5075 30.9123 20.4577 31.1114C19.5118 33.6504 18.5659 36.2144 17.6449 38.7534L18.3419 38.6538C19.186 34.9238 20.2331 31.2426 21.4783 27.6267L20.7813 27.7511C19.8031 30.9267 18.6225 34.0363 17.2467 37.0608L17.9436 36.9362C18.4913 34.8452 19.0638 32.7544 19.7359 30.6883C20.4079 28.6225 21.1547 26.5812 21.9761 24.5898C22.0259 24.4156 21.3289 24.4903 21.2543 24.6894C19.6861 28.3733 18.1179 32.0326 16.5497 35.7415L17.2715 35.6169C18.6157 31.0204 20.1341 26.465 21.8268 21.9513C21.9015 21.777 21.2045 21.8766 21.1049 22.0757L16.5746 33.9492L17.2964 33.8249C18.5856 28.978 20.216 24.2283 22.1753 19.6114L21.4534 19.7359C19.6612 24.1418 17.4956 28.3982 15.3549 32.6797L16.0767 32.5554C17.2467 28.1991 19.0389 24.0422 20.9307 19.9599L22.5735 16.3755C22.6482 16.2261 21.9512 16.3008 21.8517 16.4999C20.0595 20.2586 18.1926 23.9924 16.3505 27.7511C15.8029 28.8711 15.2553 29.9665 14.7326 31.0868L15.4544 30.9871C16.7493 27.1606 18.2449 23.405 19.935 19.7359C20.4328 18.6655 20.9307 17.5952 21.4534 16.5248L20.7315 16.6493C18.8646 20.8311 16.948 25.0379 14.409 28.8465L15.1059 28.7966C16.7683 24.7003 18.6974 20.7173 20.8809 16.8733C20.9556 16.7489 20.632 16.7737 20.5822 16.7737C20.4191 16.7961 20.2692 16.8755 20.159 16.9978L13.5875 27.2782C13.5129 27.4026 13.8116 27.3777 13.8365 27.3777C13.9154 27.3809 13.9941 27.367 14.0671 27.3369C14.1401 27.3069 14.2058 27.2613 14.2596 27.2035C15.9523 24.9383 17.4209 22.474 18.8646 20.0346L20.9556 16.4253C21.0302 16.3008 20.7315 16.3257 20.7066 16.3257C20.5418 16.3309 20.3836 16.3924 20.2586 16.4999C17.447 19.4896 14.8517 22.6755 12.4923 26.0336L13.1644 25.9838C14.1352 22.5985 16.2261 19.7359 18.2672 16.948C18.3419 16.8235 18.1677 16.7986 18.0681 16.7986C17.8942 16.7957 17.7255 16.8578 17.5951 16.9729C15.3504 19.0355 13.4659 21.4584 12.0193 24.1418L12.7412 24.0173C13.1146 21.3041 14.9317 19.1385 16.6492 17.1222C16.7239 17.0227 16.5746 16.9729 16.4999 16.9729C16.3306 16.9727 16.1654 17.0249 16.0269 17.1222C13.9938 18.6524 12.2491 20.532 10.8743 22.6732L11.5962 22.5487C12.1116 20.7075 13.1387 19.0502 14.5583 17.7694C14.6579 17.6699 14.5085 17.6201 14.4588 17.6201C14.3024 17.6017 14.1445 17.6368 14.0107 17.7196C12.6666 18.3525 11.5152 19.332 10.6752 20.5573C10.5258 20.7814 11.2228 20.6818 11.3473 20.5324Z" fill="#1E1D1C"/>
<path d="M10.9241 16.5497L10.6254 17.5453C10.5507 17.7445 11.2228 17.5453 11.2975 17.4458C11.811 16.8528 12.3963 16.326 13.0399 15.8776L12.3927 15.9274C12.2678 16.4079 12.1927 16.9001 12.1687 17.396C12.1687 17.5702 12.8159 17.3711 12.8657 17.2715C13.4064 16.5272 13.9969 15.8204 14.633 15.1557L13.936 15.2304C13.8362 15.8452 13.6431 16.4412 13.3635 16.9977C13.2889 17.1222 13.6125 17.0973 13.6622 17.0973C13.7444 17.0912 13.8244 17.0681 13.8972 17.0295C13.9701 16.991 14.0341 16.9378 14.0854 16.8733L15.1558 15.33L14.4339 15.4544L13.9609 17.2466C13.9112 17.4707 14.5832 17.2466 14.6579 17.172L16.5497 15.0064L15.8527 15.081L15.3549 16.9977C15.3051 17.2218 15.9772 16.9977 16.0519 16.923C16.6905 16.1616 17.2729 15.3546 17.7943 14.5085L17.0724 14.633L16.724 16.8982C16.6991 17.1222 17.3711 16.923 17.4458 16.7737L19.1385 13.712L18.4166 13.8613C18.3262 14.8306 18.1849 15.7944 17.9934 16.7488C17.9437 16.9479 18.6406 16.7986 18.7153 16.6243C19.1137 15.5994 19.6407 14.6291 20.2835 13.7369L19.5616 13.8862C19.487 14.9317 19.3874 15.9523 19.2132 16.9977C19.1883 17.1969 19.8603 17.0475 19.935 16.8733C20.4164 15.5867 21.0428 14.359 21.8019 13.2141L21.0801 13.3386L20.2337 16.5248C20.1839 16.7239 20.8809 16.5995 20.9556 16.4252C21.3603 15.1511 21.9653 13.9495 22.7478 12.8657L22.0757 12.9652L21.2792 16.002C21.2294 16.2012 21.9015 16.0518 22.0011 15.8776L23.6688 12.3927L22.947 12.5172C22.8189 13.2704 22.6016 14.0057 22.2998 14.7077C22.2251 14.857 22.9221 14.7574 22.9967 14.5832L24.4156 12.1687L23.6937 12.2931L23.3203 13.9111C23.2705 14.1351 23.9675 13.936 24.0422 13.8115L25.3366 11.8451L24.6147 12.0193V12.8408C24.6396 13.0399 25.2868 12.7661 25.3366 12.6665L25.8344 11.9695C25.9091 11.8451 25.5606 11.87 25.5357 11.87C25.3754 11.8835 25.2252 11.9542 25.1126 12.0691L24.6147 12.791L25.3366 12.6416V11.8202C25.3117 11.6211 24.6894 11.87 24.6147 11.9695L23.3203 13.9111L24.0422 13.8115L24.4156 12.1687C24.4654 11.9695 23.7933 12.1687 23.6937 12.2931L22.2998 14.7077L22.9967 14.5832C23.3176 13.8863 23.5436 13.1496 23.6688 12.3927C23.6937 12.1687 23.0216 12.3678 22.947 12.5172L21.2792 16.002L22.0011 15.8776L22.7976 12.8408C22.8474 12.6167 22.1753 12.8159 22.1006 12.9154C21.2848 14.0081 20.6541 15.2275 20.2337 16.5248L20.9556 16.4252L21.8019 13.2141C21.8517 13.015 21.1547 13.2141 21.0801 13.3386C20.3304 14.489 19.7046 15.7156 19.2132 16.9977L19.935 16.8733C20.1093 15.8278 20.2088 14.7574 20.2835 13.712C20.2835 13.5128 19.6114 13.7618 19.5616 13.8613C18.9375 14.7652 18.4118 15.7332 17.9934 16.7488L18.7153 16.6243C18.8896 15.6536 19.0389 14.6579 19.1385 13.6622C19.1385 13.488 18.4913 13.712 18.4166 13.8364L16.724 16.8982L17.4458 16.7737L17.7943 14.5085C17.8192 14.2845 17.1471 14.5085 17.0724 14.633C16.5737 15.4442 16.0163 16.218 15.4047 16.9479L16.0768 16.8733L16.5746 14.9566C16.6244 14.7326 15.9523 14.9566 15.8776 15.0313L13.9858 17.2218L14.6828 17.1222L15.1558 15.33C15.2055 15.1059 14.5335 15.33 14.4339 15.4544L13.3635 16.9977L14.0854 16.8733C14.365 16.3167 14.5581 15.7207 14.6579 15.1059C14.7077 14.8819 14.0605 15.1059 13.9858 15.1806C13.3423 15.8474 12.7514 16.5631 12.2185 17.3213L12.8906 17.1969C12.9146 16.7255 12.9897 16.2581 13.1146 15.8029C13.1644 15.5789 12.5421 15.8029 12.4674 15.8278C11.7929 16.3038 11.1822 16.8643 10.6503 17.4956L11.3473 17.4209L11.646 16.4252C11.6958 16.251 10.9988 16.3505 10.9241 16.5497Z" fill="#1E1D1C"/>
<path d="M40.023 18.2424L41.2676 14.1601L37.7578 17.3462L33.5757 6.31909L35.0197 17.869L29.9665 16.8235L33.3767 19.5119L24.5898 22.5487L34.2729 21.6526V25.9589L36.4385 22.5487L39.4255 35.3679L38.4547 22.25L42.5369 24.5898L40.023 20.7565L49.2577 16.7239L40.023 18.2424Z" fill="#FFD809"/>
<path d="M44.2546 14.5833L44.5035 14.1601H44.802L44.8767 14.2597C44.777 13.9859 44.8269 13.4631 45.2253 13.4631C45.6235 13.4631 45.5241 13.5876 45.6982 13.6374C45.7984 13.6707 45.9052 13.6791 46.0093 13.6618C46.1135 13.6444 46.2118 13.6019 46.2955 13.5378C46.6192 13.3138 46.6192 12.9653 46.6441 12.6417C46.669 12.3181 46.669 12.5421 46.669 12.4923C46.669 12.4426 46.6939 12.4426 46.5942 12.4923L46.7684 12.5421C46.9203 12.5988 47.0798 12.6323 47.2416 12.6417C47.4163 12.6535 47.5903 12.6092 47.738 12.5151C47.8858 12.4211 47.9996 12.2823 48.0628 12.119L48.1376 11.7207C48.1376 11.6709 48.1625 11.5962 48.1625 11.5464C48.1614 11.533 48.163 11.5194 48.1673 11.5065C48.1715 11.4937 48.1785 11.4819 48.1874 11.4718C48.0133 11.4967 47.9634 11.5464 48.0878 11.5713C48.2352 11.6749 48.4081 11.7366 48.5878 11.7498C48.7676 11.763 48.9474 11.7271 49.1084 11.646C49.2886 11.5076 49.4336 11.3285 49.5314 11.1233L49.9548 10.501C50.0542 10.3516 49.8551 10.2272 49.7308 10.2023C49.6392 10.1947 49.5471 10.2115 49.4642 10.2508C49.3811 10.2902 49.3099 10.3507 49.2576 10.4263L48.9342 10.9241L48.7847 11.1731L48.6853 11.2726C48.8594 11.2726 48.9093 11.2477 48.8345 11.2228H48.7598C48.6347 11.1349 48.4906 11.0778 48.3392 11.0562C48.1878 11.0346 48.0334 11.049 47.8887 11.0984C47.7635 11.1463 47.6535 11.2271 47.5703 11.3322C47.4871 11.4373 47.4337 11.5629 47.4158 11.6958C47.3908 11.8203 47.3908 11.9447 47.3659 12.0443C47.3537 12.0874 47.337 12.1291 47.3161 12.1687C47.3161 12.1687 47.4158 12.1687 47.4158 12.1438H47.341C46.7684 11.8949 45.997 12.0194 45.9222 12.7413C45.8935 12.8806 45.8768 13.0222 45.8724 13.1644V13.2391C45.8724 13.2391 46.0964 13.2391 46.0466 13.1644C45.9602 13.1128 45.8684 13.071 45.7727 13.04C45.4317 12.9494 45.0695 12.9848 44.7524 13.1395C44.5886 13.2207 44.4466 13.3399 44.3383 13.4871C44.2301 13.6344 44.1586 13.8054 44.1299 13.9859C44.0955 14.1612 44.1129 14.3429 44.1798 14.5086C44.2343 14.5853 44.3129 14.6417 44.4031 14.6687C44.4932 14.6958 44.5899 14.692 44.6776 14.6579C44.802 14.633 45.1007 14.4339 44.9266 14.2597C44.7026 14.0107 44.0303 14.3095 44.2792 14.5584L44.2546 14.5833ZM40.0725 26.3572C40.2936 26.5325 40.5626 26.6367 40.8442 26.6559C40.9564 26.6889 41.0589 26.7487 41.1429 26.8301C41.2675 26.9795 41.1928 27.1786 41.1678 27.328C41.125 27.4778 41.1336 27.6377 41.1922 27.7821C41.2509 27.9264 41.3563 28.047 41.4915 28.1244C41.7654 28.249 42.1137 28.0499 42.2632 28.4231C42.4124 28.7967 42.2632 28.7717 42.3128 28.921C42.3377 28.9927 42.3769 29.0585 42.4284 29.1142C42.4796 29.1699 42.5421 29.2144 42.6115 29.2447C42.7783 29.3379 42.9685 29.381 43.1592 29.369C43.3154 29.3404 43.4734 29.3236 43.6321 29.3194C43.9309 29.3939 43.9807 29.8917 44.105 30.1157C44.1687 30.2702 44.2808 30.3998 44.4245 30.4851C44.5681 30.5704 44.7355 30.6069 44.9016 30.5889C45.0509 30.564 45.2752 30.4643 45.2998 30.2902C45.3247 30.1157 45.1007 30.0662 44.9764 30.0911C44.8518 30.1157 44.6776 29.5185 44.6029 29.369C44.5463 29.2237 44.4518 29.0963 44.3293 28.9999C44.2067 28.9036 44.0605 28.842 43.906 28.8216C43.7231 28.8168 43.54 28.8252 43.3583 28.8465C43.3012 28.8683 43.2379 28.8706 43.1794 28.8527C43.1207 28.8346 43.0698 28.7973 43.0349 28.7468C42.985 28.5976 43.0349 28.4231 42.985 28.2739C42.9527 28.1155 42.8643 27.9741 42.7361 27.8756C42.6228 27.7758 42.4855 27.7072 42.3377 27.6765H41.9146C41.9644 27.6765 41.9644 27.6516 41.9395 27.6516C41.9146 27.6516 41.8897 27.3529 41.9146 27.2284C41.9515 27.0561 41.9515 26.878 41.9146 26.7057C41.7155 26.1083 41.0186 26.2825 40.6202 25.9589C40.222 25.6353 39.7491 26.0834 40.0725 26.3572ZM32.4061 23.7684C32.2596 23.7043 32.1015 23.671 31.9416 23.6704C31.7817 23.6698 31.6234 23.702 31.4765 23.765C31.3295 23.828 31.1969 23.9205 31.087 24.0366C30.9772 24.1528 30.8924 24.2903 30.8378 24.4405C30.7866 24.6014 30.7613 24.7695 30.763 24.9383C30.763 25.013 30.788 25.0877 30.788 25.1624V25.2619C30.763 25.3117 30.788 25.3117 30.8129 25.3117C30.8378 25.3117 30.8627 25.3366 30.8129 25.3366C30.763 25.3366 30.6387 25.3117 30.564 25.3117C30.4744 25.2861 30.3797 25.2861 30.2901 25.3117C30.1029 25.3195 29.9218 25.3799 29.7674 25.486C29.6521 25.5735 29.5585 25.6864 29.4938 25.8159C29.4291 25.9454 29.395 26.088 29.3941 26.2327C29.403 26.4188 29.4364 26.603 29.4935 26.7803C29.5218 26.8605 29.5386 26.9444 29.5434 27.0293C29.5613 27.0682 29.5699 27.1109 29.5683 27.1537C29.5932 27.2533 29.5434 27.2782 29.6929 27.2284C29.8421 27.1786 29.643 27.1786 29.5434 27.1786H28.6723C28.3735 27.2035 28 27.3031 27.9005 27.6267C27.8009 27.9503 28 28.2241 27.8756 28.5228C27.8458 28.6529 27.7672 28.7667 27.6561 28.8406C27.5451 28.9147 27.4098 28.9435 27.2782 28.921C27.1915 28.8972 27.1001 28.8961 27.0129 28.9179C26.9257 28.9398 26.8456 28.9837 26.7804 29.0456C26.6808 29.1699 26.7057 29.2945 26.855 29.3443C27.552 29.5434 28.4729 29.0954 28.6474 28.3487C28.6644 28.1823 28.656 28.0143 28.6224 27.8507V27.6267C28.6474 27.5271 28.5975 27.5271 28.4729 27.6516H29.419C29.6503 27.6736 29.883 27.6305 30.091 27.5271C30.4892 27.2533 30.2403 26.7803 30.1658 26.4319C30.1003 26.2449 30.1092 26.0399 30.1907 25.8593C30.2403 25.7598 30.2403 25.7598 30.34 25.7847H30.6886C31.0867 25.7598 31.5347 25.5606 31.5098 25.1126C31.489 24.8873 31.5059 24.6602 31.5596 24.4405C31.5846 24.316 31.6842 24.0671 31.8584 24.1418C31.9389 24.1758 32.0267 24.189 32.1137 24.1803C32.2006 24.1716 32.284 24.1412 32.3562 24.092C32.4556 24.0173 32.5802 23.8431 32.4061 23.7684ZM20.3581 12.5172C20.4265 12.3214 20.537 12.143 20.6817 11.9945C20.7813 11.9198 20.7066 11.8949 20.7813 11.9945C20.856 12.0941 20.856 12.1438 20.8809 12.2185C20.9671 12.5861 21.0172 12.9613 21.0302 13.3387C21.049 13.4862 21.1244 13.6207 21.2405 13.7136C21.3567 13.8065 21.5044 13.8506 21.6525 13.8365C22.0508 13.8116 22.2499 13.5627 22.4739 13.2889L22.5237 13.2142C22.5984 13.1146 22.5984 13.1146 22.5735 13.2391C22.6215 13.3154 22.6552 13.3997 22.6731 13.488C22.6856 13.6787 22.6856 13.8699 22.6731 14.0605C22.6692 14.2157 22.7192 14.3674 22.8145 14.4899C22.9097 14.6124 23.0445 14.6982 23.1958 14.7326C23.5194 14.8073 23.7932 14.633 24.0421 14.5086C24.2911 14.3841 24.4902 15.0562 24.4653 15.33C24.4404 15.6038 24.7391 15.6038 24.8885 15.5541C25.4112 15.3798 26.0335 15.4296 26.3322 15.9274C26.6309 16.4253 27.1785 15.9523 26.9794 15.6287C26.5313 14.882 25.5108 14.8073 24.764 15.0562L25.2121 15.2802C25.237 14.8322 25.237 14.3343 24.8387 14.0605C24.4404 13.7867 24.0421 13.9112 23.6688 14.1103L23.4696 14.2348C23.4447 14.2099 23.4198 13.961 23.3949 13.9112C23.4239 13.6873 23.4155 13.4602 23.3701 13.2391C23.3468 13.1387 23.3037 13.044 23.2432 12.9605C23.1827 12.8771 23.1061 12.8066 23.0179 12.7532C22.9298 12.6999 22.8318 12.6647 22.7298 12.6498C22.6278 12.635 22.5239 12.6407 22.4242 12.6666C22.2285 12.7198 22.0544 12.833 21.9263 12.9902C21.8518 13.0603 21.7925 13.1451 21.7521 13.2391C21.7023 13.2889 21.7023 13.3138 21.8019 13.3138C21.7742 13.2594 21.7573 13.2003 21.7521 13.1395C21.7272 12.9404 21.7521 12.7164 21.7272 12.4923C21.6873 12.2532 21.6205 12.0194 21.528 11.7954C21.4515 11.6209 21.3092 11.4838 21.132 11.4138C20.9548 11.3439 20.7572 11.3468 20.5821 11.422C20.3695 11.5197 20.1799 11.6611 20.0255 11.8369C19.8711 12.0127 19.7554 12.2191 19.686 12.4426C19.5367 12.8408 20.2586 12.8159 20.3581 12.5172ZM28.3237 9.97824L29.9664 11.6709H30.1406L30.4144 11.5962C30.4892 11.5713 30.7132 11.4967 30.6384 11.3971L29.0206 9.70443H28.8215L28.5477 9.77911C28.4978 9.804 28.2489 9.90357 28.3237 9.97824ZM40.5952 10.725C41.123 9.49028 41.5557 8.2171 41.8897 6.91653C41.9395 6.71739 41.2426 6.81696 41.1678 7.04099C40.8489 8.33793 40.4157 9.60407 39.8734 10.8246C39.8236 10.9739 40.1223 10.949 40.1722 10.949C40.222 10.949 40.5457 10.8495 40.5952 10.725ZM47.0176 21.5281C47.8066 21.5029 48.5965 21.5278 49.3822 21.6028C49.4735 21.6079 49.5647 21.5901 49.6474 21.551C49.7299 21.5118 49.8015 21.4526 49.8554 21.3788C49.9548 21.2294 49.7806 21.1548 49.656 21.1299C48.8038 21.0508 47.947 21.0342 47.0924 21.0801C46.9678 21.0801 46.7188 21.1796 46.6939 21.3539C46.669 21.5281 46.893 21.553 47.0176 21.5281ZM27.2533 24.7392C25.9814 25.2694 24.7428 25.8762 23.5444 26.5563C23.4448 26.6061 23.3204 26.7057 23.4697 26.7803C23.5531 26.8049 23.6409 26.8109 23.7269 26.798C23.8129 26.7851 23.895 26.7536 23.9675 26.7057C25.121 26.0522 26.3093 25.4622 27.5271 24.9383C27.6018 24.9134 27.8258 24.8139 27.7262 24.7143C27.6267 24.6147 27.3529 24.6894 27.2533 24.7392ZM36.0651 31.012L35.6667 33.5511C35.6418 33.7003 35.8907 33.6505 35.9405 33.6255L36.2393 33.5511C36.2642 33.5261 36.3636 33.4763 36.3636 33.4265L36.787 30.8874C36.8119 30.7631 36.563 30.8129 36.4882 30.8129L36.2144 30.9123C36.1894 30.9373 36.09 30.9622 36.0651 31.012ZM42.2134 31.1363L43.0349 32.1569C43.0502 32.1744 43.0695 32.188 43.0911 32.1967C43.1127 32.2053 43.136 32.2088 43.1592 32.2068H43.433L43.6819 32.1071C43.7069 32.0825 43.7816 32.0326 43.7567 32.0077L42.9352 30.9622H42.537L42.2881 31.0619C42.2881 31.0868 42.1884 31.1363 42.2134 31.1613V31.1363Z" fill="#FFD809"/>
</svg>