<?xml version="1.0" encoding="utf-8"?>
<svg xmlns="http://www.w3.org/2000/svg" fill="none" height="150" viewBox="0 0 151 150" width="151">
<g clip-path="url(#clip0_3954_7086)">
<path d="M93.8151 126.435C122.349 116.05 137.061 84.4993 126.676 55.9655C116.29 27.4317 84.7398 12.7196 56.206 23.105C27.6722 33.4905 12.9601 65.0407 23.3456 93.5745C33.731 122.108 65.2813 136.82 93.8151 126.435Z" fill="#F51700" stroke="black" stroke-width="3"/>
<path d="M55.2359 74.3115C57.7106 73.4108 58.5698 69.5293 57.155 65.642C55.7401 61.7548 52.587 59.3337 50.1122 60.2344C47.6375 61.1351 46.7783 65.0166 48.1932 68.9039C49.608 72.7912 52.7612 75.2123 55.2359 74.3115Z" fill="black"/>
<path d="M89.8653 61.7106C92.3098 60.8209 93.1444 56.9483 91.7296 53.061C90.3147 49.1737 87.1861 46.7437 84.7416 47.6335C82.2971 48.5232 81.4624 52.3957 82.8773 56.283C84.2921 60.1703 87.4208 62.6003 89.8653 61.7106Z" fill="black"/>
<path d="M108.318 75.5655L111.312 77.0529C104.674 90.4211 95.5883 99.0529 84.2601 102.721C66.5263 108.462 49.9385 99.9174 49.2418 99.5521L50.7946 96.5912C50.9534 96.6757 66.8849 104.849 83.2594 99.5315C93.6972 96.1148 102.102 88.0884 108.318 75.5655Z" fill="black"/>
<path d="M50.9937 103.567L47.7556 102.743L50.4478 92.1432L53.6854 92.9657L50.9937 103.567ZM112.952 81.0162L104.077 74.6282L106.029 71.915L114.905 78.3029L112.952 81.0162Z" fill="black"/>
</g>
<defs>
<clipPath id="clip0_3954_7086">
<rect fill="white" height="116.623" transform="translate(0 40.1453) rotate(-20)" width="117.377"/>
</clipPath>
</defs>
</svg>