<?xml version="1.0" encoding="utf-8"?>
<svg xmlns="http://www.w3.org/2000/svg" id="layer" version="1.1" viewBox="32.39 258.29 600.11 144.91" x="0" y="0">
  <defs>
    <path class="st1" d="M142.8 311c-1.5.2-3 .4-4.5.4-9.9 0-13.6-3.3-17.9-7.1-4.2-3.7-9.3-8.3-18.7-8.3H96c-6.8 0-13 2.5-17.4 6.9-4.3 4.4-6.7 10.4-6.7 16.9v7.7c0 6.5 2.4 12.5 6.7 16.9 4.4 4.5 10.6 6.9 17.4 6.9h5.6c9.4 0 14.6-4.6 18.7-8.3 4.3-3.8 8-7.1 17.9-7.1 1.5 0 3 .1 4.5.4.9-2.1 1.5-4.4 1.9-6.6v-.1c-2.1-.4-4.3-.6-6.4-.6-22.8 0-21.6 15.4-36.7 15.4H96c-10.3 0-17.1-7.4-17.1-16.9v-7.7c0-9.5 6.8-16.8 17.1-16.8h5.6c15.1 0 13.9 15.4 36.7 15.4 2.2 0 4.3-.2 6.4-.6v-.1c-.4-2.3-1-4.5-1.9-6.7" id="reuse-0"/>
  </defs>
  <style>
    .st0{fill:#006bff}.st1{fill:#0ae8f0}
  </style>
  <path class="st0" d="M388.7 315.5c9.3 0 18.1 5.7 20 18h-41.4c1.6-10.8 9.7-18 21.4-18m18.6 36.2c-3.2 4.9-9.3 8.7-17.7 8.7-11.5 0-20.4-6.3-22.5-17.5h52c.3-1.6.4-3.2.4-4.8 0-17.4-12.1-32.8-30.9-32.8-19.4 0-32.5 14.3-32.5 32.6 0 18.6 13.3 32.6 33.3 32.6 12.4 0 21.8-5.6 27.3-14l-9.4-4.8zm-67.1-73.3H351V369h-10.8v-90.6zm139.4 52.5V369h-10.8v-37.5c0-10.2-5.8-15.9-15.4-15.9-9.9 0-18 5.8-18 20.5V369h-10.8v-62h10.8v8.9c4.6-7.3 11.4-10.5 20.1-10.5 14.6-.1 24.1 9.6 24.1 25.5m59.5 7c0-12.7-9.6-22.2-22.1-22.2-12.4 0-22 9.6-22 22.2 0 12.7 9.6 22.2 22 22.2 12.6.1 22.1-9.5 22.1-22.2m10.8-59.5V369h-10.8v-10.7c-5 7.6-12.9 12.3-23.5 12.3-17.2 0-31.4-14.3-31.4-32.6s14.1-32.6 31.4-32.6c10.5 0 18.5 4.7 23.5 12.3v-39.2h10.8zm8.7 0h10.8V369h-10.8v-90.6zM321 337.9c0-12.7-9.6-22.2-22.1-22.2-12.4 0-22 9.6-22 22.2 0 12.7 9.6 22.2 22 22.2 12.5.1 22.1-9.5 22.1-22.2m10.8-31v62H321v-10.7c-5 7.6-12.9 12.3-23.4 12.3-17.2 0-31.4-14.3-31.4-32.6s14.1-32.6 31.4-32.6c10.5 0 18.5 4.7 23.4 12.3v-10.7h10.8zM250.1 357a33.72 33.72 0 0 1-43.2-19.9 33.72 33.72 0 0 1 19.9-43.2c11.2-4.1 23.8-2 33 5.6a32 32 0 0 1 5.1 5.3l9.3-6.8c-15.2-19.8-43.6-23.6-63.4-8.4s-23.6 43.6-8.4 63.4a45.24 45.24 0 0 0 63.4 8.4l.2-.2-6.2-9.8c-2.8 2.4-6.1 4.3-9.7 5.6m371.4-50.1v35.2c0 11.4-6.6 18.6-16.7 18.6s-17.4-7.2-17.4-18.6v-35.2h-10.9v34.2c0 17.9 11.2 29.5 28.4 29.5 14.9 0 17.2-9.4 17.2-9.6v12.7c0 12.6-5.5 19.6-16.9 19.6-8.4 0-15.6-6.2-16.7-14.5l-9.8 3.4c2.9 12.3 13.9 21 26.5 21 17.7 0 27.3-11.6 27.3-29.5V307h-11zm-501.1 36.2c-4.1 3.7-9.3 8.3-18.7 8.3H96c-6.8 0-13-2.5-17.4-6.9-4.3-4.4-6.7-10.4-6.7-16.9v-7.7c0-6.5 2.4-12.5 6.7-16.9 4.4-4.5 10.6-6.9 17.4-6.9h5.6c9.4 0 14.6 4.6 18.7 8.3 4.3 3.8 8 7.1 17.9 7.1 1.5 0 3-.1 4.5-.4v-.1c-.6-1.5-1.3-2.9-2.1-4.3l-6.6-11.5a34.1 34.1 0 0 0-29.5-17H91.4a34.1 34.1 0 0 0-29.5 17l-6.6 11.5a33.87 33.87 0 0 0 0 34l6.6 11.5a34.1 34.1 0 0 0 29.5 17h13.2c12.2 0 23.4-6.5 29.5-17l6.6-11.5c.8-1.4 1.5-2.8 2.1-4.3v-.1c-1.5-.2-3-.4-4.5-.4-9.9.1-13.6 3.4-17.9 7.2"/>
  <path class="st0" d="M101.7 303H96c-10.3 0-17.1 7.4-17.1 16.8v7.7c0 9.5 6.8 16.8 17.1 16.8h5.6c15.1 0 13.9-15.4 36.7-15.4 2.2 0 4.3.2 6.4.6.7-3.9.7-7.9 0-11.8-2.1.4-4.3.6-6.4.6-22.8.1-21.6-15.3-36.6-15.3"/>
  <path class="st0" d="M157.8 335.2c-3.9-2.8-8.3-4.8-13.1-5.6v.1c-.4 2.3-1 4.5-1.9 6.6a24 24 0 0 1 10.8 4.5v.1c-9.5 30.8-42.1 48-72.9 38.5s-48-42.1-38.5-72.9 42.1-48 72.9-38.5a58.39 58.39 0 0 1 38.5 38.5v.1a25 25 0 0 1-10.8 4.4c.9 2.1 1.5 4.4 1.9 6.6v.1c4.7-.9 9.2-2.8 13.1-5.6 3.7-2.8 3-5.9 2.4-7.7-10.6-34.5-47.2-53.8-81.7-43.2-34.5 10.6-53.8 47.2-43.2 81.7s47.2 53.8 81.7 43.2a65.52 65.52 0 0 0 43.2-43.2c.6-1.8 1.4-4.9-2.4-7.7"/>
  <use class="st1" href="#reuse-0"/>
  <use class="st1" href="#reuse-0"/>
</svg>