<?xml version="1.0" encoding="utf-8"?>
<svg xmlns="http://www.w3.org/2000/svg" fill="none" height="119" viewBox="0 0 125 119" width="125">
<g clip-path="url(#clip0_376_33351)">
<path d="M-64 24.5C-64 70.5799 -31.0201 108.955 12.6219 117.308C13.8914 117.553 15.168 117.769 16.4515 117.961C16.8735 118.023 17.3025 118.083 17.728 118.139C21.9028 118.707 26.1682 119 30.4965 119C44.6322 119 58.0426 115.889 70.0857 110.336C71.0867 109.869 72.0842 109.391 73.0677 108.893C73.7827 108.53 74.4907 108.157 75.1953 107.78C104.841 91.8376 125 60.5247 125 24.5C125 -27.6904 82.6938 -70 30.5 -70C-21.6939 -70 -64 -27.6939 -64 24.5Z" fill="#EDEBF4"/>
<path d="M70.8301 55.8192L56.7657 66.0022" stroke="#191716" stroke-linecap="round" stroke-linejoin="round" stroke-miterlimit="10" stroke-width="0.310161"/>
<path d="M73.9527 47.1604C73.8206 37.6797 65.8058 30.1043 56.0513 30.2406C46.2969 30.3765 38.4969 38.1727 38.6289 47.6534C38.67 50.5997 39.4952 53.513 41.0233 56.0572C42.8744 59.1399 46.0344 61.4266 47.385 64.9059C47.7129 65.7511 51.5829 75.833 49.8638 75.8568C52.2463 75.6425 60.7968 75.8129 63.8871 76.0792C62.9277 76.0927 65.3713 66.8523 65.5926 66.0617C67.4827 59.3196 74.0566 54.5979 73.9527 47.1604Z" fill="#FFD14D"/>
<path d="M73.9527 47.1604C73.8206 37.6797 65.8058 30.1043 56.0513 30.2406C46.2969 30.3765 38.4969 38.1727 38.6289 47.6534C38.67 50.5997 39.4952 53.513 41.0233 56.0572C42.8744 59.1399 46.0344 61.4266 47.385 64.9059C47.7129 65.7511 51.5829 75.833 49.8638 75.8568C52.2463 75.6425 60.7968 75.8129 63.8871 76.0792C62.9277 76.0927 65.3713 66.8523 65.5926 66.0617C67.4827 59.3196 74.0566 54.5979 73.9527 47.1604Z" stroke="#191716" stroke-linecap="round" stroke-linejoin="round" stroke-miterlimit="10" stroke-width="0.310161"/>
<path d="M53.5273 74.1096L52.0068 44.9246C51.9262 43.3787 50.45 42.2759 48.9517 42.666C47.7537 42.9782 46.9945 43.7536 47.08 45.4224C47.1336 46.4608 47.8435 47.3504 48.8408 47.6447L52.3731 48.9407L59.8133 48.7691L59.7321 45.2503C59.6666 42.4236 63.6843 41.7245 64.5268 44.4235C64.5377 44.4582 64.5485 44.4933 64.5588 44.529C64.9208 45.7611 64.2763 47.0657 63.0767 47.5235L59.8138 48.7691L60.4058 74.4099" stroke="#191716" stroke-linecap="round" stroke-linejoin="round" stroke-miterlimit="10" stroke-width="0.310161"/>
<path d="M64.9319 77.867C64.9373 78.2739 64.7852 78.6462 64.5309 78.9308C64.6619 79.0693 64.7685 79.2306 64.8421 79.4081C64.9162 79.5856 64.9584 79.7793 64.9616 79.9822C64.9741 80.8588 64.2528 81.5795 63.3513 81.592L62.6831 81.6012C62.0911 82.6904 60.9223 83.4393 59.5668 83.4582L58.5274 83.4728C58.3575 83.8327 57.9874 84.0854 57.5539 84.0913L57.0875 84.0978C56.6541 84.1038 56.2769 83.8619 56.0967 83.5069L54.5914 83.528C53.2359 83.547 52.0466 82.8306 51.4249 81.7586L50.9119 81.7657C50.4611 81.7722 50.051 81.6001 49.7507 81.3166C49.4514 81.0336 49.2631 80.6396 49.2572 80.2008C49.2518 79.795 49.4038 79.4216 49.6581 79.1375C49.5272 78.9985 49.4206 78.8372 49.347 78.6603C49.2729 78.4828 49.2307 78.2891 49.2274 78.0856C49.2215 77.6419 49.4033 77.2377 49.702 76.9455C49.5488 76.8037 49.4238 76.6328 49.3362 76.4417C49.2485 76.2513 49.1987 76.0408 49.1955 75.8184C49.1831 74.9423 49.9043 74.2216 50.8058 74.2091L63.2453 74.0355C64.1467 74.023 64.8875 74.7232 64.9 75.5992C64.9059 76.043 64.7241 76.4472 64.4254 76.7399C64.5785 76.8817 64.7035 77.0521 64.7912 77.2426C64.8789 77.4347 64.9286 77.6457 64.9319 77.867Z" fill="#1C1C1C"/>
<path d="M64.9319 77.867C64.9373 78.2739 64.7852 78.6462 64.5309 78.9308C64.6619 79.0693 64.7685 79.2306 64.8421 79.4081C64.9162 79.5856 64.9584 79.7793 64.9616 79.9822C64.9741 80.8588 64.2528 81.5795 63.3513 81.592L62.6831 81.6012C62.0911 82.6904 60.9223 83.4393 59.5668 83.4582L58.5274 83.4728C58.3575 83.8327 57.9874 84.0854 57.5539 84.0913L57.0875 84.0978C56.6541 84.1038 56.2769 83.8619 56.0967 83.5069L54.5914 83.528C53.2359 83.547 52.0466 82.8306 51.4249 81.7586L50.9119 81.7657C50.4611 81.7722 50.051 81.6001 49.7507 81.3166C49.4514 81.0336 49.2631 80.6396 49.2572 80.2008C49.2518 79.795 49.4038 79.4216 49.6581 79.1375C49.5272 78.9985 49.4206 78.8372 49.347 78.6603C49.2729 78.4828 49.2307 78.2891 49.2274 78.0856C49.2215 77.6419 49.4033 77.2377 49.702 76.9455C49.5488 76.8037 49.4238 76.6328 49.3362 76.4417C49.2485 76.2513 49.1987 76.0408 49.1955 75.8184C49.1831 74.9423 49.9043 74.2216 50.8058 74.2091L63.2453 74.0355C64.1467 74.023 64.8875 74.7232 64.9 75.5992C64.9059 76.043 64.7241 76.4472 64.4254 76.7399C64.5785 76.8817 64.7035 77.0521 64.7912 77.2426C64.8789 77.4347 64.9286 77.6457 64.9319 77.867Z" stroke="#F2F0EB" stroke-linecap="round" stroke-linejoin="round" stroke-miterlimit="10" stroke-width="0.182677"/>
<path d="M49.7029 76.9466L64.423 76.6068" stroke="#F2F0EB" stroke-linecap="round" stroke-linejoin="round" stroke-miterlimit="10" stroke-width="0.182677"/>
<path d="M64.5313 78.9308L49.6618 79.2744" stroke="#F2F0EB" stroke-linecap="round" stroke-linejoin="round" stroke-miterlimit="10" stroke-width="0.182677"/>
<path d="M62.6839 81.6022L51.4279 81.862" stroke="#F2F0EB" stroke-linecap="round" stroke-linejoin="round" stroke-miterlimit="10" stroke-width="0.182677"/>
<path d="M36.6416 42.587L25.9879 40.2743" stroke="#FFB531" stroke-linecap="round" stroke-linejoin="round" stroke-miterlimit="10" stroke-width="0.245932"/>
<path d="M40.9094 35.9114L29.188 27.1861" stroke="#FFB531" stroke-linecap="round" stroke-linejoin="round" stroke-miterlimit="10" stroke-width="0.245932"/>
<path d="M42.8361 16.8245L48.3256 30.239" stroke="#FFB531" stroke-linecap="round" stroke-linejoin="round" stroke-miterlimit="10" stroke-width="0.245932"/>
<path d="M62.6843 15.9155L59.7429 28.6401" stroke="#FFB531" stroke-linecap="round" stroke-linejoin="round" stroke-miterlimit="10" stroke-width="0.245932"/>
<path d="M70.1039 34.2751L80.2837 22.2778" stroke="#FFB531" stroke-linecap="round" stroke-linejoin="round" stroke-miterlimit="10" stroke-width="0.245932"/>
<path d="M76.1026 42.587L86.646 39.3653" stroke="#FFB531" stroke-linecap="round" stroke-linejoin="round" stroke-miterlimit="10" stroke-width="0.245932"/>
</g>
<defs>
<clipPath id="clip0_376_33351">
<rect fill="white" height="119" width="125"/>
</clipPath>
</defs>
</svg>