<?xml version="1.0" encoding="utf-8"?>
<svg xmlns="http://www.w3.org/2000/svg" fill="none" height="194" width="298">
  <g clip-path="url(#a)">
    <rect fill="#FAFAFA" height="194" rx="24" width="298"/>
    <path d="M146.323 130.871a1332.93 1332.93 0 0 1-4.046 12.748c.119-5.092-1.896-9.938-4.243-14.44-1.219-2.366-2.217-3.819-4.757-4.831 3.912.157 8.639 2.031 13.046 6.523Z" fill="#ECECEC"/>
    <path d="M142.277 143.617a3810.426 3810.426 0 0 1-5.515 16.991c-4.098 1.698-9.543 5.774-12.952 8.072-1.583 1.069-2.727 2.524-3.687 4.135a24.905 24.905 0 0 0-5.874 1.644c-1.157.48-7.024 3.038-7.024 4.5a317.906 317.906 0 0 0-1.204-28.278c-1.432-16.246-1.942-16.228-4.033-23.981-.38-1.445-.144-2.152 1.658-2.538 1.055-.23 13.682-1.806 13.668-1.319-.04 1.286.65 2.165 1.584 2.937 2.418 2.012 6.24 1.402 7.903-.738.224-.284.724-.995.772-1.482a.307.307 0 0 1 .338-.284c1.786.176 3.688.399 5.366 1.069 2.539 1.013 3.538 2.466 4.757 4.831 2.35 4.509 4.361 9.351 4.243 14.441Z" fill="#ECECEC"/>
    <path d="M101.945 125.141c-.963-.296-9.473 16.484-15.828 29.335-3.859 7.803-.333 17.241 7.699 20.598 9.802 4.098 20.903 8.613 20.968 8.08.118-.956 10.491-15.482 10.491-15.482s-18.924-9.702-18.733-10.148c.192-.446 6.952-17.455 6.952-17.455l-11.549-14.928Z" fill="#ECECEC"/>
    <path d="M295.385 291.85c-1.419-4.127-3.374-5.762-7.49-7.665-4.553-2.102-12.489-1.379-16.187 1.268-3.118-1.675-7.033-3.555-7.213-3.575-3.155-1.415-4.735-2.068-10.445-5.739l-13.475-13.063-12.935-19.919c1.906-1.203 20.65-12.995 19.156-14.769-14.023-16.627-26.267-23.829-37.243-31.639-14.83-10.551-12.02-7.965-20.375-13.468a.325.325 0 0 0 .193-.196l14.494-47.001a.338.338 0 0 0-.26-.432c-19.915-3.794-52.992-9.963-56.007-9.63-.037-.014-2.734.658-3.846.929-.12.301-.231.606-.341.911-3.127-2.309-6.726-3.7-10.061-3.849-1.689-.663-3.595-.895-5.4-1.073a.63.63 0 0 0-.329.062l-.318-10.156c.398-.148.799-.312 1.2-.504l.002-.001c12.053-5.863 7.142-23.464 4.835-29.955 1.268-.445 2.522-.93 3.755-1.408a.474.474 0 0 0 .245-.668c-2.252-4.195-2.89-8.512-7.18-10.852-3.272-1.784-7.89-2.35-12.027-1.957-2.838-4.422-9.072-5.113-13.547-3.5-9.42 3.397-14.165 14.411-23.435 17.648-4.428 1.544-9.644.955-13.614-1.54-.376-.239-.74.334-.36.573 2.64 1.66 5.716 2.513 8.8 2.513 13.177 0 18.038-14.664 28.839-18.557 3.89-1.402 9.162-.98 12.046 2.305-3.884-1.788-8.471-1.78-12.161.563-3.647 2.32-5.785 6.326-8.445 9.73-9.838 12.591-27.198 17.037-42.007 10.306.44.199-.315 10.854 10.238 12.457-5.427 2.044-12.167-.392-15.029-5.433.67 1.184.433 3.89.616 5.264.748 5.549 1.636 11.119 4.46 14.69 7.524 9.496 17.663 14.825 35.443 12.316 10.122-1.434 20.045-5.454 24.309-14.656.309.12 1.056.47 2.536.895l.3 9.382c-2.313-.231-13.436 1.35-13.548 1.375-.732.158-1.452.396-1.83 1.006-.923.722-3.882 5.119-15.931 29.485-3.952 7.99-.35 17.625 7.871 21.061a946.89 946.89 0 0 0 11.98 4.924c-.924 3.882-.696 7.909.623 11.187-.094-.087-.164-.183-.178-.288.633 5.24 2.936 7.511 5.349 9.173l-128.79 1.2a.376.376 0 0 0-.335.294c-.23 1.663-20.18 45.904-30.697 69.065a.34.34 0 0 0-.03.148l1.96 85.88a.339.339 0 0 0 .338.331l166.156-.003c.35.252.742.436 1.165.541l26.025 1.13c1.518.365 3.044-.37 3.77-1.671h40.409a.338.338 0 0 0 .339-.338v-84.408c0-.032-.01-.061-.019-.091-.002-.009 0-.019-.003-.028l-5.73-15.167c3.371-.65 13.828-3.026 16.919-3.861l9.823 14.55 5.213 14.788a.326.326 0 0 0-.27.43l9.68 29.664c-1.561.583-2.518 2.237-2.125 3.935l.129.535a3.401 3.401 0 0 0 3.762 2.612l43.645-5.779a3.354 3.354 0 0 0 1.475-.568l22.655-15.53c2.603-1.797 1.544-5.833-1.537-6.189Zm-7.774-7.05c3.957 1.829 5.741 3.283 7.125 7.239-3.627 2.539-12.009 8.397-17.865 11.885-4.529-4.723-6.296-11.858-4.417-18.147 3.683-2.342 11.062-2.868 15.157-.977Zm-15.961 1.366a18.933 18.933 0 0 0-.493 6.862l-9.166-4.207a.334.334 0 0 0 .032-.175c-.265-2.26.707-4.596 2.476-6.024 5.208 2.348 6.665 3.413 7.151 3.544Zm-7.83-3.849c-1.731 1.54-2.682 3.893-2.479 6.206l-3.44-1.579-1.864-.935a.332.332 0 0 0 .067-.228c-.207-2.405.827-4.536 2.834-5.864 1.878 1.056 3.078 1.596 4.882 2.4Zm-19.28.992c-1.869-3.904-7.987-16.707-9.019-18.881l3.428-.567c.019.085-.645-.921 10.894 16.602-1.571 1.238-3.364 2.17-5.303 2.846Zm-18.836.916-7.672-16.904 2.956-.489c.629 1.331 6.566 13.798 8.488 17.832a65.463 65.463 0 0 1-3.772-.439Zm-12.483-16.795-15.627-23.143c6.708-4.582 15.217-8.316 23.012-10.719l19.14 29.475-26.525 4.387Zm-12.033-42.897c.089-.019.083-.004.162-.082 10.34-5.375 21.933-7.978 33.358-7.753a136.774 136.774 0 0 1 11.128 11.605c-16.653.933-35.487 6.379-48.822 15.56-.085.024-7.556 4.918-12.905 12.5-1.459-4.855-2.875-9.734-4.299-14.482 5.901-7.132 13.265-13.102 21.378-17.348Zm49.183 55.5c-1.807-2.743-10.04-15.263-10.717-16.289l.545-.09 13.205 12.803a15.033 15.033 0 0 1-3.033 3.576Zm-20.117 4.69c-1.895-3.975-7.623-16.003-8.572-18.006l3.813-.631c.84 1.774 7.658 16.094 8.936 18.779a51.392 51.392 0 0 1-4.177-.142Zm4.919.127a41465.08 41465.08 0 0 1-8.984-18.879l3.871-.64c.116.384 9.126 19.134 9.162 19.207a37.849 37.849 0 0 1-4.049.312Zm4.751-.412c-1.752-3.662-8.462-17.709-9.179-19.22l4.082-.675c.728 1.541 7.089 14.852 9.064 18.977a27.101 27.101 0 0 1-3.967.918Zm14.025-7.559a112.475 112.475 0 0 0 4.348 2.672c-2.001 1.452-3.041 3.661-2.87 6.152l-6.946-3.483c2.363-1.416 4.176-3.249 5.468-5.341ZM209.16 197.3c10.579 7.527 15.75 10.45 24.806 18.719-11.309-.087-22.622 2.521-32.727 7.729a134.924 134.924 0 0 0-30.029-36.312c-2.499-2.127-5.248-4.073-8.328-3.97-.452.016-.411.7.024.677 2.989-.112 5.634 1.909 7.866 3.808a134.257 134.257 0 0 1 29.863 36.106c-7.968 4.21-15.206 10.073-21.057 17.054-3.379-11.245-10.356-31.23-13.596-36.69-1.5-2.62-1.413-2.895-6.176-3.165-1.723-6.338-4.017-12.48-7.241-18.248.444-.551.664-1.205.709-1.903 13.132.789 23.358 1.436 34.642 2.148 9.24 6.151 6.301 3.417 21.244 14.047Zm-62.456-14.049-8.319-3.261c-.414-.164-.665.465-.247.63l7.447 2.919c.092.188.731.474 1.133.902.534.573 2.177 2.592.912 4.51-.557.849-1.507 1.217-2.996 1.14-1.207-.058-2.372-.681-3.483-1.11-.166-.096-.028.083-3.148-1.854a89.466 89.466 0 0 0-2.906-1.754c-.391-.221-.723.367-.335.588 1.902 1.085 3.72 2.305 5.681 3.43 1.119 2.758-.398 4.688-3.289 4.296-2.753-.386-10.492-5.471-19.433-10.462.427-.302.779-.711 1.088-1.141.051-.07 6.601-6.534 6.207-13.469l.486-.681c3.51-2.453 7.189-5.056 10.938-6.805-.297 1.361 1.434 2.574 2.892 2.442 1.016-.09 1.926-.796 2.188-1.391.694 1.319.587 2.881-.09 3.965-1.285 2.014-4.064 2.404-4.267 2.59-1.307.008-4.521.029-5.706-.093-.444-.047-.515.627-.069.673 4.758.491 14.852-.668 17.891.931 2.62 1.369 2.358 4.003-.078 5.102-.825.374-1.737.345-2.661.337-3.341-.496-6.071-.985-8.546-1.535-.442-.091-.579.563-.146.66 7.961 1.769 10.83 1.408 12.952 2.962 1.826 1.327 1.83 3.021 1.803 2.953-.004.068.092.592-.255 1.365-.411.917-1.319 1.432-2.776 1.573-.951.092-1.939-.168-2.868-.412Zm-41.32-3.787c-.167-6.729 3.326-13.407 8.965-17.088 1.082.574 2.308 1.218 3.694 1.941-4.009 3.386-7.119 7.896-8.878 12.953-.322.929-1.147 2.583-.81 3.373-.868-.34-1.854-.731-2.971-1.179Zm31.898-18.509a.335.335 0 0 0 .136-.216c.608-.187 1.123-.248 1.587-.182 1.006.152 1.718.524 2.213 1.155a.33.33 0 0 0-.291.159c-.346.573-.98.966-1.655 1.026-1.585.141-2.682-1.447-1.99-1.942Zm10.711-34.341c3.324 0 34.245 5.658 55.114 9.632l-14.304 46.384c-12.595-.794-22.361-1.413-35.549-2.204-.21-1.704-1.634-3.509-4.345-4.255 3.262-.9 4.149-4.712.684-6.524-2.258-1.188-7.619-.944-10.373-.927 6.123-2.664 3.309-10.198-1.919-8.655 1.044-3.204 10.062-30.833 10.613-33.449l.079-.002Zm-4.815 1.915c-.061.179-1.744 5.293-2.13 6.5-1.026-2.834-3.477-8.495-6.008-10.156 2.758.468 5.611 1.75 8.138 3.656Zm-25.331-4.572-.307-9.567c1.999 2.363 8.141 4.891 9.283 4.747l.158 5.032c-1.023 1.81-2.914 2.582-4.899 2.492-2.073-.111-3.753-1.527-4.235-2.704Zm-8.58-15.722c-2.697-2.468-3.68-5.108-4.34-7.592a.339.339 0 0 0-.6-.113c-1.699 2.31-5.636 2.218-8.02-1.1-1.956-2.73-2.642-7.139-.06-9.933 1.093-1.182 3.549-1.862 4.75-.942a.331.331 0 0 0 .172.062c.083 2.74.599 5.466 1.558 8.035.175.468.451.98.952.98.623-.002.905-.883.79-1.526-.49-2.739 1.78-9.717 2.866-12.042.46-.987 1.851-2.437 2.026-3.437-.345 1.967.466 3.324.18 4.358-.083.298-.258.562-.256.867 1.756.105 6.719-5.15 6.461-8.393.345 1.946-.578 4.678-1.327 6.402 3.876 1.608 13.912.218 18.281-1.255 2.259 6.345 7.072 23.502-4.489 29.126-6.172 2.949-14.14.915-18.944-3.497ZM86.42 154.623c8.588-17.368 14.563-28.531 15.644-29.236a.339.339 0 0 0 .307-.239c.002-.006 0-.013.002-.019.268-.349.794-.517 1.344-.636 1.09-.237 11.607-1.515 13.26-1.403.091 2.322 2.708 4.121 5.072 4.246 2.263.105 4.46-.839 5.555-2.902.101-.163.261-.55.274-.82 1.781.175 3.655.4 5.273 1.046 2.455.978 3.397 2.373 4.583 4.674 1.068 2.049 2.163 4.328 2.969 6.77a3719.504 3719.504 0 0 1-8.605 26.596c-2.111 1.28-4.826 3.18-6.845 4.579a885.549 885.549 0 0 1-11.671-6.092l.473-22.308-.37.917a.331.331 0 0 0-.506.146c-.067.17-6.761 17.009-6.949 17.446-.073.172.004.432.254.481.584.494 2.318 1.553 7.195 4.151-5.573 3.791-9.038 10.434-8.972 17.171a898.507 898.507 0 0 1-10.762-4.431c-7.862-3.286-11.302-12.499-7.525-20.137Zm19.881 25.939c6.396 2.548 7.941 2.966 8.412 2.966a.37.37 0 0 0 .173-.034c.721.223 1.405.322 2.103.097 5.259 2.916 11.79 6.948 16.451 9.372 1.492.77 2.815 1.456 4.49 1.456 2.454 0 4.162-1.871 3.361-4.652 1.058.433 2.113.943 3.311.999 1.099.056 2.671-.038 3.594-1.443 1.012-1.534.686-3.474-.867-5.216 2.234.531 3.818.091 4.732-.607 9.848 17.735 10.926 39.062 13.624 58.861a137.344 137.344 0 0 1 1.235 20.091c-13.539-15.414-33.18-24.465-54.776-23.851 5.369-8.701 10.93-18.109 15.506-28.131.833-1.819 2.323-4.886 2.984-6.75 1.541-2.031 2.988-4.08 5.194-5.913-2.752.109-5.413.882-8.018 1.818-8.359 1.298-17.567-.618-20.742-7.979-1.402-3.191-1.669-7.208-.767-11.084Zm45.056 161.799c1.85 2.884 1.922 7.05.172 9.905-1.678 2.739-6.125.929-9.254.746-2.332-.132-6.144-.191-10.993-.394a14.324 14.324 0 0 1 9.383-14.177c3.867-1.151 8.511.527 10.692 3.92Zm-36.791-60.478 3.014 2.442-7.877 17.681a61.624 61.624 0 0 1-3.307-5.385l8.17-14.738Zm1.769 27.474c.076-.179 7.073-16.71 8.211-19.389l6.802 5.511-8.321 19.724c-3.637-2.165-7.082-5.313-10.132-8.975.994-2.357 7.14-16.877 8.1-19.137l3.004 2.434c-.838 1.968-7.97 18.818-8.287 19.568l.623.264Zm19.449 8.715c-1.95.344-3.91.288-5.853-.103 1.346-5.02 4.781-17.777 5.223-19.407l.432.35.198 19.16Zm-6.515-.25c-1.912-.46-3.804-1.24-5.651-2.279l8.278-19.621 2.702 2.19c-.079.115-5.307 19.63-5.329 19.71Zm-16.858-12.186a58.82 58.82 0 0 1-2.257-2.981l7.97-17.89 2.324 1.883a20631.67 20631.67 0 0 0-8.037 18.988Zm-6.658-8.773c5.081 9.348 13.506 19.201 22.998 21.589l5.201 23.985a14.997 14.997 0 0 0-3.348 10.158c-1.684-.045-4.089-.052-5.423-1.031l-24.925-21.376c3.876-2.559 6.268-7.248 6.19-11.926-.077-4.239-2.063-8.327-5.145-11.246l4.452-10.153Zm34.266 41.103a15.137 15.137 0 0 0-5.515 3.824l-2.263-10.438c1.325-1.388 3.63-1.922 6.241-1.448.86 3.758 1.622 7.363 1.537 8.062Zm-7.945-7.384-1.244-5.736c1.611-1.551 4.076-1.192 6.327-.584.348 1.458.76 3.192 1.162 4.933-2.528-.395-4.786.108-6.245 1.387Zm-1.408-6.494-1.187-5.472c2.147.45 4.238.513 6.378.137.18.853.713 3.06 1.121 4.763-2.208-.565-4.575-.826-6.312.572Zm5.068-25.927a51663.837 51663.837 0 0 0-20.887-16.921l6.886-26.859c8.093 2.032 16.383 5.926 23.275 10.105l-9.274 33.675Zm29.914-18.619c-15.232-15.317-40.127-29.878-61.854-27.422 2.691-4.369 5.348-8.582 7.975-12.836 20.757-.727 41.009 7.737 55.14 24.178a137.237 137.237 0 0 1-1.261 16.08Zm-53.165-78.495c4.033 2.492 8.946 4.297 16.505 4.9-6.601 14.938-13.065 25.339-21.707 39.203-4.984 7.993-4.721 7.479-4.587 7.718a.336.336 0 0 0 .336.169c1.252 1.244 13.196 9.69 15.48 11.191l-2.047 7.983H10.038l-26.876-69.959 129.321-1.205ZM9.467 356.621h-19.82c0-.07-.018-29.343.041-30.425.31-5.634-4.768-9.743-9.869-9.83-12.928-.223-10.457 11.859-10.39 15.243l.502 25.012h-15.696l-1.951-85.473c1.544-3.402 27.23-59.996 30.402-68.241l26.78 69.705v84.009Zm.677-83.734H116.29l-2.141 8.353-8.138 14.681a.336.336 0 0 0-.598.033l-4.739 10.812-9.457 16.169a3.68 3.68 0 0 0-4.332 1.298c-1.103 1.549-.873 3.654.534 4.865l31.832 27.52H10.144v-83.731Zm180.947 83.731h-39.783a3.293 3.293 0 0 0-.396-2.807c2.42-1.442 3.832-7.424 1.014-11.816-2.287-3.561-6.893-5.329-10.986-4.331-.13-.021-.183.019-.257.045-.098-2.743-3.991-17.984-4.22-19.382l-.202-19.534 6.306-22.895c2.052.596 23.301 6.753 23.619 4.687.009-.069.473-3.009.885-7.698h24.02v83.731Zm-.151-84.407h-23.803c.828-9.98.573-19.972-.781-29.941-1.792-13.142-2.878-27.133-6.37-40.325 4.269.254 4.013.374 5.412 2.819.04.068 11.313 29.132 13.71 37.134 1.523 5.076 2.962 10.042 4.554 15.334.134.442 1.087.261 1.678.156l5.6 14.823Zm26.401-4.776 7.565 16.669a81.698 81.698 0 0 1-6.165-1.216l-5.225-14.82 3.825-.633Zm30.446 15.185c.13.088-.924-.463 9.821 4.933 15.856 7.301 13.389 6.162 13.652 6.276.583 3.877 2.308 7.582 5.009 10.451-2.156 1.26-3.913 2.152-4.863 2.356l-32.788 4.48c1.134-8.689-6.173-16.693-16.314-16.021l-3.772-11.56c9.032 2.142 21.09 3.501 29.255-.915Z" fill="#000"/>
    <path d="M167.33 164.946c2.501 1.047 5.987-1.584 7.786-5.877 1.799-4.294 1.231-8.624-1.27-9.672-2.501-1.048-5.987 1.583-7.786 5.876-1.799 4.294-1.231 8.624 1.27 9.673Zm-18.152 9.365c.445-.03.404-.701-.044-.675-1.473.107-2.05-1.155-1.472-1.838.306-.363.824-.31 1.162.013.325.308.791-.182.467-.491-1.463-1.391-3.387.577-2.114 2.223.475.616 1.218.821 2.001.768Zm1.277 8.254c.406-.007.48-.614-.013-.676-.824.021-1.429-.219-1.787-.698-1.011-1.354.57-2.679 1.438-1.505.265.36.811-.042.544-.402-.595-.806-1.76-.99-2.478-.244-1.166 1.212-.277 3.585 2.296 3.525Zm-3.764 6.681c.419.174.67-.452.263-.624-.526-.222-1.07-.452-1.449-.868-.321-.351-.392-.917-.153-1.21.228-.277.455-.271.922-.195.373.061.699.351 1.102.576.393.215.719-.374.328-.592-.107-.059-.21-.126-.313-.193-2.366-1.531-3.621.715-2.387 2.07.479.526 1.121.796 1.687 1.036Zm-8.43 3.782c.367 0 .47-.507.131-.65-.526-.222-1.07-.452-1.449-.868-.321-.351-.392-.917-.152-1.21.227-.277.456-.273.921-.195.372.061.699.351 1.102.576.392.215.719-.374.328-.592-.384-.212-.772-.561-1.319-.652-.421-.071-1.058-.176-1.556.435-.452.552-.373 1.491.176 2.094.559.615 1.667 1.062 1.818 1.062Zm4.632 51.059 6.581-37.092c.078-.442-.59-.555-.667-.117l-6.58 37.091c-.079.44.587.564.666.118Zm-12.675-156.29c1.762-.137 3.138-.936 3.072-1.785-.066-.849-1.548-1.426-3.311-1.289-1.762.137-3.138.936-3.072 1.785.066.849 1.548 1.426 3.311 1.289Zm-9.929-1.254c-.412-.695-2.156-.423-3.895.61-1.738 1.031-2.813 2.432-2.4 3.127.413.695 2.157.422 3.895-.61 1.738-1.031 2.813-2.432 2.4-3.127Zm-1.373 3.675a.915.915 0 1 0-.556 1.743.915.915 0 0 0 .556-1.743Zm11.583-1.914a.915.915 0 1 0-.556 1.744.915.915 0 0 0 .556-1.744Zm-2.07 5.492c-.42-.162-.662.464-.249.629.836.332.93 1.495.156 1.957-.385.229-.037.81.346.581 1.255-.748 1.105-2.628-.253-3.167Zm-4.15 10.396c1.034 0 2.07-.458 2.72-1.278.278-.351-.252-.771-.53-.42-.744.938-2.181 1.289-3.271.794-1.091-.492-1.78-1.801-1.568-2.979.079-.443-.588-.557-.666-.12-.34 1.888 1.085 4.003 3.315 4.003Zm-25.77-9.654c.147.945 1.588 1.528 1.127 2.09-.033.04-.074.058-.097.058-.46.004-.453.665-.016.676h.018c.582 0 .956-.642.831-1.198-.186-.824-1.107-1.168-1.195-1.73-.075-.481.51-.785.862-.454.326.307.789-.186.463-.493-.822-.773-2.167-.064-1.994 1.051ZM35.6 214.47H6.663c-.448 0-.448.677 0 .677H35.6c.448 0 .447-.677 0-.677Zm3.357 18.779h26.958c.447 0 .447-.677 0-.677H38.957c-.448 0-.448.677 0 .677Zm9.037 24.952H28.18c-.447 0-.447.677 0 .677h19.814c.448 0 .448-.677 0-.677Zm37.249-36.183h18.597c.448 0 .447-.676 0-.676H85.243c-.448 0-.448.676 0 .676Zm-7.5 27.599h17.444c.448 0 .448-.677 0-.677H77.743c-.448 0-.448.677 0 .677Zm72.395-209.739c1.353 3.72 4.762 9.348 8.493 7.81.832 2.25 3.752 3.044 5.584 1.198.161 5.463 6.43 6.664 7.841 2.758 1.098 1.52 3.346 2.15 5.04 1.333.144.106.373.238.721.41-.213.77.057 1.047.942 2.735-9.751 1.107-12.52 5.193-16.437 6.08-1.729.389-3.949-.048-4.84-1.645-.219-.39-.809-.06-.591.33 2.427 4.346 7.768 10.604 12.007 7.884 1.471 2.736 5.369 3.026 7.149.261 1.129 6.759 9.063 7.164 10.08 2.093 3.202 6.6 4.201 8.18 5.626 10.897.319.61.986.921 1.641.799 14.748-2.775 29.729-6.961 47.145-13.175a1.525 1.525 0 0 0 .984-1.763c-2.565-12.135-4.284-24.218-5.109-35.91a1.505 1.505 0 0 0-2.101-1.283 537.607 537.607 0 0 1-4.23 1.786l.002-.011c1.037-7.048.539-14.568.622-15.1.143-.573 1.051-1.305-31.441 3.313a.339.339 0 0 0-.29.312c-.332 4.812-1.924 9.578-3.896 13.934-3.975 2.066-7.924 4.128-11.973 6.227-.656.331-.947 1.164-.697 1.921.153.477.3.944.451 1.41-1.684-.748-2.824-1.788-4.42-2.73-5.587-3.303-13.324-3.921-19.71-1.575-1.438.532-2.909 1.236-4.423 1.333-1.38.094-3.047-.53-3.535-1.865l-.004-.01c-.152-.42-.788-.19-.636.23l.005.013Zm35.352 30.026c.281 1.556-.854 3.302-2.477 3.812-2.96.93-6.395-1.635-6.406-6.083-.001-.4-.584-.47-.669-.07-.306 1.426-1.631 2.597-3.084 2.723-1.46.13-2.961-.798-3.507-2.15a.338.338 0 0 0-.52-.141c-3.363 2.586-7.679-1.959-10.103-5.46 1.172.533 2.58.591 3.748.326 3.882-.878 7.137-5.173 16.838-6.121.322.002 6.325-.865 12.559 1.583 2.408.943 4.182 2.18 6.82 2.71 8.199 1.642 12.373-.857 11.014 2.459-1.81 4.37-8.583 8.133-13.598 8.42-.323-.005-2.53-.577-3.035-.842a.339.339 0 0 0-.538-.146h-.001c-1.887 1.6-5.247.957-6.409-1.238-.178-.34-.7-.162-.632.218Zm49.088-38.592a.829.829 0 0 1 1.161.707c.827 11.725 2.55 23.838 5.123 36.006a.85.85 0 0 1-.548.984c-17.384 6.201-32.333 10.379-47.044 13.146a.865.865 0 0 1-.918-.446c-1.57-2.966-2.492-4.48-5.191-10.006 1.791 1.1 4.047 1.036 5.567-.072.875.496 3.264.94 3.409.957 5.359-.305 12.31-4.296 14.191-8.839.282-.684.485-1.501.047-2.095-.645-.873-2.35-.714-3.527-.68-9.272.25-11.005-1.82-14.732-3.282-3.853-1.511-8.258-2.04-12.632-1.647-.941-1.802-1.201-2.023-.997-2.56.219-.577.03-.312 8.29-3.403 15.899-5.896 32.143-12.086 47.801-18.77ZM199.631 21.31c3.204-.454 27.193-3.825 30.393-3.77-.021 1.51.349 8.316-.608 14.819l-.064.425c-14.634 6.102-29.267 11.635-41.784 16.282 5.608-7.91 11.306-18.168 12.063-27.756Zm-40.666 19.502c6.202-2.278 13.713-1.68 19.132 1.523 1.796 1.06 3.025 2.253 5.053 3.01.067.198.129.394.201.596a.149.149 0 0 1-.054.163c-.704.318-1.401.663-2.112.995-.5.223-.785.42-.663 1.103.015.086 1.149 2.967 1.176 3.034-3.152 1.189-3.177 1.094-3.564 1.552a5.338 5.338 0 0 1-.615-.34.339.339 0 0 0-.494-.202c-.068.02-1.163.79-2.801.192-.967-.354-1.717-1.08-2.009-1.943-.122-.365-.665-.27-.659.115.024 1.23-1.068 2.431-2.383 2.623-2.413.35-4.762-2.07-4.205-5.54.064-.399-.504-.55-.649-.175-.411 1.06-1.57 1.801-2.712 1.713-1.138-.084-2.185-.983-2.435-2.092a.338.338 0 0 0-.491-.223c-2.889 1.562-5.633-2.412-7.082-5.353 2.433 1.412 4.912.155 7.366-.751Zm20.013 38.36c.303-.328-.193-.786-.498-.458-6.289 6.826-15.211 11.03-24.478 11.535-.434.023-.418.676.018.676.236-.061 14.206-.083 24.958-11.753Zm-18.786 33.163c.729-.158 21.203-.145 40.063-15.33.35-.281-.076-.807-.424-.527-11.207 9.023-25.291 14.414-39.657 15.181a.338.338 0 0 0 .018.676Zm26.483 5.858c9.985.77 20.247-2.43 28.083-8.92.345-.285-.088-.808-.432-.521-7.644 6.331-17.702 9.526-27.599 8.766-.443-.038-.501.642-.052.675Z" fill="#000"/>
    <path d="M207.169 27.065a44.75 44.75 0 0 0 16.544-2.44c.422-.147.201-.785-.223-.638a43.968 43.968 0 0 1-16.292 2.401c-.467.008-.459.657-.029.677Zm-.356 6.448 12.488-1.969c.441-.07.338-.736-.105-.668l-12.488 1.968c-.44.07-.341.735.105.669Zm41.998 47.885c-3.043 1.578-6.042 3.145-9.135 4.744-.406.21-.589.73-.426 1.198l.226.718c-.975-.458-1.676-1.084-2.632-1.653-3.507-2.07-8.359-2.457-12.361-.987-.936.346-1.795.762-2.712.82-.827.05-1.792-.305-2.077-1.079-.154-.419-.789-.187-.636.233h.001c.862 2.348 2.961 5.819 5.334 4.984.579 1.29 2.212 1.811 3.43.844.305 3.2 3.928 3.955 5.02 1.695.709.81 2.018 1.208 3.086.73.08.052.189.112.314.177-.085.49.119.726.533 1.522-5.954.734-7.676 3.225-10.045 3.762-1.029.232-2.345-.021-2.869-.96-.217-.391-.809-.06-.59.33l.001.003c1.503 2.691 4.819 6.588 7.528 5.013.964 1.586 3.194 1.809 4.421.297.866 3.849 5.365 4.263 6.37 1.347.671 1.377 2.235 4.511 3.348 6.479.224.422.69.65 1.159.559 9.211-1.737 18.53-4.34 29.321-8.193a1.07 1.07 0 0 0 .694-1.243c-1.592-7.54-2.659-15.045-3.174-22.302-.047-.71-.758-1.22-1.529-.89-2.256.954-2.466 1.038-2.742 1.153-.495-1.066-.529-1.602-.871-1.92-.142-.121-.358-.121-.527-.04-.183.087-.38.172-.578.257a228.18 228.18 0 0 1-.674-14.128.339.339 0 0 0-.517-.281 95.68 95.68 0 0 1-17.511 8.488.34.34 0 0 0-.213.398 37.935 37.935 0 0 1 1.033 7.925Zm-12.978 11.536c-.089.026-.638.466-1.626.107-.568-.207-1.009-.628-1.181-1.129-.123-.36-.667-.27-.658.118.016.703-.61 1.389-1.368 1.497-1.445.21-2.795-1.268-2.473-3.292.063-.398-.502-.55-.649-.176-.237.604-.904 1.04-1.554.983-.65-.05-1.252-.566-1.401-1.202a.34.34 0 0 0-.49-.22c-1.628.88-3.196-1.313-4.056-2.94 1.518.618 2.899-.096 4.339-.626 3.82-1.404 8.445-1.038 11.783.933 1.183.705 1.851 1.407 3.259 1.92.061.177.113.277.04.314-.44.203-.873.412-1.313.622-.311.142-.487.264-.413.684.02.117.592 1.525.689 1.769-1.743.677-1.907.627-2.207.925a4.359 4.359 0 0 1-.246-.137.336.336 0 0 0-.475-.15Zm3.749 13.332c-1.773.559-3.809-1.001-3.815-3.659-.001-.404-.585-.465-.669-.07-.179.833-.954 1.517-1.803 1.591-.844.077-1.731-.466-2.05-1.257a.34.34 0 0 0-.52-.141c-.524.402-1.091.534-1.736.4-1.432-.295-2.996-1.892-4.118-3.426 3.508 1.066 4.999-3.006 12.446-3.74a.28.28 0 0 0 .034-.004c2.675-.258 5.373.055 7.728.979 1.506.59 2.597 1.357 4.261 1.69 4.99 1 7.354-.398 6.817 1.185v.001c-.907 2.672-5.254 5.143-8.394 5.323-.23-.011-1.446-.329-1.794-.49a.34.34 0 0 0-.514-.093l-.001.001c-1.116.942-3.105.556-3.787-.733-.181-.341-.7-.16-.632.219.163.907-.502 1.925-1.453 2.224Zm32.145-26.12a.385.385 0 0 1 .538.336c.517 7.29 1.589 14.825 3.188 22.4a.394.394 0 0 1-.257.46c-10.761 3.842-20.046 6.437-29.223 8.167a.416.416 0 0 1-.435-.209 175.607 175.607 0 0 1-3.045-5.86c1.131.511 2.34.377 3.18-.2.652.333 2.036.588 2.113.574 5.429-.305 10.117-5.412 8.946-7-.748-1.012-2.943.017-7.259-.848-1.554-.312-2.645-1.068-4.147-1.658-2.388-.937-5.115-1.273-7.826-1.04-.955-1.861-.986-1.347 1.502-2.34 12.641-4.67 21.718-8.121 32.725-12.781Zm-6.374-14.674a229.083 229.083 0 0 0 .89 16.236c-5.18 2.13-10.827 4.346-17.23 6.763a38.755 38.755 0 0 0-.508-14.864 96.348 96.348 0 0 0 16.848-8.135Zm11.331 11.258c.569-.589.74-1.594 1.215-2.067.604-.599 1.678-.504 2.54-.429.966.083 2.328.08 3.015-.913.255-.368-.303-.755-.556-.385-1.014 1.465-3.943-.271-5.475 1.247-.617.612-.737 1.572-1.226 2.076-.514.533-1.588.48-2.035-.16-.257-.366-.811.02-.555.388.684.975 2.249 1.098 3.077.243Zm6.256 1.496c-1.34-.685-3.157-.23-3.869 1.71-.266.724-.625 1.236-1.533.83-.426-.189-.777-.549-1.117-.897-.311-.32-.798.151-.484.472.366.376.781.801 1.325 1.044.973.43 1.924.203 2.444-1.215.051-.136.1-.273.162-.402a2.04 2.04 0 0 1 2.764-.94c.401.203.706-.4.308-.602Zm-271.632-9.54a5.218 5.218 0 0 0 6.198 4.71l54.596-10.858a76.504 76.504 0 0 1 7.104 8.177c.194.259.61.12.609-.205l-.029-9.497 4.26-.847a5.208 5.208 0 0 0 4.202-5.527l-1.042-13.26a5.216 5.216 0 0 0-5.013-4.807l-67.792-2.668a5.218 5.218 0 0 0-5.385 5.62l2.293 29.162Zm3.068-34.105 67.792 2.668a4.538 4.538 0 0 1 4.363 4.183l1.043 13.26a4.531 4.531 0 0 1-3.658 4.81l-4.535.901a.338.338 0 0 0-.272.334l.026 8.768a77.14 77.14 0 0 0-6.684-7.573.33.33 0 0 0-.305-.092l-54.77 10.891a4.54 4.54 0 0 1-5.393-4.098L9.691 39.472c-.215-2.74 2.04-5.01 4.685-4.89Z" fill="#000"/>
    <path d="M22.332 43.1c51.494-.387 49.828 0 50.05 0 .355 0 .47-.48.152-.64-.758-.38-38.621-.124-50.207-.036a.338.338 0 0 0-.336.34c.003.333.409.366.341.336Zm7.645 7.108c-.44.017-.426.676.012.676.091 0 40.881-1.526 42.318-1.424.323.075.553-.32.32-.564-.142-.148-.263-.274-42.65 1.312Zm42.383 3.498L45.877 55.49c-.449.03-.397.712.046.675l26.482-1.782c.441-.03.41-.701-.045-.675Z" fill="#000"/>
  </g>
  <defs>
    <clipPath id="a">
      <rect fill="#fff" height="194" rx="24" width="298"/>
    </clipPath>
  </defs>
</svg>