<?xml version="1.0" encoding="utf-8"?>
<svg xmlns="http://www.w3.org/2000/svg" fill="none" height="184" width="184">
  <path d="M65.075 156.008c31.278 0 56.634-25.356 56.634-56.634S96.353 42.74 65.075 42.74 8.441 68.094 8.441 99.374c0 31.278 25.356 56.634 56.634 56.634Z" fill="#FCBA06"/>
  <path d="M163.543 55.822H71.261a2.666 2.666 0 0 1-2.666-2.666V28.367a2.666 2.666 0 0 1 2.666-2.666h92.282a2.666 2.666 0 0 1 2.666 2.666v24.789a2.666 2.666 0 0 1-2.666 2.666Z" fill="#fff"/>
  <path d="M163.543 56.433H71.261a3.28 3.28 0 0 1-3.277-3.277V28.367a3.28 3.28 0 0 1 3.277-3.277h92.282a3.28 3.28 0 0 1 3.277 3.277v24.789a3.28 3.28 0 0 1-3.277 3.277Zm-92.282-30.12a2.057 2.057 0 0 0-2.055 2.054v24.789c0 1.133.922 2.055 2.055 2.055h92.282a2.057 2.057 0 0 0 2.055-2.055V28.367a2.057 2.057 0 0 0-2.055-2.055H71.261Z" fill="#231F20"/>
  <path d="M96.23 49.835H75.47a1.49 1.49 0 0 1-1.49-1.49V31.86c0-.823.667-1.49 1.49-1.49h20.76c.822 0 1.489.667 1.489 1.49v16.485a1.49 1.49 0 0 1-1.49 1.49Z" fill="#FCBA06"/>
  <path d="M96.23 50.446H75.47c-1.159 0-2.1-.943-2.1-2.1V31.86c0-1.159.941-2.1 2.1-2.1h20.76c1.158 0 2.1.941 2.1 2.1v16.485c0 1.158-.942 2.1-2.1 2.1ZM75.47 30.98a.88.88 0 0 0-.88.879v16.485a.88.88 0 0 0 .88.879h20.76a.88.88 0 0 0 .878-.879V31.86a.88.88 0 0 0-.879-.879H75.47Z" fill="#231F20"/>
  <path d="M93.242 43.91H82.264l-1.242-9.244H77.48a.61.61 0 1 1 0-1.222h4.613l1.243 9.245h8.887l1.022-5.667h-9.421a.61.61 0 1 1 0-1.222h10.882l-1.463 8.11Zm-8.99 4.17a2.086 2.086 0 0 1-2.083-2.085c0-1.149.935-2.083 2.084-2.083s2.083.934 2.083 2.083c0 1.15-.934 2.084-2.083 2.084Zm0-2.947a.863.863 0 1 0 .002 1.726.863.863 0 0 0-.001-1.726Zm6.97 2.946a2.086 2.086 0 0 1-2.083-2.084c0-1.149.934-2.083 2.084-2.083 1.149 0 2.083.934 2.083 2.083 0 1.15-.934 2.084-2.083 2.084Zm0-2.946a.863.863 0 1 0 .002 1.726.863.863 0 0 0-.001-1.726Z" fill="#231F20"/>
  <path d="M110.686 41.673a3.067 3.067 0 0 0-1.193-.945 12.786 12.786 0 0 0-1.538-.534V36.26c.289.084.543.214.76.391.408.338.64.727.695 1.168h1.657c-.088-.895-.478-1.612-1.168-2.154-.532-.417-1.181-.672-1.945-.767v-1.853h-1.381v1.85c-.484.056-.93.172-1.331.356-.58.265-1.031.641-1.351 1.127-.321.486-.48 1.044-.48 1.673 0 .719.163 1.29.488 1.715.326.425.719.738 1.177.937.388.168.891.336 1.497.505v4.108c-.388-.087-.704-.246-.951-.479a2.11 2.11 0 0 1-.67-1.367h-1.608a2.9 2.9 0 0 0 .53 1.666c.343.48.815.857 1.417 1.127.392.177.822.29 1.282.35v1.865h1.381v-1.843a4.058 4.058 0 0 0 1.455-.429c.586-.309 1.028-.713 1.326-1.21a3.042 3.042 0 0 0 .447-1.59c.002-.73-.164-1.308-.496-1.733Zm-4.499-2.038a2.291 2.291 0 0 1-.878-.606c-.239-.265-.356-.607-.356-1.027 0-.586.198-1.042.597-1.367.282-.231.625-.377 1.025-.444v3.584a9.583 9.583 0 0 1-.388-.14Zm2.85 5.22c-.287.249-.649.41-1.082.486v-3.73c.155.053.302.104.427.153.365.144.669.354.912.63s.364.635.364 1.077c.001.564-.207 1.025-.621 1.384Z" fill="#000"/>
  <path d="M160.681 41.372h-43.279a.611.611 0 0 1 0-1.221h43.279a.611.611 0 0 1 0 1.221Z" fill="#231F20"/>
  <path d="M157.739 95.251c0 4.122 2.401 6.022 5.047 6.842-2.759.873-5.047 2.732-5.047 6.542 0 4.284 2.594 6.167 5.362 6.933-2.364.878-4.248 2.618-4.248 5.96 0 5.22 4.124 6.633 7.355 6.881v15.429a4.096 4.096 0 0 1-4.094 4.097h-40.303a4.095 4.095 0 0 1-4.093-4.097V99.406c10.289 4.24 15.131-4.547 10.352-10.822-2.535-3.329-6.759-4.298-10.352-3.226V65.143a4.096 4.096 0 0 1 4.093-4.096h6.963v1.198a4.326 4.326 0 0 0 4.326 4.326h17.725a4.326 4.326 0 0 0 4.326-4.326v-1.198h6.963a4.096 4.096 0 0 1 4.094 4.096v22.91c-3.988.298-8.469 1.773-8.469 7.198Z" fill="#fff"/>
  <path d="M162.115 148.545h-40.303a4.71 4.71 0 0 1-4.704-4.707V98.493l.843.348c4.342 1.789 8.127 1.305 10.125-1.294 1.819-2.366 1.622-5.82-.49-8.594-2.226-2.921-6.03-4.102-9.693-3.011l-.785.234V65.143a4.71 4.71 0 0 1 4.704-4.706h7.574v1.81a3.72 3.72 0 0 0 3.715 3.714h17.725a3.72 3.72 0 0 0 3.715-3.715v-1.81h7.574a4.711 4.711 0 0 1 4.704 4.707V88.62l-.565.042c-5.245.392-7.904 2.61-7.904 6.59 0 3.202 1.553 5.308 4.617 6.257l1.863.578-1.859.588c-3.109.983-4.621 2.932-4.621 5.958 0 3.309 1.654 5.443 4.914 6.345l1.821.503-1.771.658c-2.591.962-3.85 2.725-3.85 5.388 0 4.752 3.693 6.034 6.791 6.272l.564.043v15.995a4.71 4.71 0 0 1-4.704 4.708Zm-43.786-48.251v43.544a3.488 3.488 0 0 0 3.484 3.485h40.303a3.488 3.488 0 0 0 3.483-3.485v-14.875c-2.983-.347-7.355-1.815-7.355-7.436 0-2.624 1.118-4.632 3.256-5.881-2.865-1.267-4.369-3.665-4.369-7.013 0-3.01 1.379-5.245 4.009-6.54-2.63-1.307-4.009-3.646-4.009-6.842 0-3.17 1.488-7.043 8.469-7.757v-22.35a3.487 3.487 0 0 0-3.483-3.486h-6.353v.588a4.942 4.942 0 0 1-4.936 4.937h-17.725a4.943 4.943 0 0 1-4.937-4.937v-.588h-6.353a3.489 3.489 0 0 0-3.483 3.485v19.425c3.905-.857 7.852.525 10.228 3.644 2.451 3.22 2.647 7.27.487 10.079-2.219 2.885-6.183 3.611-10.716 2.003Z" fill="#231F20"/>
  <path d="M60.517 83.87s-.44 11.574-15.903 14.583C29.6 71.317 11.599 39.226 11.123 38.375c1.43 2.188 3.5 3.566 5.613 2.34 0 0 2.325-1.539 1.345-4.867 1.157 1.441 2.48 2.334 3.828 1.668 1.017-.503 1.516-1.436 1.679-2.58-.505-.204-.942-.594-1.257-1.23-.43-.872.008-1.85.873-2.791 1.665-1.807 4.917-3.464 6.65-3.93.098-.028.2-.05.3-.064 2.516-.436 4.778 2.146 5.952 6.035 1.224 4.044-.657 8.886-.657 8.886s15.704 26.704 24.636 41.342c.141.231.285.46.432.687Z" fill="#fff"/>
  <path d="m44.295 99.137-.215-.388C32.163 77.212 18.306 52.444 11.107 39.596l-.517-.923 1.044-.632c.7 1.071 2.565 3.42 4.776 2.157.17-.122 1.894-1.43 1.086-4.178l-.874-2.968 1.936 2.413c1.739 2.167 2.75 1.667 3.082 1.503.65-.32 1.066-.88 1.266-1.699-.465-.295-.84-.728-1.12-1.29-.354-.72-.473-1.904.97-3.477 1.791-1.943 5.18-3.633 6.94-4.108.125-.035.253-.062.376-.08 2.73-.471 5.274 2.003 6.621 6.465 1.113 3.675-.178 7.875-.57 9 1.614 2.74 16.115 27.37 24.486 41.085.139.229.28.453.422.675l.105.162-.008.193c-.004.12-.639 12.093-16.395 15.158l-.438.085ZM13.541 41.443c7.443 13.287 20.24 36.174 31.39 56.323 13.494-2.817 14.834-12.243 14.962-13.734a26.074 26.074 0 0 1-.33-.532C50.73 69.028 35.08 42.42 34.923 42.152l-.15-.255.107-.276c.018-.047 1.788-4.7.642-8.488-1.137-3.766-3.199-5.968-5.263-5.61-.094.014-.169.03-.242.05-1.58.426-4.751 2.008-6.364 3.757-.783.852-1.043 1.562-.774 2.107.231.466.539.772.938.933l.443.18-.067.473c-.208 1.46-.885 2.483-2.013 3.041-.774.383-1.9.525-3.254-.508-.054 1.921-1.132 3.193-1.853 3.67l-.03.019c-1.14.66-2.345.71-3.502.198Z" fill="#231F20"/>
  <path d="M109.968 75.833s-9.066-10.284-10.905-12.076c.08.199 2.861 7.068-3.95 2.157 0 0-11.474 7.24-2.822-2.163l-8.643 6.036a.37.37 0 0 1-.58-.362l.243-1.582-5.17 5.195s-.273 1.13-.494 2.903c-.31 2.502-.516 6.291.298 10.016.62 2.842 1.835 5.643 4.05 7.809l.002.002c2.464 2.406 6.165 4.022 11.659 4.022 2.792 0 5.082-.536 6.947-1.464 2.03-1.006 3.56-2.475 4.707-4.224 1.118-1.706 1.867-3.679 2.35-5.743 0 0 5.831 1.854 8.234-1.248v-9.049c-1.14-1.293-3.059-1.698-5.926-.23Zm-9.356 16.504a7.215 7.215 0 0 1-2.29.881c-3.32.658-6.464-1.218-6.547-3.696-.002-.033-.002-.066-.002-.099 0-2.298 1.386-2.494 2.773-3.199 2.491-1.265 4.121-4.455 6.85-3.257.052.02.105.045.157.072 2.821 1.399 3.103 6.9-.941 9.298Z" fill="#fff" stroke="#231F20" stroke-linecap="round" stroke-miterlimit="10" stroke-width="2"/>
  <path d="M77.943 85.957c-1.317.452-9.402 2.908-9.347-4.605.03-4.436 2.047-5.87 4.155-6.148 2.34-.312 4.894.738 4.894.738-.31 2.502-.517 6.291.298 10.015Z" fill="#fff"/>
  <path d="M73.766 87.317c-1.296 0-2.64-.255-3.722-1.032-1.383-.995-2.076-2.656-2.06-4.938.035-5.07 2.567-6.47 4.685-6.75 2.471-.33 5.096.733 5.207.779l.432.176-.057.463c-.307 2.475-.505 6.186.288 9.81l.116.53-.514.177c-.727.252-2.5.785-4.375.785Zm-.104-11.56c-.277 0-.556.015-.831.052-2.382.315-3.601 2.181-3.624 5.547-.014 1.863.508 3.187 1.551 3.937 1.912 1.375 5.115.65 6.476.248-.653-3.382-.52-6.766-.252-9.191-.657-.22-1.975-.594-3.32-.594Zm36.642 5.691a.61.61 0 0 1-.566-.84c1.225-3.034 3.981-3.093 5.268-2.7a.61.61 0 0 1-.355 1.169c-.274-.081-2.692-.706-3.781 1.99a.61.61 0 0 1-.566.382Z" fill="#231F20"/>
  <path d="M111.98 83.794a.61.61 0 0 1-.46-1.012c.698-.802.993-1.52.877-2.133-.143-.764-.894-1.177-.901-1.181a.61.61 0 1 1 .567-1.081c.053.028 1.282.686 1.535 2.037.188.999-.202 2.062-1.157 3.16a.609.609 0 0 1-.461.21Zm-35.739-2.488a.612.612 0 0 1-.567-.382c-1.117-2.767-3.67-2.024-3.779-1.99a.611.611 0 0 1-.357-1.168c1.285-.393 4.043-.333 5.268 2.701a.61.61 0 0 1-.565.839Z" fill="#231F20"/>
  <path d="M74.566 83.652c-.17 0-.34-.071-.46-.21-.957-1.097-1.346-2.16-1.158-3.16.254-1.35 1.483-2.01 1.534-2.037a.61.61 0 0 1 .57 1.08c-.015.008-.769.43-.907 1.192-.11.612.186 1.326.88 2.124a.61.61 0 0 1-.459 1.01Zm18.02 1.774-.08-.001c-.627-.02-1.136-.255-1.513-.697-.752-.88-.93-2.529-.577-5.348.402-3.217-.988-3.92-1.002-3.926a.61.61 0 1 1 .49-1.119c.091.04 2.245 1.033 1.723 5.198-.366 2.927-.042 4.01.294 4.403.15.177.344.26.624.269.96.028 1.415-1.332 1.42-1.346a.612.612 0 0 1 1.166.364c-.028.09-.704 2.203-2.545 2.203Zm-12.143-8.558a.61.61 0 0 1-.503-.957c1.549-2.252 3.25-3.496 5.057-3.698 2.097-.236 3.512 1.048 3.571 1.103a.611.611 0 0 1-.826.9c-.018-.017-1.094-.967-2.627-.788-1.432.168-2.835 1.236-4.168 3.174a.608.608 0 0 1-.504.266Zm24.778-.752a.611.611 0 0 1-.496-.253c-1.346-1.864-2.809-2.905-4.348-3.095-1.894-.233-3.304.934-3.318.946a.612.612 0 0 1-.793-.93c.073-.062 1.807-1.52 4.238-1.231 1.899.225 3.652 1.435 5.212 3.594a.61.61 0 0 1-.495.97Zm-6.899 17.102c-3.32.658-6.464-1.218-6.547-3.696 2.558-.42 4.497-1.334 5.94-2.347-.072.132-1.975 3.599.607 6.043Z" fill="#231F20"/>
  <path d="M96.967 93.962c-1.543 0-3.022-.475-4.139-1.362-1.033-.82-1.624-1.906-1.662-3.057l-.018-.537.53-.086c2.158-.354 4.072-1.11 5.687-2.245l2.124-1.494-1.237 2.284c-.18.33-1.673 3.262.49 5.31l.86.813-1.16.23a7.659 7.659 0 0 1-1.475.144Zm-4.505-3.944c.155.6.543 1.162 1.126 1.625.924.733 2.216 1.12 3.536 1.093-.927-1.422-.858-2.978-.585-4.134a15.175 15.175 0 0 1-4.077 1.416Z" fill="#231F20"/>
  <path d="M101.397 82.968s-.95 2.284-3.68 4.204l-.002.003c-1.442 1.014-3.381 1.928-5.939 2.347-.002-.033-.002-.066-.002-.099 0-2.298 1.386-2.494 2.773-3.199 2.49-1.265 4.121-4.455 6.85-3.257Z" fill="#fff"/>
  <path d="m91.222 90.233-.055-.66c-.003-.05-.004-.1-.004-.15 0-2.332 1.32-2.926 2.485-3.45.204-.093.413-.187.623-.292.764-.389 1.47-1 2.154-1.591 1.428-1.236 3.045-2.636 5.218-1.68l.549.24-.23.553c-.042.1-1.041 2.446-3.849 4.438l-.046.033c-1.767 1.242-3.85 2.067-6.192 2.451l-.653.108Zm8.989-6.919c-.962 0-1.823.692-2.988 1.699-.739.64-1.503 1.3-2.4 1.756-.227.115-.454.217-.675.316-.925.417-1.543.695-1.716 1.691 1.836-.391 3.479-1.089 4.894-2.076l.04-.029c1.712-1.204 2.689-2.57 3.145-3.335a2.08 2.08 0 0 0-.3-.022Z" fill="#231F20"/>
  <path d="M100.612 92.337a7.212 7.212 0 0 1-2.29.881c-2.582-2.444-.68-5.91-.608-6.043l.003-.003c2.729-1.92 3.679-4.204 3.679-4.204.052.019.105.044.157.071 2.821 1.399 3.103 6.9-.941 9.298Z" fill="#fff"/>
  <path d="m98.132 93.879-.23-.218c-2.826-2.674-.949-6.363-.725-6.775l.042-.078.147-.137c2.536-1.784 3.459-3.919 3.468-3.94l.227-.537.548.201c.078.029.155.065.231.105 1.42.704 2.356 2.354 2.43 4.3.093 2.461-1.19 4.784-3.345 6.062a7.828 7.828 0 0 1-2.483.955l-.31.062Zm.058-6.294c-.312.628-1.36 3.093.33 4.962a6.676 6.676 0 0 0 1.781-.736c1.798-1.065 2.825-2.922 2.748-4.966-.05-1.312-.574-2.432-1.397-3.035-.474.835-1.533 2.386-3.462 3.775Zm17.702-19.754v8.23c-1.138-1.292-3.058-1.697-5.924-.228 0 0-9.066-10.284-10.905-12.076.08.199 2.861 7.068-3.95 2.157 0 0-11.474 7.24-2.822-2.163l-8.643 6.036a.37.37 0 0 1-.58-.362l.243-1.582-5.17 5.195s-.273 1.13-.494 2.902c0 0-2.555-1.05-4.894-.737-.578-1.02-2.417-4.351-2.417-5.34 0-1.177 4.279-10.767 4.232-11.284-.047-.51-1.682-2.433-1.69-2.759v-.017c.047-.281 12.927-4.372 19.51-3.806 0 0-.078-1.088.016-2.163.085-.983.315-1.958.879-2.069.566-.113 2.124.943 3.645 2.07 1.638 1.212 3.232 2.513 3.5 2.538.516.047 5.643-.422 5.925-.188.281.235-.801 2.68-.661 2.962.025.05.287.298.705.674 1.961 1.776 7.344 6.42 7.383 6.613.047.235-1.21 1.928-1.21 1.928l3.322 3.469Z" fill="#231F20"/>
  <path d="m116.503 77.68-1.069-1.214c-1.378-1.566-3.582-.913-5.188-.09l-.422.218-.314-.356c-.073-.084-6.048-6.86-9.234-10.316.087.822-.022 1.616-.588 2.059-.87.682-2.296.272-4.596-1.334-5.44 3.378-6.181 2.488-6.429 2.192-.33-.397-.354-.942.359-2.06l-5.025 3.508a.98.98 0 0 1-1.542-.72l-3.76 3.777a30.496 30.496 0 0 0-.444 2.672l-.099.792-.739-.302c-.023-.01-2.438-.982-4.582-.697l-.41.054-.203-.359c-1.139-2.01-2.496-4.622-2.496-5.64 0-.744 1.056-3.38 2.667-7.315.665-1.622 1.412-3.447 1.55-3.938-.118-.264-.564-.89-.84-1.278-.614-.864-.828-1.178-.836-1.497v-.058l.008-.075c.064-.38.083-.496 2.562-1.276a85.07 85.07 0 0 1 5.2-1.439c3.457-.843 8.195-1.782 11.712-1.643-.008-.424-.005-.993.046-1.565.052-.59.208-2.387 1.37-2.614.589-.118 1.455.2 4.126 2.177.522.387 1.038.781 1.51 1.141.697.533 1.482 1.133 1.75 1.282.264-.001 1.047-.052 1.745-.096 3.728-.238 4.145-.207 4.447.046.474.395.25 1.084-.158 2.338-.087.268-.209.642-.265.866.092.088.242.227.485.445.709.644 1.853 1.65 3.064 2.713 4.444 3.908 4.45 3.933 4.509 4.233.045.228.092.461-1.013 1.996l3.141 3.276V77.68h.001Zm-42.838-3.145c1.377 0 2.69.334 3.474.581a26.71 26.71 0 0 1 .406-2.222l.04-.166 6.613-6.644-.443 2.882 12.773-8.92-3.79 4.12c-2.109 2.292-2.77 3.33-2.975 3.775.915-.196 3.176-1.377 5.024-2.543l.348-.22.334.241c2.837 2.045 3.44 1.62 3.465 1.601.282-.22.171-1.52-.438-3.032l-1.084-2.69 2.076 2.022c1.664 1.622 9.001 9.917 10.629 11.76 2.446-1.135 4.103-.867 5.164-.282v-6.722l-3.513-3.664.307-.414c.365-.491.778-1.09.984-1.435-.661-.628-2.56-2.298-4.001-3.565a334.16 334.16 0 0 1-3.076-2.723c-.753-.679-.784-.741-.841-.854-.166-.334-.066-.685.278-1.743.087-.27.213-.654.292-.95h-.013c-.8 0-2.386.102-3.328.162-1.283.082-1.789.111-2.002.092-.33-.03-.679-.278-2.313-1.526-.467-.357-.979-.748-1.495-1.13-2.247-1.664-2.948-1.929-3.159-1.954-.058.06-.293.367-.393 1.517a14.957 14.957 0 0 0-.015 2.066l.05.713-.712-.062c-5.572-.478-16.127 2.55-18.616 3.479.12.175.26.373.38.54.721 1.013 1.041 1.499 1.078 1.899.03.323-.17.868-1.653 4.487-.955 2.334-2.555 6.24-2.576 6.854 0 .508.871 2.41 2.143 4.688a9.42 9.42 0 0 1 .578-.018Zm26.936 21.79s-4.594 11.027-15.247 6.293l-3.359-8.85c2.464 2.405 6.165 4.02 11.66 4.02 2.792.002 5.082-.534 6.946-1.462Z" fill="#231F20"/>
  <path d="M90.444 104.411c-1.702 0-3.486-.412-5.338-1.235l-.232-.104-4.431-11.674 1.979 1.933c2.615 2.553 6.394 3.848 11.232 3.848 2.563 0 4.809-.471 6.675-1.4l1.465-.73-.629 1.51c-.088.214-2.228 5.24-7.007 7.143a9.946 9.946 0 0 1-3.714.709Zm-4.61-2.25c2.852 1.215 5.5 1.351 7.872.407 2.79-1.11 4.614-3.481 5.557-5.026-1.669.57-3.548.859-5.61.859-4.16 0-7.608-.916-10.282-2.725l2.462 6.485Z" fill="#231F20"/>
  <path d="m105.308 92.102-1.884 9.778s-3.326 8.322-8.97 8.322c-5.643 0-8.603-6.275-8.603-6.275l-.337-.89-.16-.419c10.653 4.734 15.247-6.292 15.247-6.292 2.03-1.006 3.56-2.475 4.707-4.224Z" fill="#fff"/>
  <path d="M94.455 110.814c-5.961 0-9.028-6.355-9.156-6.626l-.02-.044-1.02-2.681 1.342.597c2.942 1.307 5.668 1.479 8.105.508 4.305-1.715 6.311-6.43 6.331-6.477l.087-.21.206-.102c1.805-.894 3.308-2.243 4.467-4.01l1.696-2.587-2.502 12.926c-.141.354-3.547 8.706-9.536 8.706Zm-8.038-7.12c.22.441 3.042 5.898 8.038 5.898 4.943 0 8.096-7.209 8.381-7.888l1.404-7.289a12.231 12.231 0 0 1-3.17 2.357c-.465 1.007-2.628 5.225-6.913 6.93-2.379.948-4.978.944-7.74-.008ZM24.664 35.743a3.41 3.41 0 0 1-1.308-.242.61.61 0 1 1 .465-1.13c1.678.69 4.654-1.171 5.66-1.947a.61.61 0 1 1 .746.967c-.361.28-3.132 2.352-5.563 2.352Z" fill="#231F20"/>
  <path d="M64.041 88.583s-.577 12.22-16.465 15.228l-2.962-5.36C60.078 95.445 60.517 83.87 60.517 83.87a39.98 39.98 0 0 0 3.524 4.713Z" fill="#fff"/>
  <path d="m47.254 104.494-.213-.388-2.961-5.358-.407-.735.825-.16C59.313 94.971 59.9 83.96 59.906 83.848l.073-1.953 1.052 1.648a39.689 39.689 0 0 0 3.471 4.64l.16.185-.012.245c-.005.127-.787 12.737-16.962 15.799l-.434.082Zm-1.704-5.612c.792 1.431 1.574 2.847 2.345 4.244 13.78-2.805 15.349-12.636 15.517-14.337a41.111 41.111 0 0 1-2.541-3.285c-.76 3.317-3.748 10.814-15.32 13.378Z" fill="#231F20"/>
  <path d="m125.06 149.697-2.35 13.446H62.53c4.795-16.55 2.773-24.448 2.21-27.324-.21-1.077-7.78-15.001-17.165-32.008 15.889-3.009 16.465-15.228 16.465-15.228 9.113 10.546 21.473 14.454 21.473 14.454l.337.89s2.961 6.275 8.604 6.275c5.643 0 8.969-8.322 8.969-8.322l8.673-1.017a21.308 21.308 0 0 0 3.795 7.157v36.104a5.57 5.57 0 0 0 5.571 5.572h3.598v.001Z" fill="#fff"/>
  <path d="M123.223 163.754H61.717l.227-.781c4.52-15.604 2.956-23.294 2.288-26.578l-.091-.458c-.172-.696-3.28-6.788-17.1-31.832l-.408-.737.829-.158c15.238-2.885 15.964-14.538 15.97-14.656l.072-1.528 1 1.157c8.896 10.297 21.073 14.233 21.195 14.271l.282.089.432 1.141c.183.37 3.01 5.907 8.042 5.907 5.17 0 8.371-7.858 8.402-7.938l.135-.338 9.54-1.118.149.487a20.706 20.706 0 0 0 3.684 6.951l.137.168v36.322a4.966 4.966 0 0 0 4.961 4.96h4.323l-2.563 14.669Zm-59.883-1.221h58.857l2.137-12.225h-2.869a6.19 6.19 0 0 1-6.182-6.183v-35.889a21.887 21.887 0 0 1-3.612-6.707l-7.821.917c-.717 1.626-4.013 8.368-9.393 8.368-5.961 0-9.029-6.355-9.156-6.626l-.02-.044-.234-.62c-1.854-.647-12.356-4.59-20.597-13.565-.686 3.283-3.625 11.622-15.937 14.285 16.538 29.977 16.748 31.052 16.828 31.459l.09.45c.673 3.315 2.237 11.009-2.09 26.38Z" fill="#231F20"/>
  <path d="M23.205 30.915c-.865.942-1.303 1.92-.873 2.792.315.636.752 1.025 1.257 1.23-.163 1.143-.664 2.077-1.68 2.579-1.347.666-2.67-.226-3.827-1.668.98 3.328-1.345 4.867-1.345 4.867-2.114 1.226-4.183-.152-5.613-2.34-.009-.01-.011-.016-.011-.016-1.144-1.752-1.876-4.016-1.898-5.873-.047-4.185 5.076-5.08 5.076-5.08 1.458-3.946 5.737-3.993 5.737-3.993s.188-1.693 4.092-2.491c3.284-.675 5.436 4.386 6.035 6-.1.013-.202.035-.301.063-1.732.466-4.984 2.123-6.649 3.93Z" fill="#fff"/>
  <path d="M15.11 41.788c-1.583 0-3.17-1.056-4.487-3.061l-.036-.056c-1.2-1.847-1.96-4.211-1.983-6.177-.04-3.515 3.236-5.16 5.242-5.62 1.394-3.285 4.572-3.92 5.74-4.042.338-.692 1.355-1.884 4.411-2.51 3.655-.75 5.924 4.216 6.731 6.386l.265.713-.753.105a1.75 1.75 0 0 0-.222.047c-1.58.425-4.75 2.007-6.363 3.755-.784.854-1.044 1.563-.775 2.109.231.465.539.771.938.932l.443.18-.067.473c-.208 1.46-.885 2.483-2.013 3.041-.774.383-1.9.525-3.254-.508-.054 1.921-1.132 3.193-1.853 3.67l-.03.019c-.632.365-1.283.544-1.935.544Zm-3.489-3.765.012.018c.7 1.071 2.565 3.42 4.776 2.157.17-.122 1.895-1.43 1.086-4.178l-.874-2.968 1.936 2.413c1.74 2.167 2.75 1.667 3.082 1.503.65-.32 1.067-.88 1.266-1.699-.465-.295-.84-.727-1.12-1.29-.354-.72-.473-1.904.97-3.477l.001-.001c1.674-1.815 4.747-3.412 6.576-3.998-.717-1.712-2.603-5.496-5.089-4.983-3.308.676-3.607 1.972-3.61 1.985l-.06.537-.537-.019c-.157.003-3.88.103-5.17 3.596l-.122.329-.346.06c-.188.034-4.612.863-4.571 4.472.019 1.726.724 3.902 1.794 5.543Z" fill="#231F20"/>
  <path d="M23.205 31.526a.61.61 0 0 1-.591-.461c-.808-3.184-2.495-6.347-2.512-6.378a.61.61 0 1 1 1.076-.578c.072.135 1.775 3.322 2.62 6.655a.611.611 0 0 1-.593.762Z" fill="#231F20"/>
  <path d="M174.948 93.843c0 3.602-1.108 5.795-2.654 7.09-1.596 1.34-3.665 1.723-5.458 1.723-1.213 0-2.666-.132-4.049-.563-2.646-.82-5.047-2.72-5.047-6.842 0-5.425 4.481-6.9 8.469-7.198a24.58 24.58 0 0 1 1.826-.066v-2.398c-.001 0 6.913.917 6.913 8.254Z" fill="#fff"/>
  <path d="M166.836 103.267c-1.065 0-2.663-.103-4.232-.591-3.582-1.111-5.475-3.678-5.475-7.425 0-3.253 1.567-7.248 9.034-7.807.41-.03.832-.05 1.26-.06v-2.49l.691.091c.075.01 7.445 1.077 7.445 8.859 0 3.42-.967 5.962-2.873 7.558-1.455 1.22-3.478 1.865-5.85 1.865Zm1.198-14.67c-.608 0-1.207.023-1.78.065-5.245.392-7.904 2.61-7.904 6.59 0 3.202 1.553 5.308 4.617 6.257 1.423.444 2.889.537 3.869.537 1.45 0 3.508-.275 5.065-1.581 1.617-1.354 2.436-3.583 2.436-6.623 0-5.457-4.033-7.071-5.692-7.504v2.259h-.611Z" fill="#231F20"/>
  <path d="M174.948 107.225c0 3.544-1.069 5.718-2.571 7.019-1.61 1.4-3.715 1.796-5.539 1.796-1.121 0-2.444-.114-3.734-.472h-.003c-2.767-.766-5.361-2.649-5.361-6.934 0-3.808 2.287-5.668 5.046-6.541 1.383.431 2.836.563 4.049.563 1.793 0 3.861-.383 5.458-1.723 1.423 1.218 2.655 3.177 2.655 6.292Z" fill="#fff"/>
  <path d="M166.838 116.65c-1.375 0-2.659-.159-3.817-.471h-.001l-.083-.023c-3.8-1.05-5.809-3.651-5.809-7.521 0-3.528 1.892-5.991 5.473-7.124l.183-.058.183.057c1.422.443 2.888.536 3.868.536 1.45 0 3.508-.274 5.065-1.58l.397-.333.392.337c1.904 1.629 2.868 3.902 2.868 6.756 0 3.365-.936 5.882-2.783 7.481-1.46 1.27-3.513 1.943-5.936 1.943Zm-3.641-1.69.071.019c1.072.299 2.273.45 3.57.45 1.481 0 3.574-.285 5.138-1.646 1.567-1.357 2.361-3.563 2.361-6.558 0-2.288-.698-4.133-2.077-5.494-1.413 1.007-3.275 1.536-5.424 1.536-1.022 0-2.535-.095-4.043-.534-2.989 1.001-4.443 2.933-4.443 5.901 0 3.286 1.632 5.414 4.847 6.326Z" fill="#231F20"/>
  <path d="M174.948 120.207c0 6.406-3.734 8.038-6.914 8.226-.229.014-.452.019-.671.019-.365 0-.752-.013-1.155-.044-3.232-.248-7.355-1.66-7.355-6.881 0-3.342 1.884-5.082 4.248-5.96h.003c1.29.359 2.613.472 3.734.472 1.824 0 3.928-.395 5.539-1.796 1.364 1.139 2.571 2.984 2.571 5.964Z" fill="#fff"/>
  <path d="M167.364 129.063c-.391 0-.795-.015-1.201-.046-2.959-.227-7.92-1.502-7.92-7.49 0-3.145 1.606-5.404 4.647-6.533l.103-.038h.193l.083.022c1.072.299 2.273.45 3.57.45 1.481 0 3.574-.285 5.138-1.646l.392-.341.4.333c1.852 1.544 2.791 3.709 2.791 6.432 0 7.303-4.692 8.67-7.489 8.836-.241.016-.477.021-.707.021Zm-4.229-12.855c-2.47.976-3.671 2.719-3.671 5.319 0 4.752 3.693 6.034 6.791 6.272.589.044 1.146.061 1.742.024 4.207-.248 6.339-2.811 6.339-7.616 0-2.152-.667-3.886-1.983-5.163-1.425 1.053-3.319 1.607-5.516 1.607-1.329 0-2.574-.149-3.702-.443Z" fill="#231F20"/>
  <path d="M117.719 99.406a20.177 20.177 0 0 1-1.827-.868v9.483a21.344 21.344 0 0 1-3.795-7.157 21.986 21.986 0 0 1-.953-6.458c0-4 2.02-6.829 4.748-8.298a9.748 9.748 0 0 1 1.827-.751c3.593-1.072 7.817-.103 10.352 3.226 4.779 6.276-.063 15.062-10.352 10.823Z" fill="#fff"/>
  <path d="m116.503 109.737-1.083-1.331a21.884 21.884 0 0 1-3.906-7.363 22.68 22.68 0 0 1-.98-6.637c0-3.88 1.848-7.1 5.07-8.836.611-.33 1.265-.598 1.941-.8 4.153-1.239 8.476.113 11.012 3.442 2.451 3.22 2.647 7.27.487 10.079-2.355 3.063-6.676 3.691-11.558 1.679h-.002c-.334-.14-.66-.285-.981-.438v10.205Zm4.108-24.196c-.897 0-1.811.13-2.718.4a9.048 9.048 0 0 0-1.71.705c-2.813 1.515-4.427 4.343-4.427 7.76 0 2.156.312 4.27.927 6.279a20.887 20.887 0 0 0 2.6 5.481v-8.65l.9.484c.581.312 1.159.587 1.771.841 4.341 1.789 8.125 1.305 10.123-1.294 1.819-2.366 1.622-5.82-.49-8.594-1.677-2.198-4.246-3.412-6.976-3.412Z" fill="#231F20"/>
  <path d="M168.034 64.856v23.13c-.582 0-1.198.02-1.826.067v-22.91a4.096 4.096 0 0 0-4.094-4.096h-6.963v1.198a4.326 4.326 0 0 1-4.326 4.326H133.1a4.326 4.326 0 0 1-4.326-4.326v-1.198h-6.963a4.095 4.095 0 0 0-4.093 4.096v20.213a9.629 9.629 0 0 0-1.827.752V64.856a5.572 5.572 0 0 1 5.572-5.571h40.999a5.571 5.571 0 0 1 5.572 5.571Z" fill="#FCBA06"/>
  <path d="M165.598 88.71V65.144a3.487 3.487 0 0 0-3.483-3.485h-6.353v.588a4.942 4.942 0 0 1-4.936 4.937h-17.725a4.942 4.942 0 0 1-4.937-4.937v-.588h-6.352a3.489 3.489 0 0 0-3.483 3.485v20.67l-.437.13a9.032 9.032 0 0 0-1.711.703l-.9.485V64.856a6.19 6.19 0 0 1 6.181-6.182h40.999a6.189 6.189 0 0 1 6.182 6.182v23.742h-.61a24.3 24.3 0 0 0-1.781.064l-.654.049Zm-11.057-28.273h7.574a4.71 4.71 0 0 1 4.704 4.706v22.26c.2-.009.401-.016.604-.02V64.855a4.966 4.966 0 0 0-4.96-4.96h-40.999a4.967 4.967 0 0 0-4.961 4.96v20.286c.199-.083.401-.159.605-.23V65.143a4.71 4.71 0 0 1 4.704-4.706h7.574v1.81a3.72 3.72 0 0 0 3.715 3.714h17.725a3.72 3.72 0 0 0 3.715-3.715v-1.81Z" fill="#231F20"/>
  <path d="M168.034 128.434v15.692a5.57 5.57 0 0 1-5.571 5.572h-40.999a5.572 5.572 0 0 1-5.572-5.572V98.539c.628.337 1.235.622 1.827.868v44.432a4.096 4.096 0 0 0 4.093 4.097h40.303a4.097 4.097 0 0 0 4.094-4.097V128.41c.403.03.79.044 1.155.044.218-.001.441-.006.67-.02Z" fill="#FCBA06"/>
  <path d="M162.463 150.308h-40.999a6.19 6.19 0 0 1-6.182-6.183V97.516l.9.484c.581.312 1.159.587 1.771.841l.377.157v44.839a3.487 3.487 0 0 0 3.483 3.485h40.303a3.488 3.488 0 0 0 3.483-3.485v-16.088l.657.05c.591.044 1.147.061 1.742.024l.648-.04v16.341a6.191 6.191 0 0 1-6.183 6.184Zm-45.96-50.775v44.592a4.967 4.967 0 0 0 4.961 4.961h40.999a4.966 4.966 0 0 0 4.96-4.961v-15.062c-.199 0-.4-.003-.604-.009v14.784a4.71 4.71 0 0 1-4.704 4.707h-40.303a4.71 4.71 0 0 1-4.704-4.707V99.809c-.204-.09-.405-.181-.605-.276Z" fill="#231F20"/>
  <path d="M130.176 128.518a.611.611 0 0 1-.474-.997l22.293-27.446a.61.61 0 1 1 .949.77l-22.293 27.446a.608.608 0 0 1-.475.227Z" fill="#231F20"/>
  <path d="M132.393 108.971a4.255 4.255 0 1 0 0-8.51 4.255 4.255 0 0 0 0 8.51Z" fill="#fff"/>
  <path d="M132.393 109.581a4.871 4.871 0 0 1-4.865-4.866 4.872 4.872 0 0 1 4.865-4.865 4.872 4.872 0 0 1 4.866 4.865 4.87 4.87 0 0 1-4.866 4.866Zm0-8.509a3.649 3.649 0 0 0-3.644 3.644 3.649 3.649 0 0 0 3.644 3.645 3.649 3.649 0 0 0 3.645-3.645 3.649 3.649 0 0 0-3.645-3.644Z" fill="#231F20"/>
  <path d="M151.45 128.027a4.255 4.255 0 1 0 0-8.51 4.255 4.255 0 0 0 0 8.51Z" fill="#fff"/>
  <path d="M151.45 128.638a4.872 4.872 0 0 1-4.866-4.866 4.872 4.872 0 0 1 4.866-4.866 4.871 4.871 0 0 1 4.866 4.866 4.872 4.872 0 0 1-4.866 4.866Zm0-8.51a3.649 3.649 0 0 0-3.644 3.644 3.649 3.649 0 0 0 3.644 3.644 3.648 3.648 0 0 0 3.644-3.644 3.648 3.648 0 0 0-3.644-3.644ZM86.607 77.512c.001-.964-.392-1.746-.879-1.747-.487 0-.882.78-.884 1.744 0 .964.393 1.746.88 1.747.486 0 .882-.78.883-1.744ZM100.942 77.511c.001-.963-.392-1.745-.879-1.746-.487 0-.882.78-.884 1.744 0 .964.393 1.746.879 1.747.487 0 .883-.78.884-1.745Z" fill="#231F20"/>
</svg>