<?xml version="1.0" encoding="utf-8"?>
<svg xmlns="http://www.w3.org/2000/svg" fill="none" viewBox="89.51 92.62 331.49 321.48">
  <path d="M278.04 414.1c78.95 0 142.96-61.78 142.96-138s-64-138.01-142.96-138.01c-78.96 0-142.97 61.79-142.97 138 0 76.23 64.01 138.02 142.97 138.02Z" fill="#000"/>
  <path d="M241.14 385.19c83.05 0 150.85-65.06 150.85-145.9 0-80.83-67.8-145.89-150.85-145.89-83.04 0-150.84 65.06-150.84 145.9 0 80.83 67.8 145.89 150.84 145.89Z" fill="#FF90E8" stroke="#000" stroke-width="1.56"/>
  <path d="M229.8 312.9c-42.22 0-67.06-34.11-67.06-76.54 0-44.1 27.32-79.87 79.47-79.87 53.8 0 72.02 36.6 72.84 57.4h-38.9c-.83-11.64-10.76-29.11-34.77-29.11-25.66 0-42.21 22.46-42.21 49.91 0 27.46 16.55 49.92 42.21 49.92 23.18 0 33.11-18.3 37.25-36.6h-37.25v-14.98h78.17v76.54h-34.3v-48.25c-2.48 17.47-13.24 51.58-55.46 51.58Z" fill="#000"/>
</svg>