<?xml version="1.0" encoding="utf-8"?>
<svg xmlns="http://www.w3.org/2000/svg" fill="none" viewBox="0 0 344 370">
  <g filter="url(#a)">
    <g clip-path="url(#b)">
      <rect fill="#fff" height="325.38" rx="21.87" width="298.95" x="18.89" y="19"/>
      <g clip-path="url(#c)">
        <path d="M18.9 19h298.94v107.55H18.9z" fill="#EEE8FE"/>
        <path d="M123.1 151.54h39.63a3.87 3.87 0 0 0 3.81-3.2l4.93-30.16a3.87 3.87 0 0 0-3.81-4.54h-35.01a3.87 3.87 0 0 0-3.81 3.2l-5.73 34.7Z" fill="#fff"/>
        <path d="M123.1 151.82a.28.28 0 0 1-.28-.33l5.73-34.7a4.15 4.15 0 0 1 4.09-3.43h35.01a4.14 4.14 0 0 1 4.09 4.87l-4.93 30.16a4.15 4.15 0 0 1-4.08 3.43H123.1Zm44.55-37.9h-35.01a3.58 3.58 0 0 0-3.53 2.97l-5.68 34.36h39.3a3.58 3.58 0 0 0 3.53-2.96l4.92-30.15a3.58 3.58 0 0 0-3.53-4.22Z" fill="#000"/>
        <path d="M123.1 151.54h2.91l5.73-34.7a3.87 3.87 0 0 1 3.8-3.2h-2.9a3.87 3.87 0 0 0-3.8 3.2l-5.73 34.7Z" fill="#000"/>
        <path d="M126 151.82h-2.9a.28.28 0 0 1-.28-.33l5.73-34.7a4.15 4.15 0 0 1 4.09-3.43h2.9a.28.28 0 1 1 0 .56 3.58 3.58 0 0 0-3.53 2.97l-5.73 34.7a.28.28 0 0 1-.28.23Zm-2.56-.57h2.32l5.69-34.46a4.15 4.15 0 0 1 2-2.87h-.81a3.58 3.58 0 0 0-3.53 2.97l-5.68 34.36ZM77.38 83.73a.27.27 0 0 1-.24-.14.28.28 0 0 1 .1-.39c.82-.48 1.22-1.05 1.23-1.73.02-2.49-5.04-5.61-5.1-5.65a.28.28 0 0 1 .3-.48c.22.14 5.39 3.33 5.36 6.13 0 .9-.51 1.64-1.5 2.22a.28.28 0 0 1-.15.04Z" fill="#000"/>
        <path d="M70.7 78.1a3.74 3.74 0 1 0 0-7.47 3.74 3.74 0 0 0 0 7.48Z" fill="#BF92FB"/>
        <path d="M70.7 78.4a4.03 4.03 0 1 1 0-8.06 4.03 4.03 0 0 1 0 8.05Zm0-7.49a3.46 3.46 0 1 0 0 6.93 3.46 3.46 0 0 0 0-6.93Z" fill="#000"/>
        <path d="M60.98 53.83s7.94.5 11.1 6.18c3.07 5.54-2.67 17.81-1.11 20.74 1.56 2.94 1.4 10.3-5.9 8.31-7.28-1.99-9.12-10.03-9.12-10.03L61 66.07s2.6-4.3 2.93-4.59c.33-.28-2.96-7.65-2.96-7.65Z" fill="#000"/>
        <path d="M67.32 89.68a8.6 8.6 0 0 1-2.33-.35c-7.36-2-9.3-10.15-9.33-10.24a.28.28 0 0 1 .02-.16l5.06-12.96.02-.05a79.5 79.5 0 0 1 2.91-4.57c-.06-.68-1.74-4.69-2.96-7.4a.28.28 0 0 1 .28-.4c.33.02 8.13.57 11.33 6.33 1.84 3.31.65 8.75-.4 13.54-.67 3.12-1.31 6.06-.7 7.2.94 1.78 1.35 5.38-.34 7.5a4.3 4.3 0 0 1-3.56 1.56ZM56.23 79.05c.23.84 2.27 7.93 8.91 9.74 2.44.66 4.23.32 5.3-1.03 1.52-1.9 1.13-5.27.27-6.88-.7-1.31-.1-4.08.67-7.58.97-4.47 2.18-10.02.44-13.15-2.6-4.7-8.65-5.77-10.4-5.99 3.18 7.12 2.88 7.38 2.7 7.53-.22.2-1.64 2.47-2.87 4.5l-5.02 12.86Z" fill="#000"/>
        <path d="M117.38 88.7s3.76 3.4 2.98 6.27c-.08.29-3.12 3.7-4.25 4.32-3.8 2.11-5.38 2.28-5.38 2.28-1.6 2.2-12.78 21.96-19.07 23.12-6.6 1.22-16.62-10.93-16.62-10.93l8.53-11.54 6.62 5.98 14.31-14.3c.87-1.97 6.3-10.52 7.81-9.03 1.47 1.45.54 3.3.48 3.42.21-.2 7.24-6.81 8.95-5.44 1.74 1.4-4.36 5.84-4.36 5.84Z" fill="#fff"/>
        <path d="M90.68 125.06c-6.62 0-15.47-10.65-15.87-11.12a.28.28 0 0 1 0-.35l8.53-11.53a.28.28 0 0 1 .42-.04l6.41 5.79 14.09-14.08c.8-1.76 5.25-8.88 7.4-9.29a.9.9 0 0 1 .84.23c.92.9.99 1.94.86 2.7 2.11-1.9 6.99-6 8.55-4.73.28.22.43.54.42.9-.04 1.68-3.46 4.38-4.53 5.18.86.84 3.53 3.74 2.82 6.33-.12.46-3.3 3.89-4.38 4.5-3.25 1.8-4.9 2.2-5.35 2.28-.3.42-.83 1.28-1.54 2.42-3.69 5.9-12.32 19.74-17.64 20.72-.34.06-.68.1-1.03.1ZM75.4 113.75c1.24 1.45 10.26 11.77 16.21 10.67 5.09-.94 13.62-14.62 17.27-20.47.78-1.25 1.34-2.15 1.63-2.54.05-.07.12-.1.2-.11.01 0 1.59-.2 5.26-2.25 1.09-.6 3.92-3.8 4.12-4.17.7-2.66-2.87-5.94-2.9-5.98a.28.28 0 0 1-.1-.22.28.28 0 0 1 .12-.21c1.26-.92 4.53-3.59 4.56-4.94a.52.52 0 0 0-.2-.45c-.99-.8-5.16 2.2-8.58 5.42a.28.28 0 0 1-.45-.34c.1-.18.87-1.8-.42-3.08-.06-.06-.15-.12-.34-.08-1.8.34-6.14 7.02-7.02 9a.3.3 0 0 1-.06.1l-14.3 14.3a.3.3 0 0 1-.4.01l-6.38-5.77-8.22 11.1Z" fill="#000"/>
        <path d="m117.26 88.73-3.38 2.5a1.21 1.21 0 0 0-.28 1.7 1.2 1.2 0 0 0 1.7.23l3.38-2.5c.55-.42.68-1.18.29-1.71-.2-.27-.49-.42-.8-.46-.3-.04-.64.04-.91.24Z" fill="#fff"/>
        <path d="M114.55 93.69a1.5 1.5 0 0 1-1.19-.59 1.5 1.5 0 0 1 .34-2.1l3.38-2.5c.33-.24.73-.35 1.12-.3a1.44 1.44 0 0 1 1.25 1.7c-.06.38-.28.73-.6.98l-3.38 2.5c-.27.2-.6.31-.92.31Zm3.46-4.93a.96.96 0 0 0-.6.2l-3.37 2.5a.94.94 0 0 0-.23 1.3c.15.2.36.33.61.36.25.03.5-.04.71-.2l3.38-2.5c.2-.15.34-.37.38-.62a.89.89 0 0 0-.88-1.04Z" fill="#000"/>
        <path d="m118.6 90.73-3.25 2.41c-.53.4-.66 1.13-.28 1.64.38.52 1.12.61 1.65.22l3.26-2.42c.53-.4.66-1.13.27-1.64-.19-.26-.47-.4-.76-.45-.3-.04-.62.04-.89.24Z" fill="#fff"/>
        <path d="m116 95.52-.2-.01a1.4 1.4 0 0 1-1.2-1.64c.06-.38.26-.72.58-.96l3.26-2.41a1.45 1.45 0 0 1 2.04.27c.47.63.32 1.55-.33 2.03l-3.26 2.42c-.26.2-.57.3-.9.3Zm2.77-4.57-3.25 2.42a.93.93 0 0 0-.37.6.84.84 0 0 0 .73.98.9.9 0 0 0 .67-.18l3.26-2.42c.4-.3.5-.86.22-1.25a.84.84 0 0 0-.58-.33.94.94 0 0 0-.68.18Z" fill="#000"/>
        <path d="m119.39 93.03-2.75 2.04c-.44.33-.52.98-.17 1.46.35.47 1 .59 1.45.25l2.51-1.86c.45-.34.76-1.16.4-1.63a1.1 1.1 0 0 0-.68-.43.98.98 0 0 0-.76.17Z" fill="#fff"/>
        <path d="M117.33 97.26c-.41 0-.82-.2-1.1-.56-.44-.6-.33-1.43.24-1.86l2.74-2.03c.28-.21.63-.3.98-.23.35.06.65.25.87.54.44.6.1 1.6-.47 2.02l-2.51 1.87c-.22.17-.49.25-.75.25Zm2.22-4-2.75 2.03c-.32.24-.37.72-.11 1.07.26.35.73.44 1.05.2l2.52-1.87c.34-.26.58-.92.34-1.24a.8.8 0 0 0-.5-.32.7.7 0 0 0-.55.13Z" fill="#000"/>
        <path d="M112.78 88.3s-.37 2.22-1.7 3.07c0 0 .68 1.28.48 2.68a2.89 2.89 0 0 1-1.3 2.02" fill="#fff"/>
        <path d="M110.26 96.34a.28.28 0 0 1-.14-.53c.04-.02.99-.57 1.16-1.8.19-1.29-.45-2.5-.45-2.51a.28.28 0 0 1 .1-.37c1.21-.78 1.57-2.86 1.57-2.88a.28.28 0 0 1 .56.09c-.02.09-.37 2.14-1.63 3.12.2.45.57 1.5.41 2.63a3.14 3.14 0 0 1-1.44 2.22.29.29 0 0 1-.14.03Z" fill="#000"/>
        <path d="M71.65 92.13s2.34.5 5.9 2.6c3.56 2.1 9.96 7.96 9.96 7.96 1.93 1.37-8.25 15.64-10.18 14.27L65.71 105.1l5.94-12.97Z" fill="#fff"/>
        <path d="m77.33 116.96-2.63-2.7c2.3-.55 8.8-10.2 9.8-13.94.64.66 3 2.37 3 2.37 1.94 1.37-8.24 15.64-10.17 14.27Z" fill="#FEC524"/>
        <path d="M77.64 117.33a.79.79 0 0 1-.51-.18L65.5 105.3a.28.28 0 0 1-.05-.32l6.24-13.02a.29.29 0 0 1 .29-.16c.07 0 1.82.2 5.4 2.32 3.5 2.08 9.9 7.97 10.3 8.35 1.54 1.16-2.67 7.25-3.53 8.47a36.64 36.64 0 0 1-3.93 4.73c-1.13 1.11-1.98 1.66-2.58 1.66Zm-.13-.6c.24.14.99-.16 2.32-1.46a35.9 35.9 0 0 0 3.85-4.66 35.4 35.4 0 0 0 3.08-5.07c.79-1.68.8-2.46.58-2.62l-.03-.02c-.06-.06-6.73-6.22-10.22-8.3-2.8-1.65-4.45-2.1-4.98-2.2l-6.07 12.64 11.47 11.7Z" fill="#000"/>
        <path d="M77.53 102.5c.87 20.2-2.18 24.55-1.89 25.9.17.75 1.39 18.02 2.43 23.13H33.01l4.78-23.83s-6.2-26.45-2.5-33c1.97-3.5 7.64-4.5 14.57-4.87 1.38-.08 2.8-.13 4.26-.17 5.93-.16 10.67.58 13.91 1.3 2.42.54 4.02 1.07 4.67 1.22" fill="#fff"/>
        <path d="M78.07 151.82H33.01a.28.28 0 0 1-.28-.34l4.78-23.77c-.4-1.74-6.13-26.67-2.47-33.15 2.16-3.82 8.4-4.67 14.8-5.01 1.2-.07 2.52-.12 4.27-.17a57.39 57.39 0 0 1 18.65 2.53.28.28 0 0 1-.13.55c-.22-.05-.55-.15-.98-.27a56.86 56.86 0 0 0-17.53-2.24c-1.74.05-3.05.1-4.24.16-5.96.32-12.32 1.13-14.35 4.72-3.6 6.4 2.48 32.55 2.54 32.8v.13l-4.72 23.5h44.38c-.73-3.9-1.52-13.18-2-18.8-.18-2.12-.32-3.8-.36-4-.09-.4.04-.92.28-1.86.68-2.66 2.25-8.9 1.6-24.07a.28.28 0 0 1 .56-.03c.66 15.27-.93 21.55-1.61 24.24-.2.8-.34 1.33-.28 1.6.05.23.16 1.48.38 4.08.49 5.77 1.3 15.43 2.05 19.06a.28.28 0 0 1-.28.34Z" fill="#000"/>
        <path d="m60.91 96.99-.05.04-2.16 5.46s-10.2-3.47-14.87-12.07l4.12-.47 11.13 4.27 1.83 2.77Z" fill="#FEC524"/>
        <path d="M58.7 102.78c-.03 0-.07 0-.1-.02-.1-.03-10.36-3.6-15.03-12.2a.28.28 0 0 1 .22-.42l4.12-.46a.3.3 0 0 1 .13.01l11.14 4.27c.05.02.1.06.13.1l1.83 2.78c.08.12.05.28-.05.37l-2.13 5.39a.28.28 0 0 1-.26.18ZM44.27 90.65c4.24 7.41 12.7 10.9 14.26 11.49l2.04-5.15-1.68-2.54-10.98-4.2-3.64.4Z" fill="#000"/>
        <path d="M89.7 136.62s1.6 1.2-.77 2.44-14.06.31-14.06.31l-30.33 4c-5.32.62-10.45-3.73-10.21-9.07L33 110.79l15.56-.1 1.13 19 22.98-1.63s1.55-5.82 4.06-5.05c2.5.77-.06 4.35-.06 4.35s11.42-2.26 12.5-.66c1.07 1.56-4.83 3.75-5.08 3.85.24-.02 5.6-.46 6.63.46 1.05.94.09 2.23-1.03 2.53 0 0 2.52 1.53 0 3.08Z" fill="#fff"/>
        <path d="M43.56 143.71c-2.4 0-4.82-.95-6.63-2.64a8.8 8.8 0 0 1-2.88-6.77l-1.32-23.5a.28.28 0 0 1 .28-.3l15.56-.1a.3.3 0 0 1 .28.26l1.11 18.73 22.5-1.6c.24-.83 1.26-3.98 2.9-4.88.47-.27.97-.33 1.46-.17.63.19 1.03.55 1.2 1.07.35 1.02-.3 2.39-.74 3.15 2.86-.54 11.1-1.95 12.14-.42.18.26.23.57.13.88-.33 1.03-2.29 2.08-3.77 2.74 1.86-.07 4.4-.03 5.14.64.45.4.63.92.5 1.45a2.2 2.2 0 0 1-1.14 1.36c.36.32.82.86.82 1.51 0 .56-.32 1.07-.96 1.54.2.22.4.58.37 1.02-.05.6-.54 1.15-1.45 1.62-2.38 1.24-13.39.41-14.18.35l-30.3 4c-.34.04-.68.06-1.02.06Zm-10.25-32.65 1.3 23.22v.03a8.23 8.23 0 0 0 2.7 6.34 9.17 9.17 0 0 0 7.2 2.44l30.32-4a.3.3 0 0 1 .06 0c.11 0 11.64.9 13.9-.29.72-.37 1.12-.77 1.15-1.16.04-.45-.41-.8-.41-.8a.28.28 0 0 1-.12-.24.3.3 0 0 1 .14-.23c.66-.4.99-.82.99-1.25 0-.73-.97-1.34-.98-1.34a.28.28 0 0 1 .07-.52c.6-.16 1.13-.64 1.24-1.14.08-.33-.03-.64-.33-.9-.64-.57-3.67-.61-6.4-.4a.29.29 0 0 1-.3-.22.28.28 0 0 1 .16-.32c1.84-.68 4.7-2.05 5-3.03a.42.42 0 0 0-.04-.4c-.72-1.05-7.88-.08-12.22.78a.28.28 0 0 1-.29-.44c.4-.56 1.37-2.22 1.04-3.2-.12-.34-.4-.58-.83-.72-.35-.1-.7-.06-1.04.13-1.64.9-2.66 4.69-2.67 4.72a.28.28 0 0 1-.25.21l-22.98 1.64a.28.28 0 0 1-.3-.26l-1.11-18.75-15 .1Z" fill="#000"/>
        <path d="M36.01 93.7s-3.38 2.98-3.98 9.84c-.6 6.86-.45 13.59-.45 13.59.13 1.98 18.68-.08 18.55-2.07 0 0-1.2-7.73-2.15-12.2" fill="#fff"/>
        <path d="M50.13 115.06c.13 1.99-18.43 4.05-18.55 2.07l-.01-3.95c3.45.85 15.41-.89 18-2.5.2 1.31.56 4.38.56 4.38Z" fill="#FEC524"/>
        <path d="M35.39 118.2c-1.66 0-2.97-.13-3.58-.43-.32-.16-.49-.37-.5-.63 0-.08-.15-6.82.44-13.62.6-6.9 3.94-9.9 4.08-10.03a.28.28 0 0 1 .38.43c-.04.03-3.31 3-3.9 9.64-.59 6.77-.44 13.5-.44 13.56 0 0 .04.07.2.14 2.2 1.1 15.14-.3 17.52-1.9.22-.14.27-.25.27-.28-.01-.05-1.2-7.75-2.15-12.15a.28.28 0 0 1 .55-.12c.95 4.42 2.15 12.13 2.16 12.2.02.31-.16.58-.52.82-1.89 1.27-9.68 2.37-14.51 2.37Z" fill="#000"/>
        <path d="m60.9 96.99 5.78 3.8s3-3.86 2.98-9.44l-1.9-.45-3.4 3.27-3.46 2.82Z" fill="#FEC524"/>
        <path d="M66.68 101.08a.28.28 0 0 1-.15-.05l-5.79-3.8a.28.28 0 0 1-.02-.46l3.46-2.82 3.38-3.25c.07-.07.17-.1.26-.08l1.91.46c.13.03.22.14.22.27a16.74 16.74 0 0 1-3.04 9.62.28.28 0 0 1-.23.11Zm-5.3-4.11 5.23 3.44a16.6 16.6 0 0 0 2.77-8.83l-1.54-.37-3.28 3.17-3.18 2.59Z" fill="#000"/>
        <path d="M68.04 90.96c-.42 2.84-3.51 5.9-7.13 6.03-5.36.2-11.44-3.54-12.98-7.03h.02a3.26 3.26 0 0 0 3.04-2.85 24 24 0 0 0-1.22-10.77l17.12 2.31s-2.44 4.89-2.54 8.87a3.22 3.22 0 0 0 2.53 3.18l1.16.26Z" fill="#fff"/>
        <path d="M60.49 97.28c-5.46 0-11.32-3.8-12.83-7.21a.28.28 0 0 1 .25-.4 2.98 2.98 0 0 0 2.8-2.6c.43-3.34.01-7.03-1.21-10.64a.28.28 0 0 1 .3-.37l17.12 2.3a.28.28 0 0 1 .22.41c-.03.05-2.42 4.88-2.51 8.75a2.93 2.93 0 0 0 2.3 2.9l1.17.27c.14.03.24.17.22.31-.43 2.86-3.58 6.13-7.4 6.27l-.43.01ZM48.35 90.2c1.71 3.24 7.36 6.7 12.54 6.52 3.44-.13 6.28-2.96 6.82-5.53l-.9-.2a3.5 3.5 0 0 1-2.75-3.47c.08-3.43 1.84-7.43 2.4-8.64l-16.29-2.2a24.27 24.27 0 0 1 1.1 10.48 3.55 3.55 0 0 1-2.92 3.04Z" fill="#000"/>
        <path d="M49.77 76.33s-3.98-1.9-3.05-5.35c.92-3.43 4.53-.34 4.53-.34s-.47-3.56.47-6.66c1.55-5.12 7.63-9.07 13.3-7.11.43.15.85.33 1.27.54 8.42 4.34 7.64 24.55-.52 27-3.67 1.1-6.84.24-9.36-1.27" fill="#fff"/>
        <path d="M62.46 85.2a12 12 0 0 1-6.2-1.81.28.28 0 0 1 .28-.49 11.05 11.05 0 0 0 9.14 1.24c3.28-.98 5.65-5.18 6.18-10.94.54-5.8-1.02-13.12-5.7-15.53a9.56 9.56 0 0 0-8.75.1 10.8 10.8 0 0 0-5.42 6.3c-.91 3-.47 6.5-.47 6.53a.28.28 0 0 1-.46.25c-.02-.01-1.81-1.53-3.04-1.14-.49.15-.83.6-1.04 1.34-.85 3.2 2.87 5.02 2.9 5.03a.28.28 0 1 1-.24.51c-.04-.02-4.18-2.04-3.2-5.68.25-.95.73-1.53 1.41-1.74 1.07-.33 2.35.38 3.05.86a17.8 17.8 0 0 1 .54-6.13 11.38 11.38 0 0 1 5.7-6.63 10.12 10.12 0 0 1 9.28-.1c4.91 2.53 6.56 10.11 6 16.08-.55 6-3.07 10.38-6.58 11.43a11.7 11.7 0 0 1-3.38.51Z" fill="#000"/>
        <path d="M69.36 65.46c-5.6 3.05-14.57-.6-14.57-.6s-2.84.36-3.55 5.78c0 0-3.6-3.08-4.53.34-.93 3.46 3.05 5.36 3.05 5.36 1.32 3.5 2.06 11.14.49 12.45-2.5.82-8.1.9-9.97-.84-2.23-2.08 2.18-19.78 2.18-19.78s-.2-6.14 3.74-9.87c3.96-3.74 15.35-8.07 21.15-2.65 2.14 2 6.84 7.19 2.01 9.81Z" fill="#000"/>
        <path d="M45.95 89.64c-2.33 0-4.73-.43-5.86-1.49-2.28-2.11 1.59-18.02 2.08-20.02-.01-.59-.03-6.38 3.84-10.04 4.27-4.04 15.7-8.1 21.53-2.64 1.38 1.28 4.54 4.57 4.18 7.38-.15 1.2-.9 2.16-2.22 2.88-5.44 2.96-13.78-.17-14.74-.55-.4.1-2.63.85-3.24 5.52a.28.28 0 0 1-.46.18c-.02-.02-1.82-1.54-3.05-1.15-.48.15-.83.6-1.03 1.34-.86 3.19 2.75 4.96 2.9 5.03.06.03.11.09.14.16 1.24 3.28 2.21 11.25.4 12.76a14.9 14.9 0 0 1-4.48.64Zm14.08-36.23c-5.2 0-10.98 2.58-13.63 5.09-3.81 3.6-3.67 9.6-3.66 9.65l-.01.08c-1.76 7.05-3.8 18.07-2.26 19.5 1.7 1.6 7.1 1.62 9.63.8 1.3-1.22.77-8.36-.57-12-.64-.34-3.99-2.31-3.1-5.62.26-.95.73-1.53 1.42-1.74 1.14-.36 2.51.47 3.18.95.83-5.12 3.6-5.52 3.72-5.54.05 0 .1 0 .14.02.1.04 8.92 3.56 14.34.61 1.15-.62 1.8-1.45 1.93-2.45.32-2.55-2.7-5.67-4-6.9-1.88-1.76-4.43-2.45-7.13-2.45Z" fill="#000"/>
        <path d="M60.45 72.57c.53-.05.9-.64.83-1.32-.07-.68-.55-1.2-1.07-1.14-.52.05-.89.64-.82 1.33.07.68.54 1.19 1.06 1.13Zm7.55-.71c.51-.05.88-.64.81-1.32-.06-.68-.54-1.2-1.06-1.14-.52.05-.9.64-.82 1.32.06.68.54 1.2 1.06 1.14Z" fill="#000"/>
        <path d="M61.62 68.95s-1.7-.89-3.47.92l3.47-.92Z" fill="#fff"/>
        <path d="M58.14 70.16a.28.28 0 0 1-.2-.48c1.9-1.94 3.79-.99 3.8-.98a.28.28 0 0 1-.26.5c-.06-.03-1.55-.75-3.14.87a.28.28 0 0 1-.2.09Z" fill="#000"/>
        <path d="M69.2 68.38s-1.71-.89-3.48.92l3.47-.92Z" fill="#fff"/>
        <path d="M65.72 69.59a.28.28 0 0 1-.2-.48c1.89-1.94 3.78-.99 3.8-.98a.28.28 0 0 1-.26.5c-.06-.03-1.55-.76-3.14.87a.28.28 0 0 1-.2.09Z" fill="#000"/>
        <path d="M64 71.04c.37 1.26.76 2.5 1.14 3.76.09.3.18.61.12.92-.07.4-.4.71-.76.88-.37.17-.78.23-1.18.28" fill="#fff"/>
        <path d="M63.31 77.16a.28.28 0 0 1-.03-.57c.37-.04.76-.09 1.1-.24.32-.16.55-.41.6-.69.05-.24-.04-.53-.12-.78l-1.14-3.76a.28.28 0 1 1 .53-.16l1.15 3.76c.1.3.2.67.13 1.05-.08.45-.43.86-.92 1.09a4.13 4.13 0 0 1-1.3.3Z" fill="#000"/>
        <path d="M60.98 79.25a3.78 3.78 0 0 0 3.49.63l-3.5-.63Z" fill="#fff"/>
        <path d="M63.32 80.34c-.88 0-1.77-.3-2.52-.87a.28.28 0 0 1 .34-.45 3.5 3.5 0 0 0 3.23.59.28.28 0 0 1 .18.53c-.4.14-.81.2-1.23.2Z" fill="#000"/>
        <path d="M47.96 70.74c-2.08-.65-3.83-2.02-5.25-3.3-1.46-1.32-4.3.5-3.63 3.34.63 2.68 5.92 3.07 8.35 4.1l.53-4.14Z" fill="#fff"/>
        <path d="M47.43 75.17c-.04 0-.08 0-.11-.02-.67-.3-1.59-.53-2.56-.79-2.56-.67-5.47-1.43-5.96-3.52a3.34 3.34 0 0 1 1.46-3.75c.91-.54 1.95-.49 2.64.14 1.29 1.16 3.04 2.59 5.14 3.24a.3.3 0 0 1 .2.3l-.53 4.15a.28.28 0 0 1-.28.25Zm-5.88-7.89c-.32 0-.67.1-1 .3a2.79 2.79 0 0 0-1.2 3.13c.41 1.76 3.14 2.47 5.55 3.1.84.23 1.64.44 2.3.68l.45-3.56a15.19 15.19 0 0 1-5.13-3.28c-.27-.25-.6-.37-.97-.37Z" fill="#000"/>
        <path d="M49.73 76.8a3.74 3.74 0 1 0 0-7.48 3.74 3.74 0 0 0 0 7.48Z" fill="#fff"/>
        <path d="M49.72 77.08a4.03 4.03 0 1 1 .01-8.05 4.03 4.03 0 0 1 0 8.05Zm0-7.48a3.46 3.46 0 1 0 .01 6.92 3.46 3.46 0 0 0 0-6.92Z" fill="#000"/>
        <path d="M49.72 75.07a2.02 2.02 0 1 0 0-4.03 2.02 2.02 0 0 0 0 4.03Z" fill="#BF92FB"/>
        <path d="M74.37 84.35c-3.74 0-8.48-1.66-8.74-1.75a.28.28 0 0 1 .18-.53c.09.03 8.39 2.92 11.44 1.13a.28.28 0 1 1 .28.49 6.4 6.4 0 0 1-3.16.66Z" fill="#000"/>
        <path d="M65.6 83.07a1.2 1.2 0 1 0 0-2.4 1.2 1.2 0 0 0 0 2.4Z" fill="#000"/>
        <path d="M65.6 83.35a1.49 1.49 0 1 1 0-2.97 1.49 1.49 0 0 1 0 2.97Zm0-2.4a.92.92 0 1 0 0 1.84.92.92 0 0 0 0-1.84Z" fill="#000"/>
        <path d="m153.28 103.25 1.83-1.56-2.41-4.91-1.88-1.3.77 7.02a1.02 1.02 0 0 0 1.69.75Z" fill="#71FFCC"/>
        <path d="M152.62 103.79c-.19 0-.37-.04-.54-.12a1.3 1.3 0 0 1-.77-1.17l-.77-7a.28.28 0 0 1 .44-.25l1.88 1.3c.04.02.07.06.1.1l2.4 4.92c.06.11.03.25-.07.34l-1.83 1.56c-.24.2-.54.32-.84.32Zm-1.45-7.73.7 6.4a.74.74 0 0 0 1.23.58l1.66-1.42-2.28-4.65-1.31-.9Z" fill="#000"/>
        <path d="m152.93 98.06 3.77 7.68 10.23-17.45c.47-.8-.26-1.77-1.16-1.53l-21.46 5.62 6.8 4.06" fill="#71FFCC"/>
        <path d="M156.69 106.02h-.01c-.1 0-.2-.07-.24-.16l-3.77-7.68a.28.28 0 1 1 .5-.25l3.54 7.2 9.97-16.98a.75.75 0 0 0-.05-.84.75.75 0 0 0-.8-.28l-20.8 5.45 6.22 3.72c.13.08.18.25.1.39a.28.28 0 0 1-.39.1l-6.8-4.07a.28.28 0 0 1 .07-.52l21.46-5.62a1.3 1.3 0 0 1 1.4.49c.32.43.35 1 .08 1.47l-10.24 17.44a.28.28 0 0 1-.24.14Z" fill="#000"/>
        <path d="M156.27 95.28a.28.28 0 0 1-.23-.11.28.28 0 0 1 .06-.4l10.53-7.92c.13-.1.3-.07.4.05a.3.3 0 0 1-.06.4l-10.53 7.93a.3.3 0 0 1-.17.05Z" fill="#000"/>
        <path d="M114.2 71.77a8.61 8.61 0 0 1-8.61 8.54H85.75v-8.54a8.58 8.58 0 0 1 8.61-8.54h11.2a8.58 8.58 0 0 1 8.62 8.54Z" fill="#fff"/>
        <path d="M105.58 80.58H85.77a.28.28 0 0 1-.29-.28v-8.53a8.87 8.87 0 0 1 8.9-8.82h11.2c4.91 0 8.9 3.95 8.9 8.82a8.87 8.87 0 0 1-8.9 8.82Zm-19.53-.56h19.53a8.3 8.3 0 0 0 8.34-8.25 8.3 8.3 0 0 0-8.34-8.26h-11.2a8.3 8.3 0 0 0-8.33 8.26v8.25Z" fill="#000"/>
        <path d="M108.33 68.79H91.15v1.93h17.17v-1.93Zm-6.51 4.27H91.15v1.92h10.67v-1.92Z" fill="#71FFCC"/>
        <path d="M90.94 32.1 72.7 37.7 76.5 50l18.23-5.61-3.78-12.29Z" fill="#FEC524"/>
        <path d="M75.32 49.12a.28.28 0 0 1-.27-.2l-3.77-12.28a.28.28 0 0 1 .18-.36l18.23-5.6a.28.28 0 0 1 .35.19l3.78 12.28a.29.29 0 0 1-.19.36l-18.22 5.6a.27.27 0 0 1-.09.01ZM71.9 36.74l3.61 11.75 17.69-5.44-3.61-11.75-17.69 5.44Z" fill="#000"/>
        <path d="M75.33 49.13a.28.28 0 0 1-.23-.45l5.42-7.4a.28.28 0 0 1 .36-.08l.7.37a2 2 0 0 0 2.72-.84l.37-.7a.28.28 0 0 1 .34-.13l8.64 3.08a.28.28 0 0 1-.01.53l-18.23 5.6a.32.32 0 0 1-.08.02Zm5.5-7.32-4.77 6.51 16.6-5.1-7.6-2.7-.26.48a2.55 2.55 0 0 1-3.49 1.07l-.48-.26Z" fill="#000"/>
        <path d="M82.52 42.38c-.42 0-.83-.1-1.21-.3l-9.9-5.27a.28.28 0 0 1 .05-.52l18.23-5.6a.28.28 0 0 1 .34.4L84.8 41a2.55 2.55 0 0 1-2.28 1.38Zm-10.24-5.75 9.3 4.95a2 2 0 0 0 2.72-.84l4.9-9.31-16.92 5.2Z" fill="#000"/>
        <path d="M105.49 30.51h21.25V14.84H105.5v15.67Z" fill="#fff"/>
        <path d="M128.2 16.45h-21.25v15.67h21.25V16.45Z" fill="#BF92FB"/>
        <path d="M126.75 30.8h-21.26a.28.28 0 0 1-.28-.29V14.84c0-.15.13-.28.28-.28h21.26c.15 0 .28.13.28.28v15.67c0 .16-.13.29-.28.29Zm-20.97-.57h20.69v-15.1h-20.7v15.1Z" fill="#000"/>
        <path d="M124.35 28.27v4.95l-5.77-3.83" fill="#BF92FB"/>
        <path d="M124.36 33.5a.28.28 0 0 1-.16-.04l-5.77-3.84a.28.28 0 0 1 .31-.47l5.34 3.55v-4.43a.28.28 0 1 1 .56 0v4.95a.28.28 0 0 1-.28.29Z" fill="#000"/>
        <path d="M119.27 21.17c0 .35-.05.67-.16.95a2.12 2.12 0 0 1-1.09 1.23 2.5 2.5 0 0 1-.84.25l-.05 1.26c0 .07-.07.13-.19.17-.11.04-.29.06-.51.06a5.6 5.6 0 0 1-.59-.05.27.27 0 0 1-.12-.07.2.2 0 0 1-.05-.11l-.05-1.53c0-.14 0-.25.02-.33a.43.43 0 0 1 .09-.21c.04-.05.1-.09.17-.1a.9.9 0 0 1 .24-.04h.1c.22 0 .42-.03.59-.1a1.24 1.24 0 0 0 .64-.72 1.81 1.81 0 0 0-.01-1.1 1.17 1.17 0 0 0-.71-.73 2.33 2.33 0 0 0-1.64.1l-.3.15a.44.44 0 0 1-.19.07.11.11 0 0 1-.08-.03.22.22 0 0 1-.07-.11 3.22 3.22 0 0 1-.04-.91.3.3 0 0 1 .09-.17c.04-.04.12-.1.24-.15a4.6 4.6 0 0 1 1.64-.34c.51 0 .95.07 1.3.21.37.14.66.33.9.57.23.23.4.5.5.81.11.3.17.63.17.97Zm-1.92 5.53a2 2 0 0 1-.04.45.6.6 0 0 1-.15.29.6.6 0 0 1-.28.16c-.12.03-.26.04-.44.04s-.33-.01-.44-.04a.6.6 0 0 1-.28-.16.61.61 0 0 1-.15-.3 2.16 2.16 0 0 1 0-.9.63.63 0 0 1 .15-.3.6.6 0 0 1 .28-.15 1.84 1.84 0 0 1 .88 0 .6.6 0 0 1 .28.16.6.6 0 0 1 .15.3c.03.12.04.27.04.45ZM51.94 65.67c-.04 0-.07 0-.1-.02a.28.28 0 0 1-.16-.36c.58-1.47 2.12-2.22 3.36-2.42 1.39-.23 2.83.03 4.1.27l6.1 1.11c.8.15 1.52.24 2.12-.04.74-.35 1.1-1.24 1.1-1.98a5.9 5.9 0 0 0-.65-2.47.28.28 0 1 1 .51-.23c.38.84.73 1.75.71 2.71-.02 1.11-.58 2.09-1.43 2.49-.81.37-1.76.2-2.45.08l-6.1-1.12a11.55 11.55 0 0 0-3.92-.26c-1.09.17-2.43.81-2.93 2.06a.28.28 0 0 1-.26.18Zm-6.06-1.25-.07-.01a.28.28 0 0 1-.2-.35c1-3.84 4.42-7 8.34-7.67.15-.02.3.08.32.24.03.15-.07.3-.23.32-3.7.64-6.94 3.62-7.88 7.25a.28.28 0 0 1-.28.22Zm-.43 23.98c-.3 0-.6-.05-.88-.15-1.15-.4-1.85-1.7-1.5-2.77.05-.15.2-.23.35-.18.15.05.23.2.18.35-.25.78.3 1.77 1.15 2.07.8.28 1.8.04 2.56-.62a5.11 5.11 0 0 0 1.43-2.47 9.4 9.4 0 0 0-.09-5.46.28.28 0 0 1 .54-.17 9.9 9.9 0 0 1 .09 5.79 5.66 5.66 0 0 1-1.6 2.73 3.4 3.4 0 0 1-2.23.88Z" fill="#fff"/>
      </g>
      <path d="M41.25 156.31a4.24 4.24 0 0 1 4.35 4.28 4.25 4.25 0 0 1-4.36 4.28h-2.23v4.2h-2.52v-12.76h4.76Zm0 6.22c.53 0 .98-.19 1.33-.55.35-.38.53-.84.53-1.39a1.9 1.9 0 0 0-.53-1.38c-.35-.37-.8-.55-1.33-.55H39v3.87h2.24Zm8.04-1c.22-.59.58-1.03 1.07-1.32a3.3 3.3 0 0 1 1.7-.44v2.63a2.8 2.8 0 0 0-1.93.44c-.56.37-.84 1-.84 1.87v4.36h-2.35v-9.11h2.35v1.56Zm5.31-2.67a1.43 1.43 0 0 1-1.44-1.44c0-.39.14-.73.42-1.02a1.4 1.4 0 0 1 2.04 0 1.4 1.4 0 0 1 0 2.04 1.4 1.4 0 0 1-1.02.42Zm-1.17 10.21v-9.11h2.36v9.11h-2.36Zm12.27-1.13a4.7 4.7 0 0 1-3.42 1.39 4.7 4.7 0 0 1-3.43-1.39 4.7 4.7 0 0 1-1.39-3.43c0-1.35.47-2.48 1.39-3.4a4.66 4.66 0 0 1 3.43-1.4c1.35 0 2.49.46 3.42 1.4a4.6 4.6 0 0 1 1.4 3.4c0 1.35-.46 2.5-1.4 3.43Zm-5.2-1.62a2.4 2.4 0 0 0 1.78.7 2.44 2.44 0 0 0 2.48-2.5 2.45 2.45 0 0 0-2.48-2.52c-.7 0-1.3.24-1.77.7-.46.48-.7 1.08-.7 1.81s.24 1.33.7 1.8Zm10.61-4.8c.22-.58.58-1.02 1.08-1.3.5-.3 1.07-.45 1.7-.45v2.63a2.8 2.8 0 0 0-1.94.44c-.56.37-.84 1-.84 1.87v4.36h-2.35v-9.11h2.35v1.56Zm5.32-2.66a1.43 1.43 0 0 1-1.44-1.44c0-.39.14-.73.41-1.02a1.4 1.4 0 0 1 2.05 0 1.4 1.4 0 0 1 0 2.04 1.4 1.4 0 0 1-1.02.42Zm-1.17 10.21v-9.11h2.35v9.11h-2.35Zm9.72-6.85h-2.06V166c0 .31.08.55.23.7.16.14.4.22.7.25.3 0 .68 0 1.13-.02v2.13c-1.62.18-2.76.03-3.43-.45-.66-.5-.99-1.36-.99-2.61v-3.8h-1.58v-2.25h1.58v-1.84l2.36-.72v2.56h2.06v2.26Zm7.8-2.26h2.5l-3.31 9.11a5.9 5.9 0 0 1-1.9 2.84c-.77.6-1.75.87-2.91.8v-2.18c.63.01 1.13-.12 1.5-.4.37-.28.67-.73.89-1.35l-3.74-8.82h2.57l2.37 6.12 2.02-6.12Zm13.36-3.65a5.8 5.8 0 0 1 4.38 1.84 6.3 6.3 0 0 1 1.76 4.54 6.3 6.3 0 0 1-1.76 4.54 5.78 5.78 0 0 1-4.38 1.84h-5.07v-12.76h5.07Zm0 10.35c1.1 0 2-.36 2.7-1.09.7-.74 1.04-1.7 1.04-2.88s-.35-2.13-1.04-2.86a3.52 3.52 0 0 0-2.7-1.11h-2.55v7.94h2.55Zm20.42-10.35v12.76h-2.5v-8.28l-3.6 5.93h-.28l-3.6-5.9v8.25h-2.51v-12.76h2.59l3.66 6.03 3.65-6.03h2.59Z" fill="#000"/>
      <path d="M41.79 185.3h1.17v8.94H41.8v-4.02h-4.34v4.02h-1.19v-8.94h1.19v3.8h4.34v-3.8Zm8.25 2.56h1.11v6.38h-1.11v-1.1a2.7 2.7 0 0 1-2.41 1.26c-.9 0-1.66-.32-2.29-.97a3.32 3.32 0 0 1-.94-2.38c0-.94.32-1.73.94-2.38.63-.65 1.4-.98 2.29-.98a2.7 2.7 0 0 1 2.41 1.26v-1.1Zm-2.27 5.47a2.2 2.2 0 0 0 1.62-.65c.43-.44.65-.99.65-1.63a2.2 2.2 0 0 0-.65-1.62 2.18 2.18 0 0 0-1.62-.67 2.1 2.1 0 0 0-1.6.67 2.2 2.2 0 0 0-.66 1.62 2.2 2.2 0 0 0 2.25 2.28Zm9.53-5.47h1.2l-2.55 6.38h-1.3l-2.56-6.38h1.2l2 5.19 2-5.2Zm2.67 3.7c.1.57.37 1 .77 1.32.42.32.93.48 1.54.48.84 0 1.45-.32 1.83-.94l.95.54a3.12 3.12 0 0 1-2.81 1.44 3.38 3.38 0 0 1-2.48-.94 3.3 3.3 0 0 1-.94-2.41 3.22 3.22 0 0 1 3.34-3.36c.94 0 1.7.33 2.29 1a3.4 3.4 0 0 1 .85 2.87h-5.34Zm2.2-2.82c-.6 0-1.09.17-1.48.5-.39.34-.63.78-.72 1.35h4.26c-.1-.6-.33-1.07-.72-1.38a2.04 2.04 0 0 0-1.34-.47Zm12.93-.88h1.11v6.38H75.1v-1.1a2.7 2.7 0 0 1-2.41 1.26c-.9 0-1.66-.32-2.29-.97a3.32 3.32 0 0 1-.94-2.38 3.28 3.28 0 0 1 3.23-3.36 2.7 2.7 0 0 1 2.41 1.26v-1.1Zm-2.27 5.47a2.2 2.2 0 0 0 1.62-.65c.43-.44.65-.99.65-1.63a2.2 2.2 0 0 0-.65-1.62 2.18 2.18 0 0 0-1.62-.67c-.64 0-1.18.22-1.61.67a2.2 2.2 0 0 0-.65 1.62c0 .64.22 1.19.65 1.63.43.43.97.65 1.6.65Zm8.24-5.64c.75 0 1.35.24 1.8.72.45.46.67 1.1.67 1.9v3.93h-1.1v-3.86c0-.52-.15-.92-.43-1.2a1.54 1.54 0 0 0-1.16-.43c-.55 0-1 .17-1.34.52-.34.34-.5.87-.5 1.58v3.39h-1.12v-6.38H79v.91a2.27 2.27 0 0 1 2.07-1.08Zm8.34.17h1.19l-2.6 6.77a3.58 3.58 0 0 1-1.15 1.65c-.49.38-1.05.55-1.69.5v-1.03c.78.06 1.36-.37 1.72-1.3l.12-.24-2.78-6.35h1.18l2.17 5 1.84-5Zm5.58 1.07h-1.7v3.46c0 .31.07.54.19.67s.32.2.57.2c.26 0 .57 0 .94-.02v1c-.96.12-1.68.05-2.13-.23-.45-.3-.67-.83-.67-1.62v-3.46h-1.27v-1.07h1.27v-1.46l1.1-.33v1.79H95v1.07Zm4.5-1.24c.75 0 1.34.24 1.8.72.45.46.67 1.1.67 1.9v3.93h-1.1v-3.86c0-.52-.15-.92-.43-1.2a1.55 1.55 0 0 0-1.16-.43c-.55 0-1 .17-1.34.52-.34.34-.51.87-.51 1.58v3.39H96.3v-8.94h1.1v3.47a2.27 2.27 0 0 1 2.08-1.08Zm4.58-1a.73.73 0 0 1-.53-.21.71.71 0 0 1-.22-.52c0-.2.07-.38.22-.53a.7.7 0 0 1 .53-.23c.2 0 .38.08.53.23.14.15.21.32.21.53 0 .2-.07.37-.21.52a.71.71 0 0 1-.53.22Zm-.56 7.55v-6.38h1.11v6.38h-1.1Zm5.98-6.55c.75 0 1.35.24 1.8.72.45.46.68 1.1.68 1.9v3.93h-1.11v-3.86c0-.52-.14-.92-.42-1.2a1.54 1.54 0 0 0-1.16-.43c-.56 0-1 .17-1.34.52-.34.34-.51.87-.51 1.58v3.39h-1.12v-6.38h1.12v.91a2.27 2.27 0 0 1 2.06-1.08Zm9.32.17h1.1v6.1c0 .95-.32 1.68-.96 2.2-.63.53-1.4.8-2.3.8-.7 0-1.32-.14-1.84-.41a2.64 2.64 0 0 1-1.18-1.15l.97-.55c.35.71 1.05 1.07 2.08 1.07a2.2 2.2 0 0 0 1.56-.52c.38-.35.57-.83.57-1.43v-.9a2.7 2.7 0 0 1-2.4 1.27 3.1 3.1 0 0 1-2.3-.97 3.26 3.26 0 0 1-.95-2.36c0-.93.31-1.71.95-2.35a3.1 3.1 0 0 1 2.3-.97 2.7 2.7 0 0 1 2.4 1.26v-1.1Zm-3.89 4.77c.44.43.98.65 1.62.65a2.2 2.2 0 0 0 1.62-.65c.44-.44.65-.97.65-1.62 0-.64-.21-1.18-.65-1.61a2.2 2.2 0 0 0-1.62-.65 2.2 2.2 0 0 0-1.62.65c-.43.43-.65.97-.65 1.6 0 .66.22 1.2.65 1.63Zm14.27-4.77h1.1v6.38h-1.1v-.92a2.27 2.27 0 0 1-2.07 1.08c-.75 0-1.35-.23-1.8-.7a2.69 2.69 0 0 1-.68-1.93v-3.91h1.11v3.85c0 .52.14.92.42 1.21.28.28.67.42 1.16.42.56 0 1-.17 1.35-.5.33-.36.5-.89.5-1.6v-3.38Zm3.9 1.07c.37-.8 1.03-1.19 2-1.19v1.16a2.01 2.01 0 0 0-1.4.44c-.4.31-.6.82-.6 1.51v3.39H132v-6.38h1.1v1.07Zm8.03-1.07h1.1v6.1c0 .95-.32 1.68-.96 2.2-.64.53-1.4.8-2.3.8-.71 0-1.33-.14-1.85-.41a2.65 2.65 0 0 1-1.17-1.15l.97-.55c.35.71 1.04 1.07 2.08 1.07a2.2 2.2 0 0 0 1.55-.52c.39-.35.58-.83.58-1.43v-.9a2.7 2.7 0 0 1-2.4 1.27 3.26 3.26 0 0 1-3.25-3.33c0-.93.31-1.71.94-2.35a3.1 3.1 0 0 1 2.31-.97 2.7 2.7 0 0 1 2.4 1.26v-1.1Zm-3.9 4.77c.44.43.98.65 1.63.65a2.2 2.2 0 0 0 1.62-.65c.43-.44.65-.97.65-1.62a2.2 2.2 0 0 0-.65-1.61 2.2 2.2 0 0 0-1.62-.65 2.2 2.2 0 0 0-1.62.65c-.44.43-.65.97-.65 1.6 0 .66.21 1.2.65 1.63Zm7.46-1.07c.1.57.37 1 .78 1.32.41.32.92.48 1.53.48.84 0 1.45-.32 1.83-.94l.95.54a3.12 3.12 0 0 1-2.8 1.44 3.38 3.38 0 0 1-2.48-.94 3.3 3.3 0 0 1-.95-2.41 3.22 3.22 0 0 1 3.34-3.36c.94 0 1.7.33 2.29 1a3.4 3.4 0 0 1 .85 2.87h-5.34Zm2.2-2.82c-.6 0-1.09.17-1.48.5-.39.34-.63.78-.72 1.35h4.26c-.1-.6-.33-1.07-.72-1.38a2.05 2.05 0 0 0-1.34-.47Zm7.63-1.05c.75 0 1.35.24 1.8.72.45.46.68 1.1.68 1.9v3.93h-1.11v-3.86c0-.52-.14-.92-.42-1.2a1.54 1.54 0 0 0-1.16-.43c-.56 0-1 .17-1.34.52-.34.34-.51.87-.51 1.58v3.39h-1.11v-6.38h1.1v.91a2.27 2.27 0 0 1 2.07-1.08Zm7.5 1.24h-1.7v3.46c0 .31.06.54.18.67.13.13.32.2.58.2.25 0 .57 0 .94-.02v1c-.97.12-1.68.05-2.13-.23-.45-.3-.68-.83-.68-1.62v-3.46h-1.26v-1.07h1.26v-1.46l1.11-.33v1.79h1.7v1.07Zm3.01 4-.83 3.1h-.95l.5-3.1h1.28Zm5.87-4c.37-.8 1.03-1.19 2-1.19v1.16a2.01 2.01 0 0 0-1.41.44c-.4.31-.59.82-.59 1.51v3.39h-1.11v-6.38h1.11v1.07Zm3.5 2.63c.12.57.38 1 .79 1.32.41.32.92.48 1.53.48.84 0 1.45-.32 1.83-.94l.95.54a3.12 3.12 0 0 1-2.81 1.44 3.38 3.38 0 0 1-2.47-.94 3.3 3.3 0 0 1-.95-2.41 3.22 3.22 0 0 1 3.34-3.36c.94 0 1.7.33 2.29 1a3.4 3.4 0 0 1 .85 2.87h-5.34Zm2.21-2.82c-.6 0-1.09.17-1.48.5-.39.34-.63.78-.72 1.35h4.26c-.1-.6-.33-1.07-.72-1.38a2.05 2.05 0 0 0-1.34-.47Zm9.73-.88h1.1v6.38h-1.1v-1.1a2.7 2.7 0 0 1-2.41 1.26c-.9 0-1.66-.32-2.29-.97a3.31 3.31 0 0 1-.94-2.38 3.28 3.28 0 0 1 3.23-3.36 2.7 2.7 0 0 1 2.4 1.26v-1.1Zm-2.27 5.47a2.2 2.2 0 0 0 1.62-.65c.43-.44.65-.99.65-1.63a2.2 2.2 0 0 0-.65-1.62 2.18 2.18 0 0 0-1.62-.67c-.64 0-1.18.22-1.61.67a2.2 2.2 0 0 0-.65 1.62 2.22 2.22 0 0 0 2.25 2.28Zm8.06 1.07a3.25 3.25 0 0 1-3.36-3.35c0-.96.32-1.75.96-2.39a3.23 3.23 0 0 1 2.4-.97c.63 0 1.2.15 1.7.46.5.3.87.7 1.12 1.21l-.93.54a1.89 1.89 0 0 0-.76-.82c-.33-.2-.7-.3-1.13-.3-.64 0-1.18.21-1.61.65-.42.43-.64.97-.64 1.62a2.2 2.2 0 0 0 2.25 2.25 2.05 2.05 0 0 0 1.93-1.11l.94.55a3.15 3.15 0 0 1-2.87 1.66Zm7.14-6.71c.75 0 1.35.24 1.8.72.45.46.68 1.1.68 1.9v3.93h-1.11v-3.86c0-.52-.14-.92-.42-1.2a1.54 1.54 0 0 0-1.16-.43c-.56 0-1 .17-1.34.52-.34.34-.52.87-.52 1.58v3.39h-1.1v-8.94h1.1v3.47a2.27 2.27 0 0 1 2.07-1.08Zm10.69 1.24h-1.7v3.46c0 .31.06.54.18.67.13.13.32.2.57.2.26 0 .57 0 .95-.02v1c-.97.12-1.68.05-2.13-.23-.45-.3-.68-.83-.68-1.62v-3.46h-1.26v-1.07h1.26v-1.46l1.11-.33v1.79h1.7v1.07Zm4.49-1.24c.75 0 1.35.24 1.8.72.45.46.68 1.1.68 1.9v3.93h-1.11v-3.86c0-.52-.15-.92-.43-1.2a1.54 1.54 0 0 0-1.16-.43c-.55 0-1 .17-1.34.52-.34.34-.5.87-.5 1.58v3.39h-1.12v-8.94h1.11v3.47a2.27 2.27 0 0 1 2.07-1.08Zm4.8 3.87c.11.57.37 1 .78 1.32.42.32.93.48 1.53.48.85 0 1.46-.32 1.84-.94l.95.54a3.12 3.12 0 0 1-2.81 1.44 3.38 3.38 0 0 1-2.48-.94 3.3 3.3 0 0 1-.94-2.41 3.22 3.22 0 0 1 3.34-3.36c.94 0 1.7.33 2.29 1a3.4 3.4 0 0 1 .85 2.87h-5.35Zm2.21-2.82c-.6 0-1.09.17-1.48.5-.39.34-.63.78-.73 1.35h4.27c-.1-.6-.34-1.07-.72-1.38a2.04 2.04 0 0 0-1.34-.47Zm11.12.19h-1.7v3.46c0 .31.06.54.18.67.13.13.32.2.57.2.26 0 .57 0 .95-.02v1c-.97.12-1.69.05-2.13-.23-.46-.3-.68-.83-.68-1.62v-3.46h-1.26v-1.07h1.26v-1.46l1.1-.33v1.79h1.7v1.07Zm6.37 4.5c-.65.65-1.45.97-2.39.97-.93 0-1.73-.32-2.38-.97a3.24 3.24 0 0 1-.97-2.38c0-.95.32-1.74.97-2.39a3.27 3.27 0 0 1 2.38-.97 3.29 3.29 0 0 1 3.37 3.36c0 .94-.32 1.74-.98 2.38Zm-2.39-.11a2.2 2.2 0 0 0 1.61-.65c.44-.44.65-.98.65-1.62a2.2 2.2 0 0 0-.65-1.62 2.18 2.18 0 0 0-1.6-.66c-.63 0-1.17.22-1.6.66a2.2 2.2 0 0 0-.65 1.62 2.23 2.23 0 0 0 2.25 2.27Zm8.2-5.63c.9 0 1.66.33 2.29.98.63.65.94 1.44.94 2.38a3.3 3.3 0 0 1-.94 2.38c-.63.65-1.4.97-2.29.97a2.7 2.7 0 0 1-2.4-1.26v3.65h-1.12v-8.93h1.11v1.1a2.7 2.7 0 0 1 2.41-1.27Zm-.14 5.64a2.22 2.22 0 0 0 2.26-2.28 2.2 2.2 0 0 0-.65-1.62 2.16 2.16 0 0 0-1.6-.67c-.65 0-1.2.22-1.63.67a2.2 2.2 0 0 0-.65 1.62 2.23 2.23 0 0 0 2.27 2.28Zm13.27.1c-.65.65-1.45.97-2.38.97-.94 0-1.74-.32-2.4-.97a3.24 3.24 0 0 1-.96-2.38c0-.95.32-1.74.97-2.39a3.27 3.27 0 0 1 2.38-.97 3.29 3.29 0 0 1 3.37 3.36c0 .94-.32 1.74-.98 2.38Zm-2.38-.11c.63 0 1.17-.22 1.6-.65.44-.44.65-.98.65-1.62a2.2 2.2 0 0 0-.65-1.62 2.18 2.18 0 0 0-1.6-.66c-.63 0-1.17.22-1.6.66a2.2 2.2 0 0 0-.65 1.62 2.23 2.23 0 0 0 2.25 2.27Zm7.71-7.11c-1.12-.1-1.68.4-1.68 1.45v.2h1.69v1.07h-1.69v5.3h-1.1v-5.3h-1.03v-1.07h1.02v-.2c0-.85.24-1.5.71-1.95.49-.44 1.18-.63 2.08-.57v1.07Zm10.93 1.48c.72 0 1.3.23 1.74.7.44.46.66 1.09.66 1.88v3.97h-1.11v-3.93c0-.5-.13-.88-.38-1.15-.26-.27-.6-.41-1.02-.41-.48 0-.86.16-1.15.48-.28.32-.42.8-.42 1.46v3.55h-1.11v-3.93c0-.5-.13-.88-.37-1.15a1.26 1.26 0 0 0-.99-.41c-.46 0-.86.16-1.17.48-.3.33-.46.81-.46 1.46v3.55h-1.1v-6.38h1.1v.85a2.12 2.12 0 0 1 1.9-1.02c.86 0 1.49.36 1.88 1.09a2.2 2.2 0 0 1 2-1.09Zm8.26.17h1.18l-2.6 6.77a3.58 3.58 0 0 1-1.15 1.65c-.48.38-1.05.55-1.68.5v-1.03c.78.06 1.35-.37 1.72-1.3l.11-.24-2.78-6.35h1.19l2.17 5 1.84-5ZM36.7 205.69a.73.73 0 0 1-.53-.21.71.71 0 0 1-.21-.52c0-.2.07-.38.21-.53a.7.7 0 0 1 .54-.23c.2 0 .38.08.52.23.15.15.22.32.22.53a.7.7 0 0 1-.22.52.71.71 0 0 1-.52.22Zm-.55 7.55v-6.38h1.1v6.38h-1.1Zm5.98-6.55c.75 0 1.35.24 1.8.72.45.46.67 1.1.67 1.9v3.93h-1.1v-3.86c0-.52-.15-.92-.43-1.2a1.54 1.54 0 0 0-1.16-.43c-.55 0-1 .17-1.34.52-.34.34-.5.87-.5 1.58v3.39h-1.12v-6.38h1.11v.91a2.27 2.27 0 0 1 2.07-1.08Zm7.54 0c.9 0 1.66.33 2.29.98.63.65.94 1.44.94 2.38a3.3 3.3 0 0 1-.94 2.38c-.63.65-1.4.97-2.29.97a2.7 2.7 0 0 1-2.4-1.26v1.1h-1.12v-8.94h1.11v3.65a2.7 2.7 0 0 1 2.41-1.26Zm-.14 5.64a2.22 2.22 0 0 0 2.26-2.28 2.2 2.2 0 0 0-.65-1.62 2.16 2.16 0 0 0-1.6-.67c-.65 0-1.2.22-1.63.67a2.2 2.2 0 0 0-.65 1.62 2.23 2.23 0 0 0 2.27 2.28Zm10.08.1c-.65.65-1.45.97-2.38.97-.94 0-1.73-.32-2.39-.97a3.24 3.24 0 0 1-.97-2.38c0-.95.32-1.74.97-2.39a3.27 3.27 0 0 1 2.39-.97c.93 0 1.73.32 2.38.97.66.65.99 1.44.99 2.39a3.2 3.2 0 0 1-.99 2.38Zm-2.38-.11c.63 0 1.17-.22 1.6-.65.44-.44.66-.98.66-1.62a2.2 2.2 0 0 0-.66-1.62 2.18 2.18 0 0 0-1.6-.66c-.63 0-1.16.22-1.6.66a2.2 2.2 0 0 0-.65 1.62 2.23 2.23 0 0 0 2.25 2.27Zm9.76.92h-1.3l-1.78-2.42-1.8 2.42h-1.3l2.44-3.28-2.3-3.1h1.3l1.66 2.22 1.64-2.22h1.3l-2.3 3.08 2.44 3.3Z" fill="#5E5F5D"/>
      <g filter="url(#d)">
        <path d="M17.98 282.4H346.1v61.99H17.98z" fill="#fff"/>
        <g clip-path="url(#e)">
          <rect fill="#141414" height="34.63" rx="3.65" width="72" x="229.44" y="290.61"/>
          <path d="m261.4 311.99-.53-1.6h-3.56l-.54 1.6h-1.9l3.13-8.93h2.18l3.14 8.93h-1.92Zm-3.53-3.25h2.45l-1.23-3.65-1.22 3.65Zm7.78-1.32c0 .17.12.31.34.42.23.1.5.2.83.28.32.08.64.18.97.31a1.79 1.79 0 0 1 1.16 1.7c0 .65-.25 1.16-.74 1.52-.49.34-1.1.52-1.83.52-1.3 0-2.2-.5-2.68-1.52l1.43-.8c.19.55.6.83 1.25.83.59 0 .88-.19.88-.55 0-.17-.11-.3-.34-.41-.22-.11-.5-.2-.82-.3a9.08 9.08 0 0 1-.97-.31c-.32-.13-.6-.33-.83-.6a1.64 1.64 0 0 1-.33-1.05c0-.63.23-1.12.69-1.48a2.73 2.73 0 0 1 1.73-.55c.52 0 1 .12 1.42.36.43.23.76.56 1 1l-1.4.76c-.2-.43-.54-.65-1.02-.65a1 1 0 0 0-.53.14c-.14.1-.2.22-.2.38Zm10.33 4.57h-1.92l-2.32-2.9v2.9h-1.64v-8.93h1.64v5.36l2.2-2.81h1.96l-2.56 3.15 2.64 3.23Z" fill="#fff"/>
        </g>
        <path d="M43.9 309.77c0 .97-.3 1.75-.92 2.35-.61.6-1.4.95-2.4 1.07v1.44h-1.1v-1.43a4.7 4.7 0 0 1-2.35-.77 3.71 3.71 0 0 1-1.42-1.82l1.96-1.13c.35.87.95 1.37 1.82 1.5v-2.85h-.02l-.03-.01a7.33 7.33 0 0 1-1.79-.85 3.56 3.56 0 0 1-.75-.64 3.25 3.25 0 0 1-.67-2.02 3 3 0 0 1 .93-2.32 3.9 3.9 0 0 1 2.33-1v-1.43h1.1v1.47c1.48.17 2.53.94 3.15 2.3l-1.9 1.12c-.27-.65-.68-1.05-1.25-1.2v2.75c1.01.4 1.7.72 2.05.96.84.6 1.26 1.44 1.26 2.51Zm-5.43-5.15c0 .24.08.46.23.64.15.18.42.36.79.54v-2.3c-.33.07-.58.2-.76.4-.17.2-.26.44-.26.72Zm2.12 6.32c.7-.15 1.05-.54 1.05-1.15 0-.27-.09-.5-.27-.69a2.33 2.33 0 0 0-.78-.52v2.36Zm7.15-9.43h1.96v11.48h-2.26v-9.09l-2.17.6-.55-1.93 3.02-1.06Zm8.54 11.71a4 4 0 0 1-3.38-1.62 7.14 7.14 0 0 1-1.22-4.35 7 7 0 0 1 1.22-4.33 4 4 0 0 1 3.38-1.64c1.44 0 2.57.54 3.38 1.64a7.06 7.06 0 0 1 1.21 4.33c0 1.8-.4 3.25-1.21 4.35a3.98 3.98 0 0 1-3.38 1.62Zm-1.74-3.17c.4.64.97.95 1.74.95.76 0 1.34-.32 1.74-.96.4-.65.6-1.58.6-2.8 0-1.22-.2-2.15-.6-2.8-.4-.64-.98-.96-1.74-.96a1.9 1.9 0 0 0-1.74.96c-.4.65-.6 1.58-.6 2.8 0 1.23.2 2.17.6 2.81Z" fill="#141414"/>
      </g>
    </g>
  </g>
  <defs>
    <clipPath id="b">
      <rect fill="#fff" height="325.38" rx="21.87" width="298.95" x="18.89" y="19"/>
    </clipPath>
    <clipPath id="c">
      <path d="M18.9 19h298.94v107.55H18.9z" fill="#fff"/>
    </clipPath>
    <clipPath id="e">
      <rect fill="#fff" height="34.63" rx="3.65" width="72" x="229.44" y="290.61"/>
    </clipPath>
    <filter color-interpolation-filters="sRGB" filterUnits="userSpaceOnUse" height="369.13" id="a" width="342.7" x=".66" y=".77">
      <feFlood flood-opacity="0" result="BackgroundImageFix"/>
      <feColorMatrix in="SourceAlpha" result="hardAlpha" values="0 0 0 0 0 0 0 0 0 0 0 0 0 0 0 0 0 0 127 0"/>
      <feOffset dx="3.65" dy="3.65"/>
      <feGaussianBlur stdDeviation="10.94"/>
      <feComposite in2="hardAlpha" operator="out"/>
      <feColorMatrix values="0 0 0 0 0 0 0 0 0 0 0 0 0 0 0 0 0 0 0.12 0"/>
      <feBlend in2="BackgroundImageFix" result="effect1_dropShadow_10278_130357"/>
      <feBlend in="SourceGraphic" in2="effect1_dropShadow_10278_130357" result="shape"/>
    </filter>
    <filter color-interpolation-filters="sRGB" filterUnits="userSpaceOnUse" height="69.27" id="d" width="335.41" x="14.34" y="275.12">
      <feFlood flood-opacity="0" result="BackgroundImageFix"/>
      <feColorMatrix in="SourceAlpha" result="hardAlpha" values="0 0 0 0 0 0 0 0 0 0 0 0 0 0 0 0 0 0 127 0"/>
      <feOffset dy="-3.65"/>
      <feGaussianBlur stdDeviation="1.82"/>
      <feComposite in2="hardAlpha" operator="out"/>
      <feColorMatrix values="0 0 0 0 0 0 0 0 0 0 0 0 0 0 0 0 0 0 0.05 0"/>
      <feBlend in2="BackgroundImageFix" result="effect1_dropShadow_10278_130357"/>
      <feBlend in="SourceGraphic" in2="effect1_dropShadow_10278_130357" result="shape"/>
    </filter>
  </defs>
</svg>