<?xml version="1.0" encoding="utf-8"?>
<svg xmlns="http://www.w3.org/2000/svg" fill="none" viewBox="0 0 151 192">
  <path d="M38.76 187h-1.98a2.02 2.02 0 0 1-2.01-2.01V9.9a2 2 0 0 1 2.01-2h1.98a2.02 2.02 0 0 1 2.01 2V185a2 2 0 0 1-2.01 2ZM36.78 8.8a1.1 1.1 0 0 0-1.1 1.1V185a1.1 1.1 0 0 0 1.1 1.1h1.98c.3 0 .57-.12.78-.33.2-.2.32-.48.32-.77V9.9a1.1 1.1 0 0 0-1.1-1.1h-1.98Z" fill="#080717"/>
  <path d="M137.26 165.54H36.9c-.86 0-1.56.7-1.56 1.56v1.97c0 .85.7 1.55 1.56 1.55h100.36c.86 0 1.56-.7 1.56-1.55v-1.97c0-.86-.7-1.56-1.56-1.56Zm0-61.88H36.9c-.86 0-1.56.7-1.56 1.55v1.97c0 .86.7 1.55 1.56 1.55h100.36c.86 0 1.56-.7 1.56-1.55v-1.97c0-.86-.7-1.55-1.56-1.55Zm0-60.61H36.9c-.86 0-1.56.7-1.56 1.55v1.97c0 .86.7 1.56 1.56 1.56h100.36c.86 0 1.56-.7 1.56-1.56V44.6c0-.86-.7-1.55-1.56-1.55Z" fill="#080717"/>
  <path d="M97.67 68.66h29.4a1.67 1.67 0 0 1 1.66 1.66v31.79a1.66 1.66 0 0 1-1.67 1.66H97.67a1.67 1.67 0 0 1-1.66-1.66V70.3a1.66 1.66 0 0 1 1.66-1.65Z" fill="#080717"/>
  <path d="M83.77 103.5h25.2c1.12 0 2.03-.9 2.03-2.02V70.94c0-1.1-.9-2.01-2.02-2.01h-25.2c-1.12 0-2.03.9-2.03 2.01v30.54c0 1.11.9 2.01 2.02 2.01Z" fill="#fff"/>
  <path d="M108.98 103.95h-25.2a2.49 2.49 0 0 1-2.49-2.47V70.94a2.47 2.47 0 0 1 2.48-2.47h25.2a2.49 2.49 0 0 1 2.48 2.47v30.54a2.47 2.47 0 0 1-2.47 2.47Zm-25.2-34.57a1.57 1.57 0 0 0-1.57 1.56v30.54a1.56 1.56 0 0 0 1.56 1.56h25.2a1.57 1.57 0 0 0 1.57-1.56V70.94a1.55 1.55 0 0 0-1.56-1.56h-25.2Z" fill="#090817"/>
  <path d="M92.8 79.94h5.09c.58 0 1.06-.48 1.06-1.06v-8.9c0-.58-.48-1.05-1.06-1.05H92.8c-.59 0-1.06.47-1.06 1.06v8.89c0 .58.47 1.06 1.06 1.06Z" fill="#fff"/>
  <path d="M97.89 80.39h-5.1a1.52 1.52 0 0 1-1.5-1.51v-8.9a1.51 1.51 0 0 1 1.5-1.5h5.1a1.52 1.52 0 0 1 1.52 1.5v8.9a1.51 1.51 0 0 1-1.52 1.51Zm-5.1-11a.6.6 0 0 0-.6.6v8.89a.6.6 0 0 0 .6.6h5.1a.6.6 0 0 0 .6-.6v-8.9a.6.6 0 0 0-.6-.6h-5.1Z" fill="#090817"/>
  <path d="M103.1 135.27h25.7a1.46 1.46 0 0 1 1.46 1.45v27.81a1.45 1.45 0 0 1-1.46 1.45h-25.7a1.46 1.46 0 0 1-1.46-1.45v-27.81a1.45 1.45 0 0 1 1.45-1.45Z" fill="#080717"/>
  <path d="M91.18 165.75h21.54c1.12 0 2.03-.9 2.03-2.02v-26.2c0-1.12-.9-2.02-2.03-2.02H91.19c-1.11 0-2.02.9-2.02 2.01v26.21c0 1.11.9 2.02 2.02 2.02Z" fill="#fff"/>
  <path d="M112.73 166.2H91.18a2.49 2.49 0 0 1-2.47-2.47v-26.2a2.47 2.47 0 0 1 2.47-2.48h21.55a2.49 2.49 0 0 1 2.47 2.47v26.21a2.47 2.47 0 0 1-2.47 2.47Zm-21.55-30.24a1.57 1.57 0 0 0-1.56 1.56v26.21a1.56 1.56 0 0 0 1.56 1.56h21.55a1.57 1.57 0 0 0 1.56-1.56v-26.2a1.55 1.55 0 0 0-1.56-1.57H91.18Z" fill="#090817"/>
  <path d="M98.96 145.14h4.19c.58 0 1.06-.48 1.06-1.06v-7.51c0-.59-.48-1.06-1.06-1.06h-4.19c-.59 0-1.06.47-1.06 1.06v7.5c0 .6.47 1.07 1.06 1.07Z" fill="#fff"/>
  <path d="M103.14 145.6h-4.18a1.52 1.52 0 0 1-1.52-1.52v-7.52a1.51 1.51 0 0 1 1.52-1.5h4.19a1.52 1.52 0 0 1 1.51 1.5v7.52a1.5 1.5 0 0 1-1.52 1.51Zm-4.18-9.64a.6.6 0 0 0-.6.6v7.52a.6.6 0 0 0 .6.6h4.19a.6.6 0 0 0 .6-.6v-7.52a.6.6 0 0 0-.6-.6h-4.2Z" fill="#090817"/>
  <path d="M58.1 133.88h26.88a1.53 1.53 0 0 1 1.52 1.52v29.07a1.52 1.52 0 0 1-1.52 1.52H58.11a1.53 1.53 0 0 1-1.53-1.52V135.4a1.51 1.51 0 0 1 1.53-1.52Z" fill="#080717"/>
  <path d="M45.57 165.74h22.7c1.11 0 2.02-.9 2.02-2.02v-27.58c0-1.11-.9-2.01-2.02-2.01h-22.7c-1.12 0-2.02.9-2.02 2.01v27.58c0 1.11.9 2.02 2.02 2.02Z" fill="#fff"/>
  <path d="M68.27 166.19h-22.7a2.48 2.48 0 0 1-2.48-2.47v-27.58a2.47 2.47 0 0 1 2.48-2.47h22.7a2.49 2.49 0 0 1 2.48 2.47v27.58a2.47 2.47 0 0 1-2.48 2.47Zm-22.7-31.6a1.57 1.57 0 0 0-1.57 1.55v27.58a1.56 1.56 0 0 0 1.57 1.56h22.7a1.56 1.56 0 0 0 1.56-1.56v-27.58a1.56 1.56 0 0 0-1.56-1.56h-22.7Z" fill="#090817"/>
  <path d="M53.74 144.2h4.47c.59 0 1.06-.48 1.06-1.06v-7.95c0-.59-.47-1.06-1.06-1.06h-4.47c-.59 0-1.06.47-1.06 1.06v7.94c0 .59.47 1.06 1.06 1.06Z" fill="#fff"/>
  <path d="M58.21 144.65h-4.47a1.52 1.52 0 0 1-1.52-1.52v-7.94a1.51 1.51 0 0 1 1.52-1.52h4.47a1.52 1.52 0 0 1 1.52 1.52v7.94a1.51 1.51 0 0 1-1.52 1.52Zm-4.47-10.07a.6.6 0 0 0-.6.6v7.95a.6.6 0 0 0 .6.6h4.47a.6.6 0 0 0 .6-.6v-7.94a.6.6 0 0 0-.6-.6h-4.47Z" fill="#090817"/>
  <path d="M103.1 12.33h25.7a1.46 1.46 0 0 1 1.46 1.45V41.6a1.45 1.45 0 0 1-1.46 1.45h-25.7a1.46 1.46 0 0 1-1.46-1.45V13.78a1.45 1.45 0 0 1 1.45-1.45Z" fill="#080717"/>
  <path d="M91.18 42.81h21.54c1.12 0 2.03-.9 2.03-2.01V14.59c0-1.12-.9-2.02-2.03-2.02H91.19c-1.11 0-2.02.9-2.02 2.02v26.2c0 1.12.9 2.02 2.02 2.02Z" fill="#fff"/>
  <path d="M112.73 43.27H91.18a2.48 2.48 0 0 1-2.47-2.47V14.59a2.47 2.47 0 0 1 2.47-2.47h21.55a2.49 2.49 0 0 1 2.47 2.47v26.2a2.47 2.47 0 0 1-2.47 2.48ZM91.18 13.03a1.57 1.57 0 0 0-1.56 1.56v26.2a1.56 1.56 0 0 0 1.56 1.57h21.55a1.57 1.57 0 0 0 1.56-1.56V14.59a1.55 1.55 0 0 0-1.56-1.56H91.18Z" fill="#090817"/>
  <path d="M98.96 22.2h4.19c.58 0 1.06-.47 1.06-1.06v-7.51c0-.58-.48-1.06-1.06-1.06h-4.19c-.59 0-1.06.48-1.06 1.06v7.51c0 .59.47 1.06 1.06 1.06Z" fill="#fff"/>
  <path d="M103.14 22.66h-4.18a1.52 1.52 0 0 1-1.52-1.52v-7.51a1.51 1.51 0 0 1 1.52-1.51h4.19a1.52 1.52 0 0 1 1.51 1.5v7.52a1.5 1.5 0 0 1-1.52 1.52Zm-4.18-9.63a.6.6 0 0 0-.6.6v7.51a.6.6 0 0 0 .6.6h4.19a.6.6 0 0 0 .6-.6v-7.51a.6.6 0 0 0-.6-.6h-4.2Z" fill="#090817"/>
  <path d="M77.26 77.7H55.4c-.68 0-1.24.55-1.24 1.23v23.66c0 .68.56 1.23 1.24 1.23h21.87c.68 0 1.24-.55 1.24-1.23V78.93c0-.68-.56-1.23-1.24-1.23Z" fill="#080717"/>
  <path d="M45.57 103.62h17.72c1.11 0 2.02-.9 2.02-2.01V79.9c0-1.1-.9-2-2.02-2H45.57c-1.12 0-2.02.9-2.02 2v21.7c0 1.1.9 2.01 2.02 2.01Z" fill="#fff"/>
  <path d="M63.29 104.08H45.57a2.49 2.49 0 0 1-2.48-2.47V79.9a2.47 2.47 0 0 1 2.48-2.46h17.72a2.48 2.48 0 0 1 2.47 2.47v21.69a2.47 2.47 0 0 1-2.47 2.47ZM45.57 78.36A1.57 1.57 0 0 0 44 79.92v21.69a1.56 1.56 0 0 0 1.57 1.56h17.72a1.57 1.57 0 0 0 1.56-1.56V79.9a1.56 1.56 0 0 0-1.56-1.55H45.57Z" fill="#090817"/>
  <path d="M52.04 86.1h3.24c.59 0 1.06-.48 1.06-1.07v-6.07c0-.59-.47-1.06-1.06-1.06h-3.24c-.59 0-1.06.47-1.06 1.06v6.07c0 .59.47 1.06 1.06 1.06Z" fill="#fff"/>
  <path d="M55.28 86.55h-3.24a1.52 1.52 0 0 1-1.52-1.52v-6.07a1.51 1.51 0 0 1 1.52-1.51h3.24a1.52 1.52 0 0 1 1.52 1.5v6.08a1.51 1.51 0 0 1-1.52 1.52Zm-3.24-8.2a.6.6 0 0 0-.6.6v6.08a.6.6 0 0 0 .6.6h3.24a.6.6 0 0 0 .6-.6v-6.07a.6.6 0 0 0-.6-.6h-3.24Z" fill="#090817"/>
  <path d="m29.33 11.7 26.75-2.63a1.53 1.53 0 0 1 1.66 1.36l2.86 28.94a1.51 1.51 0 0 1-1.37 1.65L32.5 43.65a1.53 1.53 0 0 1-1.67-1.36l-2.86-28.94a1.5 1.5 0 0 1 1.37-1.66Z" fill="#080717"/>
  <path d="m19.98 44.62 22.6-2.21a2.02 2.02 0 0 0 1.8-2.2l-2.7-27.45a2.02 2.02 0 0 0-2.21-1.8l-22.6 2.2a2.02 2.02 0 0 0-1.8 2.2l2.7 27.45a2.02 2.02 0 0 0 2.21 1.81Z" fill="#fff"/>
  <path d="M19.78 45.09a2.49 2.49 0 0 1-2.46-2.23L14.6 15.4a2.46 2.46 0 0 1 2.22-2.7l22.6-2.21a2.48 2.48 0 0 1 2.7 2.21l2.71 27.45a2.47 2.47 0 0 1-2.22 2.7c-24.39 2.4-22.65 2.23-22.84 2.23Zm19.89-33.7c-.13 0 1.22-.12-22.75 2.23a1.57 1.57 0 0 0-1.4 1.7l2.7 27.45a1.55 1.55 0 0 0 1.11 1.34c.2.06.4.08.6.06l22.6-2.22a1.57 1.57 0 0 0 1.4-1.7l-2.7-27.45a1.56 1.56 0 0 0-1.56-1.4Z" fill="#090817"/>
  <path d="m26 22.38 4.45-.43c.58-.06 1-.58.95-1.16l-.78-7.9a1.06 1.06 0 0 0-1.16-.96l-4.45.44c-.58.06-1 .57-.95 1.15l.78 7.92c.06.58.58 1 1.16.94Z" fill="#fff"/>
  <path d="M25.9 22.84a1.52 1.52 0 0 1-1.52-1.36l-.78-7.91a1.5 1.5 0 0 1 1.36-1.65l4.45-.44a1.53 1.53 0 0 1 1.66 1.36l.79 7.9a1.5 1.5 0 0 1-1.37 1.66c-3.74.37-4.47.44-4.6.44Zm3.66-10.46-4.5.44a.6.6 0 0 0-.55.66l.78 7.91a.6.6 0 0 0 .66.54l4.45-.43a.6.6 0 0 0 .55-.66l-.78-7.91a.6.6 0 0 0-.6-.55Z" fill="#090817"/>
  <path d="M137.34 185.72h-1.97a2.02 2.02 0 0 1-2.02-2V8.61a2 2 0 0 1 2.02-2h1.97a2.02 2.02 0 0 1 2.02 2v175.1a2 2 0 0 1-2.02 2Zm-1.97-178.2a1.1 1.1 0 0 0-1.1 1.1v175.1a1.1 1.1 0 0 0 1.1 1.1h1.97a1.1 1.1 0 0 0 1.1-1.1V8.61a1.1 1.1 0 0 0-1.1-1.1h-1.97Z" fill="#080717"/>
</svg>