<?xml version="1.0" encoding="utf-8"?>
<svg xmlns="http://www.w3.org/2000/svg" fill="none" viewBox="0 0 217 196">
  <path d="M144 114.65a11.07 11.07 0 0 1-6.72-6.79c-.2-.6-.35-1.23-.28-1.85.08-.63.43-1.24 1-1.51.68-.32 1.5-.08 2.17.26a9.08 9.08 0 0 1 4.45 4.96c.78 2.14.7 4.58-.2 6.66m23.22 70.11c5.8.63 11.64.76 17.46.4-1.81-3.95-1.33-8.52-.82-12.84-.38 2.27-.77 4.58-1.75 6.67-.98 2.08-2.64 3.96-4.83 4.68-3.03.99-6.28-.38-9.47-.45a5.55 5.55 0 0 0 4 1.97l-4.59-.43Zm11.66-30.26a3.3 3.3 0 0 1 .86-1.41c.42-.37 1.04-.54 1.54-.3.46.22.71.73.75 1.24.05.5-.1 1-.26 1.48-.34.99-1.21 4.16-2.6 3.72-1.62-.52-.66-3.72-.3-4.73Zm-15.5-10.15c-.55-1.87.67-3 2.15-1.97 1.26.88 1.76 2.5 2.11 4 .37 1.6 1.47 4.3-1.03 2.36a8.96 8.96 0 0 1-3.24-4.39ZM161.67 162a2.85 2.85 0 0 1-.63-1.7c.02-.62.42-1.26 1.02-1.4.73-.17 1.41.4 1.92.96.7.78 3.42 3.63 2.3 4.55-1.3 1.08-3.97-1.52-4.6-2.4ZM101 125c-.33-3.5-.05-6.82.47-10.3.17-1.16.6-2.5 1.74-2.83 1.24-.37 2.45.8 2.8 2.05.69 2.39-.62 4.86-1.99 6.93-1.37 2.07-1.51 2.5-2.98 4.4m88.6-68.02c-.03.31-1.72 13.32-1.73 13.36a235 235 0 0 0-11.25-6.6l4.4-2.29a2.35 2.35 0 0 0 1.73-.06c.12-.05.25-.1.33-.1.08.02.2.1.3.18l.06.05c.62.47 1.4.75 2.17.8h.03a.38.38 0 0 0 .02-.76 3.28 3.28 0 0 1-1.76-.65l-.05-.04c-.17-.14-.38-.3-.67-.34-.2-.02-.38.02-.53.07l2.98-1.54a1.43 1.43 0 0 0 .77.06.38.38 0 0 0 .24-.6l2.97-1.53Zm-28.65 13.06 10.09 5.14 2.37-13.52c-.75 3.67-2.38 7.67-3.8 11.14-2.84-1.64-5.46-2.04-8.66-2.77Zm26.42 20.54-.76-7.33-.55 4.83c-.1.93-.4 1.12-1.2 1.1-2.2-.06-4.46-.23-6.67-.15.9.5 9.15 1.17 9.18 1.55ZM196 79.4a65.2 65.2 0 0 1 11.14-1 44.86 44.86 0 0 0-2.87-10.92c1 3.38 1.7 6.93 2.05 10.43-3.72.17-6.8.3-10.32 1.49Zm-83.53-39.53c.97 1.98 3.23 2.99 5.4 3.34 2.17.36 4.41.2 6.57.63 2.16.41 4.38 1.58 5.18 3.63l1.27-6.94-15.2.2c-.51 0-1.06 0-1.51-.26-.76-.45-.94-1.46-1.03-2.34m23.36 5.23c2.05-.26 5.22.21 6.78-1.83.73-.96.75-2.51-.2-3.26.07 1.26-.9 2.41-2.06 2.88-1.18.46-2.5.35-3.73.02-.76-.21-1.62-.5-2.31-.1-.4.23-.36.25-4.44 5.18.64 0 2.23-1.26 2.85-1.61 1.05-.6 1.88-1.12 3.11-1.28Zm-68.1 87.07a53.5 53.5 0 0 1-20.9 4.35l.63-.18 14.57-4.22.2.87.14.6c.02.1.09.18.17.23.1.05.2.07.3.05.2-.05.33-.26.28-.46l-.15-.62-.2-.89 4.57-1.32.4 1.6Zm4.95-2.44c-.16.08-1.69 1-4.23 2.13l-.37-1.5 3.64-1.06c.26.1.54.25.81.37l.15.06Zm-52.5-41.6A137.8 137.8 0 0 1 73.8 90c1.4.37 2.87.77 4.31.55 1.45-.23 2.87-1.29 3.02-2.74.13-1.4-.97-2.68-2.26-3.22-1.3-.53-2.75-.5-4.15-.46l-45.05 1.32" fill="#CCC"/>
  <path d="M179.38 166c.19.04.36 0 .5-.1 3.3-2.5 4.72-3.31 6.46-6.62a10.64 10.64 0 0 0 1.16-4.35 5.04 5.04 0 0 0-1.67-3.93c-2.12-1.83-5.6-1.34-7.53.27-1.8 1.5-2.75 4-2.53 6.7.2 2.38 1.15 4.57 2.07 6.7a.6.6 0 0 0 .64.33c-.58 2.01-1.31 4.05-2.12 6.32l-.53.01a33.89 33.89 0 0 0-3.19-15.3c.15-.42-.69-7.11-1.2-9.07-1.77-6.8-7.92-8.43-9.8-3.82-.92 2.24-.29 5.03 1.65 7.28 1.69 1.97 4.31 3.18 6.63 4.45a.57.57 0 0 0 .76-.2 32.84 32.84 0 0 1 4 16.69l-2.9.06a67.38 67.38 0 0 0-5.94-8.88.6.6 0 0 0-.39-.22.58.58 0 0 0-.58.3.57.57 0 0 0 .06.64 66.18 66.18 0 0 1 2.42 3.25c-1.8-.45-3.9-.8-5.27-1.81-1.7-1.26-2.8-2.87-3.09-4.53-.53-3.05 1.95-5.57 4.22-5.31.97.1 1.9.74 2.79 1.88 2.3 2.97 2.96 6.8 3.33 10.51a.58.58 0 0 0 1.14-.11c-.38-3.88-1.07-7.9-3.56-11.1-1.08-1.4-2.28-2.18-3.57-2.33-2.97-.33-6.16 2.75-5.49 6.66.34 1.95 1.6 3.82 3.55 5.25 1.34 1 3.1 1.4 4.8 1.8 1.8.42 1.72.5 2.01.36.8 1.2 1.55 2.42 2.26 3.67-1 .01-2.39.03-3.4.02a2.8 2.8 0 0 0-2.7 3.62l2.76 9.16c.17.54.5 1.02.94 1.37l-3.8.01a.58.58 0 1 0 0 1.15l19.92-.04a.58.58 0 0 0 .4-.99.57.57 0 0 0-.4-.16h-2.5c.74-.85.52-1.04 3.3-10.75a2.8 2.8 0 0 0-2.69-3.58c-1.57 0-3.14 0-4.7.04l.25-.72c.53-1.5 1.07-3.03 1.53-4.58Zm-2.46-8.12c-.19-2.33.6-4.47 2.11-5.73 1.73-1.44 4.55-1.56 6.05-.27a3.9 3.9 0 0 1 1.27 3.03 9.52 9.52 0 0 1-1.03 3.84c-1.52 2.88-2.7 3.65-5.52 5.76.47-1.79.8-3.6.88-5.46a.58.58 0 0 0-.55-.6.58.58 0 0 0-.6.55 24.3 24.3 0 0 1-.76 4.9c-.84-1.94-1.68-3.95-1.85-6.02Zm-12.76-8.21c-4.12-4.8-.36-10.48 3.66-6.83a8.8 8.8 0 0 1 2.5 4.4c.3 1.15.72 3.97.97 6.19a35.2 35.2 0 0 0-3-4.44.58.58 0 0 0-.62-.21.6.6 0 0 0-.35.28.59.59 0 0 0 .07.65c.99 1.25 1.9 2.57 2.7 3.95-2.06-1.12-4.47-2.3-5.93-3.99Zm3.13 26.7a.39.39 0 0 1-.02-.26.4.4 0 0 1 .15-.21.98.98 0 0 0 .38-1 .97.97 0 0 0-.81-.7.38.38 0 0 1-.34-.42.38.38 0 0 1 .27-.33c.05-.02.1-.02.15-.01a1.7 1.7 0 0 1 1.14 2.76c.14.04.33.06.58.1.7.12 1.3.8.9 1.4-.08.13-.19.2-.27.27a.71.71 0 0 0-.1.08c0 .02.04.15.17.28.21.2.54.43.65.83.13.49-.14.9-.26 1.22-.06.15-.03.32 0 .36.45.07.41.75-.07.75-.5 0-.92-.65-.65-1.38l.1-.25c.27-.59.17-.53-.3-.98-.34-.33-.56-.84-.27-1.26.15-.22.31-.27.36-.34a.74.74 0 0 0-.39-.22l-.16-.03c-.41-.06-.97-.14-1.2-.66Zm11.44 4.9c1.6-2 2.5-4.45 2.55-7 0-.06.02-.1.04-.15a.37.37 0 0 1 .2-.2.39.39 0 0 1 .42.1c.04.02.07.07.09.11l.02.15a12.44 12.44 0 0 1-2.73 7.47.38.38 0 0 1-.25.15.4.4 0 0 1-.3-.08.38.38 0 0 1-.09-.12.37.37 0 0 1-.03-.3.4.4 0 0 1 .08-.13Zm-15.3-55.69c1.33-3.4.41-6.5-.54-8.81a.58.58 0 0 0-1.07.44c1.3 3.14 1.46 5.6.54 7.95-1.83 4.58-7.29 6.97-12.1 7.15-4.99.2-9.08-.93-13.88-2.58.59-3.8 1.17-7.47 1.2-11.24 2.64.16 3.8 0 9.47-1.19 1.84-.38 3.58-.75 4.77-.9a.6.6 0 0 0 .21-.07.6.6 0 0 0 .27-.35.56.56 0 0 0-.05-.44.58.58 0 0 0-.35-.27.56.56 0 0 0-.22-.01c-1.6.2-4.04.75-6.45 1.24a.57.57 0 0 0 .01-.17 17.35 17.35 0 0 0-3.91-9.4.57.57 0 0 0-.62-.18.57.57 0 0 0-.4.5.57.57 0 0 0 .13.42 16.19 16.19 0 0 1 3.66 8.77c0 .1.05.19.1.27-3.87.76-4.92.68-4.88.68-2.22.01-2.38-.25-2.71.06a.57.57 0 0 0-.19.43v.74c-2.22-1.47-6.89-3.2-9.71-2.75-.36.06-1.18.35-1.16 1.82.02.9.97 1.4 1.78 1.58.43.1 1 .33 1.56.6-1.78.49-3.73.65-5.37-.14-.6-.29-1.23-.75-2.03-.89-1.58-.29-2.85 1.02-2.22 2.33-.95.71-1.16 2.27-.22 3.17-.78.8-.55 2.27.52 2.9l.6.3c-.16.74.42 1.28.98 1.77 1.7 1.5 5.6 1.88 7.84 1.6a15.7 15.7 0 0 0 6.38-2.19l-.2 1.31a.58.58 0 0 0 .38.63c5.03 1.74 9.45 3 14.75 2.8 5.44-.2 11.14-2.86 13.13-7.87Zm-34.58 4.2c-1.96.23-5.55-.1-6.93-1.33-.16-.14-.45-.4-.57-.56.14.02.29.05.44.06 2.08.22 3.25.33 4.92.13a.58.58 0 0 0 .5-.64.58.58 0 0 0-.63-.5c-1.25.14-2 .15-4.67-.13a4.26 4.26 0 0 1-1.76-.57c-.5-.28-.6-1.1-.01-1.23.83.34 1.78.52 2 .57 1.12.24 1.2.22 5.06.2a.58.58 0 1 0 0-1.14h-.8c-3.13 0-3.14 0-4.02-.19-.04 0-1.99-.37-2.55-.95-.4-.4-.25-1.16.16-1.43l.04-.04c.22.17.48.32.78.45 1.93.86 2.55.92 4.1.92h1.3a.58.58 0 0 0 0-1.15c-2.6-.02-2.78.14-4.93-.82-.56-.25-1.09-.67-1.01-1.03.07-.33.61-.5 1.01-.43.57.1 1.12.5 1.73.8 1.33.64 2.99.82 4.78.53 1.57-.25 3.05-.81 4.48-1.36a.58.58 0 0 0 .38-.52.57.57 0 0 0-.79-.55l-1.45.53a10.85 10.85 0 0 0-2.83-1.25c-.53-.12-.87-.39-.88-.47 0-.32.06-.65.19-.67 2.38-.38 7.13 1.25 9.21 2.79.09.06.19.1.29.1a69.1 69.1 0 0 1-.8 7.43c-.1 0-2.45 1.92-6.74 2.44Zm-2.18 14.46a.59.59 0 0 0-.62.53.58.58 0 0 0 .14.42.58.58 0 0 0 .4.2c6.74.44 12.1-.45 18.73-1.33a4.86 4.86 0 0 0 4.25-4.77c.03-1.98-.02-2.25-.37-4.17a.58.58 0 1 0-1.13.2c.33 1.86.37 2.08.35 3.96a3.71 3.71 0 0 1-3.25 3.63c-6.58.89-11.9 1.77-18.5 1.33Z" fill="#000"/>
  <path d="M141.26 129.98a.58.58 0 0 0 .57-.53c.25-3.52.03-5.52-.34-9.02a.57.57 0 0 0-.63-.52.57.57 0 0 0-.51.64c.37 3.5.58 5.37.33 8.82a.58.58 0 0 0 .58.61Zm-17.18-53.27-.88.43c-.55.27-.36 1.1.25 1.1.22 0 .28-.1 1.13-.5a.58.58 0 0 0 .26-.75.57.57 0 0 0-.76-.28Zm5-2.6c.42-.57.08-1.43-.6-1.57-.65-.13-.97.74-.41 1.06-.2.64.64 1.03 1.02.51Zm-11.61-1.61a.57.57 0 0 0-.52-.63.57.57 0 0 0-.63.5c-.25 2.43-.32 2.79-.2 3.28.16.58.65 1.03 1.21 1.03.59 0 1.11-.48 1.08-1.06-.04-.63-.91-.75-1.12-.16-.12-.18-.07-.53-.05-.75l.23-2.21Zm-.12 5.86c.8.13 1.64-.27 2.05-.97a.57.57 0 0 0-.04-.64.58.58 0 0 0-.38-.22.58.58 0 0 0-.58.28.9.9 0 0 1-.87.42.58.58 0 0 0-.18 1.13Zm4.68 3.63a.57.57 0 0 0-.44-.06.58.58 0 0 0-.35.26 4.2 4.2 0 0 0-.44 3.28.57.57 0 0 0 1.06.12c.08-.13.1-.29.05-.44a3.05 3.05 0 0 1 .32-2.37.57.57 0 0 0-.03-.64.58.58 0 0 0-.17-.15Zm28.14 18.85a.58.58 0 0 0-.81.01.58.58 0 0 0 .01.82 19.01 19.01 0 0 1 4.86 7.85.58.58 0 0 0 .72.36.58.58 0 0 0 .38-.71 20.2 20.2 0 0 0-5.16-8.33Zm4.6 27.34-.02-.2c-.08-.63-.54-1.16-1.16-1.06-.35.07-.56.32-.66.45l-.72.87a1.83 1.83 0 0 0-1.44-.4 3.4 3.4 0 0 0-1.74 1.04l-.12.11c-.34.33-.66.65-1.03.79a.58.58 0 0 0-.37.52.58.58 0 0 0 .78.56c1.18-.45 1.78-1.73 2.66-1.87.25-.04.6.1.63.3.05.52.7.7 1.01.31l1.04-1.27c.05.31.16.74.59.97.25.13.77.25 1.42-.34.7-.65 1.3-1.4 1.75-2.23a.57.57 0 0 0-.45-.85.58.58 0 0 0-.56.3 7.45 7.45 0 0 1-1.6 2ZM105.2 102.1c.24-1.82.7-3.6 1.4-5.3a.57.57 0 0 0-.33-.74.57.57 0 0 0-.74.3 22.65 22.65 0 0 0-1.47 5.59c0 .07 0 .15.02.22a.58.58 0 0 0 .27.35.59.59 0 0 0 .43.06.56.56 0 0 0 .35-.27.56.56 0 0 0 .07-.21Zm-1.5 16.28a.58.58 0 0 0 .54-.34l2.45-5.54a.57.57 0 0 0-.3-.75.58.58 0 0 0-.76.29l-2.45 5.53a.57.57 0 0 0 .25.74c.09.05.18.07.28.07Zm-51.78 40.13a.58.58 0 0 0 .58.57l30.82-.07a.58.58 0 1 0 0-1.15l-30.82.07a.58.58 0 0 0-.58.58Zm135.66-71.59a.58.58 0 0 0 .56.6l9.92.31a2.75 2.75 0 0 0 2.86-2.66l.16-5.27a.56.56 0 0 0-.15-.41.58.58 0 0 0-.4-.18.58.58 0 0 0-.6.56l-.16 5.26a1.6 1.6 0 0 1-1.67 1.55l-9.93-.32a.58.58 0 0 0-.59.56Zm11.68-31.55-7.21-.26a.58.58 0 0 0-.04 1.15l7.2.26a1.6 1.6 0 0 1 1.56 1.68l-.3 8.13-1.08.04-.33-1.75-1.69.32.28 1.5-.38.01-.14.01c-1.12.06-2.51.13-3.5.8a.57.57 0 0 0-.24.59c.79 4.11 1.2 7.35 2 11.5a.58.58 0 0 0 .65.46l2.2-.35a71.2 71.2 0 0 1 8.01-.95.57.57 0 0 0 .54-.43.57.57 0 0 0 0-.24c-.35-2.06-.7-3.99-1.05-5.9l-.97-5.45a.58.58 0 0 0-.66-.47c-.85.14-1.65.21-2.49.26l.3-8.04a2.77 2.77 0 0 0-2.66-2.87Zm5.35 16.77.94 5.25c-2.99.17-6.15.74-9.13 1.2-.7-3.76-1.1-6.78-1.82-10.55.82-.38 2.05-.4 3.27-.46l.14.75 1.7-.32-.1-.5c1.28-.03 2.86-.1 4.12-.27l.88 4.9Zm-24.02 3.12-.05 1.26c-1.34-.22-2.92-.53-4.13-.03a.58.58 0 0 0-.36.52c-.07 3.34-.25 5.93-.37 9.26a.58.58 0 0 0-.55-.47l-7.03-.2a.56.56 0 0 0-.6.57.58.58 0 0 0 .56.6l7.04.18a.57.57 0 0 0 .57-.43l-.07 2.15a.58.58 0 0 0 .54.59c3.34.2 7.02.3 10.26.87a.58.58 0 0 0 .68-.55c.15-4.07.23-7.5.38-11.52a.57.57 0 0 0-.55-.6 32.6 32.6 0 0 1-4.47-.6l-.19-.04.06-1.5-1.72-.06Zm5.7 3.32c-.13 3.56-.2 6.76-.34 10.3-2.96-.45-6.17-.56-9.18-.74.1-3.82.33-6.85.43-10.7.88-.19 2.09.04 3.3.24l-.04 1.03 1.72.06.03-.78c1.3.24 2.8.5 4.08.59Zm.17-26.77-1.6-.64a.57.57 0 0 0-.74.32l-.5 1.23c-1.07-.49-2.32-1.05-3.48-.9a.57.57 0 0 0-.48.4c-.25.81-.5 1.6-.8 2.4l-13.88-.51a2.78 2.78 0 0 0-2.87 2.68v1.4a.58.58 0 0 0 .58.57.58.58 0 0 0 .58-.57v-1.38c.03-.89.79-1.58 1.67-1.55l13.51.5c-.24.66-.5 1.31-.75 1.97-.67 1.74-1.37 3.55-1.98 5.6-.09.29.07.6.37.7 2.75.95 7.1 2.6 9.5 4.23a.58.58 0 0 0 .86-.27c1.1-2.76 2.01-5.63 2.89-8.42l1.04-3.31a.58.58 0 0 0-.37-.73 31.4 31.4 0 0 1-3.79-1.59l.56-1.38a.58.58 0 0 0-.32-.75Zm-1.5.64.53.21-.3.78a77 77 0 0 0-.53-.24l.3-.75Zm.72 10.1h-.03a4.05 4.05 0 0 1-2.17-.8l-.06-.05c-.29-.21-.3-.22-.63-.08a2.3 2.3 0 0 1-1.73.06 5.3 5.3 0 0 1-1.53-.89.4.4 0 0 1-.16-.25.38.38 0 0 1 .07-.28.38.38 0 0 1 .54-.08c.68.5 1.52 1.1 2.35.8l.35-.14h.01c.15-.06.33-.1.53-.08.29.04.5.2.72.38.5.38 1.13.6 1.76.65a.38.38 0 0 1 .36.39c0 .1-.05.2-.12.26a.38.38 0 0 1-.27.1Zm1.05-3.66a.4.4 0 0 1 0 .15c0 .05-.02.1-.05.14a.39.39 0 0 1-.24.17l-.28.03c-.42 0-.8-.22-1.16-.44-.65-.38-.74-.36-1.14-.33-.15 0-.3.02-.48 0a2.91 2.91 0 0 1-1.46-.74 2.45 2.45 0 0 0-1.03-.58.38.38 0 0 1-.32-.43.38.38 0 0 1 .44-.32c.56.08 1 .42 1.38.73.36.28.7.54 1.06.58h.37c.56-.05.82-.02 1.57.44.34.2.62.37.88.3a.38.38 0 0 1 .46.3Z" fill="#000"/>
  <path d="m168.69 57.67-.62 1.54c-1.3-.64-2.84-1.46-4.19-1.32a.58.58 0 0 0-.49.4c-1.27 3.98-2.45 7.05-3.73 11.06-.09.3.06.6.36.71.51.2 1.04.38 1.57.57l-.48 13.08a2.77 2.77 0 0 0 2.66 2.87l2.63.1a.58.58 0 0 0 .02-1.16l-2.6-.1a1.62 1.62 0 0 1-1.56-1.67l.47-12.72c2.36.84 4.76 1.71 6.88 2.76a.58.58 0 0 0 .8-.33c.67-1.98 1.28-3.84 1.89-5.7l1.73-5.24a.58.58 0 0 0-.35-.72 33.7 33.7 0 0 1-4.06-1.82l.67-1.66-1.6-.65Zm4.07 5.02c-1.13 3.37-2.1 6.4-3.23 9.79-2.72-1.28-5.78-2.3-8.6-3.31 1.17-3.63 2.25-6.47 3.44-10.14.93.07 2.12.69 3.27 1.25l-.24.6 1.6.64.19-.47a38.7 38.7 0 0 0 3.57 1.64Z" fill="#000"/>
  <path d="M164.5 63.01a.58.58 0 0 0-.52.35c-.62.24-1.1.86-1.08 1.55.02.88.8 1.61 1.68 1.61.97 0 1.77-.92 1.7-1.87a1.86 1.86 0 0 0-1.77-1.64Zm2.78 1.83a.58.58 0 0 0 .52.62c.98.09 1.92.4 2.76.9.1.06.2.08.3.08.58 0 .8-.77.3-1.07-1-.6-2.1-.96-3.26-1.06a.58.58 0 0 0-.62.53Zm1.97 2.83-2.45-.92a.58.58 0 0 0-.74.34.58.58 0 0 0 .33.74c2.58.96 2.47.96 2.65.96a.57.57 0 0 0 .5-.86.58.58 0 0 0-.3-.26Zm10.7 14.16c.72-.34.93-1.35.4-1.94a1.27 1.27 0 0 0-1.98.15.58.58 0 0 0 .02.64c-.2.9.74 1.53 1.56 1.15Zm-.47.3a2.64 2.64 0 0 0-2.55 2.29.58.58 0 0 0 .14.45c.12.12.27.2.44.18h3.97a.57.57 0 0 0 .42-.2.57.57 0 0 0 .14-.44 2.64 2.64 0 0 0-2.56-2.29Zm2.21-.35a.58.58 0 0 0 .53.61l1.77.14a.58.58 0 0 0 .04-1.15l-1.72-.13a.58.58 0 0 0-.62.53Zm18.21-9.72c.54.65 1.13 1.28 1.67 1.93l-2.43-.42a2.66 2.66 0 0 0 1.78 2.93c1.2.36 2.61-.3 3.1-1.45.5-1.15 0-2.63-1.1-3.24-1.08-.62-2.52-.32-3.02.25Z" fill="#000"/>
  <path d="M200.1 71.43a.58.58 0 0 0 .85-.79l-.9-.96a.58.58 0 0 0-.4-.19l-2.66-.1a.97.97 0 0 0-1.3-.24c-.26.1-.52.48-.5.92a1 1 0 0 0 1.29.94.99.99 0 0 0 .6-.46l2.29.09.73.79Zm-34.38 3.7a.57.57 0 0 0-.65.86.57.57 0 0 0 .37.26c.36.1.66.46.68.83a.96.96 0 0 1-.58.9.58.58 0 0 0-.15 1c.58.44.57 1.52-.01 1.95a.58.58 0 1 0 .7.92c.94-.7 1.17-2.17.53-3.2.44-.42.7-1.03.66-1.64a2.11 2.11 0 0 0-1.55-1.88Zm30.18-13.8c.12.12.22.27.28.44-.45.33-.22 1.02.36 1.1a.74.74 0 0 0 .66-.27c.33-.4.17-1.05-.05-1.48.2-.24.28-.56.24-.86-.08-.52-.46-.88-.7-1.1a.58.58 0 0 0-.78.86c.1.08.25.22.31.32a.58.58 0 0 0-.32 1Zm-.3 21.95c-.31.06-.64.04-.94-.04a.57.57 0 0 0-.73.5c-.02.03-.12.09-.22.09-.08-.02-.13.06-.76-.28a.58.58 0 0 0-.78.24.56.56 0 0 0-.05.44.58.58 0 0 0 .28.34c.35.18.79.41 1.3.41.43 0 .87-.2 1.14-.54.32.04.66.03.98-.03a.58.58 0 0 0-.22-1.13Zm-60.11 8.23c.43-.2 1.05-.02 1.3.39l.15.32c.5 1.16.75 1.08 3.62 2.02 1.22.4 2.35.83 2.84 1.75a.59.59 0 0 0 .34.29.57.57 0 0 0 .72-.38c.02-.08.03-.15.02-.23a.57.57 0 0 0-.06-.21c-.7-1.31-2.11-1.86-3.5-2.32-3.49-1.14-2.43-.65-3.14-1.83-.97-1.61-3.56-1.12-3.06-.07a.58.58 0 0 0 .77.27Zm-17.3 19.24c1.06-.41 1.5-1.64 1.4-2.64a6.1 6.1 0 0 0-1.05-2.49.58.58 0 0 0-.98.6c.39.65.8 1.31.88 2.02.06.55-.17 1.25-.67 1.44-.3.11-.61.09-1.04.27-.77.34-1.2 1.3-.41 2.02-.05.05-.13.13-.3.25a5.56 5.56 0 0 0-2.28 3.9.57.57 0 0 0 .51.63.58.58 0 0 0 .64-.52 4.4 4.4 0 0 1 1.8-3.07c.26-.2 1.08-.77.75-1.58-.08-.2-.2-.34-.36-.48a.32.32 0 0 1 .1-.09c.22-.1.64-.12 1-.26Zm19.1 29.5c.37-.2.36-.2.74-.02l.2.1c.57.25 1.12.2 1.48-.14.2-.2.28-.43.36-.68l.35.25c.94.6 2.05.23 3.01-.21a.58.58 0 0 0 .27-.76.58.58 0 0 0-.75-.29c-.68.32-1.43.6-1.9.29l-.16-.1c-.28-.21-.81-.6-1.39-.28-.36.2-.47.55-.54.78l-.05.15c-.29-.02-.7-.43-1.31-.4-.37.02-.66.19-.9.33l-.18.1a1.4 1.4 0 0 1-1.58-.25.58.58 0 0 0-.99.4c0 .16.06.3.17.41a2.54 2.54 0 0 0 3.17.33Z" fill="#000"/>
  <path d="M79.7 129.9c1.6 9.4 4.22 19.3 6.4 28.52a.57.57 0 0 0 .54.44c43.96 2.13 41.1 2.02 41.33 1.84 3-1.91 8.9-4.46 13.19-7.1.22-.13.32-.4.25-.64-.12-.43-.6-.44-.56-.42-3.53 0-10.15.21-14.2.25-1.54-7.3-3.14-14.52-4.63-21.97a.58.58 0 0 0-.55-.46c-7.13-.25-14.56-.41-22.08-.6.4-.92.78-1.74 1.12-2.47a20.9 20.9 0 0 0 1.6-4.07.58.58 0 0 0-1.11-.26c-.27 1.12-.8 2.26-1.53 3.84-.4.85-.84 1.8-1.33 2.94-5.24-.13-10.63-.27-16.2-.45 8.13-10.53 17.95-34.14 19.77-35.2a264.82 264.82 0 0 0 14.89-7.32c1.37 2.63 3.95 5.25 6.12 7.26.19.18.5.2.72.07a13.53 13.53 0 0 0 8.11-8.98c5.07 1.67 9.86 4 14.24 6.98 8.2 5.56 11.52 14.9 14.64 22a.57.57 0 1 0 1.05-.46c-2.93-6.67-6.35-16.61-15.04-22.5a58.5 58.5 0 0 0-15.52-7.44.57.57 0 0 0-.46 1.05 12.35 12.35 0 0 1-7.22 8.2 33.88 33.88 0 0 1-4.67-5.17c.23-1.27.73-5.77.97-7.15a6.05 6.05 0 0 0 2.75-1.43.57.57 0 0 0 .03-.81.58.58 0 0 0-.62-.15.58.58 0 0 0-.2.11c-1.78 1.64-4.3 1.6-5.35.46-.73-.78-.9-1.87-1-2.92-.28-3.54-.04-6.22.8-8.89 1.12-.51 1.2-.41 2.01.01 1.22.63 1.44.6 2.7.74 1.05.11 2.14.23 3.23.23.08 1.96 1.21 4.12 2.33 5.57.06.08.14.14.23.17.52.38 1.17-.24.83-.77a.58.58 0 0 1-.08-.19c.03-.36.33-.68.49-.83.34-.3 1.56 0 1.96.94a2 2 0 0 1-.3 1.95c-.36.5-.66.96-1.21 1.13a.58.58 0 0 0-.4.6c.2 2.24.4 3.22.63 5.7a.58.58 0 0 0 .4.49.58.58 0 0 0 .72-.38.58.58 0 0 0 .03-.23c-.22-2.32-.41-3.33-.6-5.26.61-.32.96-.82 1.36-1.37.9-1.22.96-2.98-.33-4.1.31-.84.61-1.7.74-2.63.4-3.03-1.3-5.1-4.12-6.17-.66-.26-1.33-.26-1.98-.27-1.43 0-1.73-.1-2.62-.94-1.76-1.67-5.59-4.2-8.8-3.1a4.32 4.32 0 0 0-2.5 2.18.58.58 0 0 0 .2.71c.42.29.9.39 1.4.5a5.31 5.31 0 0 0-1.9 4.35c.02.52.66.75 1 .37.19-.2.4-.3.67-.37 0 .97.85 1.81 2.55 1.47a24.1 24.1 0 0 0-.58 8.48c.1 1.2.33 2.58 1.3 3.61.77.83 1.9 1.2 3.04 1.19-.19 1.23-.5 3.87-.72 5.48l-.25-.52a.56.56 0 0 0-.34-.3.58.58 0 0 0-.46.03 268.68 268.68 0 0 1-15.32 7.57c-2.35 1-12.02 25.1-20.43 35.8a.57.57 0 0 0-.12.4h-.42a.58.58 0 0 0-.58.66Zm58.99 23.8c-3.62 2.03-7.97 4.02-10.69 5.63l-1.1-5.39c3.4-.04 8.27-.18 11.79-.23Zm-21.3-13.44c.42-.68.47-1.59.12-2.31a.38.38 0 0 1 .47-.53c.1.03.17.1.22.2.44.9.4 2.02-.08 2.9.22.8 1.23 1.4 1.45 2.44.1.45-.02.99-.34 1.34a4.3 4.3 0 0 1 1.21 3.51c.49 1.6.9 3.41.04 4.88a.38.38 0 0 1-.52.12.38.38 0 0 1-.14-.5c1-1.7-.2-4.15-.15-4.52.18-1.2-.35-2.5-1.31-3.23a.38.38 0 0 1-.05-.57.38.38 0 0 1 .18-.1c.27-.08.4-.47.33-.78-.18-.87-1.3-1.45-1.48-2.59-.02-.1 0-.18.05-.26Zm-12.8-.31c2.64.14 4.7 2 4.57 4.16-.12 2.3-2.55 3.76-5 3.62-2.64-.14-4.7-2-4.58-4.15.13-2.32 2.56-3.77 5-3.63Zm-15.86 5.19h.12a.39.39 0 0 1 .28.11.39.39 0 0 1 0 .54.39.39 0 0 1-.27.11h-.13a.37.37 0 0 1-.27-.1.39.39 0 0 1-.08-.42.38.38 0 0 1 .2-.21l.15-.03Zm-2.41-9.65a.39.39 0 0 1 .28-.1.38.38 0 0 1 .26.13c1.68 1.9 1.13 4.76 1.5 6.87a.38.38 0 0 1-.32.44.39.39 0 0 1-.44-.3c-.38-2.19.15-4.84-1.32-6.5a.38.38 0 0 1 .04-.54Zm32.94-74.41a.38.38 0 0 1 .38.38h-.38l.38.02-.38.04h-.39v-.06a.38.38 0 0 1 .39-.38Zm-4.98-.66a.38.38 0 0 1 .17-.52 3.48 3.48 0 0 1 3.98.63.4.4 0 0 1 .11.28.4.4 0 0 1-.03.14.4.4 0 0 1-.2.21.38.38 0 0 1-.3 0 .4.4 0 0 1-.13-.09 2.7 2.7 0 0 0-3.08-.48.38.38 0 0 1-.52-.17Zm-2.1-35.54-.12 14c0 1.07.3 1.77 1.03 2.41a3 3 0 0 0 1.97.75l12.7.02.64 6.89c.04.49.64.7.98.35l6.57-6.74 4.9-.17a3 3 0 0 0 2.9-3.02l-.05-14.25a3.02 3.02 0 0 0-2.98-3l-25.5-.22a3.01 3.01 0 0 0-3.03 2.98Zm17.48 10.6-11.87.03a.38.38 0 0 1-.38-.38.38.38 0 0 1 .38-.38l11.87-.03a.38.38 0 1 1 0 .77Zm11.18 1.35c.03.06.04.13.04.2a.38.38 0 0 1-.38.35l-3.02.02-3.02.01a.39.39 0 0 1-.34-.2.38.38 0 0 1 .02-.4 6.83 6.83 0 0 1 1.91-2c.93-.59 2.03-.7 2.88-.3.94.43 1.44 1.34 1.91 2.32Zm-1.81-6.05c.58 1.1-.1 2.27-1.35 2.31a1.6 1.6 0 0 1-1.4-.67c-.62-.94.03-2.37 1.15-2.51l.16.01c.05-.02.1-.02.16-.02.53.04 1 .37 1.28.88Zm-21.61-3.27 19.99-.05a.38.38 0 0 1 0 .77l-19.99.05a.38.38 0 1 1 0-.77ZM115 34.88a.38.38 0 0 1-.37-.25 6.68 6.68 0 0 1-.35-2.41c-.31-.28-.37-.79-.26-1.2.1-.33.24-.6.18-.8-.04-.14-.21-.35-.22-.65 0-.24.08-.42.18-.63.21-.48.15-1.09-.16-1.51a.38.38 0 0 1 .08-.54.38.38 0 0 1 .54.09c.47.65.56 1.54.24 2.27-.08.19-.11.25-.11.3 0 .07.13.26.19.46.13.46-.08.88-.18 1.21-.06.22 0 .41.04.43a.38.38 0 0 1 .26.39 6 6 0 0 0 .3 2.34.38.38 0 0 1-.05.34.4.4 0 0 1-.31.16Zm57.13 92.8a.58.58 0 0 0 .46-.23 12.28 12.28 0 0 0 .03-14.2.57.57 0 1 0-.93.67 11.25 11.25 0 0 1-.02 12.85c-.29.38 0 .92.46.92Zm8.09-4.37c.24 0 .47-.16.55-.4.6-1.94.46-4.1-.41-5.92a.6.6 0 0 0-.33-.3.57.57 0 0 0-.44.03.6.6 0 0 0-.3.33.58.58 0 0 0 .02.44 7 7 0 0 1 .36 5.07.58.58 0 0 0 .29.68.6.6 0 0 0 .26.07ZM114 12.2a22.4 22.4 0 0 0-12.45 12 .58.58 0 1 0 1.06.45 21.53 21.53 0 0 1 11.8-11.38.58.58 0 1 0-.4-1.08Zm-12.83 4.42a11.43 11.43 0 0 1 8.03-6.58.58.58 0 0 0-.24-1.13 12.6 12.6 0 0 0-8.85 7.26.58.58 0 0 0 1.06.45Zm-39.05 107.9 1.52 6.52 4.61-1.25c-.3-1.29-.98-3.83-1.77-6.44l-4.36 1.18Zm9.47-2.55-4.37 1.18c.65 2.13 1.24 4.28 1.77 6.44l4.35-1.17-1.75-6.45Zm-27.41-6.62 6.63-.95.8 5.6-6.62.96-.8-5.6Zm-.86-5.96 6.63-.96.75 5.2-6.63.96-.75-5.2Zm11.4 8.87 5.14 3.84c.1.07.14.18.15.3l3.3-4.9-5.36-4.02-3.23 4.78Zm3.66-5.42 5.37 4.01 2.53-3.74-5.54-3.75-2.36 3.48Zm-6.94 16.3a1.1 1.1 0 1 0-1.32 1.77 1.1 1.1 0 0 0 1.32-1.77Z" fill="#000"/>
  <path d="m51.95 122.35-.23-1.59-6.62.96 1.03 7.15.25 1.73.03.23.17 1.11.02.16.38 2.67.34-.05 6.06-.88.22-.03v-.05l9.31-2.51-.2-.87-1.32-5.64-3.64.99 2-2.97-.12.03a.4.4 0 0 1-.23-.08l-5.1-3.81-2.35 3.45Zm.33 8.8a1.87 1.87 0 1 1-3-2.24 1.87 1.87 0 0 1 3 2.24Zm-27.06-96.1a1.8 1.8 0 0 0-1.8.17c-1.38.91-1.27 3.14.48 3.55a1.6 1.6 0 0 0 2-1.95 1.43 1.43 0 0 0-.68-1.76Z" fill="#000"/>
  <path d="M18.94 35.1c.6 10.55.6 23.64.9 35.3a.58.58 0 1 0 1.14-.02c-.27-11.41-.28-24.76-.89-35.35a2.4 2.4 0 0 1 2.45-2.55 218.6 218.6 0 0 1 29.44 2.8.58.58 0 0 0 .18-1.13 219.04 219.04 0 0 0-29.6-2.83 3.57 3.57 0 0 0-3.62 3.77Zm3.2 51.04c1.06.14 2.27-.09 3.26-.12 15.23-.43 31-1.97 45.87-1.38.2 2 .33 5.1.54 6.98.05.43.54.67.9.4.1.09.21.15.35.16 2.34.18 4.81.35 7.07-.4 1.85-.6 3.78-2.18 3.8-4.06a.57.57 0 0 0 .21-.4c.79-12.17 1.62-23.68.58-35.66-.64-7.22-2.09-10.74-15.14-13.91-3.6-.87-11.66-2.67-15.29-3.4a.58.58 0 0 0-.43 1.05c.06.04.13.07.2.09 3.56.7 11.73 2.53 15.25 3.38 12.67 3.08 13.67 6.25 14.26 12.9 1 11.45.26 22.42-.48 33.96-1.3-1.33-3.8-1.72-5.95-1.9-16.75-1.36-34.61.56-51.77 1.04-1 .03-2.2.25-3.07.13-1.26-.18-.87-2.72-.93-4-.1-2.02-.2-4.05-.26-6.07a.58.58 0 0 0-.81-.52.58.58 0 0 0-.34.55c.07 2.2.16 4.2.26 6.1.07 1.32-.48 4.74 1.93 5.08Z" fill="#000"/>
  <path d="M38.44 35.65a2 2 0 0 0-1.48-.53c-2 .1-2.47 2.51-1.18 3.56.86.69 2.23.51 2.89-.37.48-.65.44-1.61-.05-2.2a.57.57 0 0 0-.18-.46Zm-9.72.68c-.34 1.25.75 2.56 2.01 2.56 1.23 0 2.03-1.17 1.77-2.34a.58.58 0 0 0 .14-.21c.5-1.24-3.4-1.96-3.92 0ZM13.73 44.1a.58.58 0 0 0-.74.32 45.76 45.76 0 0 0 .34 34.1.58.58 0 0 0 1.07-.44 44.6 44.6 0 0 1-.34-33.24.58.58 0 0 0-.33-.74ZM40.6 76.26c12.25.32 23.91-2.16 35.8-.21 1.75.28 3.27-1.15 3.37-2.96.3-5.4.6-11.3.88-16.9.2-3.9-2.32-7.26-5.87-7.8-9.68-1.51-21.11-1.83-33.85-1.86a.58.58 0 0 0-.58.54c-.6 8.87.28 19.77-.31 28.58a.57.57 0 0 0 .56.61Zm.87-28.57c13.75.1 23.7.36 33.14 1.83 2.96.46 5.06 3.3 4.9 6.6-.94 18.3-.88 17.08-.99 17.45l-8.28-12.84a.58.58 0 0 0-.95-.02 785.24 785.24 0 0 1-5.14 7.2l-5.41-7.4a.58.58 0 0 0-.85-.1 170.58 170.58 0 0 0-14.51 14.73l-2.15-.01c.5-8.56-.27-18.94.24-27.44Z" fill="#000"/>
  <path d="M63.4 58.67c1.72 0 3.16-1.5 3.24-3.41.08-2-1.35-3.68-3.2-3.68-1.73 0-3.18 1.5-3.26 3.42-.08 1.99 1.36 3.67 3.21 3.67Zm-37.62 1.22 6.83-.02v4.63l-6.82.02-.01-4.63Zm-.01-5.22 6.82-.01.01 4.44-6.82.02-.01-4.45Zm-.02-5.95 6.83-.02.01 5.2h-6.83v-5.18Zm.05 23.08 6.83-.01.02 5.32-6.83.02-.02-5.33Zm-.01-6.51 6.83-.02.01 5.75-6.83.02-.01-5.75Zm-.05-21.67 6.83-.02v4.33l-6.82.02-.01-4.33Z" fill="#000"/>
</svg>