<?xml version="1.0" encoding="utf-8"?>
<svg xmlns="http://www.w3.org/2000/svg" fill="none" viewBox="0 0 200 190">
  <path d="M82.99 176.75c-9.55-1.93-20.66-5.78-23.17-15.19-2.14-7.9 2.92-15.7 7.1-22.72 4.59-7.8 8.45-16.49 8.03-25.48-.41-9.05-6.2-18.3-15.08-20.23-8.81-1.93-18.57 3.53-26.76-.21-5.27-2.4-8.4-8.11-9.08-13.83-.68-5.72.62-11.5 2.14-17.06 4.27-15.65 10.48-31.4 22.33-42.59C60.34 8.26 78.87 2.9 93.37 10.3c8.56 4.37 14.61 12.48 19.52 20.75 4.9 8.27 9.08 17.05 15.4 24.33 6.3 7.28 15.39 12.95 24.99 12.33 5.32-.37 10.33-2.55 15.5-3.95 5.16-1.36 11.06-1.77 15.5 1.24 6.15 4.16 6.93 12.85 5.84 20.18a65.75 65.75 0 0 1-23.95 41.34c-5.43 4.32-12.11 8.64-13 15.45-.78 6.03 3.34 11.49 4.65 17.42 3.23 14.5-8.77 22.98-21.3 21.94-18.05-1.4-35.53-.93-53.53-4.57Z" fill="#F2F2F2"/>
  <path d="M189.8 47.37h-.42c-.26 0-.67 0-1.2.05-1.04 0-2.6.05-4.43.1-3.7.05-8.82.1-14.25 0l-7.25-.1c-5.43-.1-10.23-.16-13.67-.37-3.44-.15-5.53-.36-5.53-.57 0-.26 2.09-.31 5.53-.26 3.44.05 8.24.1 13.67.21l7.25.1c5.43.1 10.5.32 14.25.47 1.88.1 3.4.16 4.44.26.52.05.93.05 1.2.1.26-.05.41-.05.41 0Zm-.47 20.9s0-.05-.05-.2c0-.11-.05-.32-.05-.53a74.93 74.93 0 0 1-.31-8.27l.05-3.17c.1-4.78.1-8.47.62-8.47.53 0 .42 3.69.42 8.47l-.05 3.17a97 97 0 0 1-.31 6.3c-.06.83-.16 1.5-.21 1.97-.06.47-.06.73-.1.73Z" fill="#000"/>
  <path d="M150.04 53.19s-.47-.26-1.1-.68a21.5 21.5 0 0 1-2.24-1.92l-1.04-1.04c-1.57-1.61-2.77-2.8-2.4-3.17.36-.37 1.56.88 3.13 2.44l1.04 1.04a15.7 15.7 0 0 1 1.88 2.24c.52.62.78 1.09.73 1.09Z" fill="#000"/>
  <path d="M149.42 67.33s-.06-.15-.1-.52c-.06-.3-.11-.78-.22-1.35-.15-1.14-.26-2.7-.26-4.42l.05-2.23c.16-3.33.37-5.93.84-5.88.52.05.26 2.6.16 5.93l-.06 2.23a75.47 75.47 0 0 1-.26 4.37 6.4 6.4 0 0 1-.15 1.87Z" fill="#000"/>
  <path d="m149.42 67.28-1.72-1.87c-.16-4 .15-8.53.62-12.53 0-.1-.68-.62-.78-.73a12.2 12.2 0 0 1-.78-.83c-.53-.52-1-1.04-1.52-1.61a80.47 80.47 0 0 1-2.76-3.17c.26-.1.52-.21.83-.26.68-.06 1.1.46 1.51.88.27.26.53.47.79.73.52.52 1.04 1.04 1.46 1.6.52.63 1.04 1.2 1.51 1.83.21.31.37.62.58.94.15.26.41.46.52.83v2.55c0 .67-.32 1.35-.37 2.08-.05.62 0 1.24 0 1.82.1 2.6.16 5.14.1 7.74Zm33.6-15.39a6.17 6.17 0 0 1 3.5 4.84 5.23 5.23 0 0 1-2.77 5.15 4.85 4.85 0 0 1-5.69-1c-1.25-1.4-1.46-3.53-.94-5.35a6.2 6.2 0 0 1 1.99-3.12 4 4 0 0 1 3.55-.78" fill="#000"/>
  <path d="M182.65 51.68s-.1 0-.26-.05c-.2-.05-.47-.05-.83-.05-.68.05-1.72.31-2.66 1.2a6.49 6.49 0 0 0-1.57 6.23c.26.78.68 1.56 1.36 2.14a4.74 4.74 0 0 0 4.38.78 4.45 4.45 0 0 0 2.04-1.46 5.6 5.6 0 0 0 1.04-2.08 5.15 5.15 0 0 0-.57-3.8 6.17 6.17 0 0 0-1.78-1.97c-.26-.21-.47-.31-.57-.42-.16-.1-.21-.15-.21-.2 0-.06.1 0 .26.05s.42.15.68.3a6.13 6.13 0 0 1 2.71 3.9 5.8 5.8 0 0 1-1.15 4.58 5.1 5.1 0 0 1-2.24 1.62 5.21 5.21 0 0 1-4.9-.84 4.71 4.71 0 0 1-1.52-2.39 6.7 6.7 0 0 1 1.88-6.55c1-.88 2.09-1.1 2.82-1.1.36 0 .63.06.83.11.21.05.26 0 .26 0Z" fill="#000"/>
  <path d="M171.8 53.35c-5.48-.06-11-.1-16.49-.21l16.5.2Z" fill="#fff"/>
  <path d="M155.42 53.19c.1 0 .26 0 .41-.05.37 0 .9-.05 1.57-.05 1.3-.06 3.13-.1 5-.06l2.56.06c3.81.05 6.79.1 6.79.3 0 .27-2.97.22-6.78.16l-2.56-.05c-1.93-.05-3.7-.1-5.01-.15-.68-.06-1.2-.06-1.57-.1-.2 0-.3-.06-.41-.06Zm3.49 4.06h.1c.06 0 .22 0 .32-.06.31 0 .73-.05 1.2-.05 1.04-.05 2.4-.1 3.91-.1h1.99c2.97.05 5.27.1 5.27.31 0 .26-2.3.2-5.27.2h-1.99c-1.51 0-2.87-.1-3.91-.15-.52-.05-.94-.05-1.2-.1s-.42-.05-.42-.05Z" fill="#000"/>
  <path d="M171.33 61.2c-3.55-.05-7.1-.1-10.64-.1l10.64.1Z" fill="#fff"/>
  <path d="M160.69 61.1h.1c.05 0 .16 0 .26-.06.26 0 .57-.05 1-.05.83-.05 1.97-.1 3.23-.1h1.67c2.45.05 4.38.05 4.38.3 0 .27-1.93.22-4.38.22h-1.67c-1.25 0-2.4-.1-3.24-.16-.41-.05-.78-.05-.99-.1-.2-.06-.36-.06-.36-.06Z" fill="#000"/>
  <path d="M181.09 53.97c-1.1.2-1.62 1.87-.73 2.6 1 .88 2.6-.16 2.45-1.35-.05-.26-.42-.26-.42 0 .1.88-1.14 1.77-1.87 1.04-.58-.63-.16-1.77.62-1.93.32 0 .21-.41-.05-.36Zm3.18 6.76a3.23 3.23 0 0 0-6.05.42c-.05.26.31.36.37.1a2.82 2.82 0 0 1 5.32-.31c.15.2.47 0 .36-.2Z" fill="#fff"/>
  <path d="M192.83 62.19v-2.76l.05-.99c.05-1.45.1-2.6.26-2.6s.06 1.15 0 2.6l-.05 1c-.05.72-.1 1.4-.16 1.91-.05.27-.05.47-.05.58-.05.15-.05.26-.05.26Zm-43.78 4.73s.1 0 .37-.05c.26 0 .57-.05 1.04-.05a310.62 310.62 0 0 1 15.86-.1l6.16.15c9.18.3 16.28.67 16.28 1.14 0 .52-7.1.1-16.28-.15l-6.16-.16c-4.59-.16-8.92-.31-12.05-.47-1.57-.1-2.87-.15-3.76-.2-.47-.06-.78-.06-1.04-.06-.31 0-.42 0-.42-.05Zm-96.22 71.92s0-.21-.05-.68c0-.41-.06-1.1-.1-1.97-.11-1.72-.27-4.27-.63-7.5l-.06-.1c0-.05 0-.1.06-.1a712.7 712.7 0 0 1 8.5-3.17l.1.3c-.1 0-.2.06-.3.06l.05-.26a632.1 632.1 0 0 0 8.45 5.1l-.31.1.05-.05c0-.05 0-.05.05-.05 1.2-1.25 2.45-2.5 3.76-3.8l1.88-2.03c.62-.72 1.2-1.45 1.77-2.28l.2.41h-.2c-.05 0-.1-.05-.16-.1-2.24-2.3-4.64-4.68-7.1-7.18a.32.32 0 0 1 0-.42c.11-.1.27-.1.42-.05l.1.1-.46.16a36.43 36.43 0 0 0 1.46-4.2c.42-1.47.89-2.97 1.3-4.48v.05c0-.1.06-.2.06-.31 0-.16.15-.26.26-.31 3.08-.58 6.2-1.2 9.44-1.82.21-.06.42.1.47.3.05.22-.1.42-.26.48h-.05c-.21.05-.42-.06-.47-.26v-.1c.31-3.44.05-6.98-.73-10.51-.05-.21.1-.47.31-.52.21-.05.42.05.47.26l.05.1c.06.21-.05.47-.26.52-.05 0-.1.05-.2 0a73.71 73.71 0 0 0-11.75-.36c-.1 0-.2 0-.26-.05l-.1-.06c-.1-.05-.16-.2-.21-.3a24.5 24.5 0 0 0-.89-3.9c-.1-.32-.2-.63-.36-.94a4.6 4.6 0 0 0-.42-.89 4.49 4.49 0 0 0-.52-.83c-.21-.26-.37-.52-.58-.78l.06.05-.16-.15c-.21-.16-.21-.47-.05-.68a38.4 38.4 0 0 0 3.02-4 46.4 46.4 0 0 0 2.56-4.42l.16.62a94.41 94.41 0 0 0-10.13-5.51l.53-.05a52.6 52.6 0 0 0-3.34 2.86 44.24 44.24 0 0 0-3.03 3.22c0 .05-.05.05-.05.05-.1.1-.21.16-.37.26-.15.1-.31.16-.47.1-1.04-.3-2.03-.62-3.08-.93l-3.5-1.1.69-.51v.1c.05.26-.16.52-.47.57-.26.06-.53-.15-.58-.41a20.88 20.88 0 0 0-1.35-4.58 41.2 41.2 0 0 0-2.1-4.31l.53.26c-3.7.46-7.46 1.04-10.9 2.39l.05-.05-.26.15.26-.41c-.21 3.01-.06 6.08.41 9.1v-.06l.06.16c.05.26-.1.52-.37.62-3.08.89-6 2.34-8.56 4.27-.2.15-.57.1-.73-.1-.1-.11-.1-.27-.1-.42v-.05l.2.52-3.33-2.14c-1.25-.78-2.5-1.6-3.55-2.28l.78-.37v.16c0 .1-.05.15-.1.2-1.99 2.97-3.81 5.67-5.48 8.12l.05-.21v.1l-.16-.46c2.04 1.87 3.81 3.43 5.48 4.88.06.06.06.1.1.1.11.16.16.27.22.37.05.1.1.26.05.42a33.88 33.88 0 0 0-1.15 4.68c-.2 1.5-.31 2.91-.26 4.31l-.73-.41h.05l.26.93c-3.55.32-6.52.63-9.5.89l.21-.94c.06.05.1.05.16.1.16.11.26.27.26.42.1 3.64.84 7.23.89 10.82l-.21-.36.1.05-.3-.1c3.12-.16 6.2-.37 9.17-.53.1 0 .16 0 .27.05l.2.1.16.17.05.1v.05c.68 1.1 1.3 2.13 1.99 3.22.67 1.05 1.3 2.14 1.93 3.13l-.26-.21.1.05c.26.1.37.36.26.57v.05c-1.36 3.07-3.08 5.83-4.7 8.48l-.05-.57 7.36 7.02-.42-.1c.1 0 .21-.06.32-.06l-.21.1c2.08-2.07 4.02-4.1 5.9-5.97l-.11.25v-.05c0-.2.16-.41.42-.41h.1c3.03.73 5.95 1.2 8.61 1.82h-.16c.21-.06.37.05.42.26.73 3.8 1.41 7.17 1.93 9.98l-.47-.2h.05c.06-.06.1-.06.16-.06 3.6.1 6.42-.36 8.25-.73 1.87-.41 2.81-.67 2.81-.62.06.05-.88.47-2.71.94a31.28 31.28 0 0 1-8.35.98l.21-.05h-.05c-.16.1-.32.05-.42-.1 0-.05-.05-.05-.05-.1l-2.09-10 .47.32h-.16c-2.6-.62-5.53-1.04-8.66-1.77l.52-.41v.05c0 .1-.05.2-.1.31-1.88 1.87-3.81 3.9-5.9 5.98a.4.4 0 0 1-.2.1c-.11 0-.21.06-.32.06a.4.4 0 0 1-.42-.1c-2.34-2.24-4.8-4.58-7.35-6.98-.16-.15-.21-.41-.06-.57a76.36 76.36 0 0 0 4.65-8.42l.26.62-.1-.05c-.1-.05-.21-.1-.27-.2a101.3 101.3 0 0 1-1.93-3.13c-.67-1.04-1.3-2.13-1.98-3.22v.05l-.05-.1.15.15-.2-.1.26.05c-2.98.16-6.06.37-9.19.57a.56.56 0 0 1-.31-.1l-.1-.05c-.1-.1-.21-.26-.21-.37-.1-3.48-.79-7.02-.94-10.81l.26.41c-.05-.05-.1-.05-.16-.1-.26-.16-.31-.42-.2-.68.1-.15.2-.26.36-.26 2.97-.26 6-.57 9.5-.88.26-.05.52.15.57.47 0 .2-.1.41-.31.52h-.06c-.26.1-.57 0-.67-.26-.06-.06-.06-.1-.06-.21-.05-1.46.06-2.97.26-4.53.27-1.56.63-3.17 1.15-4.83l.05.41-.2-.36.1.1c-1.67-1.5-3.4-3.06-5.48-4.88a.42.42 0 0 1-.16-.47v-.1c0-.06.06-.16.06-.21 1.67-2.45 3.44-5.15 5.48-8.12l-.1.21v-.15a.57.57 0 0 1 .57-.47c.1 0 .15.05.2.1 1.05.68 2.3 1.46 3.55 2.24l3.34 2.13c.21.1.26.36.21.52v.05l-.83-.52a26.3 26.3 0 0 1 8.87-4.42l-.37.63-.05-.16v-.05a42.7 42.7 0 0 1-.47-9.31c0-.16.1-.31.26-.42l.26-.15s.05 0 .05-.05c3.6-1.4 7.41-1.93 11.17-2.45.2-.05.42.1.52.26a29.28 29.28 0 0 1 2.14 4.47 20.84 20.84 0 0 1 1.41 4.79l-1.04.1v-.1c-.06-.26.15-.52.47-.57h.2l3.5 1.09c1.05.3 2.09.62 3.08.93l-.47.1c.1-.1.2-.15.37-.25l-.06.05a43.34 43.34 0 0 1 6.53-6.24c.15-.1.36-.16.52-.05 3.6 1.6 6.99 3.59 10.23 5.61.2.16.3.42.15.63a62.73 62.73 0 0 1-2.6 4.47 34.19 34.19 0 0 1-3.14 4.1l-.05-.67.16.16.05.05a12.17 12.17 0 0 1 2.03 3.8c.42 1.35.68 2.7.94 4.05l-.2-.31.1.05-.26-.05c4.02-.2 8.03-.05 11.84.42l-.47.57-.05-.1.84-.21c.78 3.58.99 7.22.67 10.76l-.47-.42h.06l.15.78c-3.23.63-6.36 1.2-9.44 1.77l.26-.31c0 .1-.05.2-.05.31v.05c-.47 1.51-.94 2.97-1.36 4.42a51.3 51.3 0 0 1-1.51 4.27c-.05.16-.26.26-.42.16 0 0-.05 0-.05-.06l-.1-.1.41-.47c2.45 2.5 4.8 4.94 7.05 7.23l-.16-.1h.2c.16 0 .27.15.27.3 0 .06 0 .11-.05.16a33.55 33.55 0 0 1-3.7 4.32l-3.77 3.74c-.05.1-.15.16-.26.1h-.05c-3.03-1.86-5.84-3.58-8.35-5.2-.05-.05-.1-.15-.05-.2 0-.05.05-.05.1-.05.1 0 .21-.06.32-.06.1 0 .15.06.2.16 0 .1-.05.16-.1.16-3.23 1.2-6.1 2.18-8.56 3.06l.06-.15.05.1c.31 3.23.42 5.77.47 7.5 0 .88.05 1.5.05 1.97.2.78.2 1.04.2 1.04Z" fill="#000"/>
  <path d="m62.17 93.54-.26-.41c-.21-.26-.42-.73-.79-1.25-.73-1.1-1.93-2.6-3.8-4.16a21.03 21.03 0 0 0-7.62-4.1c-.79-.27-1.62-.42-2.5-.63-.42-.05-.9-.1-1.31-.21-.47-.05-.89-.05-1.36-.1-1.88-.1-3.8.05-5.8.57h.06l-3.13 1.25h.05c-1.82.88-3.6 1.87-5.32 3.12-.42.3-.83.62-1.25.98-.42.37-.78.68-1.15 1.1-.78.72-1.46 1.56-2.09 2.5-.62.88-1.14 1.86-1.61 2.85-.47.99-.9 2.08-1.26 3.12a18.28 18.28 0 0 0-.88 6.76c.15 3.33 1.2 6.66 2.92 9.52a18.84 18.84 0 0 0 7.1 6.91c1.66.89 3.44 1.51 5.21 1.93.47.1.89.2 1.36.26l1.36.16c.88.05 1.77.15 2.66.1.88 0 1.77-.1 2.6-.16.84-.15 1.73-.26 2.51-.47.84-.15 1.62-.46 2.4-.72l1.15-.47.57-.26.53-.26a18.77 18.77 0 0 0 4.74-3.28l.42-.36.37-.42a10 10 0 0 0 .73-.78c.26-.26.47-.57.68-.83a21.2 21.2 0 0 0 3.6-6.97c.73-2.29.99-4.47.93-6.4.06-.46-.05-.93-.05-1.35 0-.2 0-.41-.05-.62 0-.2-.05-.42-.1-.62l-.16-1.15c-.1-.36-.16-.73-.26-1.04-.1-.67-.31-1.2-.47-1.71a5.1 5.1 0 0 1-.21-.68c-.1-.2-.16-.36-.2-.52-.27-.78-.43-1.14-.32-1.2.05-.05.26.26.62.89.1.15.16.31.27.52.1.2.15.41.26.67.2.47.47 1.04.62 1.72l.32 1.04c.05.36.15.78.2 1.2.06.2.1.41.1.62 0 .2.06.42.06.68a21.1 21.1 0 0 1-.78 8.06 21.42 21.42 0 0 1-3.7 7.28c-.22.3-.48.57-.68.88-.27.26-.53.57-.79.83l-.41.47-.42.42c-.32.26-.58.52-.89.78-1.25.98-2.6 1.92-4.12 2.65l-.58.31-.57.26-1.2.47c-.83.26-1.62.57-2.5.73-.84.26-1.73.36-2.61.52-.9.1-1.83.2-2.72.2-.94.06-1.82-.05-2.76-.1-.47-.05-.94-.1-1.41-.2-.47-.06-.94-.22-1.41-.27a21.65 21.65 0 0 1-5.48-1.97A21.14 21.14 0 0 1 21 104.93c-.1-2.44.22-4.83 1-7.12.36-1.15.83-2.19 1.3-3.23a28.3 28.3 0 0 1 1.73-3.01 21.4 21.4 0 0 1 2.19-2.6c.36-.42.83-.78 1.25-1.15.42-.3.83-.67 1.3-.98a38.78 38.78 0 0 1 5.48-3.12c1.1-.42 2.14-.78 3.19-1.2h.05c2.03-.47 4.07-.57 6-.47.47.05.94.05 1.4.16.48.05.95.15 1.36.2.9.21 1.78.42 2.56.68a20.42 20.42 0 0 1 7.62 4.42 21.2 21.2 0 0 1 3.7 4.32 16.9 16.9 0 0 1 1.05 1.71Zm-6.26 33.8.36-.15c.16 2.29.32 4.52.73 6.76.1.62.26 1.4.21 2.03 0 .62-.52.83-.99 1.2-1.1.82-2.24 1.55-3.5 2.23.21-3.59-.3-7.49-.47-10.87 1.2-.41 2.4-.78 3.66-1.2Zm21.44-9c-.26 1.57-.73 2.82-.99 4.38-2.6-2.45-4.96-4.84-7.51-7.23.78-.94 1.1-2.4 1.46-3.54-.16.47 1.4 1.61 1.67 1.82.73.63 1.46 1.2 2.19 1.77 1.1.83 1.98 1.98 3.18 2.7-.05.06 0 .1 0 .1Zm3.55-24.17c-.2 0 .05.1-.16.05-3.7-.31-8.3-.99-11.9-.57-.46-1.1-.25-2.19-1.04-3.07 2.93-.05 7.15.1 11.28-.1a11.6 11.6 0 0 1 2.03 3.69c-.26.26-.52-.26-.2 0Z" fill="#000"/>
  <path d="M41.14 117.78c-.57.62-.47 1.71.2 2.18.63.42 1.42.31 2.15.16.57-.1 1.2-.26 1.67-.63.47-.36.68-1.09.36-1.61" fill="#000"/>
  <path d="M45.52 117.93s.1.05.26.21c.1.2.21.52.16.94-.05.2-.1.41-.26.62-.16.2-.37.42-.57.57-.47.31-1 .47-1.46.58-.42.1-.9.15-1.47.1-.3-.05-.62-.1-.94-.26a2.12 2.12 0 0 1-.73-.63 2.17 2.17 0 0 1-.3-1.4c.04-.41.25-.73.46-.83.21-.16.37-.1.47 0 .16.1.16.26.2.42 0 .15 0 .3.06.52 0 .2.1.41.21.57.05.1.1.15.26.2.1.06.26.1.42.1.31 0 .68-.04 1.1-.1.93-.15 1.5-.2 1.87-.67.32-.47.21-.94.26-.94Z" fill="#000"/>
  <path d="M38.84 114.4c.53.78.21 1.92.79 2.7.52.68 1.51.73 2.4.68l2.81-.16c.42 0 .84-.05 1.2-.2.37-.16.74-.48.84-.84.26-.88-.73-1.97-.16-2.7" fill="#000"/>
  <path d="M46.77 113.83s-.05.2-.05.46c.05.26.21.63.47 1.15.1.26.26.57.21 1.04 0 .46-.31.93-.68 1.2a2.4 2.4 0 0 1-1.3.51c-.42.06-.79.1-1.2.1l-2.09.11c-.42 0-.83.05-1.25 0a3.19 3.19 0 0 1-1.3-.42 2.25 2.25 0 0 1-.84-1.04c-.1-.36-.16-.67-.16-.93v-1.1c0-.25.05-.4.16-.51.16-.1.36-.06.57.26.21.26.32.73.42 1.2.05.2.1.46.2.62.11.15.17.3.37.41.16.1.42.16.73.21.32.05.63 0 1.05 0l2.09-.1c.36 0 .73 0 1.1-.06.3 0 .57-.05.77-.15.21-.1.32-.2.37-.42.05-.15.05-.47 0-.67-.05-.52-.16-1.04-.05-1.36.2-.41.41-.52.41-.52Z" fill="#000"/>
  <path d="M49.9 107.48c-.67.68-1.4 1.35-1.87 2.18a4.05 4.05 0 0 0-.26 2.86 1.4 1.4 0 0 1-1.2 1.72c-.73.1-1.46.16-2.1.2a10.2 10.2 0 0 1-2.5-.2c-.78-.1-2.87.2-3.54-.73-.32-.47-.1-1.14-.16-1.61a5.24 5.24 0 0 0-.94-2.13c-.78-1.1-1.88-1.93-2.71-2.97a10.55 10.55 0 0 1-2.46-7.17c.32-6.6 6.63-12.85 13.47-11.08 7.51 1.93 10.17 12.53 5.11 18.1-.26.26-.57.52-.83.83Z" fill="#fff"/>
  <path d="M49.9 107.48s.06-.05.11-.16c.05-.1.2-.2.31-.36a10.14 10.14 0 0 0 2.3-4.37c.31-1.14.42-2.5.26-3.95a12.8 12.8 0 0 0-1.36-4.52 10 10 0 0 0-3.5-3.9 8.75 8.75 0 0 0-5.42-1.36l-.73.06-.73.15-.37.1c-.1.06-.26.1-.36.1l-.73.27a9.8 9.8 0 0 0-2.61 1.61c-.37.26-.68.63-1.04.94a8.5 8.5 0 0 0-.9 1.04c-.25.36-.51.73-.77 1.14-.21.42-.47.78-.63 1.25a10.57 10.57 0 0 0-1 5.36c.17 2.02 1 3.95 2.2 5.4.63.73 1.36 1.4 2.04 2.14a6.97 6.97 0 0 1 1.67 2.65c.1.26.15.47.15.83.05.31 0 .57 0 .78 0 .2 0 .36.05.42 0 .05.06.1.16.15.2.16.57.21.94.26.37.05.78.05 1.2.05.2 0 .42 0 .68.06.26.05.42.05.62.1.37.05.74.1 1.1.1h1.04c.37-.05.73-.05 1.05-.1.15 0 .36 0 .52-.05h.26c.05 0 .1 0 .16-.05.2-.06.36-.16.47-.37a1 1 0 0 0 .15-.52v-.15l-.05-.21c-.05-.16-.05-.31-.05-.47a4.21 4.21 0 0 1 .47-2.4c.1-.2.26-.36.36-.51.53-.63 1-.99 1.3-1.25.43-.26.63-.31.69-.26.05.05-.06.26-.26.57-.21.31-.63.78-1 1.4-.2.32-.36.63-.41 1.05-.1.41-.1.88 0 1.35 0 .1.05.26.05.36l.05.21c0 .1.05.2.05.31a1.95 1.95 0 0 1-1.35 2.03c-.1.05-.21.05-.37.1l-.26.06c-.16 0-.36.05-.52.05-.37.05-.73.05-1.1.1-.36.05-.78.05-1.2.05a8.6 8.6 0 0 1-1.2-.1c-.2-.05-.36-.05-.57-.1h-.52c-.42 0-.84 0-1.3-.06-.48-.05-1-.1-1.52-.46a1.6 1.6 0 0 1-.68-.84c-.1-.36-.1-.67-.1-.93v-.57c0-.16-.06-.37-.1-.52a5.91 5.91 0 0 0-1.36-2.14c-.63-.67-1.41-1.35-2.1-2.18a11.18 11.18 0 0 1-2.55-6.14 12.56 12.56 0 0 1 1.83-7.38c.26-.47.57-.83.88-1.3.32-.36.63-.78 1-1.14a11.53 11.53 0 0 1 4.12-2.8l.83-.27c.16-.05.26-.1.42-.16l.42-.1.83-.16c.26 0 .58-.05.84-.05a9.71 9.71 0 0 1 6.16 1.72 11.4 11.4 0 0 1 3.7 4.42 12.44 12.44 0 0 1 1.2 4.88 10.9 10.9 0 0 1-1.93 6.97c-.52.73-1 1.2-1.3 1.51-.16.16-.32.26-.37.36-.26-.15-.31-.1-.31-.1Z" fill="#000"/>
  <path d="M44.27 115.07s-.1-.83-.15-2.34c-.06-1.5-.06-3.64.2-6.29.16-1.3.32-2.76.63-4.26.31-1.51.68-3.07 1.2-4.74.16-.41.37-.88.68-1.24.36-.37.83-.63 1.4-.63.53-.05 1.16.31 1.37.83.26.52.2 1.04.15 1.51-.1.52-.26.94-.42 1.4-.15.47-.36.89-.52 1.3-.42.89-.88 1.72-1.4 2.55-.48.73-1 1.4-1.68 2.03a5.36 5.36 0 0 1-2.34 1.4 4 4 0 0 1-2.72-.36 6.66 6.66 0 0 1-2.03-1.77 10.2 10.2 0 0 1-1.41-2.54c-.37-.89-.63-1.77-.78-2.66-.1-.46-.1-.98 0-1.45s.3-1.04.83-1.3a1.53 1.53 0 0 1 1.57.15c.41.32.67.68.88 1.04a19.79 19.79 0 0 1 1.93 11.76c-.15.98-.36 1.76-.52 2.44-.2.62-.36 1.14-.52 1.46l-.26.46c-.1-.05.16-.72.42-2.02.15-.68.3-1.46.41-2.4.1-.93.16-2.02.1-3.22-.04-1.2-.2-2.5-.57-3.9a18.1 18.1 0 0 0-1.56-4.21 2.65 2.65 0 0 0-.68-.83.82.82 0 0 0-.83-.1c-.27.1-.42.46-.47.82-.06.37-.06.78.05 1.2a13.25 13.25 0 0 0 2.09 4.94c.46.62 1.1 1.2 1.77 1.56.68.36 1.51.47 2.24.31.73-.2 1.41-.62 1.99-1.2a15.88 15.88 0 0 0 3.44-5.61c.16-.42.31-.83.37-1.25.05-.41.05-.83-.06-1.14a.86.86 0 0 0-.78-.47c-.36 0-.73.16-1 .42-.25.26-.4.62-.56.98a51.99 51.99 0 0 0-1.99 8.84c-.36 2.6-.42 4.74-.47 6.24v2.3Zm32.4 2.86s.06 0 .11.05c.05.06.16.1.26.21.21.21.58.47 1 .83.88.73 2.08 1.77 3.6 3.07.72.63 1.56 1.35 2.45 2.08.41.37.88.73 1.35 1.04.47.26 1.05.47 1.57.37a3.15 3.15 0 0 0 1.51-.73c.47-.37.94-.89 1.41-1.35l2.92-3.07a91.14 91.14 0 0 1 5.53-5.46 33.59 33.59 0 0 1 6.68-4.73 15.35 15.35 0 0 1 6.42-1.77c1.93-.05 3.4.26 4.38.62.53.16.84.37 1.1.47.26.16.37.2.31.26 0 .05-.15.05-.41.05-.27-.05-.63-.15-1.15-.2-1-.21-2.4-.47-4.18-.32-1.77.1-3.86.68-6 1.77a29.66 29.66 0 0 0-6.42 4.63 107 107 0 0 0-5.47 5.4c-1 1.05-1.99 2.09-2.98 3.07-.47.47-.99 1-1.56 1.4-.58.42-1.26.79-2.04.9a3.44 3.44 0 0 1-2.03-.58c-.58-.36-1-.78-1.47-1.2-.83-.78-1.61-1.56-2.34-2.23-1.41-1.35-2.61-2.5-3.4-3.28l-.93-.93c-.1-.26-.21-.37-.21-.37Zm22.18 18.1s0 .05-.05.05l-.2.2c-.16.16-.42.48-.74.79-.68.68-1.62 1.61-2.92 2.65a21.5 21.5 0 0 1-4.9 3.12c-1.99.88-4.5 1.4-7 .94a14.39 14.39 0 0 1-5.95-2.86c-.99-.73-1.87-1.51-2.7-2.24a115.5 115.5 0 0 1-6.1-6.14c-2.05-2.28-3.1-3.84-2.88-4 .2-.16 1.46 1.2 3.54 3.38 1.05 1.1 2.3 2.4 3.81 3.8a53.66 53.66 0 0 0 5.01 4.37 13.62 13.62 0 0 0 5.53 2.65c2.25.47 4.54.05 6.47-.73a25.3 25.3 0 0 0 4.9-2.76c1.37-.93 2.4-1.82 3.09-2.39.36-.31.62-.52.83-.68.16-.1.26-.2.26-.15Z" fill="#000"/>
  <path d="m101.36 171.34-.16-.31c-.05-.21-.2-.52-.31-.94a16.2 16.2 0 0 1-.47-1.46l-.58-1.97a67.36 67.36 0 0 1-1.46-6.61 14.1 14.1 0 0 0-.26-1.56c-.16-1.04-.26-2.13-.42-3.22-.15-1.98-.3-3.95-.3-5.88v-1.6c0-.53.04-1.05.04-1.57 0-1.04.1-2.03.16-2.96.1-.94.2-1.82.31-2.65.1-.84.26-1.62.37-2.3.15-.67.26-1.3.42-1.86.1-.52.26-1 .36-1.36.26-.72.42-1.14.52-1.09.1.05.1.47.05 1.25-.1.78-.26 1.87-.47 3.22-.1.68-.2 1.46-.26 2.24-.1.83-.15 1.66-.26 2.6l-.15 2.91c0 .52 0 1.04-.06 1.56v1.61c0 1.93.16 3.9.32 5.83.41 4.37 1.04 8.37 1.61 11.33.32 1.46.53 2.7.73 3.54.11.42.16.73.21.99.06.16.06.26.06.26Z" fill="#000"/>
  <path d="M96.6 169.62s.06 0 .22.06c.1.05.31.1.57.2.47.16 1.2.42 2.09.78.94.31 2.03.73 3.34 1.1l2.09.62c.73.2 1.56.36 2.34.57 1.67.37 3.5.78 5.43 1.1 1.98.3 4.07.56 6.26.72 1.1.05 2.25.16 3.4.16.57 0 1.14 0 1.72.05h1.77c.58 0 1.2-.05 1.78-.05.62 0 1.2-.06 1.82-.1 1.2-.06 2.45-.22 3.65-.32 1.1-.1 2.2-.31 3.3-.41 1.09-.21 2.18-.37 3.23-.58l1.61-.36.79-.16.2-.05c.06 0 .11 0 .16-.05l.26-.16c.32-.2.47-.62.47-.99v-.15l-.05-.2-.1-.43-.16-.83c-.52-2.39-1.1-4.78-1.57-7.07a52.16 52.16 0 0 1-.94-6.66 33.1 33.1 0 0 1 .16-6.03c.21-1.87.52-3.59.84-5.15a81.2 81.2 0 0 1 1.93-7.22c.52-1.67.88-2.55.99-2.5.16.05-.05.99-.47 2.65-.42 1.72-1.04 4.16-1.67 7.23a58.92 58.92 0 0 0-.78 5.1 31.1 31.1 0 0 0-.1 5.87c.15 2.08.46 4.27.93 6.5.47 2.24 1.04 4.58 1.57 7.02l.15.84.1.41.06.2c0 .06.05.16.05.27a2.14 2.14 0 0 1-1.35 2.18c-.1.06-.16.06-.27.1l-.2.06-.84.2-1.62.37a72.48 72.48 0 0 1-6.62.99c-5.01.52-9.87.52-14.35.1a71.12 71.12 0 0 1-11.74-2.13c-3.34-.88-5.95-1.92-7.78-2.6-.89-.36-1.56-.68-2.09-.88l-.52-.26c0-.1-.05-.1-.05-.1Zm69.62-31.3s0 .05.05.15c.05.1.1.26.16.47.1.42.31.99.52 1.72.42 1.5 1.04 3.69 1.51 6.45.26 1.35.42 2.86.47 4.52a22 22 0 0 1-.42 5.15 19.33 19.33 0 0 1-1.87 5.35c-.47.89-1.05 1.72-1.73 2.5a9.03 9.03 0 0 1-2.4 2.03 4.87 4.87 0 0 1-5.63-.11 8.34 8.34 0 0 1-1.93-2.13 15.8 15.8 0 0 1-1.3-2.44 154 154 0 0 1-7.37-18.93c-1.5-4.89-2.13-7.96-1.93-8 .27-.11 1.15 2.9 2.77 7.69a180.4 180.4 0 0 0 7.46 18.77c.37.78.78 1.56 1.25 2.29s1 1.35 1.67 1.82a3.7 3.7 0 0 0 2.2.73 4.7 4.7 0 0 0 2.3-.68c1.6-.93 2.86-2.5 3.75-4.1a18.97 18.97 0 0 0 1.93-5.1c.73-3.44.57-6.71.2-9.42a61.2 61.2 0 0 0-1.2-6.44c-.15-.78-.3-1.36-.36-1.77-.05-.21-.05-.37-.1-.47 0 0-.05-.05 0-.05Z" fill="#000"/>
  <path d="M166.79 139.41s0 .05.05.1c0 .1.06.21.06.37a4.04 4.04 0 0 1-1.15 2.96 4.7 4.7 0 0 1-2.04 1.2 7.98 7.98 0 0 1-4.38 0 8.84 8.84 0 0 1-1.67-.57c-.89-.42-1.41-.73-1.3-.94.1-.26.67-.16 1.61.16.89.26 2.2.67 3.6.67a5.86 5.86 0 0 0 3.66-1.14c.46-.37.83-.83 1.1-1.25.4-.83.4-1.56.46-1.56Zm-3.23-19.92s0-.05.1-.2l.26-.53c.2-.46.57-1.14 1-2.02a831.5 831.5 0 0 1 3.75-7.39c.78-1.56 1.72-3.22 2.71-4.99.47-.88 1-1.82 1.52-2.75.52-.94 1.1-1.88 1.61-2.87.26-.46.53-.98.68-1.45v-.05c0-.06-.1-.1-.16-.16-.2-.16-.41-.26-.67-.36-.53-.21-1.1-.52-1.62-.78s-1.05-.52-1.62-.84a114.48 114.48 0 0 0-9.86-4.42c-1.04-.41-2.09-.88-3.13-1.3a76.53 76.53 0 0 0-3.13-1.2c-.52-.15-1.05-.36-1.57-.46-.26-.05-.52-.16-.78-.16-.26-.05-.52-.05-.63-.05l.05-.05.06-.05v.05l-.06.1-.15.42c-.1.31-.26.57-.37.88-.26.58-.47 1.15-.73 1.72l-1.4 3.33c-.94 2.18-1.88 4.21-2.77 6.19-1.83 3.9-3.44 7.38-4.85 10.24-2.82 5.77-4.6 9.26-4.8 9.15-.27-.1 1.3-3.69 4.01-9.51 1.36-2.92 2.98-6.4 4.75-10.3.89-1.98 1.83-4 2.77-6.19.47-1.09.94-2.18 1.4-3.33.22-.57.47-1.14.74-1.71.1-.31.26-.57.36-.89l.16-.41.05-.1c0-.06 0 0 .05-.11.06-.05.06-.1.1-.16.11-.1.16-.15.27-.2.1-.06.15-.06.2-.1.48-.11.74-.06 1.05 0a20.55 20.55 0 0 1 2.56.73c1.1.35 2.14.77 3.18 1.19 1.04.41 2.09.88 3.13 1.3 1.04.41 2.09.88 3.13 1.3 2.35 1.04 4.6 2.08 6.73 3.22.53.26 1.1.57 1.62.83.52.31 1 .52 1.57.78.26.16.52.26.83.47.16.1.31.2.42.47.05.1.1.26.1.41v.21l-.05.16c-.2.62-.52 1.1-.78 1.61-.58.99-1.15 1.92-1.67 2.86s-1.1 1.82-1.57 2.7c-1.04 1.77-2.03 3.33-2.82 4.9-1.66 3-3.07 5.5-4.01 7.22-.47.83-.89 1.5-1.15 1.98-.16.2-.21.41-.31.52-.21.05-.26.15-.26.15Z" fill="#000"/>
  <path d="M150.72 123.86s-.2-.05-.52-.1l-1.3-.42c-1.1-.36-2.62-.88-4.18-1.45l-2.09-.78c-3.13-1.15-5.69-1.72-5.53-2.19.1-.52 2.66.16 5.9 1.2l2.14.78a32.6 32.6 0 0 1 4.01 1.92c.53.31.94.52 1.2.73.21.16.37.26.37.31Z" fill="#000"/>
  <path d="m155.2 125.32-.52-.78c-.36-.52-.88-1.2-1.61-1.98a12.28 12.28 0 0 0-2.93-2.23l-.2-.1a.4.4 0 0 0-.21-.11h-.16l-.1.1v.05c0 .06.05.16.05.21.2.68.52 1.3.94 1.92.73 1.15 1.72 2.19 2.4 3.6.36.77.52 1.55.68 2.28.15.73.26 1.4.47 2.03a9.97 9.97 0 0 0 1.61 2.96c.58.78 1.15 1.4 1.46 1.82.37.47.47.73.42.78-.1.1-.36-.05-.83-.41-.42-.37-1.05-.89-1.72-1.67a9.64 9.64 0 0 1-1.88-3.17c-.47-1.35-.53-2.86-1.15-4.16-.58-1.2-1.51-2.23-2.35-3.43a7.29 7.29 0 0 1-1.04-2.24c-.06-.1-.06-.2-.06-.3-.05-.16 0-.32 0-.48.1-.3.32-.57.58-.73a.9.9 0 0 1 .88 0c.16.06.21.1.27.16l.2.16a11.73 11.73 0 0 1 4.28 4.83c.16.26.21.52.26.68.27.1.32.2.27.2Z" fill="#000"/>
  <path d="M157.82 126.36s-.06-.05-.1-.16c-.06-.1-.11-.31-.22-.52a65.43 65.43 0 0 0-3.44-7.7l-.78-1.4-.21-.36c-.05-.1-.1-.21-.21-.31a1.9 1.9 0 0 0-.47-.47c-.2-.16-.31-.16-.42-.1-.1.05-.16.1-.2.25-.06.16-.06.42 0 .63.04.2.1.47.2.72.31 1 .52 1.93.73 2.66.37 1.5.58 2.44.32 2.55-.27.1-.63-.79-1.15-2.3-.26-.72-.52-1.6-.84-2.64-.05-.27-.15-.52-.2-.84-.06-.3-.11-.62 0-1.04.05-.2.1-.41.25-.57.16-.2.37-.31.58-.42.26-.1.52-.1.73-.05.2.05.42.16.57.26.32.21.53.47.68.68.1.1.16.26.26.36l.21.37.78 1.45a30.2 30.2 0 0 1 2.72 8.06c.2.63.26.89.2.89Z" fill="#000"/>
  <path d="M161.31 125.84s-.05-.06-.05-.21l-.16-.63c-.15-.57-.31-1.35-.57-2.28-.47-1.93-1.1-4.58-2.09-7.23-.2-.63-.41-1.2-.68-1.77-.26-.57-.47-1.14-.83-1.45-.21-.16-.31-.21-.47-.16a.56.56 0 0 0-.31.42c-.1.25-.1.52-.1.83v.93c0 1.2.04 2.3.1 3.23.1 1.82.2 2.9-.06 2.96-.26.05-.57-1.04-.83-2.86-.1-.94-.21-2.03-.26-3.28v-.93c0-.36.05-.73.16-1.14.05-.21.15-.42.3-.63.16-.2.37-.36.69-.47.26-.1.57-.1.83 0s.47.21.68.37c.63.57.83 1.24 1.1 1.82.26.62.47 1.2.73 1.82a39.9 39.9 0 0 1 1.61 7.48c.1 1 .21 1.83.26 2.4-.05.47-.05.78-.05.78Z" fill="#000"/>
  <path d="M164.7 139.88v-1.4c0-.47 0-1-.05-1.67 0-.63-.05-1.35-.05-2.19-.05-.78-.05-1.66-.1-2.6l-.16-2.96c-.05-1.04-.16-2.13-.26-3.22a69.7 69.7 0 0 0-.37-3.38c-.2-2.08-.52-4.11-.83-6.14-.21-1.14-.37-2.24-.57-3.33l-.32-1.56c-.1-.47-.26-.88-.47-1.04-.1-.1-.26-.1-.36-.1-.06 0-.16.05-.21.15-.16.26-.21.73-.31 1.15-.16.83-.27 1.66-.37 2.39-.31 2.91-.31 4.68-.57 4.68-.1 0-.26-.42-.32-1.25a23.95 23.95 0 0 1 .31-5.98c.11-.41.11-.88.42-1.45.16-.26.47-.58.89-.63.42-.05.78.05 1.04.26.63.42.79 1.1.9 1.61l.3 1.56.63 3.33a95.24 95.24 0 0 1 1.25 18.46 46.46 46.46 0 0 1-.26 3.8c-.05.47-.1.83-.1 1.04 0 .31 0 .47-.05.47Zm-48.94-63.76s-.05.16-.2.42c-.11.26-.32.68-.53 1.2-.42 1.04-1.04 2.5-1.57 4.36l-.88 3.07c-.26 1.1-.52 2.29-.47 3.54.05 2.5.31 5.25 1.1 8 .36 1.2.78 2.4 1.4 3.49a8.8 8.8 0 0 0 2.35 2.8c1.1.84 2.45 1.2 3.76 1.15 1.3 0 2.55-.31 3.65-.73a15.7 15.7 0 0 0 3.03-1.56c.88-.57 1.67-1.2 2.24-1.87.57-.67 1.04-1.35 1.36-1.97.36-.63.62-1.15.88-1.62.47-.88.79-1.35.84-1.3.05 0-.16.52-.57 1.46a15.24 15.24 0 0 1-2.15 3.74c-.62.73-1.4 1.36-2.3 1.98-.88.62-1.92 1.2-3.07 1.61-1.15.47-2.45.78-3.8.78a6.35 6.35 0 0 1-4.03-1.25 9.07 9.07 0 0 1-2.5-2.96 17.87 17.87 0 0 1-1.46-3.59 28.05 28.05 0 0 1-1-8.11c0-1.3.27-2.5.58-3.64.31-1.1.68-2.13.94-3.07a45.68 45.68 0 0 1 1.72-4.37c.26-.52.42-.88.58-1.14.05-.26.1-.42.1-.42Z" fill="#000"/>
  <path d="M133.71 87.82c2.3-1.87 3.81 1.4 3.65 3.23a5.1 5.1 0 0 1-1.56 3.22c-.37.31-.79.63-1.26.57-.46 0-.88-.36-1.09-.72-.1-.16-.16-.32-.26-.47-.63.31-.63 1.45-.89 2.03a11.7 11.7 0 0 1-1.46 2.44c-.57.78-1.2 1.5-1.67 2.34-.2.42-.26.68-.63.94-.15.1-1.1.52-1.14.57a10.23 10.23 0 0 0-.37 5.3c.78 3.12 4.38 4.73 7.05 6.09 1.04.52 2.97 1.3 3.8 0 .32-.47.37-1.2.53-1.72.26-.78.57-1.56.83-2.4.31-.82.58-1.7.47-2.6-.1-.98-.78-1.97-.57-2.95.36-1.77 2.87-2.19 3.5-3.9.52-1.51-.79-3.13-.58-4.74.26-1.77 2.3-2.96 2.35-4.73 0-1.14-.89-2.13-1.78-2.86-.88-.73-1.93-1.4-2.45-2.44-1.04-2.24.68-5.1-.57-7.23-.94-1.56-3.13-2.03-4.18-3.54-.99-1.5-.62-3.64-1.77-5.04-1-1.2-2.77-1.4-4.28-1.2-2.56.42-4.8 1.93-7.2.52-.89-.52-2.04-.99-2.87-.47-.94.63-.89 2.03-1.57 2.92-.78.98-2.19 1.04-3.39 1.4-.99.31-1.93.83-2.5 1.66a3.45 3.45 0 0 0-.63 2.92c.16.57.52 1.09.52 1.66.06 1.04-.83 1.82-1.2 2.8-.31.94-.15 1.93.05 2.87.37 1.87.63 3.8 1.3 5.61.11-2.9.64-5.77 1.63-8.52.94-2.7 3.39-5.67 6.47-5.88 2.24-.16 4.28 1.25 5.84 2.91 1.51 1.56 3.65 3.38 4.8 5.15 1.3 1.98.42 4.16-.1 6.24-.1.36-.21.73-.16 1.1 0 .36.21.77.57.93.53.2 1.15-.21 1.41-.73.32-.57.42-1.25.58-1.87.05-.31.26-.99.78-1.4Z" fill="#000"/>
  <path d="M120.14 93.5c.05.04.1.15-.31.4-.2.11-.52.32-1.1.42-.26.06-.57.1-.94.06-.2 0-.41-.06-.62-.16-.21-.1-.52-.36-.58-.62-.2-.63 0-1.25.16-1.93.1-.31.21-.62.26-.93.05-.32.16-.68.21-1 .26-1.24.52-2.23.63-2.23.1 0 0 1.04-.16 2.34-.05 1.25-.68 2.86-.47 3.54.05.15.1.2.21.26.1.05.26.1.42.1.31.05.57 0 .78 0 .47-.05.78-.15 1-.2.4-.16.51-.11.51-.06Zm-5.22-7.5-.52.21c-.41.16-.47.73 0 .89.26.1.63.15.94.1.37-.05.63-.26.84-.57.47-.73-.06-1.67-.94-1.82h-.05c-.47-.1-.84.41-.53.78l.27.41Zm7.88 1.36-.52.26c-.42.2-.36.78.1.88.32.1.63.1.95 0 .3-.1.62-.36.73-.62.36-.78-.21-1.62-1.15-1.72h-.05c-.47-.05-.79.47-.47.83l.41.37Zm-5.69-5.1c-.05.16-.05.36-.26.42-.2.1-.52.1-1.25.2-.36.06-.99.1-1.51.21-.52.1-1 .21-1.1.05-.1-.15.21-.57.73-.88.53-.36 1.2-.62 1.67-.68.84-.1 1.3.06 1.52.16.26.16.26.31.2.52Zm5.07.47c0-.16.05-.37.26-.47.26-.1.73-.16 1.61.1.47.16 1.2.52 1.67.94.53.42.79.88.68 1.04-.1.16-.57-.05-1.15-.2-.57-.22-1.2-.37-1.61-.48-.73-.2-1.1-.3-1.3-.46-.16-.1-.16-.26-.16-.47Zm.26 13.26c.05.05.15.1 0 .36-.16.26-.52.78-1.62 1.25-.57.26-1.51.42-2.35.42-.42 0-.89-.21-1.04-.47-.16-.26-.1-.47-.1-.47.05 0 .1.16.25.26.16.16.47.2.84.16.73-.1 1.62-.37 2.14-.58.94-.36 1.25-.78 1.51-.93.21-.05.26-.05.37 0Z" fill="#000"/>
  <path d="M118.21 99.06c0-.1.05-.16.26-.21.21-.05.58 0 1.3-.37.37-.2.95-.62 1.36-1.09.42-.47.73-.83.84-.78.05.05-.1.52-.47 1.1a4.03 4.03 0 0 1-1.41 1.4c-.89.41-1.46.31-1.67.26-.26-.16-.26-.26-.21-.31Zm-.83 10.86s0-.1.05-.2.1-.31.15-.52c.06-.21.1-.47.16-.73l.16-.83c.05-.26.05-.52.05-.78 0-.31 0-.58-.05-.83a3.1 3.1 0 0 1-.1-.68c-.06-.36-.11-.63.1-.78.2-.16.47.05.67.47.11.2.21.46.27.78.05.3.1.62.1.99 0 .3-.05.67-.05.98a3.16 3.16 0 0 1-.89 1.67c-.31.36-.57.47-.63.47Zm10.85-.1s-.1-.05-.21-.2c-.1-.16-.26-.37-.47-.63a5.33 5.33 0 0 1-.83-2.34c-.06-.42-.06-.83-.06-1.25.06-.94.21-1.77.42-2.34.2-.57.47-.83.68-.78.26.1.2.47.16.99a10.73 10.73 0 0 0-.21 3.28c.1.83.2 1.66.31 2.23.16.63.26 1.04.2 1.04Zm10.07 5.46s-.47-.26-1.2-.73a50.09 50.09 0 0 0-2.77-1.6 29.54 29.54 0 0 0-4.28-1.87c-.73-.27-1.14-.48-1.1-.74.06-.26.58-.31 1.37-.1a15 15 0 0 1 3.02 1.04c.52.26 1.05.52 1.52.78a13.7 13.7 0 0 1 2.6 2.08c.58.62.9 1.09.84 1.14Z" fill="#000"/>
  <path d="M130.1 110.76s0 .1-.04.26c-.06.15-.16.36-.26.67-.21.57-.53 1.4-1.1 2.4-.57.93-1.4 1.92-2.56 2.85a10.6 10.6 0 0 1-4.07 2.19c-1.4.42-2.97.42-4.38.1a7.79 7.79 0 0 1-3.97-2.34 6.3 6.3 0 0 1-1.46-3.43c-.05-.52-.05-.99.05-1.4.06-.42.16-.78.32-1.04.26-.52.47-.78.57-.73.1.05.05.36-.05.88-.05.26-.1.57-.1.94 0 .36 0 .78.05 1.25a5.8 5.8 0 0 0 1.35 2.9 6.31 6.31 0 0 0 3.45 1.98c1.25.32 2.6.26 3.91-.05a12.79 12.79 0 0 0 6.42-4.37c.63-.83 1.04-1.6 1.36-2.13.31-.67.52-.93.52-.93Zm22.7-16.54s.11.2.37.57c.21.37.63.78 1.15 1.25.57.47 1.3.88 2.2 1.1.88.25 1.87.15 2.97.2.47.05.99.05 1.46.2.47.11.94.32 1.35.53 1 .52 1.78 1.14 2.56 1.61.73.47 1.46.83 2.09 1.04 1.25.42 2.09.16 2.09.31 0 .05-.16.16-.58.26a4.2 4.2 0 0 1-1.67-.15 10.6 10.6 0 0 1-2.24-1.04c-.79-.47-1.57-1.1-2.5-1.56a5.9 5.9 0 0 0-2.62-.68c-1.04-.05-2.14 0-3.08-.31a5.8 5.8 0 0 1-3.33-2.7c-.16-.42-.21-.63-.21-.63Zm-4.32 7.75s.05.15.2.47c.16.26.53.57 1 .78a4.75 4.75 0 0 0 1.88.36c.72.05 1.56.05 2.4.42.36.15.73.36.99.67.26.31.47.63.73.83.52.58 1.2.89 1.88 1.04.67.16 1.25.21 1.77.21 1.04 0 1.67-.05 1.72.1 0 .11-.62.27-1.67.37-.52 0-1.2 0-1.93-.16a4.05 4.05 0 0 1-2.14-1.2c-.26-.3-.47-.62-.73-.82-.2-.26-.52-.42-.83-.58a7.13 7.13 0 0 0-2.25-.41 4.66 4.66 0 0 1-1.98-.57 2.54 2.54 0 0 1-1-1c-.04-.3-.04-.51-.04-.51Zm-1.93 8.47h.26c.15 0 .41-.05.68-.15.26-.1.62-.26 1.04-.37a1.5 1.5 0 0 1 1.41.37c.31.31.52.62.83.83.31.26.68.42 1.05.47.36.1.67.1.94.1.52 0 .83-.1.88 0 .05.1-.26.37-.88.42a3.44 3.44 0 0 1-2.3-.63c-.37-.26-.63-.62-.89-.88-.52-.57-1.4-.16-2.03-.1-.58.15-1-.06-1-.06Zm11.37 32.25c-.05 0-.2-.37-.36-.94-.16-.57-.37-1.35-.53-2.24l-.1-1.14c-.16-1.72-.31-3.07.16-3.12.52-.05.62 1.3.83 2.96l.1 1.15c.21 1.76 0 3.32-.1 3.32Z" fill="#000"/>
  <path d="M149.05 150.28c1.98-1.98 4.02-3.9 6-5.88 1.15-1.14 2.4-2.34 2.76-3.95.68-2.8-1.5-5.82-2.76-8.22-.52-.98-1.2-1.92-1.51-2.96a9.67 9.67 0 0 0-6.21-7.07c-1.73-.63-3.45-1.04-5.17-1.67-1.62-.57-3.4-.98-5.11-1.4 1.56-3.43 1.93-3.28.99-4.37-.94-1.1-2.82-1.87-4.23-2.29-1.4-.47-2.3-1.3-4.12-1.45-1.2 2.8-3.18 5.4-5.9 6.8-2.71 1.41-6.26 1.41-8.76-.4-2.5-1.83-2.61-5.94-.94-8.48-.26.36-3.81.2-4.39.36-1.3.31-2.19.52-3.39 1.04-2.5.99-5.48 3.28-7.62 4.89-2.13 1.61-5.06 4.26-6.57 6.45-1.51 2.23.68 3.9 1.2 6.34.78 3.74 1.3 7.54 1.51 11.34a23.45 23.45 0 0 0 4.86-4.11c-.63.68-.63 3.38-.73 4.37-.21 1.56-.42 3.12-.53 4.68a74.24 74.24 0 0 0-.2 9c.1 3.06.36 6.13.78 9.2.42 3.01 1.72 5.82 2.19 8.89.05.47 4.07 1.46 4.64 1.61a60.1 60.1 0 0 0 14.98 2.65 64.2 64.2 0 0 0 20.14-2.08c.68-.2 1.36-.36 1.83-.88.99-1.1.68-2.76.31-4.16-.16-.57-.31-1.2-.42-1.77-.62-2.7-1.2-5.35-1.56-8.11-.31-2.44-.73-4.68-.37-7.12.37-2.7.89-5.41 1.46-8.12.32-1.35.58-2.65.94-4 .16-.68.37-1.4.52-2.08.1-.31.63-1.46.47-1.77 1.1 2.44 1.41 5.04 2.2 7.65.41 1.3.83 2.6 1.35 3.84l.78 1.88c.1.2.84 1.4.74 1.56 1.77-3.85 6.78-5.73 7.88-9.83.57-2.08-.06-4.22-1-6.24M94.47 30.67s.1-.05.31-.1.47-.1.84-.2c.73-.16 1.72-.32 2.76-.37.47-.05.94-.05 1.41-.05 2.14-.06 3.76.05 3.76.26 0 .26-1.62.15-3.7.2-.48 0-.95.06-1.42.06-1.04.05-2.03.1-2.76.15-.37 0-.68 0-.89.05h-.31Z" fill="#000"/>
  <path d="M94.37 30.41s.05.16.1.42.1.68.16 1.2c.1 1.04.2 2.5.2 4.2l-.2-.2c.99 0 2.03.05 3.13.05l3.23.1c.84.06 1.62.06 2.35.11l-.26.26c.05-3.59.05-6.19.26-6.19.2 0 .2 2.55.2 6.19v.26h-.25c-.73 0-1.52-.05-2.35-.05l-3.24-.1-3.13-.16h-.2v-.2c.1-1.67.05-3.13.05-4.17 0-.52-.05-.94-.05-1.25v-.47Z" fill="#000"/>
  <path d="M97.08 32.96s.26-.1.62-.15c.37-.06.9-.16 1.47-.16h.73c1.1 0 1.98 0 1.98.2 0 .27-.84.27-1.93.32h-.73c-.58 0-1.1-.05-1.46-.1-.47 0-.68-.06-.68-.1Zm.94 1.72c0-.05.47-.26 1.04-.26h.37c.57 0 .99 0 .99.26s-.42.26-1 .26h-.36a4.31 4.31 0 0 1-1.04-.26Zm-3.13 5.3s.1 0 .26-.05c.15 0 .42-.05.73-.1.62-.06 1.46-.1 2.3-.1h1.2c1.77 0 3.13 0 3.13.25 0 .26-1.36.26-3.14.26h-1.2c-.88 0-1.72-.05-2.3-.1-.62-.05-.98-.1-.98-.16Z" fill="#000"/>
  <path d="M95.3 39.51v.1c0 .06 0 .16.06.32 0 .26.05.62.1 1.1.05.93.16 2.18.2 3.63l-.25-.2c.68-.06 1.35-.06 2.08 0 .9 0 1.73.1 2.61.15.73.05 1.47.16 2.1.26l-.27.26c0-2.76.05-4.68.26-4.68.21 0 .26 1.92.26 4.68v.31l-.31-.05c-.63-.1-1.36-.16-2.09-.26-.83-.1-1.72-.16-2.56-.16-.73 0-1.4-.05-2.08-.05h-.26v-.2c0-1.46.05-2.76.05-3.65 0-.46.05-.83.05-1.09 0-.3 0-.47.05-.47Z" fill="#000"/>
  <path d="M98.38 42.11c0-.05.32-.2.63-.2h.2c.32.05.58.05.58.26 0 .26-.26.2-.57.2H99c-.37 0-.63-.2-.63-.26Zm-2.71-15.54s.1-.06.26-.06.42-.05.68-.1c.57-.05 1.4-.16 2.24-.2l1.15-.06c1.72-.05 3.03-.05 3.03.16 0 .26-1.3.26-3.03.36l-1.15.05c-.83 0-1.67 0-2.24-.05-.57-.05-.94-.1-.94-.1Zm-.37-2.3s.1-.04.27-.04c.15 0 .41-.06.67-.1.58-.06 1.41-.16 2.25-.22l1.15-.05c1.72-.05 3.02-.05 3.02.16 0 .26-1.3.26-3.02.36l-1.15.05c-.84 0-1.67 0-2.25-.05-.57 0-.94-.05-.94-.1Zm-5.9 27.15s.11.05.27.16c.16.1.42.31.73.52l2.6 1.97c2.15 1.67 5.07 3.96 8.1 6.45l4.07 3.38.05.06h.05l.05.05c.06.05.1.1.21.1.1 0 .16-.05.21-.1v-.42c0-.26-.05-.47-.05-.73a23.4 23.4 0 0 1 0-2.65c.05-1.66.16-3.17.26-4.42.26-2.5.52-4 .78-3.95.26 0 .21 1.56.1 4-.05 1.25-.15 2.7-.15 4.37a44.25 44.25 0 0 0 .1 3.28v.36c0 .2-.05.42-.15.57-.21.37-.58.63-.94.68-.42.05-.89-.1-1.1-.42l-4.07-3.38a259.94 259.94 0 0 1-7.77-6.8c-1-.95-1.83-1.67-2.4-2.2l-.63-.62c-.26-.15-.31-.26-.31-.26Z" fill="#000"/>
  <path d="M106.63 51.79h.2c.11 0 .32 0 .53-.05.26-.06.52-.1.83-.26.32-.16.58-.52.68-.94a9.5 9.5 0 0 0 .21-3.33c-.1-1.35-.1-2.86-.1-4.58-.06-3.43-.06-7.59-.1-12.27-.06-2.34 0-4.89-.11-7.49-.05-1.3-.05-2.65-.1-4.05 0-.68-.06-1.4-.06-2.08v-1.46c1.2-.36.52.16.73 0v.26l.05.52-.73.05c-.05-.78-.1-1.5-.26-2.23-.1-.37-.2-.68-.36-.73-.16-.1-.58-.05-1-.05-1.56-.05-3.18-.05-4.85-.1l-10.12-.16c-6.89-.16-14.14-.26-21.55-.42l-14.3-.31-3.55-.05L50.9 12c-.58 0-1.25-.06-1.72-.06-.26 0-.37.06-.47.16-.1.1-.21.31-.26.57-.1.47-.06 1.04.05 1.61.05.32.05.63.05.94v25.43c0 1.2 0 2.34-.05 3.53-.05 1.2-.16 2.34-.16 3.44 0 .57-.05 1.14 0 1.66 0 .52.1 1.04.26 1.5.05.22.16.43.32.53 0 .05.05.05.1.05s.05.05.1.05c.06.06.16.06.27.1.46.06.99.06 1.5 0 2.2-.25 4.29-.15 6.27-.15 4.02 0 7.77.05 11.17.05 6.78.06 12.26.1 16.02.16 3.75.05 5.79.16 5.79.26 0 .16-2.04.2-5.8.31-3.75.05-9.23.1-16.01.16-3.4 0-7.15 0-11.17.05-2.03.05-4.12-.05-6.2.16-.58.05-1.1.1-1.73 0-.16-.06-.31-.06-.52-.16-.16-.1-.37-.2-.47-.31a2.2 2.2 0 0 1-.52-.89c-.42-1.2-.32-2.39-.32-3.48 0-1.15.1-2.34.16-3.49.05-1.14 0-2.34 0-3.53V15.23c0-.26-.05-.52-.05-.83-.06-.57-.16-1.25 0-1.93.05-.3.2-.72.52-1.04.15-.15.36-.3.57-.36.21-.05.42-.1.58-.1l7.2.15 14.3.31c7.4.16 14.66.37 21.55.52 3.44.1 6.83.16 10.12.26 1.62.06 3.23.1 4.8.1.36.06.78-.04 1.36.16.26.1.46.42.57.63.1.2.16.41.2.62.22.78.22 1.61.27 2.34l-.73.05-.05-.52v-.1h.15c.1 0 .21-.05.26-.05.1.05.21 0 .32.05v1.3c0 .73 0 1.4.05 2.08 0 1.35.05 2.7.05 4.06.05 2.65 0 5.14-.05 7.48-.05 4.74-.1 8.84-.1 12.28 0 1.71-.06 3.22 0 4.57.05 1.36 0 2.5-.32 3.38-.16.47-.41.78-.78 1-.31.15-.63.2-.89.25a9 9 0 0 1-.83-.1Z" fill="#000"/>
  <path d="M106.31 64.22c-.2 1.14-1.56 1.81-2.71 1.66a6.85 6.85 0 0 1-3.13-1.56c-4.33-3.12-8.35-6.3-12.63-9.57-13.98-.16-23.32.52-37.88-.16-1.41-.05-2.98-.3-4.02-1.3-1.36-1.24-1.4-3.32-1.4-5.2L45 16.95c0-1.25.05-2.5.52-3.7.47-1.14 1.46-2.18 2.72-2.28.36-.06.41-.21.78-.16l-.16.57c-.57 1.93-.57 3.95-.57 5.98 0 10.45 0 20.96.05 31.46 0 .73 0 1.46.42 2.08.52.78 1.51 1 2.5 1.04h.79l10.7-.15c8.86-.1 17.79-.26 26.66-.37h.26c.15.1.26.26.41.37l2.98 2.65c2.97 2.7 5.95 5.35 8.92 8.06.84.73 1.83 1.5 2.82 1.77.42.1.84.1 1.25 0 .05 0 .16 0 .26-.05Z" fill="#000"/>
  <path d="M85.96 47.42c-.47-.05-.99-.16-1.46-.1-.47.05-1 .05-1.46.05-1-.06-1.98-.16-2.97-.16-.84 0-1 .2-.94-.78.05-.94 0-1.87.05-2.76 0-1.87.05-3.74.05-5.66v-2.3c0-.51.1-.51.68-.56.78-.1 1.56.05 2.35.05 1.2 0 2.45.05 3.65.05.78 0 1.1 0 1.1.88 0 .52-.1 1.04-.16 1.56-.05 1.1-.1 2.19-.21 3.28-.05 1.1-.16 2.24-.2 3.33-.06.57-.06 1.14-.06 1.71v.84c0 .2.1.52-.16.57h-.26Z" fill="#000"/>
  <path d="M85.96 47.42s.16.05.32-.05c.05-.06.05-.21.05-.37-.05-.15 0-.36-.05-.57v-1.61c0-.63 0-1.3.05-2.08 0-.78.05-1.61.05-2.5.05-.88.05-1.82.1-2.86.06-.52.16-.99.06-1.4 0-.1-.06-.16-.06-.16h-.05c-.15-.05-.42 0-.68 0h-3.28c-.53 0-1.05-.05-1.52-.05h-1.1c-.1 0-.25.05-.25.05s.05 0 .1-.05.05-.1.05-.05v2.5c-.05 2.23-.05 4.31-.1 6.23 0 .89-.05 1.72-.05 2.5 0 0-.06-.1-.1-.1h-.06.89c.41 0 .78.05 1.15.05.73.05 1.35.15 1.87.15h1.41c.42.06.73.16.94.21.16 0 .26.05.26.16 0 .05-.1.1-.31.15a5.37 5.37 0 0 0-1.15.11c-.1 0-.2.05-.36.05-.26.05-.53.05-.84.05-.57 0-1.25 0-1.93-.05-.36 0-.73-.05-1.1-.05h-.93c-.1 0-.21 0-.37-.1a.98.98 0 0 1-.31-.37c-.1-.2-.05-.36-.05-.47v-2.39c0-1.92.05-4 .05-6.24v-2.24c0-.1 0-.26.05-.46 0-.1.05-.26.16-.42.1-.16.3-.2.41-.26.21-.05.37-.05.47-.1.16 0 .26 0 .42-.06h.78c.53 0 1 .06 1.46.06 1.1 0 2.25.05 3.3.05.25 0 .51 0 .88.05.1 0 .2.05.31.16.1.05.21.2.26.3.1.22.16.42.16.58.05.62-.05 1.14-.1 1.61-.16 1.93-.32 3.8-.47 5.3l-.37 3.65c0 .2-.05.41-.05.57 0 .15 0 .36-.16.41-.1.06-.2.06-.26.06l.05.05Zm-12.16-.63c-1.14 0-2.34-.05-3.5-.05-.93 0-2.03.26-2.91 0-.63-.15-.42-.52-.42-1.09v-1.77l.16-11.33c0-1.88.05-3.8.05-5.67 0-.52-.26-1.35.31-1.61.37-.16.84 0 1.2.05.84 0 1.62 0 2.45.05.73 0 1.46 0 2.14.05.68 0 1.3-.36 1.46.37.1.41 0 .88 0 1.35 0 .88-.05 1.82-.05 2.7l-.15 5.51c-.1 3.7-.32 7.34-.53 11.03 0 .2 0 .52-.2.41Z" fill="#000"/>
  <path d="M73.8 46.8s.06.05.1 0c.06-.06.06-.21.06-.37v-1.5c0-1.3.05-3.13.1-5.42 0-1.14.06-2.39.1-3.69 0-1.3.06-2.7.06-4.21 0-1.46.05-3.02.05-4.58 0-.41.06-.83 0-1.09 0-.15-.1-.2 0-.15h-.26c-.2.05-.41.05-.68.05h-4.7c-.25 0-.4-.05-.62-.05h-.36l-.06.05c0 .05-.05.2-.05.36l.05.52v1.15l-.05 2.18-.15 9.2c-.06 1.4-.06 2.76-.06 3.96 0 .62-.05 1.2-.05 1.76 0 .32 0 .58-.05.89v.41c.05.06.31.1.52.16.21.05.47.05.68.05.47 0 .89-.05 1.3-.05.9 0 1.57.05 2.2.1 1.3.06 1.87.1 1.87.26-.05.1-.67.21-1.82.26-.58 0-1.25.06-2.09.06-.42.05-.83.1-1.36.1h-.78c-.16 0-.26-.05-.42-.05-.15-.05-.3-.05-.52-.2a.53.53 0 0 1-.26-.32.96.96 0 0 1-.1-.37v-3.06c0-1.25 0-2.55.05-3.96.05-2.8.05-5.92.1-9.2l.06-2.18v-1.1c0-.15-.06-.36-.06-.57 0-.2 0-.47.1-.73a1.07 1.07 0 0 1 .73-.68c.32-.04.53-.04.74 0 .2.06.36.06.52.06h.52l2.2.05h1.87c.16 0 .32 0 .52-.05.1 0 .21-.05.37-.05s.31 0 .52.1c.21.1.37.31.42.47.05.16.1.31.1.42.06.52 0 .93-.05 1.24L75 31.61c-.05 1.46-.1 2.86-.2 4.21-.1 1.3-.16 2.55-.27 3.7-.15 2.28-.3 4.1-.41 5.4-.06.63-.1 1.15-.16 1.51 0 .16-.05.31-.16.36 0 .06 0-.05 0 0Zm-10.64.05c-1.3 0-3.44-.06-4.7-.06-.68 0-2.81 0-2.97-.26-.16-.3-.05-.98-.05-1.3 0-.57.05-1.14.05-1.66 0-1.14.05-2.24 0-3.38 0-.68.26-.73.89-.73.47 0 .93.05 1.46.05 1.04 0 2.08.06 3.08.06.46 0 1.82-.21 2.13.05.27.26.1.88.1 1.14v6.09Z" fill="#000"/>
  <path d="M63.21 46.9s0-.1-.05-.26c0-.16-.05-.42-.05-.78-.05-.68-.1-1.61-.16-2.81-.05-.57-.05-1.25-.1-1.92v-.58c0-.2.05-.36.05-.46v-.16s-.2-.05-.37-.05c-.3 0-.73.05-1.1.1l-.3.05h-3.5c-.42 0-.78-.05-1.1-.05-.15 0-.36 0-.47.05-.05 0-.05 0 0 0 .06-.05.06-.05 0 0v2.14c0 .88 0 1.71-.05 2.5v.56c0 .26-.05.42-.05.63v.41s-.05-.05-.05-.1c0 0-.06-.05-.1-.05h.15c.63.1 1.36.1 1.98.1.63 0 1.25.05 1.78.05 2.19.1 3.5.21 3.5.47s-1.31.37-3.5.42h-1.78c-.68 0-1.3 0-2.14-.1-.05 0-.1 0-.15-.06-.06 0-.1-.05-.21-.05l-.05-.05c-.06 0-.1-.05-.16-.1l-.1-.11-.06-.05c-.05-.1-.05-.16-.1-.26-.05-.31-.05-.52-.05-.73 0-.2.05-.42.05-.57v-.57c0-.78.05-1.62 0-2.45v-2.03c0-.1 0-.26.05-.41.05-.16.1-.37.26-.52.16-.16.37-.21.52-.26.26-.05.47-.05.68-.05.42 0 .84.05 1.2.05.84 0 1.67.05 2.5.05h1.2c.42 0 .79-.05 1.2-.05.21.05.42 0 .74.2.15.11.31.32.31.47.05.16.05.26.05.42 0 .2-.05.42-.05.57v.47c-.05.68-.05 1.3-.05 1.92a89.4 89.4 0 0 1-.16 2.81c-.05.31-.05.57-.05.78-.16.37-.16.42-.16.42ZM52.62 14.09c.89 0 1.62.83 1.67 1.66.05.83-.78 1.66-1.62 1.66-.89 0-1.67-.73-1.72-1.56a1.72 1.72 0 0 1 1.57-1.76" fill="#000"/>
  <path d="m52.46 14.09-.31.1c-.2.1-.47.26-.73.57-.2.31-.37.78-.26 1.2.1.47.47.88.94 1.09.42.2.89.1 1.25-.16.42-.3.68-.78.68-1.2 0-.4-.21-.77-.47-1.03-.47-.47-.94-.47-.94-.63 0-.05.1-.1.37-.1.2 0 .57.1.88.42.32.26.63.72.63 1.35a1.9 1.9 0 0 1-.89 1.61 1.8 1.8 0 0 1-1.77.2 2.01 2.01 0 0 1-1.15-1.45c-.1-.62.16-1.14.47-1.45.31-.32.63-.47.89-.52.26-.06.41 0 .41 0Zm5.64 0c.89 0 1.62.83 1.67 1.66.05.83-.78 1.66-1.62 1.66-.89 0-1.67-.72-1.72-1.56a1.72 1.72 0 0 1 1.56-1.76" fill="#000"/>
  <path d="m57.94 14.09-.36.1c-.21.1-.47.26-.73.57-.21.31-.37.78-.26 1.2.1.47.47.88.94 1.09.41.2.88.1 1.25-.16.42-.3.68-.78.68-1.2 0-.4-.21-.77-.47-1.03-.47-.47-.94-.47-.94-.63 0-.05.1-.1.36-.1.21 0 .58.1.89.42.31.26.63.72.63 1.35a1.9 1.9 0 0 1-.9 1.61 1.8 1.8 0 0 1-1.76.2 2.01 2.01 0 0 1-1.15-1.45c-.1-.62.15-1.14.47-1.45.31-.32.62-.47.88-.52.32-.06.47 0 .47 0Zm5.64 0c.89 0 1.62.83 1.67 1.66.05.83-.78 1.66-1.62 1.66-.89 0-1.67-.72-1.72-1.56a1.72 1.72 0 0 1 1.56-1.76" fill="#000"/>
  <path d="m63.37 14.09-.31.1c-.21.1-.47.26-.73.57-.21.31-.37.78-.26 1.2.1.47.46.88.93 1.09.42.2.9.1 1.26-.16.41-.3.67-.78.67-1.2 0-.4-.2-.77-.46-1.03-.47-.47-.94-.47-.94-.63 0-.05.1-.1.36-.1.21 0 .58.1.89.42.31.26.62.72.62 1.35 0 .62-.3 1.25-.88 1.61a1.8 1.8 0 0 1-1.78.2 2.01 2.01 0 0 1-1.14-1.45c-.1-.62.15-1.14.47-1.45.3-.32.62-.47.88-.52.32-.06.42 0 .42 0ZM50.9 20.95h11.74H50.9Zm11.74 0h-.1c-.06 0-.16 0-.32.05-.26 0-.62.05-1.1.1-.93.06-2.19.11-3.54.11h-1.83c-2.71 0-4.8 0-4.8-.26s2.09-.26 4.8-.26h1.83c1.35 0 2.66.05 3.55.1.47.06.83.06 1.1.1.25.06.4.06.4.06Zm-9.92 4.16h6.48-6.48Zm6.48 0s-.1.05-.21.05c-.16 0-.37.05-.63.1-.52.06-1.2.11-1.98.11h-1c-1.5 0-2.66 0-2.66-.26s1.15-.26 2.67-.26h.99c.73 0 1.46.05 1.98.1l.84.16Zm27.86-4.47h-.16c-.1 0-.2 0-.41.05-.37.05-.84.05-1.41.1l-4.6.42c-.78.1-1.56.1-2.24.31-.78.21-1.36.78-1.77 1.35-.42.58-.73 1.2-1.05 1.67-.31.47-.57.83-.78 1.04-.2.2-.36.31-.42.26-.05-.05.06-.21.21-.47.16-.26.42-.62.68-1.1.26-.46.57-1.08 1-1.7.2-.32.46-.63.83-.94.31-.26.73-.52 1.2-.63.78-.26 1.61-.26 2.34-.36 1.78-.16 3.4-.21 4.6-.16.62 0 1.1 0 1.46.05h.42c.05.1.1.1.1.1Z" fill="#000"/>
  <path d="M87 20.01c-.67.26-.72 1.36-.15 1.72.63.36 1.51-.05 1.62-.78.1-.68-.47-1.4-1.2-1.46-.26 0-.52.06-.73.21-.16.2-.21.52-.05.68" fill="#000"/>
  <path d="M86.54 20.38s-.16-.05-.21-.26c-.05-.1-.05-.26 0-.42a.96.96 0 0 1 .36-.47c.37-.2.9-.26 1.36-.05.47.21.89.73 1 1.4 0 .32-.06.63-.22.89a1.8 1.8 0 0 1-.62.62c-.26.16-.58.26-.89.21-.31 0-.63-.15-.89-.36a1.48 1.48 0 0 1-.41-1.4 1 1 0 0 1 .26-.47c.1-.1.2-.21.31-.26.2-.1.36 0 .36.1.06.1 0 .26 0 .36-.05.1-.05.26-.05.42 0 .16.05.42.16.47.05.05.16.05.26.05s.26-.05.37-.1a.8.8 0 0 0 .26-.26c.05-.1.05-.16.05-.26 0-.26-.16-.52-.37-.73-.2-.16-.47-.26-.67-.21-.21 0-.32.16-.37.31-.05.31 0 .42-.05.42Zm23.22 13.83 46.18 2.18-46.18-2.18Zm46.18 2.18h-1.62c-1.04 0-2.56 0-4.38-.05-3.7-.05-8.72-.2-14.1-.41l-7.14-.37c-10.7-.52-19-.93-18.94-1.4 0-.52 8.3-.1 19 .36l7.14.37c5.38.26 10.38.62 14.04.88 1.82.16 3.34.26 4.38.36.52.06.94.1 1.2.1.26.11.42.16.42.16Zm-.42-.15c0 3.48.05 6.91.05 10.4l-.05-10.4Z" fill="#000"/>
  <path d="M155.57 46.64c-.05 0-.15-.52-.26-1.35-.1-.84-.26-1.98-.26-3.18v-1.6c0-2.4 0-4.27.47-4.27.52 0 .47 1.87.52 4.26v1.61c0 1.2-.1 2.34-.2 3.18a4.88 4.88 0 0 1-.27 1.35Zm-91 7.8a95 95 0 0 0-.52 18.46l.52-18.46Z" fill="#000"/>
  <path d="m64.05 72.9-.16-.62c-.05-.42-.16-1.04-.26-1.77a35.7 35.7 0 0 1-.31-5.67c0-.94.05-1.92.1-2.86.21-4.32.68-7.6 1.15-7.54.52.05 0 3.33-.16 7.6-.05.93-.05 1.92-.1 2.85-.05 2.13-.1 4.16-.16 5.62-.05.73-.05 1.35-.05 1.77-.05.41-.05.62-.05.62Z" fill="#000"/>
  <path d="M113.57 132.03c.41-.47 1.1-.32 1.51.1.42.41.57 1.04.68 1.61.05.26.42.16.36-.1-.2-.73-.41-1.61-1.14-2.03-.53-.31-1.26-.31-1.73.15-.1.16.16.42.32.27Zm-16.44-5.83c.42-.47 1.1-.31 1.51.1.42.42.58 1.05.68 1.62.05.26.42.15.37-.1-.21-.73-.42-1.62-1.15-2.03-.52-.32-1.25-.32-1.72.15-.1.16.15.47.31.26Zm7.57-12.48c.41-.47 1.1-.31 1.5.1.43.42.58 1.04.69 1.62.05.26.42.15.36-.1-.2-.74-.41-1.62-1.14-2.04-.53-.3-1.26-.3-1.73.16-.1.16.16.47.32.26Zm-1.57 33.65c.42-.47 1.1-.32 1.51.1.42.41.58 1.04.68 1.61.06.26.42.16.37-.1-.21-.73-.42-1.61-1.15-2.03-.52-.31-1.25-.31-1.72.16-.1.15.15.41.31.25Zm12.79 24.75c.41-.47 1.1-.31 1.5.1.43.42.58 1.04.69 1.61.05.26.41.16.36-.1-.2-.73-.42-1.61-1.15-2.03-.52-.31-1.25-.31-1.72.16-.16.2.1.47.32.26Zm-1.57-16.33c.42-.47 1.1-.31 1.51.1.42.42.58 1.04.68 1.62.05.26.42.15.37-.1-.21-.74-.42-1.62-1.15-2.04-.52-.3-1.25-.3-1.72.16-.1.16.15.42.31.26Zm26.04 16.64c.42-.47 1.1-.31 1.51.1.42.42.57 1.04.68 1.62.05.26.42.15.36-.1-.2-.74-.41-1.62-1.14-2.04-.53-.3-1.26-.3-1.73.16-.15.16.1.42.32.26Zm-11.95-7.8c.42-.47 1.1-.31 1.51.1.42.42.58 1.04.68 1.62.05.26.42.15.37-.1-.21-.74-.42-1.62-1.15-2.04-.52-.3-1.25-.3-1.72.16-.1.16.15.42.3.26Zm7.93-12.53c.42-.47 1.1-.31 1.51.1.42.42.58 1.04.68 1.61.05.26.42.16.37-.1-.21-.73-.42-1.61-1.15-2.03-.52-.31-1.25-.31-1.72.16-.16.2.1.47.31.26Zm-11.22-9.62c.42-.47 1.1-.31 1.51.1.42.42.58 1.04.68 1.61.05.26.42.16.37-.1-.21-.73-.42-1.61-1.15-2.03-.52-.31-1.25-.31-1.72.16-.16.2.1.47.31.26Zm10.18-10.3c.41-.47 1.1-.31 1.51.1.42.42.57 1.04.68 1.62.05.26.41.15.36-.1-.2-.74-.41-1.62-1.14-2.04-.53-.3-1.26-.3-1.73.16-.15.16.1.47.32.26Zm11.79-5.3c.42-.47 1.1-.31 1.51.1.42.42.58 1.04.68 1.61.05.26.42.16.37-.1-.21-.73-.42-1.61-1.15-2.03-.52-.31-1.25-.31-1.72.16-.1.2.15.46.3.26Zm2.45 13c.42-.47 1.1-.31 1.52.1.41.42.57 1.04.67 1.61.06.26.42.16.37-.1-.21-.73-.42-1.61-1.15-2.03-.52-.31-1.25-.31-1.72.16-.16.2.16.47.31.26ZM130 117.78c.42-.47 1.1-.32 1.52.1.41.42.57 1.04.67 1.61.06.26.42.16.37-.1-.2-.73-.42-1.61-1.15-2.03-.52-.31-1.25-.31-1.72.16-.16.2.16.47.31.26Zm-29 46.33c.4-.47 1.09-.31 1.5.1.42.42.58 1.04.68 1.62.05.26.42.15.37-.1-.21-.74-.42-1.62-1.15-2.04-.52-.3-1.25-.3-1.72.16-.16.16.1.42.31.26Z" fill="#fff"/>
  <path d="M147.07 180.49s-.06 0-.16.05c-.1 0-.26.05-.47.1-.42.11-1 .27-1.78.42-.78.16-1.72.42-2.81.57-1.1.21-2.35.42-3.7.63-1.36.15-2.88.36-4.5.52l-2.5.15c-.42.06-.89.06-1.3.1-.42 0-.9 0-1.36.06-.89 0-1.83.05-2.77.05s-1.88-.05-2.87-.1c-1.93 0-3.91-.26-5.94-.42-.9-.1-1.78-.26-2.67-.36a22.6 22.6 0 0 1-2.66-.42 96.05 96.05 0 0 1-5.32-1.04c-1-.26-1.98-.41-2.92-.67l-2.77-.78c-.94-.26-1.77-.58-2.66-.84-.83-.3-1.72-.57-2.5-.83a101.98 101.98 0 0 1-8.4-3.59c-1.15-.57-2.2-1.14-3.08-1.6-.89-.48-1.62-.94-2.25-1.36-1.2-.73-1.82-1.2-1.77-1.3.05-.1.78.16 2.03.78.63.31 1.41.73 2.3 1.14.89.42 1.93.94 3.08 1.46 1.15.52 2.45 1.04 3.8 1.66 1.42.58 2.93 1.15 4.5 1.72a81 81 0 0 1 2.5.83c.84.26 1.72.57 2.6.83l2.78.78c.93.26 1.87.47 2.86.68 1.73.42 3.5.73 5.28 1.04.88.16 1.77.26 2.66.42.88.1 1.77.26 2.66.36 7.98.83 15.5.68 21.03.1 2.71-.3 5-.57 6.52-.88.78-.1 1.36-.2 1.77-.31.21-.05.37-.05.47-.05.26.1.32.1.32.1Zm-6.53-87.52.47-.31c.26-.26.68-.62 1.05-1.2.36-.57.68-1.4.88-2.34.21-.93.26-2.08.26-3.27 0-1.2-.05-2.55-.1-3.95 0-.73-.05-1.46-.05-2.19-.05-.73-.05-1.5-.26-2.24a3.83 3.83 0 0 0-1.15-1.92c-.63-.47-1.41-.78-2.2-1.14-.36-.21-.78-.42-1.14-.68a2.66 2.66 0 0 1-.89-1.1c-.41-.88-.41-1.81-.41-2.7a4.3 4.3 0 0 0-.42-2.18c-.32-.62-1-1.04-1.72-1.25-1.47-.41-3.03.05-4.65.16-.78.05-1.56 0-2.35-.1-.73-.1-1.46-.32-2.19-.47-1.4-.37-2.76-.68-4.07-.63-.68 0-1.3.1-1.88.31-.57.21-1.1.52-1.46.94a2.96 2.96 0 0 0-.94 2.91c.05.1-.05.26-.15.26H117a2.87 2.87 0 0 0-1.83-.3 3.8 3.8 0 0 0-1.56.61c-.42.32-.73.73-.89 1.15a3.48 3.48 0 0 0 .26 2.91c.21.36.37.52.32.52 0 0-.21-.1-.48-.42a3.32 3.32 0 0 1-.62-1.76c0-.42 0-.89.2-1.36.16-.46.48-.98.95-1.35.47-.36 1.1-.67 1.77-.78.68-.1 1.41 0 2.09.37l-.31.26a2.9 2.9 0 0 1 .05-1.77 4.35 4.35 0 0 1 2.66-2.7c.63-.27 1.3-.37 2.03-.37a15.1 15.1 0 0 1 4.23.62c1.4.37 2.87.68 4.38.58.79-.06 1.57-.21 2.35-.32a5.6 5.6 0 0 1 2.45.16c.79.2 1.62.73 2.04 1.5.42.79.47 1.67.47 2.45 0 .89 0 1.77.36 2.5.32.73 1.05 1.2 1.83 1.56.73.36 1.57.67 2.24 1.25.68.57 1.1 1.35 1.3 2.18.22.78.22 1.61.27 2.34 0 .78 0 1.5.05 2.19 0 1.4.05 2.75 0 4a20.35 20.35 0 0 1-.36 3.33 7.75 7.75 0 0 1-.94 2.34c-.37.57-.84.93-1.1 1.2-.52.1-.68.2-.68.2Z" fill="#000"/>
</svg>