<?xml version="1.0" encoding="utf-8"?>
<svg xmlns="http://www.w3.org/2000/svg" fill="none" viewBox="0 0 190 158">
  <g clip-path="url(#a)">
    <path d="M141.85 134.3c.27 0 .47-.32.57-.52.04-.12.18-.55-.08-.55s-.49.33-.57.53c-.06.12-.18.55.08.55Z" fill="#000"/>
    <path d="M115.3 131.95a6.68 6.68 0 0 0-1.09-.14c-.44.02-.86.08-1.29.22a23 23 0 0 0-1.4.47c-.42.16-.8.38-1.19.02-.72-.7-1.41-1.44-2.12-2.15-.1-.1-.2-.2-.28-.33-.1-.2-.06-.46-.06-.69-.02-.26-.04-.53-.08-.79a8.58 8.58 0 0 0-.91-2.8c-.95-1.77-2.4-3.2-4.14-4.16a3 3 0 0 0-1.42-.47c-.48 0-.95.22-1.27.59a2.2 2.2 0 0 0-.48 1.72c.06.67.14 1.36.22 2.03l.44 4.02c.14 1.3.24 2.6.49 3.9.2 1.2.64 2.34 1.3 3.35.64 1 1.42 1.87 2.21 2.74 1.58 1.79 3.22 3.52 5.36 4.6 2.02.99 4.26 1.41 6.48 1.62.57.04 1.11.08 1.68.1l.83.04c.26.02.58-.04.83.08.24.12.34.37.44.59l3.13 5.97 1.46 2.78.3.59a3.98 3.98 0 0 0 5.35 1.74l1.64-.77 6.65-3.12 5.45-2.58.37-.16a3.6 3.6 0 0 0 1.81-2.08 2.9 2.9 0 0 0-.1-2.31l-.24-.5-3.07-6.26-1.4-2.84-.32-.67a1.23 1.23 0 0 1-.1-.29c.04-.12.1-.22.18-.32l.13-.27c.1-.24.2-.5.28-.77.6-1.9.6-4.06.28-6a36.54 36.54 0 0 0-2.02-7.01 65.95 65.95 0 0 0-3.11-6.78c-.57-1.1-1.15-2.18-1.76-3.27a27.7 27.7 0 0 0-1.76-2.99 12.5 12.5 0 0 0-4.87-4.08 10.74 10.74 0 0 0-2.99-.83c-.52 0-1.03.1-1.51.34-.22.1-.44.2-.67.33-.2.1-.4.34-.6.39-.29.06-.53-.13-.77-.25-.28-.14-.57-.28-.87-.4-.59-.27-1.2-.47-1.8-.63a7.28 7.28 0 0 0-2.56-.29 4.8 4.8 0 0 0-2.47.96c-.44.34-.85.77-1.2 1.23-.21.3-.07.1-.05.08a.15.15 0 0 1-.08.05.5.5 0 0 1-.3.02 34.5 34.5 0 0 0-6.79-2.01c-.65-.1-1.38-.23-2.03-.07-.97.25-1.7 1.16-2.08 2.04-.18.4-.28.83-.28 1.25.04.43.18.86.43 1.22a4.4 4.4 0 0 0 1.13 1.38c1.19.8 2.42 1.53 3.7 2.2l2.24 1.2c.75.38 1.53.7 2.3 1.07a6.82 6.82 0 0 1 2.75 2.03c.77 1 1.4 2.1 2.06 3.15l4.2 6.55.75-.9c-1.96-2.91-4.75-5.08-7.72-6.83a46.72 46.72 0 0 0-4.9-2.54 21.86 21.86 0 0 0-5.5-1.7c-1.76-.27-3.92-.39-5.26 1.01a3.17 3.17 0 0 0-.89 2.56c.12.9.63 1.64 1.26 2.23.7.63 1.5 1.18 2.32 1.63.85.46 1.72.9 2.59 1.28 1.75.77 3.53 1.46 5.25 2.33 1.51.8 3 1.7 4.12 3.03a14.22 14.22 0 0 1 2.45 4.22c.12.32.22.67.3 1.02.06.26.3.16.44.01.14-.14.4-.5.37-.77-.37-1.5-1.01-2.9-1.88-4.16-.43-.65-.91-1.26-1.44-1.83a9.87 9.87 0 0 0-1.82-1.48c-3.1-2.05-6.76-2.98-9.98-4.87-1.35-.8-3.27-1.97-3.19-3.78.02-.7.55-1.1 1.2-1.32a7.2 7.2 0 0 1 2.78-.2c3.64.3 7.05 2.01 10.2 3.76 2.91 1.62 5.74 3.57 7.82 6.2.27.33.5.68.75 1.02.24.37.95-.59.75-.91l-4.24-6.66c-.65-1.01-1.28-2.09-2-3.06a7.08 7.08 0 0 0-2.65-2.06c-.79-.36-1.58-.69-2.36-1.07-.73-.37-1.46-.75-2.17-1.14-1.27-.7-2.56-1.4-3.77-2.23a3.9 3.9 0 0 1-1.02-1.08 3.35 3.35 0 0 1-.52-1.16c-.02-.28.04-.56.18-.83l.02-.04.08-.14c.02-.06.06-.1.1-.14.13-.15.27-.27.43-.37.24-.14.52-.2.8-.2.8 0 1.6.1 2.37.32 1.01.23 2 .51 2.97.84l1.54.5.72.27c.22.1.47.18.73.22.6.04.97-.47 1.31-.9a4.1 4.1 0 0 1 1.01-.9c.71-.41 1.5-.61 2.3-.57.96.04 1.9.22 2.8.56.58.23 1.17.47 1.73.78.23.14.47.22.73.24.26 0 .53-.1.73-.28.36-.27.77-.47 1.17-.61.48-.19 1.03-.2 1.53-.08 1.01.2 2 .52 2.91 1.01a12.4 12.4 0 0 1 4.55 4.26c.63 1 1.17 2.05 1.74 3.07a95.7 95.7 0 0 1 1.7 3.19 66.87 66.87 0 0 1 2.96 6.62 32.06 32.06 0 0 1 1.86 6.72c.14.97.19 1.94.1 2.92a8.53 8.53 0 0 1-.56 2.74c-.2.47-.57.94-.4 1.52.02.1.06.2.1.29l.32.65 3.09 6.3 1.33 2.7c.35.68.73 1.41.45 2.2-.1.3-.3.55-.57.72-.08.06-.18.1-.26.14a4.3 4.3 0 0 1-.49.22l-2.28 1.08-6.83 3.2-4.54 2.24a3.75 3.75 0 0 1-3.8-.33c-.7-.5-1.07-1.24-1.48-1.99l-3.25-6.2-1.27-2.43a1.9 1.9 0 0 0-.34-.54c-.39-.37-1.02-.27-1.5-.29-.55-.02-1.1-.04-1.64-.08-2.18-.16-4.4-.49-6.42-1.4-2.16-.95-3.84-2.56-5.4-4.3a31.65 31.65 0 0 1-2.24-2.68 8.61 8.61 0 0 1-1.45-3.15c-.27-1.2-.37-2.46-.5-3.68l-.45-4.02-.2-1.9c-.05-.3-.09-.61-.1-.9v-.36c.05.1-.17.1-.03.06.16-.06.33-.08.5-.1.23 0 .45.04.65.12.49.2.95.46 1.38.77a9.6 9.6 0 0 1 3.68 4.43c.36.89.54 1.84.56 2.82-.02.34.1.67.34.91l.37.37 1.31 1.34c.28.28.59.7 1 .83.4.12.82-.12 1.2-.28.43-.17.87-.31 1.3-.45a3.6 3.6 0 0 1 1.13-.18c.36.02.7.08 1.07.14.42.02.97-1.04.53-1.12Z" fill="#000"/>
    <path d="M112.56 106.9c1.21.46 2.38 1.01 3.51 1.64a12.9 12.9 0 0 1 3.07 2.38 25.7 25.7 0 0 1 4.15 6.13c.68 1.32 1.31 2.66 1.96 4 .12.22.44-.06.52-.19.14-.18.34-.5.22-.75-1.13-2.33-2.22-4.73-3.61-6.92a21.47 21.47 0 0 0-2.27-2.98 14.12 14.12 0 0 0-2.99-2.48 26.15 26.15 0 0 0-3.94-1.91c-.22-.1-.46.2-.56.37a1 1 0 0 0-.16.4c.02.12.02.27.1.3Zm9.47-.8c.9.51 1.78 1.04 2.61 1.63a7.7 7.7 0 0 1 2.02 1.95 15 15 0 0 1 1.33 2.62l1.36 3.02 1.51 3.4c.04.07.14.1.22.05a.7.7 0 0 0 .3-.24c.15-.18.35-.5.23-.75l-2.7-6.05c-.4-.94-.81-1.83-1.32-2.7a7.65 7.65 0 0 0-2-2.11c-.93-.67-1.9-1.28-2.91-1.83-.2-.12-.47.22-.57.36a1.1 1.1 0 0 0-.16.41c0 .08 0 .18.08.24Zm-21.51 16.23a5.48 5.48 0 0 1 4.28 2.5c.14.22.42-.05.53-.19.1-.12.18-.26.22-.4a.46.46 0 0 0 0-.33 5.87 5.87 0 0 0-4.55-2.66c-.24-.02-.48.33-.56.53-.05.14-.19.55.08.55Zm5.5-17.67.01.25c0 .02 0 .08 0 0v.06c0 .04 0 .1-.02.14-.02.12.02-.06 0 .02l-.04.12.02-.06c-.02.02-.02.04-.02.06l-.04.06c-.12.23-.02.49.2.61.23.12.49.02.6-.2.13-.22.03-.49-.2-.61a.44.44 0 0 0-.56.14l-.06.1c-.08.13.06-.08 0 0l-.08.1-.04.05.02-.03-.1.09-.06.04s.08-.06.04-.02l-.22.16-.06.04h-.02c.04-.02 0 0-.03 0l-.05.02a2.18 2.18 0 0 1-.79.14c-.4 0-.8-.08-1.16-.24a4.89 4.89 0 0 1-1.19-.75c-.06-.06-.2 0-.26.04a.94.94 0 0 0-.3.32c-.1.16-.27.51-.08.67.7.6 1.63 1.06 2.58 1.04a2.9 2.9 0 0 0 2.35-1.48c.3-.5.42-1.06.36-1.65-.04-.26-.3-.16-.44-.02a1 1 0 0 0-.27.39.76.76 0 0 0-.1.4Zm-6.9 9.67c.16.28.26.59.3.91 0 .08.03.16.03.25v.06-.02.14c0 .08-.02.16-.05.26-.02.1 0-.02 0-.04 0 .02 0 .04-.02.06l-.04.14-.04.13.02-.05-.02.07a.34.34 0 0 0-.04.1c-.04.08 0 .02 0 0 .04-.08 0 0 0 .02s-.04.08-.08.12c-.06.1.08-.1 0 0l-.06.08-.04.04-.02.02-.04.04-.08.08-.04.04-.06.05-.2.14-.06.04h-.02l-.06.04a4.7 4.7 0 0 1-.5.16h-.03l-.08.02-.14.02h-.28c-.25 0-.49.33-.57.53-.06.12-.18.55.08.55 1.88.06 3.35-1.75 3.31-3.56a3 3 0 0 0-.36-1.32c-.2-.36-.95.57-.75.92l-.06-.04Z" fill="#000"/>
    <path d="M102.01 122.9a9.83 9.83 0 0 1 .49 2v.2c0 .11 0 .23-.02.33 0 .1-.02.19-.05.29.03-.1 0 0-.02.04s-.02.1-.03.16l-.02.08.02-.04c-.02.04-.02.08-.07.12l-.04.06c-.02.06.02-.06.04-.06a.34.34 0 0 0-.08.14l.02-.03-.04.06-.08.1c.04-.08.06-.06.02-.02l-.06.04-.04.04c-.08.06-.02 0 0 0l-.22.14c-.08.04-.02 0 0 0l-.04.02-.14.06c-.16.06-.35.1-.53.08-.18 0-.38-.04-.54-.14-.23-.1-.47.2-.57.37a1 1 0 0 0-.16.4c0 .08-.02.2.08.27.89.44 1.92-.05 2.5-.75a3.9 3.9 0 0 0 .8-3.11 14 14 0 0 0-.5-1.8c-.01-.09-.15-.09-.21-.07a.9.9 0 0 0-.3.24c-.17.23-.31.51-.2.77Zm-29.7 6.09c-.36 3.77-.99 7.55-1.58 11.3-.32 2.08-.64 4.15-.98 6.24l-.23 1.34c-.04.42-.16.85-.34 1.26-.5.91-1.62 1.32-2.6 1.26-2.09-.13-4.15-.41-6.23-.63l-7.44-.77-3.6-.4c-.54-.05-1.18-.03-1.69-.23a1.93 1.93 0 0 1-1.07-1.08c-.2-.49-.08-1 0-1.5l.24-1.55c.18-1.13.37-2.27.57-3.4.77-4.5 1.55-9 2.83-13.37l.36-1.2a.38.38 0 0 0-.04-.38c.06.08 0 0-.02-.04l-.2-.24-.6-.8a10.8 10.8 0 0 1-1.36-2.51c-.32-.9-.34-1.85-.39-2.8-.04-.96-.06-1.85-.08-2.79-.06-4.36.08-8.73.33-13.1a411.2 411.2 0 0 1 1.6-20.56c.1-1 .18-2.46 1.23-2.94 1-.47 2.16.24 2.7 1.07.69 1.04.83 2.34 1 3.53a96.14 96.14 0 0 1 .86 12.5v2.16l.79-.63c-.26-3.6.14-7.24 1.15-10.74a34.54 34.54 0 0 1 4.87-9.72c.53-.75 1.05-1.5 1.6-2.25a6.6 6.6 0 0 1 1.71-1.87c.65-.4 1.54-.6 2.25-.25.7.35 1.05 1.14 1.1 1.91a5.4 5.4 0 0 1-.64 2.56l-1.21 2.7c-.8 1.8-1.68 3.6-2.45 5.42-.42.96-.74 1.95-.95 2.97-.2 1.07-.16 2.17-.14 3.24l.25 6.85c0 .2.22.18.34.1a1 1 0 0 0 .42-.61c.93-3.98 1.88-7.94 3.72-11.61 1.7-3.42 4-6.48 6.45-9.38.6-.72 1.23-1.43 1.86-2.14.54-.6 1.13-1.28 1.91-1.54 1.68-.57 2.9 1.26 2.9 2.74 0 1-.37 1.95-.81 2.82a48.17 48.17 0 0 1-4.75 7.53c-.65.86-1.34 1.7-1.82 2.67a11.17 11.17 0 0 0-.85 3.24l-1.13 7.33c-.08.55.52.1.65-.1a105.5 105.5 0 0 1 5.61-9.6 45.85 45.85 0 0 1 3.32-4.37 30.1 30.1 0 0 1 1.81-1.92 5.76 5.76 0 0 1 2.1-1.5c.77-.27 1.66-.19 2.25.42.46.49.6 1.22.6 1.87 0 1.7-.82 3.4-1.57 4.91-.91 1.8-1.94 3.55-2.93 5.32l-3.07 5.5-6.9 12.35c-.07.14-.23.44-.13.6.1.17.32.05.42-.06a68.8 68.8 0 0 1 6.81-6.07c1.13-.87 2.4-1.97 3.94-1.8 1.3.12 2.12 1.32 2.32 2.53.25 1.47-.3 2.93-.83 4.27a30.35 30.35 0 0 1-9.64 12.83c-1.25.95-2.58 1.93-4.15 2.27-.35.09-.83 1.16-.3 1.06 1.49-.33 2.8-1.22 4.01-2.11a30.57 30.57 0 0 0 3.28-2.8A33.39 33.39 0 0 0 87 113.6c.6-1.46 1.23-3 1.25-4.61.02-1.26-.4-2.68-1.53-3.41-1.3-.84-2.91-.25-4.08.53-1.52.99-2.93 2.2-4.29 3.39a66.9 66.9 0 0 0-4.1 3.85l.28.55 6.5-11.67 3.22-5.77c1.05-1.87 2.12-3.71 3.11-5.62.87-1.65 1.72-3.48 1.9-5.36.14-1.42-.24-3.11-1.84-3.43-1.86-.37-3.47 1.38-4.62 2.57a40.78 40.78 0 0 0-3.7 4.43c-2.59 3.55-4.69 7.41-6.79 11.29l.65-.1c.34-2.3.7-4.57 1.05-6.87.16-1.01.26-2.09.7-3.04.43-.91 1.1-1.67 1.7-2.46a48.12 48.12 0 0 0 3.5-5.24c1-1.74 2.26-3.73 2.36-5.8.08-1.48-.67-3.33-2.3-3.56-1.82-.26-3.27 1.75-4.3 2.95-2.63 3-5.14 6.17-7.1 9.68a35.2 35.2 0 0 0-2.78 6.4 77.24 77.24 0 0 0-1.86 7.06l.76-.5-.22-6.46c-.04-1.06-.1-2.13.08-3.2.18-.96.49-1.9.9-2.79.82-1.93 1.7-3.82 2.58-5.7.42-.96.89-1.9 1.27-2.87a6.1 6.1 0 0 0 .55-2.74 2.82 2.82 0 0 0-.97-2c-.61-.48-1.52-.52-2.27-.27-1.73.59-2.76 2.4-3.77 3.81-2.27 3.2-4.33 6.48-5.62 10.2a31.66 31.66 0 0 0-1.68 12.65c.02.24.26.16.4.06a1 1 0 0 0 .41-.7 97.81 97.81 0 0 0-.67-13.21c-.16-1.34-.26-2.72-.64-4-.33-1.08-.97-2.15-2.06-2.58-1.1-.43-2.1.02-2.81.87-.85 1.02-1.1 2.34-1.22 3.64l-.32 3.35a443.2 443.2 0 0 0-1.13 14.66 233.9 233.9 0 0 0-.48 14.09c0 1.97.04 3.94.18 5.9.14 1.85 1.2 3.58 2.36 4.98l.28.33-.04-.4c-.62 2-1.15 4-1.57 6.04a199.24 199.24 0 0 0-2.54 14.31c-.17 1.1.34 2.22 1.45 2.58.52.16 1.1.18 1.63.25l1.84.2c4.87.53 9.76 1.01 14.63 1.5 1.07.1 2.06.12 3.01-.49a4.38 4.38 0 0 0 1.92-2.84c.4-1.99.65-4.02.97-6.03a293.85 293.85 0 0 0 1.92-13.52c.02-.24-.14-.33-.34-.22-.19.16-.35.42-.4.73Z" fill="#000"/>
    <path d="M85.75 106.65c-.85 1.1-1.56 2.3-2.14 3.56-.3.67-.59 1.38-.61 2.13 0 .57.2 1.11.57 1.56.42.47.9.85 1.43 1.18.08.06.2 0 .26-.04.12-.08.22-.2.3-.33a.88.88 0 0 0 .17-.4c0-.08 0-.2-.08-.27a7.45 7.45 0 0 1-1.2-.91c-.16-.16-.3-.36-.42-.57-.12-.2-.2-.42-.22-.67l-.02-.2v-.16c0-.09.02-.17.04-.23 0-.02.02-.06 0 0l.04-.16c.04-.14.08-.28.14-.43-.04.13 0 .02 0-.02s.04-.06.04-.1c.04-.08.06-.16.1-.22.12-.29.26-.55.4-.83.05-.06.07-.13.1-.19.03-.02.09-.16 0-.02a.16.16 0 0 0 .05-.08l.24-.44c.16-.29.34-.57.52-.86.1-.14.19-.28.29-.4-.1.12 0 0 .02-.02l.08-.1.16-.23c.1-.12.18-.26.22-.4a.45.45 0 0 0 0-.33c-.12-.22-.44.06-.52.16l.04.02Zm2.16-22.53c-.12.3-.26.59-.4.87l-.2.4c-.05.07-.07.15-.1.2-.03.03-.03.07-.05.09.04-.14 0-.02 0 .02l-.24.39-.12.18c-.02.04-.04.08-.08.1l.04-.06-.06.08c-.08.1-.16.22-.27.33l-.06.06c-.02.02-.1.14 0 .02-.04.06-.1.1-.16.16l-.28.24c-.1.08.08-.06-.02.02l-.06.04-.2.15a.56.56 0 0 0-.17.1l-.06.04-.04.02-.38.16-.36.1c.06-.02-.04 0-.04 0h-.07c-.06 0-.14 0-.2.02-.24 0-.46-.02-.7-.1a2.1 2.1 0 0 1-1.22-.95c-.12-.23-.42.06-.52.18-.1.12-.18.26-.22.4a.45.45 0 0 0 0 .33c.56 1.02 1.8 1.38 2.86 1.1 1.3-.35 2.29-1.44 2.95-2.54.4-.7.77-1.4 1.08-2.13.06-.14.18-.53-.09-.55-.26-.02-.48.34-.56.53Zm-7.56-8.8-.12.35-.02.08c-.04.08.04-.12 0 0l-.08.18c-.1.23-.2.47-.32.67-.02.03-.02.07-.04.09.08-.13.04-.06.02-.04l-.1.16c-.06.1-.15.22-.2.32-.07.1-.15.2-.2.3-.03.05-.05.09.01-.01-.02.02-.04.04-.04.06l-.12.16c-.14.2-.3.39-.46.55.12-.1-.04.04-.06.06l-.13.12-.14.12-.06.06c-.02.02-.12.1-.02.02-.08.07-.18.13-.28.19-.06.04-.02.02 0 0l-.08.04-.2.06c-.23.06-.45.06-.67 0-.53-.12-1-.5-1.37-.85-.07-.07-.2 0-.27.04-.12.08-.22.2-.3.32-.1.18-.26.49-.08.67.38.39.85.7 1.35.85.57.17 1.15.06 1.64-.28a6.2 6.2 0 0 0 1.3-1.26 9.97 9.97 0 0 0 1.79-3.33c.06-.16.04-.49-.22-.38-.26.16-.45.38-.53.69Zm-11.88-.89a15.3 15.3 0 0 1-.79 1.65l-.1.16-.24.39c-.02.02-.04.04-.04.08.04-.1.04-.06.02-.02l-.1.14-.24.3-.04.04-.02.02-.14.13a.88.88 0 0 1-.15.12l-.08.06c-.02.02-.12.1-.02.02l-.28.2c-.04.04-.1.06-.16.1l-.06.04-.04.02c-.4.2-.87.3-1.34.27a2.05 2.05 0 0 1-1.37-.61c-.06-.06-.22.02-.26.04a.94.94 0 0 0-.3.32c-.1.19-.27.5-.09.67.77.76 1.98.82 2.93.41a5.76 5.76 0 0 0 2.57-2.54c.36-.63.67-1.3.95-1.97.06-.14.18-.53-.08-.55-.26-.02-.45.35-.53.51Zm-15.84 6.42c.06 1.05 0 2.09-.16 3.12l-.06.35-.02.16c0 .02 0 .04-.02.06.04-.12 0 0 0 .02-.02.1-.04.2-.08.29l-.02.08c-.02.08.04-.1 0-.02l-.06.16.02-.04-.04.06-.04.06.02-.04c-.02 0-.12.14-.04.06l-.02.02a.28.28 0 0 1-.08.06c.1-.06-.02.02-.04.04s-.15.09-.06.05c-.1.04-.2.08-.3.1-.1.02-.19.04-.3.04-.11.02-.21.02-.33.02-.25 0-.47-.02-.71-.04-.39-.04-.91 1.03-.49 1.07.49.06.95.04 1.44-.04.56-.14 1.07-.5 1.37-1.01.3-.49.5-1.04.59-1.6a16.12 16.12 0 0 0 .22-3.78c-.02-.29-.32-.15-.44-.02a.99.99 0 0 0-.35.77Zm3.07 9.46c.1 1.75.02 3.51.1 5.28.02.28.33.14.45.02.22-.2.34-.47.34-.77-.1-1.75-.02-3.52-.1-5.28-.02-.29-.32-.14-.44-.02a.98.98 0 0 0-.35.77Zm-9.4 51.85c8.41.47 16.78 1.53 25.02 3.13l.77-4.53a185.48 185.48 0 0 0-25.01-3.12l-.77 4.52Z" fill="#000"/>
    <path d="M45.94 142.98c3.3.18 6.57.46 9.84.8 3.28.35 6.53.8 9.74 1.35 1.82.3 3.64.63 5.44.97.22.04.46-.24.58-.38.2-.23.33-.51.39-.82l.26-1.52.4-2.44.1-.56c.04-.2-.02-.39-.22-.43a177.74 177.74 0 0 0-19.5-2.72c-1.83-.16-3.67-.28-5.51-.39-.24-.02-.47.23-.59.39-.2.22-.32.5-.38.81l-.26 1.53-.4 2.43-.1.57c-.05.14.01.28.11.39.14.06.29.02.4-.07.37-.26.61-.64.7-1.1l.26-1.51.4-2.44.1-.57-.97 1.2c3.3.18 6.57.47 9.84.81 3.27.35 6.53.8 9.74 1.34 1.82.3 3.64.63 5.43.97l-.22-.42-.26 1.52-.4 2.44-.1.57.96-1.2a177.73 177.73 0 0 0-19.5-2.72c-1.83-.16-3.67-.29-5.5-.39a.77.77 0 0 0-.45.23c-.16.16-.3.36-.4.56-.1.17-.31.78.07.8Z" fill="#000"/>
    <path d="M63.12 141.64c.24-1.93-1.13-4.8-2.91-5.57a5.47 5.47 0 0 0-5.48.81 5.82 5.82 0 0 0-1.61 6.85 5.23 5.23 0 0 0 6.36 2.6c2.35-.92 3.25-2.7 3.64-4.7Z" fill="#fff"/>
    <path d="M63.52 141.37a5.92 5.92 0 0 0-.64-3.27 5.47 5.47 0 0 0-2.1-2.43 4.78 4.78 0 0 0-1.74-.53 6.06 6.06 0 0 0-1.92.12 6.18 6.18 0 0 0-3.32 2.07c-1.55 1.87-2.18 4.71-1.03 6.94a5.53 5.53 0 0 0 5.62 2.8 5.81 5.81 0 0 0 3.17-1.7 7.1 7.1 0 0 0 1.72-3.13c.12-.28.18-.58.24-.87.02-.1 0-.2-.08-.26-.08-.04-.18-.02-.26.04-.24.18-.4.44-.45.73l-.02.1c-.02.12.02-.12 0 0l-.04.16-.1.39-.1.34-.06.19-.04.08c.02-.06.04-.1 0-.02s-.08.22-.14.32l-.08.19c-.02.06-.14.24-.02.06l-.18.3-.1.16-.04.06c-.07.09.1-.14 0 0l-.23.29-.06.08-.02.02-.02.02-.1.1-.28.25-.08.06.02-.02a.71.71 0 0 1-.2.14c-.1.08-.23.14-.35.22l-.16.1-.1.06a5 5 0 0 1-.86.37c-.13.04-.25.08-.37.1l-.16.04h-.05l-.12.02c-.24.04-.5.04-.76.04a5.25 5.25 0 0 1-3.98-2.07 4.74 4.74 0 0 1-.73-1.42l-.02-.06-.02-.04a.72.72 0 0 1-.04-.2 5.2 5.2 0 0 1-.14-1.22v-.33c0-.14.02-.26.04-.4 0-.06.02-.15.04-.2 0-.05.04-.23.02-.09.02-.14.06-.26.1-.4l.12-.37c-.04.12.04-.12 0 0l.04-.1.08-.2.1-.19.02-.04.22-.36.13-.19c.04-.06.06-.08-.05.04l.07-.08c.08-.12.18-.22.26-.32l.08-.08-.02.02.14-.14c.1-.1.2-.2.32-.29l.02-.02c.02-.02.04-.04.06-.04l.2-.14.41-.24.16-.1.04-.03.1-.04a5.36 5.36 0 0 1 3.82-.26c1 .34 1.7 1.06 2.22 1.93.29.47.53.95.7 1.48l.05.16.04.1c-.02-.06 0 .05.02.05l.1.4c.04.24.08.49.1.73v.25l-.02.34c0 .08 0 .2.09.26.08.05.18.03.26-.04.24-.22.4-.48.46-.79Z" fill="#000"/>
    <path d="M56.67 135.97a.56.56 0 0 1-.52-.57c.02-.3.26-.53.56-.53.3 0 .53.27.53.57a.57.57 0 0 1-.53.53" fill="#000"/>
    <path d="M56.94 135.44c-.07 0-.13 0-.17-.02l.08.02a.71.71 0 0 1-.26-.16l.06.06c-.06-.06-.1-.16-.14-.24l.02.08c-.02-.04-.02-.1-.02-.14l-.02.12.02-.06-.06.14.02-.04-.08.14.02-.04-.1.14.04-.04-.1.1.06-.06-.1.08.08-.06-.1.04.16-.06-.08.02c.1-.02.18-.02.28.02l-.08-.02c.08.02.16.06.22.14l-.06-.06c.04.06.08.13.1.19l-.02-.08c.02.04.02.1.02.14v-.12c0 .04 0 .08-.02.12l.02-.12-.02.1.06-.14c0 .02-.02.04-.04.06l.08-.15c-.02.03-.04.05-.04.09l.1-.15c-.02.02-.04.04-.04.06l.1-.1c-.02.02-.04.04-.06.04l.1-.08a.15.15 0 0 1-.08.04l.1-.04a.28.28 0 0 1-.12.04.58.58 0 0 0-.16.08c-.06.04-.1.1-.16.15-.1.12-.18.26-.22.4l-.02.12c-.02.06 0 .15.02.2l.06.07c.06.02.12.02.16 0 .22-.06.43-.2.57-.39.06-.08.14-.16.18-.26.08-.14.14-.29.18-.43a1.2 1.2 0 0 0 0-.63.63.63 0 0 0-.24-.32c-.06-.04-.14-.06-.2-.08-.06-.02-.1-.02-.17-.02a1.04 1.04 0 0 0-.7.32c-.14.14-.27.3-.35.49-.12.22-.16.47-.12.69.04.18.14.36.29.49.12.1.28.16.44.14.1-.02.22-.06.28-.14.12-.1.2-.25.27-.39a.83.83 0 0 0 .08-.39c0-.04-.04-.14-.12-.1Zm15.76-.94h8.86l3.8-.01h13.58c.26 0 .46-.33.57-.53.04-.12.18-.55-.09-.55h-8.87l-3.8.02H73.2c-.26 0-.47.33-.57.53-.06.12-.2.55.06.55Z" fill="#000"/>
    <path d="M141.85 134.3c1.15 0 2.4.13 3.54-.1 2-.4 3.6-2.05 4.16-3.97.26-.92.22-1.87.22-2.8V63.86c0-1.05.02-2.07-.4-3.08a5.04 5.04 0 0 0-4.79-2.95h-2.16l-9.62.02-14.77.04-17.6.05-18.22.06-16.63.04-12.79.04-6.7.02c-1.52 0-2.95.38-4.09 1.48a5.82 5.82 0 0 0-1.77 4.18v59.37c0 2.17-.02 4.32 0 6.5a5.01 5.01 0 0 0 2.18 4.1c1.3.87 2.73.8 4.2.8.4 0 .89-1.07.49-1.07-1.6 0-3.1.04-4.4-1.01a4.62 4.62 0 0 1-1.69-3.62V63.08a3.8 3.8 0 0 1 1.88-3.3c.91-.56 1.9-.6 2.91-.6h2.67l10.24-.04 14.93-.04 17.5-.04 17.98-.04 16.25-.04 12.34-.04 6.3-.02c1.82 0 3.52.71 4.43 2.4.56 1.05.55 2.1.55 3.24v58.8c0 2.01.03 4.02 0 6.03a3.93 3.93 0 0 1-3.36 3.8c-1.05.16-2.2.06-3.25.06-.43-.02-.93 1.06-.53 1.06Z" fill="#000"/>
    <path d="M100.01 104.28h-9.07c-.43 0-.85-.02-1.25 0h-.02c-.27 0-.47.32-.57.53-.06.12-.18.54.08.54h9.07c.43 0 .85.02 1.26 0h.02c.26 0 .46-.32.56-.52.04-.1.18-.55-.08-.55Zm-24.97 24.16v3.06c0 .09.06.17.16.17 3.23 0 6.44 0 9.68-.04 3.23-.04 6.4-.13 9.61-.13 1.82 0 3.64.04 5.46.1.24 0 .48-.32.57-.52.06-.12.18-.55-.08-.55-3.24-.12-6.45-.1-9.68-.06-3.24.04-6.4.12-9.62.12h-5.46l.17.16v-3.04a.16.16 0 0 0-.17-.16.53.53 0 0 0-.3.14c-.2.2-.34.46-.34.75ZM32.74 1.34l5.93-.02L54.1 1.3l21.61-.04 24.15-.04 23.54-.04 19.23-.04 11.7-.02c.63 0 1.25-.02 1.9 0 2.08.02 4.48 1.5 4.04 3.87l-.2.94-3.6 17.01-4.77 22.68-1.5 7.13c-.1.46-.17.93-.3 1.4-.52 2.23-2.78 3.47-4.92 3.7-.85.08-1.72.03-2.55.03l-5.17.02-18.03.05-23.47.06-23.7.06-18.23.04c-2.48 0-4.97.04-7.45.02-2.67-.02-5.62-1.46-6.35-4.25-.1-.34-.16-.7-.22-1.05l-1.33-6.38-4.69-22.35-3.84-18.21-.32-1.5c-.38-2 1.35-3.01 3.11-3.05.4 0 .89-1.08.49-1.08-2.4.06-4.9 2.07-4.43 4.7.06.34.14.7.22 1.05l1.42 6.7 4.8 22.82 3.74 17.73.25 1.17c.52 2.36 2.48 3.96 4.74 4.53 1.18.3 2.37.24 3.56.24l13.15-.04 21.58-.04 24.59-.06 21.8-.04 13.34-.04c.94 0 1.93.04 2.88-.1 2.63-.4 5.07-2.23 5.76-4.87.1-.39.16-.8.26-1.2l3.6-17.14 4.81-22.9 1.47-7.04.27-1.22c.44-2.36-1.52-4.16-3.72-4.43-.7-.06-1.4-.06-2.1-.04h-4.37l-15.67.02-21.9.04-24.45.04-23.7.04-19.24.04L34.7.24h-1.47c-.39.02-.9 1.1-.49 1.1Z" fill="#000"/>
    <path d="M33.3 5.32h3.31l8.91-.02 13.27-.02 16.09-.02 17.74-.04 17.78-.04 16.68-.02 14.03-.02 10.14-.02h3.11c.52 0 1.11.08 1.64 0h.2l-.12-.41-1.05 4.97-2.5 11.84-3.06 14.42-2.63 12.4-.87 4.12c-.14.63-.36 1.3-.4 1.95 0 .02 0 .06-.02.08l.6-.67-5.91.02-15.08.04-20.58.05-22.07.04-19.98.04-13.86.04h-3.51c-.23.02-.45.02-.7 0-.07 0-.07.04-.03.06-.04-.04-.06-.25-.06-.3l-2.75-13.04-4.5-21.3-3.04-14.33-.16-.71c-.1-.51-.87.38-.8.73l2.2 10.41 4.44 21.08 3.46 16.4c.1.53.22 1.06.34 1.59.06.26.08.44.38.5.65.1 1.42 0 2.07 0l11.77-.02 18.81-.04 22-.04 21.34-.04 16.85-.04 8.5-.02h.37c.28 0 .57-.43.6-.67l1.06-4.97 2.52-11.86 3.05-14.42 2.63-12.4c.43-2.03.91-4.04 1.3-6.07l.01-.08c.03-.13.09-.4-.12-.4h-3.31l-8.91.01-13.27-.02-16.09.02-17.74.04-17.78.04-16.68.02-14.03.04-10.14.02c-1.6 0-3.2-.02-4.77 0h-.2c-.4 0-.89 1.08-.48 1.08Zm101.4 53.95c-.06.42-.08.87-.02 1.31.02.41.1.96-.16 1.32l.38-.24h-79l.17.16c-.02-.89-.55-1.66-.43-2.58.04-.24-.14-.32-.34-.22-.24.16-.4.43-.45.73-.06.51-.02 1.02.13 1.48.14.43.24.86.3 1.3 0 .09.06.17.16.17h78.51c.29 0 .55.04.77-.15.24-.24.43-.52.55-.83.2-.49.28-1.01.24-1.54-.02-.49-.1-.96 0-1.44.06-.25-.16-.33-.34-.23-.25.2-.4.47-.47.76Zm6.37 8.56H50.13c-.63 0-1.2.82-1.42 1.32-.14.3-.46 1.36.18 1.36h90.96c.65 0 1.2-.8 1.42-1.32.14-.3.48-1.36-.2-1.36Zm0 28.1H84.19a2.3 2.3 0 0 1-.59 1.34l-.08.2c-.14.41-.32.8-.54 1.16h56.87c.65 0 1.2-.8 1.42-1.32.12-.32.46-1.38-.2-1.38ZM66.6 91.6c.02-.4.14-.8.35-1.14.02-.53.2-1.03.54-1.44l.06-.12h-3.5c.05.3.05.63 0 .93.09-.45 0 .27-.01.37v1.4h2.56Zm74.46-2.68H88.13c-.04.22-.14.42-.24.6l-.43.64a1.7 1.7 0 0 1-.26.65c-.2.26-.36.54-.56.8h53.21c.65 0 1.2-.8 1.42-1.31.12-.33.46-1.38-.2-1.38Zm-63.08 2.54c.36-.76.93-1.36 1.35-2.1.1-.16.22-.32.37-.46h-4.25a2.1 2.1 0 0 1-1.23 1.38c.02.44-.06.91-.26 1.32h4c-.02-.04 0-.1.02-.14Zm-19.64-6.9c.04-.17.1-.33.2-.47.45-.61.77-1.3 1.21-1.9.1-.11.19-.24.29-.34h-5.3c.1.23.19.47.25.71.16.65.28 1.32.34 2h3.01Zm11.44-.33c.34-.61.84-1.12 1.15-1.75.12-.24.28-.44.48-.6h-4.3a1.6 1.6 0 0 1-.24.6c-.1.14-.2.29-.33.43a2.57 2.57 0 0 1-.85 1.66h3.96c.02-.12.08-.24.13-.34Zm71.28-2.34H80.23l-.06.35c-.4.7-.85 1.38-1.37 2l.1-.07-.45.36-.08.06h5.03a4.03 4.03 0 0 1 2.18-1.6 2.3 2.3 0 0 1 1.2-.33c1.31 0 2.02.92 2.16 1.93h50.9c.64 0 1.19-.8 1.4-1.32.15-.32.5-1.38-.17-1.38Zm-78.4-4.4.23-.25.18-.26c.16-.24.3-.5.46-.75.3-.49.65-.96 1.01-1.4H50.13c-.63 0-1.2.8-1.42 1.32-.14.3-.46 1.36.18 1.36h13.74l.04-.02Zm14.81-2.64H69.7c.02.1.04.2.04.32.07.3.07.61-.04.92-.02.22-.08.44-.16.65-.1.28-.24.54-.38.8h5.76c.7-1.05 1.57-1.94 2.56-2.7Zm63.59 0h-59.3l.12.28c.14.27.22.57.2.88 0 .24-.04.5-.1.75-.02.08-.04.18-.08.26a2.5 2.5 0 0 1-.12.53h58.06c.65 0 1.2-.81 1.42-1.32.12-.3.46-1.36-.2-1.38Z" fill="#000"/>
    <path d="M45.74 21.46c.1.57.55 1 1.11 1.08.69.1 1.3-.43 1.64-.98a3.4 3.4 0 0 0 .4-2.21c-.08-.7-.2-1.4-.4-2.07-.1-.35-.2-.71-.34-1.06-.08-.26-.25-.5-.47-.65-.34-.18-.7-.02-.95.23-.36.36-.54.87-.52 1.38.04.7.2 1.4.44 2.05.18.6.49 1.18.87 1.68.2.27.44.47.75.6.3.11.64.11.97-.03.83-.38 1.33-1.52.83-2.35-.1-.17-.33-.02-.43.06-.18.16-.3.4-.34.65-.1.79-.12 1.64.48 2.23.25.24.57.35.9.3.5-.1.9-.44 1.08-.9.23-.46.2-.96-.08-1.37-.14-.18-.36 0-.46.12-.2.19-.3.45-.3.71.16.88.72 1.63 1.51 2.03.85.45 1.86.45 2.7.04 2-.93 2.78-3.35 2.67-5.42a7.9 7.9 0 0 0-.46-2.31 2.1 2.1 0 0 0-.28-.61.72.72 0 0 0-.97-.33.9.9 0 0 0-.23.17c-.4.38-.66.91-.7 1.48-.2 1.99.24 4 1.27 5.7.24.43.55.82.9 1.16.35.33.84.47 1.3.43 1.01-.16 1.48-1.34 1.58-2.26.02-.22.02-.42.02-.65l-.77.84c.22.67.89 1.07 1.6.97.42-.12.8-.4 1.03-.81.26-.39.36-.83.3-1.3l-.77.83.63 1.16c.08.14.26.04.36-.02.18-.14.3-.35.39-.57l.26-1.03-.75.58c.4.98 1.6 1.24 2.53 1.36a16.49 16.49 0 0 0 6.22-.36.7.7 0 0 0 .3-.24c.1-.13.18-.27.23-.41.04-.18.04-.47-.23-.39a15.52 15.52 0 0 1-5.7.39 7.48 7.48 0 0 1-1.49-.28 2.79 2.79 0 0 1-.69-.37 1.32 1.32 0 0 1-.42-.57c-.06-.16-.28-.04-.36.02-.19.14-.3.35-.39.57l-.26 1.02.75-.6-.63-1.15c-.1-.2-.38.02-.46.12-.17.16-.35.47-.3.71l.01.2c0-.06 0 .09 0 0v.07-.05l-.02.09c-.02.06.04-.13 0-.02-.04.1.08-.15.02-.02-.06.12.06-.1.02-.05-.04.07 0-.02.02-.02l-.04.05.04-.03-.06.05c-.04.02.06-.02 0 0l-.1.04s-.1.02-.06.02h-.16a1.2 1.2 0 0 1-1.05-.84c-.02-.08-.16-.08-.22-.06-.1.04-.19.1-.25.19-.18.18-.3.44-.3.7v.19c0 .08 0 .16-.02.26 0 .08-.02.17-.04.25 0 .04 0 .08-.02.12 0 0 .04-.12 0-.02 0 .02 0 .04-.02.06-.02.02-.02.08-.04.12-.02.1.06-.12 0 0-.02.04-.04.06-.04.1.04-.14.06-.1.04-.06l-.04.06.04-.08s-.02.04-.04.04c-.04.04-.04.02.04-.04l-.04.02c.02-.02.08-.06 0 0l-.04.02c-.06.04.06-.02 0 0l-.1.04-.06.02h-.02a.66.66 0 0 1-.29 0c-.18-.04-.36-.1-.52-.2a2.75 2.75 0 0 1-.85-.9 9.24 9.24 0 0 1-1.37-3.63c-.04-.2-.06-.42-.06-.63l-.02-.32v-.6l.02-.32c0-.1.02-.18.04-.26.02-.08-.02.1 0-.02l.02-.06c.02-.06.04-.06-.02.02l.02-.04c-.06.12-.02.04 0 .02l-.04.06c.02-.02.02-.04.04-.04l-.04.04-.04.04c.08-.06 0 .02-.02 0l.06-.02h-.02.12l.06.02c.04.02.08.04.12.08.12.12.2.27.26.43l.24.65c.15.42.23.87.27 1.34.02.22.04.44.04.69v.26l-.02.33c-.02.22-.06.44-.1.69 0 0-.02.08 0 .02s0 .02 0 .04l-.04.14-.1.33a.38.38 0 0 0-.05.14c0 .04-.02.04-.02.06-.04.1 0 0 0-.02l-.12.3-.06.12c-.06.15.04-.08 0 .02s-.1.19-.16.29c-.02.04-.08.08.02-.04-.02.02-.02.04-.04.04l-.08.1-.1.12c-.04.04-.06.02.02-.02-.02 0-.04.04-.06.06l-.22.2.02-.01c-.02.02-.04.04-.07.04l-.14.08-.14.08-.06.02-.04.02h-.02l-.08.04-.16.06c-.18.06-.37.1-.55.14a2.63 2.63 0 0 1-2.8-1.56c-.09-.14-.13-.3-.15-.47l-.76.83a.96.96 0 0 1 .16.3l.02.11v.08-.02c-.04.12.04-.06 0 .02l.02-.08.02-.04c.02-.04.04-.08.08-.1.04-.04.04-.04 0 0 .02-.02.1-.08 0 0-.04.02-.02.02 0 0l-.04.02c-.02 0-.12.02-.06.02h-.1a.73.73 0 0 1-.4-.12c-.65-.43-.61-1.18-.53-1.87l-.77.71c.06.08.1.18.12.3 0 .03 0 .07.02.09v.12c0 .1.02-.04 0 0s-.04.12 0-.02l.02-.04c.08-.15.06-.08.04-.04l.02-.02c-.02.02.08-.04.02-.02l-.08.04c.02 0 .08-.02 0 0l-.1.04c-.06.02-.04 0-.02 0h-.26c-.1 0-.18-.04-.27-.08-.2-.1-.36-.23-.52-.41a4.4 4.4 0 0 1-.73-1.32 7.43 7.43 0 0 1-.5-2.03l-.02-.2v-.15c0-.06-.04.1 0-.02l-.06.15-.1.12c.06-.06-.03 0-.05.02l.04-.02c.02-.02-.06 0 .05 0 .04 0 .08 0 .12.02.16.1.3.26.36.45a12.28 12.28 0 0 1 .65 2.5c.04.28.08.56.1.87v.34l-.02.18c0 .06 0 .06-.02.08.02-.1 0 .02-.02.05-.02.02-.02.08-.04.1-.02.08.06-.1 0-.02l-.04.08c-.02.06.08-.14 0-.02-.04.06-.08.06.02-.02a.28.28 0 0 0-.06.08c-.06.08-.02-.02.02-.02-.02 0-.06.08-.08.08-.03 0 .1-.08.02-.02l-.09.06-.1.04c-.1.04-.18.06-.28.04a.95.95 0 0 1-.6-.24.72.72 0 0 1-.2-.23.49.49 0 0 1-.1-.28c-.05-.26-.33-.14-.45-.02a.98.98 0 0 0-.35.75l-.12.02Zm.97 6.4 16.37.1 16.4.1 9.16.06c.26 0 .46-.32.56-.53.06-.12.18-.55-.08-.55l-16.36-.1-16.41-.1-9.15-.06c-.27 0-.47.33-.57.53-.04.12-.16.55.08.55Zm.73 4.24H87.1c.55 0 1.07.02 1.62 0h.06c.26 0 .46-.33.56-.53.06-.12.18-.55-.08-.55H49.62c-.54 0-1.07-.02-1.61 0h-.07c-.26 0-.46.33-.56.53-.06.12-.2.55.06.55Zm.75 4.14h38.95c.53 0 1.05.02 1.58 0h.06c.26 0 .46-.32.56-.53.06-.12.18-.54-.08-.54H50.33c-.53 0-1.05-.02-1.58 0h-.06c-.26 0-.46.32-.56.52-.06.13-.2.55.06.55Zm.9 4.14h38.27c.53 0 1.03.02 1.56 0h.06c.26 0 .46-.32.56-.52.07-.13.19-.55-.08-.55H51.22c-.5 0-1.03-.02-1.56 0h-.06c-.26 0-.46.32-.56.53-.07.12-.2.54.06.54Zm.7 4.13h37.73c.51 0 1.01.02 1.54 0h.06c.26 0 .47-.33.57-.53.06-.12.18-.55-.08-.55H51.86c-.5 0-1.03-.02-1.53 0h-.06c-.26 0-.47.32-.57.53-.06.12-.18.55.08.55Z" fill="#000"/>
    <path d="M138.86 44.28a480.5 480.5 0 0 0 5.92-27.2h-49.1l-.26 27.55 43.44-.35Z" fill="#fff"/>
    <path d="M139.43 44.08a453.4 453.4 0 0 0 4.79-21.36c.4-2.01.79-4.02 1.17-6.05.04-.16-.02-.43-.22-.43H98.03c-.65 0-1.27-.02-1.92 0h-.08c-.28 0-.52.29-.67.49-.2.24-.3.57-.3.87l-.02 2.74-.06 6.6-.08 7.96-.06 6.88-.02 2.3c0 .34-.04.7 0 1.07v.04c0 .13.1.25.22.25h1.17l3.17-.02 4.7-.04 5.71-.04 6.24-.06 6.3-.04 5.89-.05 4.95-.04 3.57-.04c.57 0 1.13 0 1.7-.02h.08c.38 0 .7-.48.85-.79.08-.18.28-.83-.1-.81h-1.17l-3.18.02-4.68.04-5.7.04-6.24.04-6.3.06-5.89.04-4.95.04-3.57.02c-.57 0-1.15-.04-1.7.02h-.08l.24.25.02-2.74.06-6.6.08-7.96.06-6.86c.02-1.12.04-2.24.04-3.35v-.04l-.97 1.36h47.12c.63 0 1.27.04 1.92 0h.08l-.22-.43a476.07 476.07 0 0 1-4.43 21.07c-.46 2-.95 3.96-1.43 5.93-.06.27-.06.71.32.6.39-.13.63-.6.73-.96Z" fill="#000"/>
    <path d="M95.26 28.26c-.04-.26.06-.24.12-.32.02.1.04.2 0 .3l.06-.02c0-.06 0-.12.04-.18l.02.2c.09-.04.13-.28.27-.18-.04-.18-.2-.47-.12-.63.04.1.06.2.04.3 0-.02.02-.1.04-.06v.19c.06.06 0-.15.04-.15.04.15.06.09.08.2 0 .03-.04-.03-.04.03.08.02.14.08.16.16-.02-.08-.04-.18-.02-.2.08-.04.08.16.14.2 0-.1.08-.02.02-.22.02 0 .06.08.08.14.02-.1.2-.1.1-.3h-.02v-.03c.08-.24.33 0 .45-.16l.02.06c.06-.1.18-.12.18-.3.02 0 .1.1.1.18.04-.08.04-.16.16-.08-.02.14.06.1-.04.12.1.02.16.12.18-.1.02.18.14.18.16.1l-.1-.1a.18.18 0 0 1 .13-.06l.06.22c.26.18.14-.6.44-.22-.02-.18-.14-.06-.16-.27.08 0 .28.27.3.25.16.06-.02-.37.12-.35-.08-.12-.1-.24-.08-.38.08-.02.22.26.2.36-.02.02-.04 0-.04-.02-.02.06-.02.12.04.16l-.02-.08c.06.06.19 0 .2.13.03-.1-.01-.15-.07-.17.14.06.16-.08.28-.06-.04-.04-.08-.1-.06-.12.18 0 0-.18.08-.28.1.08.1.28.16.12.1.04.1.2.1.26.02-.2.22 0 .28-.02l-.02.1c0-.04.02-.06.06-.08l-.1-.14c.04 0 .06 0 .1.06-.02-.12-.14-.24-.14-.4.08.06.08-.17.18.04-.14 0 .1.2.02.28 0-.04.05-.04.09-.04.02.02.02.04.02.06.2.1-.06-.26.06-.33.04.13.12.2.14.17-.04.02-.1-.17-.1-.29.12.04.04-.12.1-.14h-.06c-.04-.12 0-.12.04-.2.04.08-.02.1.02.12-.04-.22.22.12.24-.08.08.04.1.2.16.22.02-.2.18.08.2-.1-.1-.12-.08-.08-.1-.28l-.1.22-.02-.28c-.04.04-.04.16-.08.16-.02-.16 0-.12-.08-.23.18.19.06-.22.2-.12l.18.37c.2.08.1-.33.29-.35l-.08-.02c-.06-.16.08-.08.08-.18.04.08.1.14.18.2-.04-.08.1-.08-.02-.32l.14.1c.14-.02-.08-.43.06-.49.04.16.14.2.12.35.04-.02.08-.04.04-.12.06.06 0-.25.1-.17-.02-.06-.08-.18-.04-.2l.04.06c-.04-.06 0-.12-.1-.22.33.26.27-.29.55-.08a1 1 0 0 1 .18-.29c.02.04.04.06.02.06.16.02-.16-.36.02-.36.18.12.02.14.1.18.26.35.08-.18.3-.04v.04c.14.06.02-.26.14-.32.03.02.03.04.05.06a.85.85 0 0 1 .02-.55c.08.16.02.1.14.22.02-.06-.18-.2-.14-.32a.8.8 0 0 1 .3.2l-.06.08c.18.14.08-.1.14-.1l.06.08c.08-.14-.08-.34.04-.45l-.06-.04c-.1-.26.14.06.08-.16l.18.18c-.02-.16-.02-.3 0-.46.06.16.1.34.1.5.09-.08.1-.2.04-.28 0 .04.03.1-.02.1-.08-.2-.1-.36-.02-.45.33.4.29-.14.59.09 0-.3.3-.29.42-.51-.32-.2.05-.06-.26-.33.02-.06.04-.08.04-.06l.27.02c.1.04.04.1.1.17.1-.09.16.08.28.08-.12-.08-.12-.19-.04-.2l-.2-.05c-.06-.28.32.1.28-.18l.06.12c0-.12.2-.28 0-.57.04.02.14.06.14.13.16-.17 0-.63.24-.65l.06.08c0-.06-.1-.19 0-.17.04.02.06.09.09.07-.03-.05-.09-.2 0-.23l.05.1c.2-.12-.03-.44-.02-.65.13.13.33.13.47.02l.04.02c.14-.2 0-.52.02-.79.32.04.3-.38.55-.5-.06 0-.19-.13-.19-.19.06-.02-.1-.24.1-.1l-.02.02c.23.1.23-.04.27-.12l-.28-.18c.5.02.06-.65.5-.57-.06-.1-.02-.16-.08-.25l.16.09c.1-.13.16-.27.16-.41l.1.1c.02-.04-.08-.14-.18-.22h-1.41c.02.02.04.04.04.08l-.14-.08h-.02l.14.16-.23-.06.02.08c.03-.02.1 0 .15.02.04.14-.2.16-.3.1l.05.3c-.04-.01-.06-.05-.08-.1.06.15-.2-.1-.08.09.04 0 .1.06.12.08-.12 0-.18.1-.16.22l-.1-.08c-.1.14-.1.37-.16.53.08-.02.26.12.26.18l-.18-.1c.1.1.08 0 .18.14-.06.04-.22-.08-.26-.16l.02.12c-.06-.02-.08-.06-.14-.12.1.1-.24.02-.08.18l-.06-.02c-.04.14-.1.29-.12.43.14.1.08.14.18.26-.1.06-.29.1-.33.22.03.15.1.13.17.23-.14-.1-.19.04-.25-.1-.06.14-.08.3-.08.46.06.02.1.02.14.06 0 .05-.1.02-.16-.02.06.37-.64.15-.48.53v-.02l.02.29c-.06.06-.06-.13-.18-.15.08.37-.2.25-.17.51-.42-.24-.24.39-.56.3l.08.09c.06.12-.08 0-.12 0 .06.06.1.04.12.1a.72.72 0 0 1-.38.43c-.19.1-.37.16-.53.26-.1.08.34.53.04.45l-.1-.2c0 .16-.08.3-.2.4a.64.64 0 0 0-.24.38c-.03-.06-.07-.1-.05-.12-.14-.1-.16.14-.08.25-.04.02-.08-.08-.14-.13-.1-.04.02.29-.1.17-.02-.02-.02-.04-.02-.08.02.08-.14.1 0 .22-.12 0-.1.2-.22.16.08.2-.18.04-.04.3-.16-.26-.26-.08-.24.09-.04-.1-.1-.04-.14-.19-.07.05-.09.15.02.27-.3-.22-.07.43-.37.08a2.3 2.3 0 0 1-.3.69c-.14-.28.16-.16 0-.45-.08.23-.04.53-.22.57-.06 0-.04-.14-.06-.2-.09.22-.3.18-.37.43v-.1c-.02.01-.08 0-.02.12v-.07c.14.17.08.47.12.57-.12-.4-.18 0-.32-.5 0 .06 0 .14.04.2-.04 0-.06-.06-.08-.16-.06.14.04.24-.06.3a.6.6 0 0 1-.04-.18c.02.14.02.3-.08.3-.02-.04-.04-.08-.02-.1-.12.1-.08.47-.27.43-.08-.3-.08-.06-.2-.3l-.04.11.08.1c-.06.05-.06.25-.16.2v-.11l-.1.12.1.06c-.02.16.14.3 0 .28 0-.04-.06.04-.16-.08 0 .1 0 .2-.08.17l-.12-.33c.04.22-.14.14-.1.39l-.06-.2.04.18c-.06-.04-.06-.06-.1-.17-.1.02.14.3-.03.23v-.08c-.14-.02-.18.22-.32.18-.12-.25.08-.1-.04-.3-.14.12-.22.44-.4.46l.04.02c.08.37-.16-.12-.2.08l-.02-.16c-.13-.02-.19.18-.3.37v-.1c-.09-.07-.19.01-.27 0 0 .1-.04.1.02.22-.34-.47-.32.44-.63.04.02 0 .04-.1.02-.1l-.14.14c.04.16.04.08.1.2 0 .1-.02.18-.06.2a.32.32 0 0 0-.06-.26l.04.77Zm0 15.9c0-.18-.14-.08-.04-.24.12.34.14-.13.3.02 0 .2-.12.14.05.26 0-.34.24 0 .32-.1-.06-.24.18-.18.32-.3.02.1.35.01.5.06v.04c-.03-.27.13-.29.23-.37.04.1.04.2 0 .3l.1-.04c0-.08.02-.16.08-.2l.02.2c.14-.06.22-.32.45-.28-.04-.18-.29-.43-.15-.6.04.07.1.23.07.3.02-.02.04-.1.08-.09l-.02.19c.1.04 0-.15.06-.17.04.15.08.09.1.19-.02.02-.08-.04-.08.04.1 0 .2.04.26.12-.04-.08-.06-.18 0-.22.14-.06.1.14.2.16 0-.1.12-.04.06-.24.04-.03.08.08.1.12.04-.12.33-.19.18-.35h-.02v-.02c.17-.3.53-.12.73-.32l.02.06c.1-.14.28-.2.35-.39.04-.02.14.06.16.16.08-.1.06-.18.26-.16-.06.16.08.08-.08.14.16-.02.22.06.3-.18.02.2.18.16.22.06l-.14-.06a.38.38 0 0 1 .2-.1l.05.24c.38.1.32-.73.7-.4 0-.2-.2-.02-.2-.23.14-.04.4.19.44.17.23 0 .03-.41.25-.45a.34.34 0 0 1-.06-.4c.14-.05.3.22.24.32-.02.02-.06 0-.06-.02-.02.06-.06.12.02.16l-.02-.08c.1.04.26-.08.28.08.06-.14-.02-.14-.1-.14.2 0 .24-.14.45-.18-.05-.02-.1-.1-.09-.1.29-.07.05-.2.19-.35.14.04.1.28.2.08.14 0 .12.18.1.26.08-.24.32-.1.42-.12l-.04.12c.02-.04.06-.1.1-.12l-.12-.12c.06 0 .1-.04.12.04 0-.12-.16-.22-.14-.4.1.04.14-.2.26-.05-.22.07.13.19-.02.33a.14.14 0 0 1 .13-.08c.02.02.02.04 0 .06.26.04-.04-.29.16-.4.04.11.16.16.16.11-.08.07-.14-.16-.1-.28.16 0 .1-.16.16-.2l-.1.02c-.04-.12.04-.16.1-.25.02.02.02.04.02.07.04-.15.3.08.36-.13.1.02.13.2.2.2.07-.24.25.03.33-.2-.12-.1-.1-.06-.08-.28l-.18.3.04-.34c-.08.06-.1.22-.17.22 0-.18.03-.14-.08-.22.23.14.13-.29.33-.25l.2.35c.26.02.2-.43.46-.53h-.1c-.06-.16.13-.14.16-.24.07.12.15.12.2.16-.05-.08.17-.14.05-.38l.18.06c.22-.1 0-.51.18-.61.02.16.16.18.1.36.06-.04.12-.08.06-.16.08.04.06-.28.19-.22 0-.06-.09-.2 0-.25l.04.06c-.05-.06.04-.16-.09-.24.4.18.45-.49.8-.32.07-.17.2-.3.3-.45.02.04.04.06 0 .06.22-.04-.15-.4.1-.47.2.08-.02.19.08.2.28.33.16-.26.42-.16l-.02.04c.18.02.1-.34.26-.46 0 .02.02.04.04.06-.02-.25.05-.51.17-.71.06.18 0 .14.14.24.04-.08-.18-.2-.1-.36.1.02.22 0 .36.12l-.1.14c.2.12.14-.16.22-.2l.06.08c.14-.23-.02-.43.16-.61l-.06-.04c-.08-.3.19.02.14-.25l.2.17c.03-.23.07-.43.13-.63.04.2.04.42 0 .65.06-.08.18-.27.14-.4 0 .03 0 .13-.04.13a.67.67 0 0 1 .08-.59c.32.41.4-.3.75-.14.08-.4.46-.5.66-.85-.36-.16.06-.1-.24-.37.04-.1.06-.12.08-.1l.33-.08c.12.02.02.14.08.18.14-.16.16.04.32 0-.08-.04-.1-.12-.06-.18.02-.04.04-.06.06-.06l-.22.02c0-.39.38.02.38-.36l.04.16c.02-.16.3-.47.14-.81.04 0 .14.04.14.12.23-.29.17-.92.45-1.02l.06.08c.02-.08-.08-.2.04-.22.04.02.06.08.08.06.02-.02-.04-.26.04-.3l.04.14c.26-.23.06-.63.14-.94.22.19.45-.02.53-.12l.04.02c.22-.34.12-.77.2-1.17.36-.05.44-.65.75-.92-.06.02-.18-.12-.18-.2.08-.06-.06-.33.14-.18l-.02.02c.24.08.26-.13.32-.27l-.28-.2c.56-.1.22-1.02.69-1-.05-.12 0-.22-.05-.36l.17.08c.12-.2.22-.4.26-.65l.08.12c.08-.16-.38-.44-.32-.6l.26.07c.1-.28.4-.48.28-.89.04.02.1.06.1.12.06-.14.35-.46 0-.57.22.1.12-.3.08-.5l.16.1c-.16-.23-.22-.25-.22-.47.02-.02.1 0 .1.04.09-.1-.12-.16 0-.3l.09.1c.06-.14 0-.16-.1-.29-.05-.12.11-.28.28-.24-.08-.06-.19-.18-.1-.26.04 0 .08.04.1.08.18-.23-.08-.47.12-.6.04.03.06.03.1 0a.97.97 0 0 1-.12.35c.14.07.22-.1.38.1-.08-.18-.26-.5-.16-.62h.06l.02.02a.13.13 0 0 0 0-.12.43.43 0 0 0 .08-.13c.12.02.12-.16.14-.24-.16-.04-.12-.14-.26-.1.02 0 .02.02 0 .08v.04h-.02c0 .06-.02.12-.04.2-.06-.1-.12-.18 0-.24l-.24-.2c.26-.04.44-.23.58-.2-.04-.3.06-.64-.2-.9-.02-.08.1-.06.16-.08.02.06 0 .1.04.14-.04-.16.06-.45-.14-.55.14-.16.18.17.2-.1l.06.06c.3-.28 0-.6-.04-.95h-.84s0 .02.02.02h-.06c.1 0 .2.02.3.04 0 .08.1.18-.04.18.02-.04-.04-.06-.08-.1l.04.1c-.23.02-.04-.14-.2-.18.04.18.18.4.1.53-.2-.02-.02-.3-.23-.19l.1-.18c-.34.06.05-.1-.32-.06-.1.24.06.3-.06.55.1.08.16.02.26.12.13.4-.56.14-.34.47.12.1.36.2.2.36l-.2-.12c-.08.22.3.24.08.45-.08-.08-.04-.23-.06-.19-.22.1.1.17.08.29l-.2-.04c-.04.26.04.59 0 .9-.06-.05-.1-.11-.18-.07 0 .2-.04.39-.12.57-.08.16-.19.32-.3.49l.13.2c0 .02-.1.02-.12-.02-.1.1.1.04.17.14 0 .08-.13.06-.17 0 .08.29.13.8-.14.96l-.04-.07c-.12.17.26.37.06.47l-.02-.04c-.2.39-.2.91-.56 1.1.22.18-.25.34.06.55-.24.14-.29.04-.5.3-.05.08.15.24.13.37l-.16-.1.1.2-.24-.04v.12c.04-.04.1-.04.16 0 .02.2-.26.3-.36.26v.45a.19.19 0 0 1-.06-.14c.04.2-.2-.1-.12.14.04 0 .1.08.12.1-.14.02-.23.22-.27.39l-.1-.1c-.14.24-.2.58-.34.87.1-.08.28.08.26.18l-.18-.08c.08.12.1-.04.18.16-.08.1-.24-.06-.26-.16v.16c-.06-.02-.06-.08-.12-.12.08.12-.28.1-.14.3l-.06-.02c-.14.29-.16.45-.27.7.15.1.06.18.15.32-.14.14-.37.24-.45.45 0 .2.1.14.14.26-.14-.08-.24.12-.26-.06-.1.22-.18.47-.22.71.08 0 .12 0 .14.04-.02.08-.12.08-.18.02v-.02c-.02.5-.83.47-.73.95v-.02l-.04.39c-.1.1-.04-.16-.18-.14.02.49-.33.42-.34.79-.47-.16-.43.65-.83.67l.1.06c.04.14-.1.02-.16.06.06.06.12 0 .14.1-.14.3-.37.55-.63.75l-.79.6c-.18.16.3.56-.06.58l-.08-.24c-.08.24-.22.47-.4.65a1.7 1.7 0 0 0-.45.6c-.02-.05-.04-.11-.02-.13-.16-.07-.24.26-.18.36-.06.04-.08-.08-.16-.1-.12 0-.04.34-.18.24-.02-.02 0-.06 0-.08 0 .1-.23.2-.06.3-.19.05-.2.31-.37.31.06.24-.26.12-.12.39-.16-.27-.36.02-.36.2-.02-.1-.12-.02-.16-.16-.1.06-.13.2-.06.3 0 0 0 .02.02.02-.37-.16-.19.57-.55.25a4.6 4.6 0 0 1-.63.97c-.14-.26.27-.26.1-.53-.18.3-.18.65-.46.8-.08.01-.04-.15-.04-.2-.18.3-.49.34-.63.66-.02-.04-.02-.08 0-.1-.04.04-.12.04-.06.16l.02-.06c.16.12.02.5.06.61-.12-.4-.26.08-.38-.47-.02.06 0 .15.02.2-.06 0-.1-.03-.1-.16-.12.19 0 .29-.14.39-.04-.06-.02-.1-.04-.18-.02.16-.02.34-.18.36 0-.04-.05-.08-.03-.1-.2.16-.2.57-.5.61-.06-.33-.12-.04-.24-.26l-.1.16.1.08c-.12.06-.14.3-.27.28l.05-.14-.2.18.16.02c-.06.2.14.29-.05.33.02-.04-.12.06-.24-.04-.02.1-.04.22-.16.22-.06-.06-.1-.28-.14-.32.04.22-.24.22-.22.46 0-.08-.04-.14-.06-.2l.02.18c-.08-.02-.1-.04-.13-.14-.18.06.19.29-.05.25 0-.02 0-.05.02-.09-.23.04-.33.3-.55.33-.14-.22.12-.14-.02-.33l-.32.37a.85.85 0 0 1-.37.28h.06c.1.37-.24-.08-.32.15.02-.04-.04-.23-.02-.17-.2.02-.32.27-.55.51v-.1c-.12-.04-.28.08-.4.08 0 .1-.08.12 0 .24-.5-.36-.57.6-1.01.27.04-.02.06-.12.04-.1l-.24.18c.06.14.06.08.16.18a.3.3 0 0 1-.12.25c.08-.15-.08-.25-.14-.33l.04.16c-.23-.22.06.33-.18.2l-.03-.07c-.06.06-.1.2-.18.2-.08-.16.06-.12.02-.27-.1.05-.12.43-.26.29.04-.06.1-.1.12-.16-.16-.19-.16-.13-.24-.13l-.2-.04.06.04c-.02.53-.24.19-.37.55.1-.36-.02-.18-.04-.4-.06-.04-.14-.08-.14-.17-.04.17-.12 0-.2.1v.76c.08.02.14.04.2.18Zm21.7-24.6c0 .05-.02.07-.06.05v-.1l-.02-.02c.02.04.06.04.08.06Zm-1.27.2c.06 0 .12.04.1.08-.04-.04-.08.04-.14.06l.04-.14Zm1.84 24.66c.06.06.18.19.16.25 0-.02-.02-.1.04-.1l.06.18c.1-.02-.06-.14 0-.18.08.1.1.04.16.12 0 .02-.08 0-.06.06a.3.3 0 0 1 .26 0c-.06-.04-.12-.12-.1-.18.08-.13.14.08.25.06-.05-.1.08-.1-.05-.25.03-.04.1.02.15.06-.02-.12.2-.3 0-.38h-.02v-.02c.02-.33.38-.33.46-.6l.04.05c.04-.16.16-.3.12-.49.02-.04.14 0 .18.06.04-.12 0-.18.17-.24.02.18.1.04 0 .16.12-.08.22-.04.18-.28.08.16.2.06.22-.04h-.14a.49.49 0 0 1 .12-.19l.14.19c.36-.08-.02-.75.42-.65-.06-.16-.16.06-.26-.12.1-.1.4-.02.43-.04.2-.09-.14-.37.02-.47-.12-.06-.23-.18-.23-.33.1-.1.35.06.35.19-.02.04-.04.04-.06.02 0 .06 0 .12.08.14l-.04-.06c.1 0 .2-.19.26-.06 0-.15-.08-.13-.14-.08.18-.09.16-.25.3-.35-.04 0-.12-.04-.12-.06.2-.16-.04-.2.02-.37.14-.02.2.2.22-.02.13-.04.16.1.2.19-.01-.25.25-.2.3-.29v.12c0-.06.03-.1.05-.14l-.14-.06c.04-.02.06-.06.12-.02-.06-.1-.22-.12-.26-.3.1-.02.04-.25.2-.15-.16.15.18.1.1.29 0-.04.02-.08.06-.12.02 0 .04.04.04.06.24-.08-.14-.23-.02-.43.08.1.2.08.2.04-.04.08-.16-.08-.2-.2.14-.06.02-.16.06-.22l-.08.04c-.08-.1-.04-.15-.02-.25.02 0 .04.04.04.06-.02-.14.3-.06.26-.24.1-.02.19.12.25.1-.05-.24.2-.08.2-.3-.14-.04-.12-.02-.18-.23l-.05.33-.1-.3c-.04.07 0 .22-.06.26-.06-.17-.04-.12-.16-.17.24.03 0-.28.18-.32l.3.22c.25-.1.03-.44.23-.63l-.1.04c-.1-.12.06-.16.04-.28.1.08.16.06.24.06-.08-.04.1-.18-.1-.34l.18-.02c.16-.17-.18-.43-.06-.6.08.15.2.1.22.3.04-.07.08-.11 0-.17.08 0-.06-.27.06-.27-.04-.06-.14-.14-.1-.2.02 0 .04.02.04.04-.04-.04-.02-.16-.16-.16.43 0 .22-.57.59-.57.02-.16.06-.32.12-.49.02.02.06.04.04.04.18-.12-.26-.3-.06-.42.22 0 .04.16.14.14.36.18.06-.28.32-.3v.04c.17-.04-.02-.35.06-.5.02.03.04.03.06.05a1.1 1.1 0 0 1-.1-.67c.13.12.04.12.2.16 0-.08-.24-.1-.22-.26.1 0 .2-.08.37-.02l-.04.14c.22.04.06-.18.12-.24l.08.06c.06-.25-.16-.35-.06-.57h-.08c-.16-.24.16-.04.04-.26l.24.08a2.78 2.78 0 0 1-.1-.6c.1.17.16.37.2.56.04-.09.08-.3 0-.41 0 .04.04.12 0 .14a.55.55 0 0 1-.1-.53c.42.25.26-.38.65-.36-.06-.39.26-.57.36-.94-.38-.02.02-.1-.32-.24 0-.1.02-.12.04-.12l.28-.16c.12-.02.06.12.14.14.08-.16.16-.02.3-.1-.14-.02-.16-.14-.08-.23l-.2.09c-.1-.33.37-.1.24-.43l.09.12c-.03-.16.14-.49-.1-.73.03 0 .16 0 .16.06.12-.3-.1-.83.14-1.01l.08.06c0-.06-.14-.17-.02-.2.04.01.08.05.1.01-.02-.04-.1-.22-.04-.28l.08.1c.2-.26-.12-.57-.1-.85.2.04.4-.06.46-.25l.04.02c.13-.36-.06-.69-.1-1.05.35-.12.27-.67.5-.98-.05.05-.2-.06-.22-.14.07-.06-.14-.26.1-.18v.02c.25 0 .23-.18.25-.3l-.3-.1c.52-.2 0-.92.44-1-.06-.1-.04-.2-.1-.3l.16.03c.08-.18.12-.4.14-.6l.1.08c.04-.17-.44-.33-.44-.47l.26.02c.04-.28.3-.5.12-.83.04.02.1.04.1.08.02-.12.25-.47-.1-.49.22.04.06-.28-.02-.44l.16.06c-.2-.17-.24-.19-.28-.37.02-.02.1-.02.1.02.06-.1-.14-.12-.04-.26l.1.08c.04-.14-.02-.14-.14-.25-.06-.1.08-.26.24-.26-.08-.04-.2-.14-.14-.2.04 0 .08.02.1.06.15-.22-.14-.39.04-.53h.1a1 1 0 0 1-.06.33c.17.02.2-.13.4.04-.1-.15-.31-.41-.23-.53l.06-.02.02.02c.02-.04 0-.06-.02-.1a.28.28 0 0 0 .04-.13c.12 0 .1-.16.1-.24-.16-.02-.12-.12-.28-.04l.01.06c0 .02 0 .02.03.04h-.03l-.01.2c-.09-.08-.15-.14-.05-.22a8.4 8.4 0 0 1-.26-.16c.24-.06.4-.24.55-.24-.04-.15-.04-.3-.08-.45h-1.26c.09.08.23.1.1.24-.08-.06-.06-.18-.08-.16-.2.12.13.12.1.24h-.2c0 .25.12.53.12.8-.06-.02-.12-.09-.18-.02.06.34-.12.7-.28.99l.16.16c0 .02-.08.04-.12 0-.08.1.1.02.16.1 0 .09-.12.09-.16.02.12.25.24.7 0 .88l-.04-.06c-.1.16.32.28.14.4l-.02-.04c-.14.37-.04.83-.36 1.08.24.12-.19.36.16.47-.2.18-.26.1-.45.38-.04.08.2.18.2.29l-.17-.05.16.19-.25.02.02.1c.04-.04.1-.06.14-.04.07.18-.2.32-.28.3l.08.4a.25.25 0 0 1-.1-.1c.08.17-.2-.03-.08.17.04-.02.1.04.14.06-.12.06-.16.24-.16.4l-.12-.05c-.08.24-.06.56-.12.85.08-.08.3 0 .3.1l-.2-.02c.1.1.1-.06.2.1-.04.1-.24 0-.28-.08l.04.16c-.06 0-.08-.04-.16-.08.1.1-.24.16-.06.3h-.06c-.06.29-.04.45-.08.7.16.06.1.14.22.26-.1.16-.27.3-.3.5.04.2.12.11.2.21-.16-.04-.19.16-.27.02-.04.22-.04.47-.02.7.06 0 .1-.05.17 0 0 .05-.1.1-.17.07v-.02c.13.45-.64.65-.42 1.04v-.02l.08.34c-.06.12-.08-.12-.2-.06.16.4-.18.47-.1.8-.49 0-.2.7-.55.85l.1.04c.08.12-.08.06-.12.1.08.02.12-.04.16.04-.04.3-.16.6-.34.85-.16.27-.36.53-.5.77-.1.2.46.39.12.53l-.16-.16c.02.24-.05.47-.15.69-.12.2-.18.45-.18.67-.04-.04-.08-.08-.06-.12-.16.02-.14.32-.04.38-.04.06-.1-.04-.18-.04-.1.04.08.33-.08.29-.02 0-.04-.04-.04-.06.04.1-.14.24.04.28-.14.1-.06.33-.2.4.14.19-.2.2.02.4-.25-.17-.3.13-.25.3-.06-.08-.12.04-.2-.06-.06.1-.04.22.06.28l.04.02c-.38 0 .04.55-.38.43-.02.36-.08.73-.18 1.07-.23-.18.14-.32-.13-.48-.03.34.09.65-.1.87-.06.04-.08-.12-.1-.16-.04.34-.3.48-.3.83a.16.16 0 0 1-.04-.1c-.02.06-.1.08.02.16v-.2c.2.04.22.42.28.5-.26-.3-.2.19-.5-.24 0 .06.04.14.1.16-.04.02-.1.02-.14-.1-.04.2.1.24.02.39-.04-.04-.04-.08-.1-.15.06.17.1.3 0 .41-.02-.04-.08-.04-.04-.08-.1.22.04.57-.19.73-.16-.24-.12.02-.3-.12l-.02.16.12.02c-.06.1 0 .33-.12.37l-.02-.15-.1.25.14-.06c.02.2.24.18.1.28 0-.04-.08.1-.22.06.02.1.04.23-.04.27-.06-.04-.18-.2-.24-.23.12.19-.12.29 0 .51a.55.55 0 0 0-.14-.16l.1.16c-.08.02-.1 0-.17-.08-.12.12.27.16.05.24l-.02-.08c-.17.12-.17.4-.33.51-.2-.12.04-.18-.14-.26-.12.26-.1.69-.3.85l.04-.02c.22.28-.24.04-.2.26 0-.04-.1-.18-.08-.14-.15.1-.17.37-.25.67l-.04-.1c-.12.02-.2.18-.3.24.04.1-.02.14.1.2-.56-.1-.24.76-.73.68.02-.03 0-.13-.02-.1l-.12.26c.12.1.08.04.2.1l.02.08h.67c-.1-.1-.36-.2-.3-.45Zm10.87-26.84c.02.06-.02.06-.06.06v-.1h-.02l.08.04Zm-1.22.35c.07 0 .13.02.1.06-.03-.02-.08.04-.14.08l.05-.14Zm7.08 26.78c.16-.12.14-.27.26-.4-.04 0-.14-.03-.12-.05.18-.22-.08-.18-.02-.38.14-.05.22.18.2-.05.12-.06.18.09.2.17-.06-.25.2-.27.28-.35l.03.12.01-.16-.14-.02c.04-.04.06-.08.13-.04-.07-.1-.23-.08-.3-.26.1-.02.01-.25.2-.17-.15.19.18.09.13.27 0-.04.03-.1.07-.12.02 0 .04.02.04.04.24-.12-.16-.2-.06-.43.08.08.2.06.2.02-.04.08-.18-.06-.22-.18.14-.1 0-.18.04-.25l-.06.07c-.09-.09-.04-.15-.04-.27.01 0 .03.02.03.04-.03-.14.29-.1.25-.3.1-.04.18.1.26.06-.06-.25.2-.1.16-.35-.16-.02-.12 0-.2-.18l-.02.35-.12-.29c-.04.08.02.22-.04.27-.08-.15-.04-.13-.16-.15.24 0-.02-.3.16-.36l.32.18c.22-.12-.02-.47.16-.69l-.08.06c-.12-.1.04-.18.02-.28.08.04.16.06.24.04-.08-.04.09-.2-.12-.33l.19-.04c.14-.18-.23-.4-.1-.6.1.11.2.05.24.24.02-.06.06-.13 0-.17.08 0-.08-.26.06-.28-.04-.06-.14-.12-.1-.2l.06.02c-.06-.02-.04-.17-.19-.17.43-.04.19-.6.55-.67.02-.18.04-.34.08-.5.04.02.06.02.04.04.16-.14-.28-.27-.08-.43.22-.02.06.16.14.12.39.15.04-.28.3-.34v.04c.17-.06-.03-.35.05-.5l.06.01c-.1-.2-.16-.45-.13-.69.13.12.05.12.2.14 0-.1-.23-.08-.23-.26.1-.02.2-.1.36-.04l-.04.16c.22.02.06-.2.12-.26l.08.04c.04-.25-.18-.35-.08-.6h-.08c-.18-.21.16-.05.04-.25l.24.06a2.8 2.8 0 0 1-.12-.6c.1.17.18.35.24.56.02-.09.08-.3-.02-.41.02.04.06.1 0 .14-.14-.14-.18-.34-.14-.55.43.2.24-.42.63-.4-.08-.39.24-.61.3-1-.38 0 .02-.12-.34-.22 0-.1.02-.12.04-.12l.28-.19c.12-.02.06.1.14.15.08-.19.16-.02.3-.13-.06 0-.12-.06-.14-.12 0-.04.02-.08.04-.1l-.2.1c-.12-.34.36-.12.24-.46l.09.12c-.03-.16.14-.51-.13-.75.04 0 .16 0 .16.06.13-.33-.14-.86.1-1.04l.09.06c0-.08-.14-.16-.04-.2.04.02.08.06.1.02-.02-.04-.12-.22-.04-.28l.08.1c.18-.29-.12-.57-.12-.88.26.09.4-.16.46-.26l.04.02c.1-.38-.1-.71-.12-1.1.32-.14.26-.7.49-1.03-.06.04-.2-.06-.23-.12.06-.08-.14-.29.1-.2v.01c.25 0 .23-.18.25-.32l-.3-.1c.5-.25-.03-.96.4-1.06-.06-.1-.04-.2-.12-.3l.16.04c.08-.2.12-.43.12-.63l.1.08c.04-.16-.46-.3-.44-.47h.26c.04-.28.3-.52.1-.85.04 0 .1.04.12.08.02-.14.24-.49-.12-.5.22.03.06-.29-.02-.47l.16.06c-.2-.16-.26-.18-.3-.37.02-.04.1-.02.1.02.06-.1-.14-.12-.04-.28l.1.08c.04-.14-.02-.14-.14-.24-.06-.1.08-.29.22-.29-.08-.04-.2-.12-.14-.2.04 0 .08.02.1.04.14-.22-.16-.4.02-.55.04 0 .08 0 .1-.02 0 .12-.02.22-.06.35.16.02.2-.15.4.02-.1-.15-.34-.41-.26-.55.02 0 .04 0 .06-.02l.02.02c.02-.04 0-.08-.02-.1l.06-.13c.13 0 .08-.18.1-.26-.16-.02-.14-.12-.28-.04.02-.02.02.02.02.08l.02.04h-.02v.2c-.08-.08-.14-.14-.04-.22l-.26-.14c.24-.08.38-.28.54-.28-.08-.27-.02-.6-.32-.78-.04-.08.1-.08.14-.1.04.04.02.1.06.12-.06-.14 0-.4-.22-.46.12-.17.2.12.18-.12l.06.04c.37-.41-.42-.78-.12-1.22h-1c.05.14-.05.34.15.49l-.06.02c.1-.02.2-.02.3 0 0 .08.15.16-.01.16 0-.04-.04-.06-.1-.08l.06.08c-.23.06-.06-.12-.23-.12.06.16.22.36.16.46-.2 0-.06-.28-.24-.14l.08-.18c-.32.1.02-.1-.32 0-.08.22.1.28.02.5.1.07.16 0 .28.07.19.36-.54.22-.28.48.14.09.38.13.24.3l-.22-.07c-.04.22.32.16.14.38-.08-.06-.06-.18-.1-.16-.2.14.12.12.1.24h-.2c0 .25.14.55.14.82-.06-.02-.12-.08-.18-.02a1 1 0 0 1-.04.54 2.3 2.3 0 0 1-.22.51l.16.16c0 .02-.08.04-.12 0-.08.13.1.02.18.1 0 .09-.12.09-.16.03.12.24.24.7.02.91l-.04-.06c-.1.18.34.28.14.43l-.02-.05c-.12.39-.02.88-.34 1.12.24.1-.19.39.18.47-.2.2-.27.12-.43.4-.04.09.2.19.22.29l-.18-.04.16.18-.22.02.04.1c.04-.04.1-.06.14-.04.06.18-.18.35-.28.33l.1.4a.25.25 0 0 1-.1-.1c.08.16-.22-.04-.08.16.04-.02.1.04.14.06-.12.07-.16.27-.14.43l-.12-.06c-.08.26-.04.59-.1.9.08-.1.3-.03.3.07l-.2-.02c.1.09.1-.08.22.09-.04.1-.24.02-.28-.07l.04.17c-.06 0-.08-.04-.16-.08.1.08-.25.18-.04.32h-.06c-.06.3-.02.47-.06.71.16.06.1.14.22.25-.1.16-.27.32-.3.54.03.19.12.08.2.19-.16-.04-.19.18-.27.04-.04.24-.04.48 0 .7.06-.01.1-.03.17 0 .02.07-.1.13-.17.09l-.02-.02c.15.44-.62.7-.38 1.11v-.02l.08.37c-.06.14-.08-.12-.2-.06.16.4-.18.5-.08.83-.49.04-.16.75-.53.94l.1.02c.08.1-.08.06-.12.1.08.02.12-.04.16.02-.04.67-.52 1.2-.78 1.78-.1.23.48.37.16.55l-.16-.16c.02.24 0 .5-.1.75-.1.22-.17.47-.17.71-.04-.04-.1-.08-.08-.12-.16.04-.12.35-.02.4-.04.07-.1-.03-.18-.01-.1.06.1.32-.06.3-.02 0-.04-.04-.04-.06.04.1-.12.28.06.28-.14.13-.04.35-.18.45.14.16-.18.24.06.39-.24-.15-.3.18-.22.34-.06-.08-.12.04-.2-.04-.05.12-.05.24.1.3-.39.07.08.57-.37.5 0 .38-.02.76-.1 1.13-.24-.14.1-.37-.16-.49 0 .35.14.65-.04.92-.06.06-.1-.1-.12-.17 0 .37-.27.55-.25.9a.16.16 0 0 1-.03-.1c-.03.06-.09.1.01.16v.02c.2 0 .25.4.35.46-.28-.26-.18.2-.55-.16.02.06.06.12.12.16-.04.05-.1.03-.16-.08-.02.23.12.23.06.39-.06-.04-.06-.08-.12-.14.06.14.14.3.04.4-.02-.02-.08-.04-.06-.08-.08.25.1.6-.1.8-.2-.23-.12.03-.32-.07v.19h.12c-.06.12.04.32-.08.38l-.04-.14-.06.24.14-.08c.04.18.26.14.12.29 0-.04-.06.12-.2.1.02.02.02.06.02.08h.42c-.02-.04-.02-.06-.02-.1.08-.1.3 0 .34.1h.15c.04-.04.08-.04.12 0-.02-.14-.08-.12-.16-.06Zm6.7-25.04c.02.06-.02.06-.04.09 0-.05 0-.07-.02-.1h-.02l.08.01Zm-1.2.41c.05 0 .11.02.11.04-.04-.02-.08.04-.14.1l.02-.14Zm-58.24 3.78.23-5.08-.73.77 4.36 3.27.57-1.05-2.39-.15-.32-.02c-.18 0-.3.17-.42.29l-.95 1.01-.8.83c-.17.19-.4.5-.35.78.04.28.32.16.44.02l1.62-1.73.24-.24-.3.14 2.38.14.34.02c.23.02.45-.28.53-.45.08-.16.22-.46.04-.58l-4.34-3.27c-.15-.1-.35.1-.43.18a.98.98 0 0 0-.3.6l-.22 5.09c0 .08 0 .2.08.26.08.02.18 0 .26-.06.26-.23.42-.49.46-.77ZM73.75 98.6l.14-.34c.34-.7.68-1.36 1.07-2.03.06-.12.14-.23.24-.33h-1.9c.02.4-.06.8-.22 1.16.04.5 0 1.04-.14 1.52l.8.02Zm-17.1-9.2-.04.25c.04-.26.12-.53.22-.77h-1.41c-.02.9-.04 1.78 0 2.7h.89c.1-.73.24-1.44.34-2.17ZM10.1 80.52a9.57 9.57 0 0 0 4.5-9.66 8.12 8.12 0 0 0-.96-2.72c-.12-.23-.43.06-.53.18-.16.2-.32.49-.22.75.28.87.8 1.67 1.5 2.28.6.48 1.3.8 2.08.93a7.1 7.1 0 0 0 2.36-.02 15.6 15.6 0 0 0 2.55-.65c.86-.3 1.71-.65 2.56-1.02a1 1 0 0 0 .53-.65c.04-.18.04-.46-.23-.38a6.3 6.3 0 0 0-2.64 1.34 5.47 5.47 0 0 0-1.56 2.35c-.58 1.69-.32 3.56.24 5.2.35.98.8 1.91 1.32 2.8l.74-.91a8.37 8.37 0 0 0-3.25-2.86 6.36 6.36 0 0 0-4.64-.39 8.31 8.31 0 0 0-2.93 1.69 1 1 0 0 0-.37.77c.04.28.3.14.45.02l.16-.12.08-.06c.02 0 .08-.07.02 0a2 2 0 0 1 .3-.23c.2-.14.4-.26.6-.38l.3-.17.03-.02.04-.02.16-.08.61-.24c.73-.27 1.5-.37 2.26-.3 1.44.12 2.81.7 3.9 1.66a8 8 0 0 1 1.52 1.68c.24.37.95-.59.74-.91a13.32 13.32 0 0 1-1.37-3.02c-.02-.07-.04-.1-.04-.17 0-.06-.02-.04-.02-.08s-.04-.1 0-.02l-.08-.32a8.36 8.36 0 0 1-.26-1.85v-.29c0-.06.02-.08 0 0v-.22c0-.2.02-.38.06-.59l.04-.26c.02-.14-.02.1 0-.02l.04-.16.08-.27.04-.12.02-.06c0-.02-.06.16-.02.04.02-.08.06-.16.1-.24l.06-.13.02-.06c.04-.1-.08.17-.02.02l.12-.22c.02-.04.04-.08.08-.1.04-.02.1-.12-.04.04l.04-.06.18-.22.1-.1c-.14.16 0 0 .03-.03l.24-.22.12-.1c-.12.1.02-.02.06-.04.18-.14.38-.27.59-.37l.08-.04.16-.08a9.9 9.9 0 0 1 1.2-.4l.3-1.06a22.37 22.37 0 0 1-4.7 1.58l-.13.02-.09.02-.3.04-.6.06a5.14 5.14 0 0 1-1.72-.12l-.14-.04-.08-.02-.27-.08a3.4 3.4 0 0 1-.97-.53 2.44 2.44 0 0 1-.48-.42l-.12-.13-.02-.02-.06-.06a6.43 6.43 0 0 1-.93-1.73l-.75.92a8.02 8.02 0 0 1 .73 1.69l.02.06c-.02-.06 0 0 0 .02l.04.14a11.76 11.76 0 0 1 .26 1.52c.02.2.02.4.02.61v.06-.02.16c0 .1 0 .2-.02.33l-.06.6-.04.3-.02.16-.02.06c-.02.1.02-.1 0 0a6.82 6.82 0 0 1-.26.89l-.04.12c-.02.04-.1.24-.02.08l-.25.57-.12.26c-.02.05-.12.23-.02.05l-.08.14-.32.53-.1.14c-.06.08.04-.04.04-.04s-.04.04-.04.06l-.2.26-.23.27-.14.14-.06.06c.04-.04.1-.12 0 0-.18.18-.34.34-.55.5l-.28.25c-.1.08.06-.04 0 0l-.1.08-.14.1c-.22.16-.45.3-.67.43a.97.97 0 0 0-.44.73c0 .08 0 .2.08.26s.2 0 .26-.04v-.06Zm6.97-15.98a6.02 6.02 0 0 0 2.85-6.03c-.1-.59-.3-1.13-.59-1.66-.12-.22-.42.06-.52.18-.16.2-.32.49-.22.75.18.53.48 1 .89 1.36.36.3.8.49 1.25.57.97.18 2-.08 2.93-.4.52-.19 1.03-.39 1.53-.61a1 1 0 0 0 .53-.65c.04-.19.04-.47-.22-.39a3.64 3.64 0 0 0-2.69 2.42 4.86 4.86 0 0 0 .12 3.2c.2.6.47 1.16.79 1.69l.75-.91a4.9 4.9 0 0 0-1.96-1.73 3.84 3.84 0 0 0-2.81-.22c-.67.22-1.27.57-1.8 1.03a1 1 0 0 0-.36.77c.04.29.3.15.44.02l.1-.08c.06-.06-.1.06.02-.02l.16-.1.39-.24.16-.08.04-.02.1-.04c.12-.07.24-.1.36-.15a3.56 3.56 0 0 1 1.3-.16A4.41 4.41 0 0 1 23.74 65c.24.37.95-.59.75-.91-.27-.45-.5-.92-.69-1.38l-.12-.37-.06-.16v.02l-.02-.04-.02-.1c-.06-.25-.1-.47-.14-.71-.02-.13-.02-.25-.02-.35v-.26l.02-.35.02-.16v-.04c0-.06-.02.06-.02.06l.02-.08.04-.14.02-.09.02-.04-.02.07.06-.15.04-.06c.02-.02.06-.12 0-.02-.06.1 0 .02 0 0s.02-.04.04-.06l.04-.06c.06-.1-.08.1-.02.04l.1-.12.04-.04a.88.88 0 0 1 .14-.12.28.28 0 0 1 .08-.06c.04-.02-.1.06-.04.04l.04-.04a2 2 0 0 1 .35-.23l.04-.02c-.02.02-.06.04-.02 0l.1-.04c.06-.04.14-.06.2-.08.16-.06.32-.1.48-.14l.3-1.06c-.86.4-1.8.71-2.72.94l-.08.02h-.06l-.18.02-.35.04a2.6 2.6 0 0 1-.68-.02l-.33-.06-.14-.04c.04.02 0 0-.02 0l-.08-.02c-.2-.09-.4-.19-.59-.3l-.28-.25-.04-.04c.02.02-.04-.04-.04-.06l-.12-.17a3.36 3.36 0 0 1-.43-.85l-.74.91c.12.2.22.43.3.65.08.2.14.41.18.61.04.23.08.47.1.7l.02.34v.28c0 .1-.02.23-.04.35l-.02.18c0 .02 0 .06-.02.08l-.02.06v-.04a.38.38 0 0 0-.04.16c-.02.07-.02.13-.04.17a6.6 6.6 0 0 1-.12.34c.06-.18 0 0-.02.04l-.08.19c-.04.06-.04.1-.08.14-.04.04-.02.06-.04.08.08-.18.04-.06.02-.02l-.18.3-.06.08c-.06.09.04-.04.04-.04l-.15.19-.12.16-.06.06c-.1.1.08-.08 0 0l-.3.3-.18.15c.04-.02.1-.06 0 0l-.1.08c-.12.1-.27.18-.39.26a.97.97 0 0 0-.44.73c0 .08 0 .2.08.27.08.06.2 0 .26-.04l-.04-.13Zm-10.14.65a4.91 4.91 0 0 0 2.32-4.89 4.28 4.28 0 0 0-.46-1.32c-.12-.22-.43.06-.53.16-.16.2-.32.49-.22.75.14.43.38.8.7 1.08.29.22.63.39 1 .45.77.14 1.57-.06 2.3-.3l1.21-.47a1 1 0 0 0 .53-.65c.04-.19.04-.47-.22-.39a3.12 3.12 0 0 0-2.23 2.03c-.3.83-.18 1.73.08 2.56.17.47.37.91.63 1.34l.75-.92c-.83-1.21-2.3-1.96-3.76-1.52-.52.18-1.03.47-1.45.83a.93.93 0 0 0-.35.78c.04.28.3.14.45.02l.08-.06.14-.1.28-.19.14-.08.08-.04c.1-.04.19-.08.29-.1.32-.1.64-.16.99-.12.64.06 1.25.32 1.73.75.27.22.49.46.7.75.23.36.94-.59.74-.92-.2-.34-.38-.7-.53-1.07l-.1-.27-.04-.14c-.02-.04 0-.02 0 0l-.02-.08a5.6 5.6 0 0 1-.1-.57l-.02-.24v-.2c0 .1.02.02 0 0 0-.1 0-.17.02-.25l.02-.12v-.06c.02-.1-.04.12 0 .02.02-.08.04-.16.08-.24 0 0-.06.14-.02.06l.02-.04.06-.15s-.08.15-.04.09l.04-.06c.04-.05.12-.17-.02.02l.08-.1.04-.05c.06-.08-.1.1-.02.04.04-.04.08-.06.1-.1.02-.04.04-.02.07-.04-.1.1-.07.04-.03.02.09-.06.19-.12.29-.16.02-.02.08-.04-.02 0l.08-.04c.06-.02.12-.04.18-.08.12-.04.24-.08.36-.1l.3-1.06c-.68.33-1.4.57-2.13.73h-.07l-.12.02c-.1.02-.2.02-.28.02a2.27 2.27 0 0 1-.79-.04l-.1-.02c.06.02-.02 0-.02 0l-.08-.02a1.79 1.79 0 0 1-.67-.43l-.04-.04-.02-.02-.1-.12c-.14-.2-.24-.42-.32-.65l-.75.92a12.04 12.04 0 0 1 .32.75c0 .02.02.06 0 0l.02.06.05.14a5.12 5.12 0 0 1 .1.8v.05-.02.16l-.02.25-.02.14c-.02.04-.02.1-.02.14-.02-.06.02-.08 0-.02 0 .02 0 .04-.02.06l-.04.13-.1.28c-.05.1.03-.12.01-.04l-.02.06-.06.14-.06.12c-.02.02-.02.04-.02.06l.04-.08-.02.06a.84.84 0 0 1-.14.23l-.04.06c-.06.08.04-.04.04-.04l-.1.14c-.04.06-.08.08-.1.12l-.04.04c-.06.08.06-.06.02-.02l-.24.23a.36.36 0 0 1-.14.1c.08-.04.04-.04.02-.02l-.09.06-.3.2a.97.97 0 0 0-.44.73c0 .08 0 .2.08.27.08.06.08-.1.12-.15ZM.16 136.07l13.42.27 13.41.26 7.54.14c.38 0 .64-.59.64-.91V92.16c0-.6.02-1.18 0-1.77v-.08a.16.16 0 0 0-.16-.16l-13.41-.27-13.42-.26-7.53-.14c-.39 0-.65.58-.65.91v43.7c0 .58-.02 1.17 0 1.76v.08c0 .28.34.12.44.02.23-.2.35-.47.37-.77v-43.7c0-.58.02-1.17 0-1.76v-.08l-.65.91 13.42.27 13.41.26 7.54.14-.16-.16v43.7c0 .58-.02 1.17 0 1.76v.08l.64-.91-13.41-.27-13.42-.26-7.53-.14c-.39-.02-.9 1.05-.49 1.05Z" fill="#000"/>
    <path d="m2.93 88.77-.06 4.79c0 .08 0 .2.08.26.08.04.18.02.26-.04.25-.16.4-.43.45-.73l.06-4.8c0-.07 0-.2-.08-.26-.08-.04-.18-.02-.27.04-.24.19-.4.45-.44.74Zm2.85 0-.06 4.79c0 .08 0 .2.08.26.08.04.18.02.26-.04.24-.16.4-.43.45-.73l.06-4.8c0-.07 0-.2-.08-.26a.27.27 0 0 0-.27.04c-.24.19-.4.45-.44.74Zm2.85 0-.06 4.79c0 .08 0 .2.08.26.08.04.18.02.26-.04.24-.16.4-.43.44-.73l.07-4.8c0-.07 0-.2-.09-.26-.08-.04-.18-.02-.26.04-.24.19-.4.45-.44.74Zm2.85 0-.06 4.79c0 .08 0 .2.08.26.08.04.18.02.26-.04.24-.16.4-.43.44-.73l.06-4.8c0-.07 0-.2-.08-.26-.08-.04-.18-.02-.26.04-.24.19-.4.45-.44.74Zm2.84 0-.06 4.79c0 .08 0 .2.09.26.08.06.2 0 .26-.04.24-.16.4-.43.44-.73l.08-4.8c0-.07 0-.2-.08-.26-.08-.04-.18-.02-.26.04-.26.19-.42.45-.47.74Zm2.85 0-.06 4.79c0 .08 0 .2.08.26.08.04.19.02.27-.04.24-.16.4-.43.44-.73l.06-4.8c0-.07 0-.2-.08-.26-.08-.04-.18-.02-.26.04-.24.19-.4.45-.45.74Zm2.85 0-.06 4.79c0 .08 0 .2.08.26.08.04.18.02.27-.04.24-.16.4-.43.44-.73l.06-4.8c0-.07 0-.2-.08-.26-.08-.04-.18-.02-.26.04-.25.19-.4.45-.45.74Zm2.85 0-.06 4.79c0 .08 0 .2.08.26.08.04.18.02.26-.04.25-.16.4-.43.45-.73l.06-4.8c0-.07 0-.2-.08-.26-.08-.04-.18-.02-.26.04-.23.19-.4.45-.45.74Zm2.85 0-.08 4.79c0 .08 0 .2.08.26.08.04.2.02.26-.04.25-.16.4-.43.45-.73l.06-4.8c0-.07 0-.2-.08-.26-.08-.04-.18-.02-.27.04-.22.19-.38.45-.42.74Zm5.7 0-.06 4.79c0 .08 0 .2.08.26.08.04.18.02.26-.04.24-.16.4-.43.45-.73l.06-4.8c0-.07 0-.2-.09-.26-.08-.04-.18-.02-.26.04-.24.19-.4.45-.44.74Zm-2.85 0-.06 4.79c0 .08 0 .2.08.26.08.04.18.02.26-.04.24-.16.4-.43.45-.73l.06-4.8c0-.07 0-.2-.08-.26-.08-.04-.19-.02-.27.04-.24.19-.4.45-.44.74Zm-17.62 16.08c.7.85 1.82 1.25 2.89 1.03 1.15-.22 2.1-1.22 2.53-2.27.22-.6.38-1.34.1-1.93a1.08 1.08 0 0 0-.61-.55.97.97 0 0 0-.93.24c-.3.27-.52.63-.65 1.02-.1.36-.1.73-.02 1.1.13.6.29 1.3.63 1.82.34.53.97.96 1.64.81.36-.1.68-.3.9-.6.3-.35.47-.82.43-1.28 0-.1-.08-.17-.16-.17l-.08.02a.8.8 0 0 0-.4.37c-.29.4-.39.93-.29 1.42.08.39.3.73.63.98.32.24.75.3 1.13.2a2.52 2.52 0 0 0 1.64-2.64c-.04-.22-.25-.18-.4-.06-.23.16-.37.42-.41.69a1 1 0 0 0 .2.75c.16.2.36.34.6.4.61.19 1.22-.08 1.64-.52a5.3 5.3 0 0 0 1.11-1.97 10 10 0 0 0 .49-4.63c-.02-.24-.26-.16-.4-.06a.98.98 0 0 0-.41.69c-.08 1.1-.32 2.17-.4 3.29-.08.93.02 1.87.32 2.74a3.3 3.3 0 0 0 1.47 1.83c.87.44 1.9.42 2.75-.06a3.7 3.7 0 0 0 1.76-2.97c0-.08 0-.2-.08-.26a.25.25 0 0 0-.26.04c-.25.16-.4.42-.45.73 0 .1 0 .2-.02.3l-.02.15c0 .06.02-.09 0-.03l-.02.1-.04.13c-.04.14.04-.1-.02.04l-.06.12-.04.06c-.06.12.06-.08.02-.02-.04.06-.06.08-.08.14l-.02.04c.06-.12.06-.08.02-.04l-.1.13c-.02.02-.04.04-.04.06.02-.04.08-.09 0 0l-.1.1c-.04.04-.14.12-.04.04l-.27.18-.08.04-.12.06a2.65 2.65 0 0 1-.89.16c-.4 0-.79-.1-1.15-.28a3.07 3.07 0 0 1-1.33-1.64l-.1-.25-.04-.1v-.02l-.02-.1c-.04-.18-.09-.37-.1-.55a4.8 4.8 0 0 1-.03-1.26c.09-1.16.35-2.27.43-3.43l-.8.63.07.97v.37c0 .16 0 .32-.02.49-.02.32-.06.65-.12.97l-.04.2c-.02.07.02-.12 0 .05l-.02.1-.12.48c-.04.17-.1.3-.14.45a.97.97 0 0 1-.08.22c0-.02.04-.1 0 0a.95.95 0 0 0-.06.15l-.15.32-.02.04.02-.04-.04.06-.12.2.02-.03-.08.08c-.02.02-.04.04-.04.06-.08.1.1-.08 0 0a.88.88 0 0 1-.14.12c.02 0 .1-.06.02-.02l-.1.06c-.02 0-.12.06-.02.02l-.06.04a.37.37 0 0 1-.16.04c-.1.02.04 0-.02 0h-.27l-.16-.02c-.06-.02.06.02-.02 0l-.08-.04a.76.76 0 0 1-.3-.18l-.04-.04-.02-.02c-.04-.04-.06-.1-.1-.15l-.02-.06v.02l-.02-.06v-.06.02-.06l-.81.63c.02.08.02.16.02.24 0 .02 0 .08 0 0v.04l-.02.15v-.04c0 .02 0 .04-.02.06 0 .02-.04.16-.02.06s-.02.04-.02.06c0 .02-.04.08 0-.02s0 0-.02.02l-.02.04c-.04.06.08-.1.04-.04l-.08.1c-.06.08.08-.08 0 0-.02 0-.08.1-.1.08-.03-.02.08-.06.02-.02l-.07.04-.08.06-.04.02-.12.04a.26.26 0 0 1-.12.02h-.3l-.1-.02-.06-.02a.96.96 0 0 1-.2-.1 1.05 1.05 0 0 1-.17-.12l-.08-.08-.02-.02-.04-.04-.22-.37-.04-.12-.02-.08-.02-.12v-.17c.02-.1-.04.1 0-.02 0-.01.02-.01.02-.03.02-.1-.04.1-.02.03 0-.01.02-.01.02-.03-.04.14-.06.1-.02.03l-.65.23v.06c.02.1.02-.04 0 .02s-.04.08 0 .02-.04.08 0-.04l.02-.04.02-.04s-.04.04-.04.06c0 .02.1-.12.02-.04l.02-.02-.06.04-.06.04a.36.36 0 0 1-.14.04h-.12a1.3 1.3 0 0 1-1.05-.6c-.27-.44-.45-.9-.55-1.39a3.6 3.6 0 0 1-.14-.81c0 .04.02-.2 0-.1s0 0 0-.02c.02-.1 0 .02 0 .02s.04-.06.02-.06-.08.14-.02.04c0 0-.08.12-.02.04-.1.08.06-.08 0 0-.02 0-.08.08-.02.02.02-.02.06-.02 0 0 0 0 .12-.04.08-.04.1-.02.2 0 .28.04.2.08.37.26.43.46.06.19.08.41.04.6l-.02.14c-.02.12.02-.09 0 0 0 .02 0 .04-.02.06-.02.02-.02.1-.04.16l-.02.06c0-.04.04-.1 0-.02l-.06.14-.02.06c-.02.06-.06.04.02-.04l-.08.12c-.02.04-.17.2-.02.04l-.08.13-.05.06c-.02.02-.1.08-.02.02h-.02l-.04.04-.14.12c-.1.08.06-.04-.04.04l-.14.1-.12.08-.06.04c-.02 0-.12.06-.02.02a2.9 2.9 0 0 1-.59.2l-.12.03-.18.02h-.36a2.67 2.67 0 0 1-1.82-.93c-.16-.21-.4.03-.53.16-.1.12-.18.26-.22.4-.02.08-.06.25 0 .33l.08-.09Zm.16 11.16a3.19 3.19 0 0 0 3.6 1.02c1.51-.53 2.42-2.2 2.34-3.76a3.14 3.14 0 0 0-.9-2.05c-.07-.06-.23 0-.27.04-.12.08-.22.2-.3.33a3.27 3.27 0 0 0-.3 3.18 2.6 2.6 0 0 0 2.42 1.42c.58-.02 1.15-.2 1.64-.56.2-.15.36-.37.42-.61.02-.1.08-.43-.12-.4-.85.07-1.54 1.8-.49 2.06.49.12 1-.2 1.3-.55.34-.44.58-.95.68-1.5l-.74.59c.32.71.97 1.22 1.75 1.36.9.14 1.74-.3 2.33-.97.1-.13.18-.27.22-.41a.45.45 0 0 0 0-.33c-.12-.22-.42.07-.53.19l.02-.02-.06.06-.08.08c-.08.08.06-.04-.02.02-.04.04-.08.06-.12.08l-.1.06-.06.04c.04-.02.04-.02.02 0-.08.04-.16.06-.22.1-.14.06-.3.09-.45.1-.16.03-.34 0-.5-.03a2.02 2.02 0 0 1-1.42-1.18c-.08-.17-.28-.04-.36.02-.18.14-.3.34-.38.57l-.12.46c-.05.1-.02.02 0 0-.02.04-.05.08-.05.13l-.02.04.02-.05c-.02.05-.04.07-.06.09-.04.06.09-.1 0-.02-.04.04-.04.04 0 0 .02-.02.04-.04 0 0-.02.02-.12.06-.02.02l-.16.06c-.08.02.02 0-.04 0h-.1c-.1 0-.2-.04-.3-.12-.04-.02.02.04-.02-.02l-.04-.07c0-.02-.02-.04-.04-.06-.02-.02 0 .06 0 0v-.08c-.02.08 0-.08 0 0 0-.02.02-.1 0-.02 0 .04-.02.04 0 .02l-.04.1c.04-.1-.08.15-.02.06a.9.9 0 0 1-.2.23c.05-.04-.1.02-.03 0-.08 0 .08-.02 0 0l.3-1.02-.26.19-.04.02c.06-.05-.04.02-.04.02L19 115l-.3.1c-.02 0-.14.02-.08.02l-.2.02a2.23 2.23 0 0 1-2.19-1.02 2.14 2.14 0 0 1-.36-1.2v-.08c0-.06 0-.12.02-.18s.02-.12.02-.18c0 0 .02-.12 0-.04l.02-.06.06-.19-.02.05.04-.1.02-.07c0-.02.02-.04.04-.06l-.04.08.12-.18-.56.37a2.46 2.46 0 0 1 .48.69 2.44 2.44 0 0 1 .18.46l.02.1.04.23c.03.14.03.3.05.44v-.1.17l-.02.22-.03.12v.04s.03-.1 0-.04l-.06.22c0 .05-.02.09-.04.1-.02.1.04-.1 0-.01l-.1.2-.02.04c-.04.06.06-.12.02-.06l-.04.08-.06.1c-.06.08.1-.12 0-.02a.97.97 0 0 1-.14.16c-.06.06.08-.08 0-.02l-.1.1-.08.09.04-.05c-.02 0-.02.03-.04.03l-.18.12-.1.06h-.02c-.07.04-.15.06-.2.1-.15.06-.29.1-.43.12l-.1.02h-.04l-.22.02c-.3.02-.59 0-.87-.06-.3-.06-.59-.18-.85-.34a2.36 2.36 0 0 1-.7-.63c-.17-.2-.41.04-.53.16-.1.12-.19.26-.23.4-.02.1-.06.25 0 .33l-.1.14Zm.18 9.95c-.14.49-.02 1 .3 1.38.31.35.73.55 1.2.55 1.2-.02 2.08-1.12 2.44-2.15.2-.61.29-1.26.23-1.91 0-.08-.08-.16-.17-.16h-.04a.6.6 0 0 0-.34.24c-.95 1.16-1.13 2.92-.06 4.06.06.06.22-.02.26-.04.12-.08.23-.2.3-.33l.96-1.64-.65.22.22 1.45c.06.36.43.04.55-.08l.48-.57-.52.18c.36.4.9.59 1.43.45a2.86 2.86 0 0 0 1.56-1.08 5.49 5.49 0 0 0 1.29-3.25 4.67 4.67 0 0 0-.28-1.89c-.06-.18-.35 0-.43.06a4.73 4.73 0 0 0-1.25 4.35 3.6 3.6 0 0 0 1.11 1.87c.57.48 1.37.77 2.12.5.47-.18.87-.48 1.15-.89.35-.43.49-.95.45-1.5-.02-.25-.26-.16-.4-.06a.97.97 0 0 0-.4.69c-.07.4.07.81.37 1.07.29.25.67.33 1.01.23.47-.14.81-.57 1.01-1 .2-.38.25-.83.1-1.24l-.68.98a6.75 6.75 0 0 0 4.73 1.2c.26-.05.46-.3.56-.53a.83.83 0 0 0 .08-.39c-.02-.08-.06-.18-.16-.16a6.58 6.58 0 0 1-4.58-1.16c-.09-.06-.2 0-.27.04a.93.93 0 0 0-.24.25c-.12.18-.26.44-.18.67 0 0 .02.1.02.04l.02.08c.02.04 0 .06 0 .08 0 .1.02-.08 0 .02l-.02.08.02-.04-.02.04.04-.08c-.02.02-.06.1 0 .02s0 0-.02 0c-.06.06.06-.04.02-.02l-.06.04c.08-.06.02 0-.02 0l-.08.02c.04 0 .04 0 0 0a.8.8 0 0 1-.63-.24.86.86 0 0 1-.18-.29s-.02-.1-.02-.06v-.18l-.8.63v.12l-.03.1c-.02.12.04-.1 0 0v.04l.02-.04a.16.16 0 0 0-.04.1l.04-.08-.04.06c-.1.15.06-.06 0 .02l-.02.02c-.04.05-.02.05.02-.02-.02 0-.06.06-.08.09l-.08.06c.12-.06 0-.02-.02 0l-.1.06c-.02 0-.12.06-.02.02a1.63 1.63 0 0 1-1.07.06c-.3-.1-.61-.27-.85-.47-.47-.4-.79-.91-.97-1.5l-.02-.04-.02-.1-.04-.2-.06-.47v-.37c0-.16.02-.3.06-.47l.02-.1c-.04.14 0-.02.02-.04l.06-.24.04-.1-.02.04.02-.06c.04-.08.06-.17.1-.23.02-.04.04-.06.04-.1-.06.18-.02.04 0-.02a.63.63 0 0 1 .14-.2c.08-.1-.1.12 0 .02l.08-.1.08-.08.04-.07c-.06.07-.06.09-.02.05l-.42.06a3.97 3.97 0 0 1 .22 1.32v.26c0 .12-.02.22-.04.34l-.02.17c0 .04 0 .06-.02.08-.02.1 0 0 0-.02 0 .06-.02.12-.04.16l-.06.18-.06.17-.02.08c0-.02.04-.12 0-.04-.04.08-.1.2-.14.32l-.04.08.02-.04-.08.14-.08.13-.05.06c-.08.12.09-.13 0 0l-.2.26c-.08.1-.02.02 0 0l-.06.06-.16.14-.06.06c.02-.02.08-.06 0 0-.04.05-.1.07-.16.1l-.08.05-.04.02c.06-.02-.06.04-.06.02l-.08.06-.19.06c-.06.02.08 0-.04 0h-.1c-.12 0-.24 0-.36-.02a.98.98 0 0 1-.55-.3c-.16-.2-.4.03-.52.18l-.47.57.63-.09-.22-1.44c0-.1-.08-.16-.18-.16a.1.1 0 0 0-.07.02.8.8 0 0 0-.4.37l-.95 1.64.57-.36c-.35-.39-.55-.9-.57-1.42v-.15c0-.06 0-.12.02-.2.02-.08.02-.12.02-.2-.02.08.02-.1 0 0l.02-.1c0-.05.02-.07.04-.1.02-.05.06-.13 0 0l.08-.19-.04.08.04-.06.06-.08c.06-.1-.08.1-.02.04l.08-.1-.54.08v.59c0 .1-.02.22-.04.32l-.02.15-.02.08-.04.16-.04.1-.04.1-.04.08c-.04.1.04-.08 0 0l-.08.13c-.02.04-.09.08.02-.05-.02.03-.02.05-.04.05l-.09.1c-.06.08.02-.02.02-.02l-.06.06-.1.08c-.06.04 0 0 .02 0s-.04.04-.04.04l-.1.08-.06.04c-.06.04.02 0-.02 0-.08.04-.18.08-.26.1l-.12.04c-.04.02-.02 0 0 0l-.1.02c-.35.04-.71-.08-.97-.32a1.04 1.04 0 0 1-.3-.43l-.03-.06c0-.02-.02-.08 0-.02-.02-.04-.02-.08-.02-.14v-.14c0 .14.04-.19 0 0a.45.45 0 0 0 0-.33c-.04-.08-.14-.1-.22-.06a.88.88 0 0 0-.63.65Zm-6.76-21.5 1.7 2.07c.2.24.52-.14.6-.3l2.65-4.76.74-1.33c.08-.13.14-.27.17-.41 0-.08 0-.2-.09-.26-.2-.13-.48.22-.56.36l-2.63 4.73-.75 1.34.61-.3-1.7-2.05c-.16-.2-.4.04-.52.18-.1.12-.18.26-.22.4-.02.09-.08.25 0 .33Zm0 11.35 1.7 2.07c.2.24.52-.14.6-.3l2.65-4.75.74-1.34c.08-.13.14-.27.17-.41 0-.08 0-.2-.09-.27-.2-.12-.48.23-.56.37l-2.63 4.75-.75 1.34.61-.3-1.7-2.05c-.16-.2-.4.04-.52.18-.1.12-.18.26-.22.4-.02.09-.08.25 0 .3Zm154.9-.35c-.18.41-.38.82-.59 1.2l-.28.55-.08.16c-.02.06-.08.16-.02.02l-.16.29c-.42.77-.87 1.5-1.33 2.23l.6-.3a18.44 18.44 0 0 1-1.47-4.86c-.04-.26-.33-.14-.45-.02-.18.17-.4.49-.36.77a19.2 19.2 0 0 0 1.53 5.04c.15.3.55-.2.61-.3 1-1.53 1.86-3.11 2.63-4.78.06-.14.18-.52-.08-.54-.27-.02-.47.34-.55.54Z" fill="#000"/>
    <path d="M160.06 114.86a11.1 11.1 0 0 1-4.05-.41l.09.26 1.33-8.1 1.33-8.1 1.34-8.1 1.33-8.1.67-4.02.06-.39.02-.06s-.02.06 0 .02l.04-.16.08-.3.02-.07c0-.02-.04.09-.02.02l.06-.14c.02-.04.06-.12 0-.02l.08-.14-.02.04.04-.06.04-.06c-.04.04-.04.04 0 0s.12-.1.08-.08l.08-.06c.08-.04.16-.08.25-.1.92-.33 2.06.24 2.54 1.05.24.5.34 1.08.24 1.63-.08.65-.22 1.27-.34 1.9l-1.47 8.08-1.44 8.07-1.47 8.06-1.48 8.06-.36 1.97c-.04.24.14.34.34.22.24-.18.4-.43.44-.73l1.5-8.27 1.5-8.22 1.49-8.26 1.5-8.22.38-2.08c.14-.63.22-1.25.22-1.88 0-.57-.2-1.12-.54-1.57a2.9 2.9 0 0 0-1.32-.87 2.4 2.4 0 0 0-1.55.04c-.5.22-.91.6-1.2 1.1-.6 1-.66 2.19-.84 3.3l-1.36 8.27-1.37 8.28-1.35 8.27-1.38 8.28-.32 2.01c0 .06 0 .24.08.26 1.35.41 2.79.57 4.2.45.26-.02.47-.3.57-.53.08-.12.22-.59-.06-.55Z" fill="#000"/>
    <path d="M160.06 114.86c-1.36.12-2.73-.03-4.04-.41l.08.26 1.33-8.14 1.33-8.1 1.34-8.14 1.33-8.14.67-4.06.06-.3.02-.07.04-.18.08-.27.02-.06.06-.14c-.04.1-.02.04.02-.02l.04-.06c.04-.08-.08.08-.02.02.02-.02.1-.12.06-.06-.04.06.06-.06.08-.08.06-.06-.04.02.04-.04.04-.04.1-.06.14-.08l.27-.1c.93-.27 2.06.34 2.48 1.17.26.53.25 1.14.16 1.7-.1.66-.22 1.29-.34 1.94-.49 2.68-.95 5.36-1.41 8.06-.47 2.68-.91 5.36-1.38 8.02-.44 2.68-.9 5.38-1.37 8.06-.47 2.68-.93 5.38-1.42 8.06-.12.65-.24 1.3-.34 1.95-.04.24.16.34.34.22.25-.18.4-.43.45-.73.5-2.74.99-5.46 1.45-8.2l1.42-8.27 1.4-8.22c.46-2.74.94-5.48 1.43-8.24l.36-2.03c.14-.63.22-1.28.26-1.93a2.66 2.66 0 0 0-.48-1.65 2.62 2.62 0 0 0-1.28-.9c-.5-.2-1.05-.21-1.57-.03-.5.2-.95.57-1.23 1.06-.63.95-.71 2.15-.9 3.22l-1.37 8.29-1.37 8.32-1.37 8.29-1.38 8.32-.32 2.01c0 .06 0 .24.08.26 1.35.41 2.79.57 4.2.45.26-.02.47-.3.57-.53.1-.08.24-.55-.02-.5Z" fill="#000"/>
    <path d="M165.53 77.88c.14.29.2.61.22.94 0 .14 0 .28-.02.42-.02.17-.04.35-.08.51l-.38 2.13.65-.79a14.95 14.95 0 0 1-3.46-.45 1.7 1.7 0 0 1-.8-.4l.07.26c.13-.69.23-1.38.35-2.07a4 4 0 0 1 .08-.47l.02-.14c0-.04.04-.1 0 .02l.02-.08.08-.3c.02-.04.04-.1.04-.15 0-.04-.06.15-.02.05l.04-.09.06-.14-.02.04.04-.06c.02-.02.12-.16.04-.06l.06-.08c.06-.08-.1.1-.02.02l.06-.06.06-.04c.08-.06-.08.04-.02.02s.08-.06.12-.08l.06-.04c-.1.06 0 0 .03 0 .1-.04.22-.08.34-.1.02 0 .08-.02.04 0h.34a2 2 0 0 1 .77.16c.52.16.97.55 1.23 1.03.12.25.45-.04.53-.16.14-.18.34-.5.22-.75a2.7 2.7 0 0 0-2.02-1.4c-.4-.06-.83 0-1.21.18-.43.22-.77.55-1.03.94a5.54 5.54 0 0 0-.75 2.4L161 80.7c-.02.14-.1.36-.02.48a1 1 0 0 0 .26.25c.2.1.42.18.65.24 1.15.3 2.34.47 3.55.47.16-.02.3-.12.39-.27.12-.16.22-.34.24-.55.14-.75.28-1.48.4-2.23s.14-1.5-.18-2.2a.16.16 0 0 0-.22-.05.9.9 0 0 0-.3.24c-.15.25-.35.57-.25.8Z" fill="#000"/>
    <path d="m165.09 82.25 2.06.3-.16-.28a59.08 59.08 0 0 1-1.01 6.98l-.06.29s-.04.16-.02.06l-.05.14-.12.57-.26 1.14c-.22.87-.44 1.72-.7 2.6-.05.16-.05.48.22.38a1 1 0 0 0 .52-.65 59.57 59.57 0 0 0 2.26-12.06c.02-.12 0-.26-.16-.28l-2.06-.3c-.1-.03-.22.07-.28.13-.12.1-.2.25-.26.39-.06.2-.19.55.08.59Zm13.6 19.43c1.37 0 2.8-.02 4.12.4a4.71 4.71 0 0 1 2.74 2.12c.61 1.1.71 2.4.81 3.63a110.1 110.1 0 0 1 .45 13.4c-.04 1.46-.08 2.92-.19 4.39a15 15 0 0 1-.22 1.88l-.02.1c.02-.07 0 .03-.02.05l-.06.22-.12.45-.04.12c-.02.04-.04.14 0 .02a.73.73 0 0 1-.08.18l-.1.2c-.04.06-.04.09-.06.1-.06.13.06-.1-.02.05l-.22.36c-.07.08.08-.12 0 0l-.07.08-.16.19-.06.06-.02.02-.16.14-.14.12-.08.08c-.02.02-.08.06-.04.02a5.3 5.3 0 0 1-1.52.81c-1.27.47-2.65.53-4 .53-1.17 0-2.4 0-3.53-.34a4.6 4.6 0 0 1-2.53-1.83 8.04 8.04 0 0 1-1.13-3.09c-.1-.58-.14-1.2-.16-1.8l-.12-2.2c-.15-2.84-.23-5.68-.16-8.52.01-1.47.1-2.93.18-4.39.04-.67.08-1.36.16-2.03a10 10 0 0 1 .38-1.87l.06-.2c0-.04.02-.06.04-.1.06-.16-.02.06.02-.04l.2-.47.05-.1s.08-.16.04-.06l.02-.02.06-.1.1-.14.06-.1c.04-.07.04-.07 0 0l.24-.31c.04-.04.08-.1.14-.14.06-.04.1-.1 0 0l.1-.1c.08-.09.19-.17.27-.27l.16-.12.06-.06c-.08.06.02-.02.04-.02.22-.17.44-.3.66-.45.07-.04.13-.08.2-.1l.09-.04h.02l.4-.18a7.13 7.13 0 0 1 3.13-.55c.25 0 .49-.33.57-.53.06-.12.18-.55-.08-.55a7.5 7.5 0 0 0-6.22 2.8 8.72 8.72 0 0 0-1.52 3.94c-.18 1.44-.3 2.9-.34 4.37-.14 2.96-.12 5.93-.02 8.9.06 1.5.12 3.02.22 4.52.02.6.08 1.22.18 1.83.1.6.26 1.2.47 1.76.38 1.1.99 2.07 1.96 2.74a6.2 6.2 0 0 0 3.15 1c.66.06 1.35.06 2.02.06.72.02 1.47-.02 2.2-.12a7.43 7.43 0 0 0 3.64-1.4 6.17 6.17 0 0 0 2.22-3.54c.32-1.34.34-2.74.4-4.12a119.68 119.68 0 0 0-.18-13.93l-.18-2.31a16 16 0 0 0-.24-2 5.91 5.91 0 0 0-.65-1.84 4.24 4.24 0 0 0-1.23-1.38 7.3 7.3 0 0 0-3.72-1.22c-.73-.06-1.43-.06-2.16-.06-.26 0-.49.33-.57.53-.06.12-.18.55.08.55l.02.02Z" fill="#000"/>
    <path d="M180.8 123.42c-.2-.26-.5-.4-.82-.4-.39.02-.77.16-1.05.42-.35.3-.63.71-.8 1.14a4.9 4.9 0 0 0-.31 1.12c-.04.34 0 .7.14 1.03.14.3.42.53.76.61.81.22 1.6-.4 1.97-1.07.26-.43.4-.92.42-1.42a4.3 4.3 0 0 0-.26-1.53c-.02-.08-.16-.08-.23-.06a.9.9 0 0 0-.3.24.85.85 0 0 0-.22.76c.1.32.18.65.2 1 .02.13 0 .25-.02.4 0 .04 0 .06-.02.1-.02.12.04-.1 0 .02l-.02.08-.02.08.02-.04-.04.06-.02.04.02-.04a.15.15 0 0 0-.04.08c-.04.08-.04.02.02-.02-.02.02-.06.06-.06.08-.06.09.02-.02.02-.02l-.08.09c.06-.05.06-.05.02 0l-.04.03-.08.05c.08-.05-.02 0-.04 0l-.16.06c-.1.04.02 0-.04 0h-.3a.92.92 0 0 1-.6-.3l-.16-.31c-.04-.1 0 .06-.02-.04l-.02-.08c-.02-.06-.02-.15-.02-.2v-.13c0-.06 0-.12.02-.18l.02-.08c-.04.12.02-.08 0 0l.07-.2c0-.05.01-.09.03-.1-.03.05-.03.07-.02.01l.1-.22c.05-.08.03.02-.01.04.02 0 .04-.08.06-.1.02-.02.08-.1.02-.04-.06.06.04-.04.04-.06-.06.06.08-.1 0 0 .02-.02.06-.08.1-.1l-.04.04.06-.05.1-.06c-.08.04 0 0 .02 0l.1-.04.1-.02c-.06.02.04 0 .04 0 .24-.04.5.06.67.25.16.2.4-.04.52-.19.1-.12.19-.26.23-.4.02-.08.06-.25-.02-.33Zm-12.66-49.68a8.4 8.4 0 0 0 5.55-2.78 6.95 6.95 0 0 0 1.74-3.19 3.18 3.18 0 0 0-.75-2.88 2.1 2.1 0 0 0-1.2-.61 2.2 2.2 0 0 0-1.3.28c-.93.51-1.6 1.75-1.15 2.79a2.26 2.26 0 0 0 2.26 1.25c1.15-.12 2.1-.89 2.83-1.74a10.34 10.34 0 0 0 2.52-7.17c-.02-.28-.34-.12-.44-.02-.22.2-.34.47-.36.77v.7c0 .24-.05.48-.06.72-.03.25-.09.5-.13.73l-.02.09a.58.58 0 0 0-.04.18l-.1.38-.1.33-.06.18-.04.08-.02.06c.02-.06.02-.08.02-.04l-.28.67c-.06.1-.1.2-.16.33l.02-.04c-.02.04-.04.06-.04.1l-.1.16c-.13.2-.27.43-.41.61-.08.12.06-.08 0 0l-.04.06-.12.16-.24.3-.1.13-.06.06-.05.04-.08.08-.14.15c-.08.08-.16.16-.26.22-.02.02-.14.12-.06.04l-.16.12-.29.18c-.04.04-.1.06-.16.09.02 0 .06-.05 0 0l-.1.04a2.4 2.4 0 0 1-1.25.2 2.12 2.12 0 0 1-1.05-.5 1.26 1.26 0 0 1-.34-.46l-.13-.26v-.04l-.02-.06c-.02-.04-.02-.1-.02-.14V66c0-.04 0-.1.02-.15 0-.02 0-.04.02-.06.02.02-.02.1 0 .04l.02-.08-.02.04.04-.06c.02-.06-.08.12-.04.06s.15-.16 0 0c.02-.02.04-.06.09-.1l-.05.04.06-.06.05-.04c.06-.06-.03.02-.05.02.03 0 .1-.06.13-.08l.1-.06c.02-.02.08-.04 0 0l.08-.04.24-.1.12-.02h.1c.18-.02.39 0 .57.04h.02l.06.02c.04.02.08.04.14.04a2.22 2.22 0 0 1 1.1 1.1l.11.26c.04.08.06.18.08.26.02.1.04.23.04.33v.28c0 .14-.02.24-.04.37l-.04.18c0-.02.02-.1 0 0l-.02.1-.1.35c-.04.1 0-.02 0-.02l-.04.08-.08.2-.08.18c-.02.02-.06.1-.02.02l-.02.04c-.06.13-.14.23-.2.33l-.1.14c-.02.02-.04.04-.04.06.1-.1.04-.06.02-.04-.08.1-.14.2-.23.3l-.22.27-.1.12c.1-.08.04-.04.02-.02l-.08.08c-.16.16-.34.33-.53.49l-.12.1-.06.04c-.1.08-.2.16-.3.22-.18.15-.38.27-.59.37-.1.06-.2.1-.28.16l-.06.04c-.06.04.08-.04-.02.02l-.18.08-.6.27a7.13 7.13 0 0 1-1.99.43c-.26.02-.46.3-.56.52 0 .15-.15.6.12.57Zm4.12 4.06c.46-.36.93-.7 1.43-1.03.47-.3.95-.57 1.48-.75a3.8 3.8 0 0 1 2.87.02c.4.18.77.46 1.03.83.12.18.22.38.28.59l.02.08c-.02-.06 0-.02 0 0l.04.16c.02.1.04.22.04.33v.22l-.02.14c0 .04 0 .06-.02.08-.02.02.04-.1 0 0l-.04.14c-.04.13.06-.12 0-.02l-.02.06-.02.07.02-.04-.04.06c-.04.06-.08.08.02-.02l-.1.12c.06-.1.06-.06.04-.04l-.06.06-.06.04c.06-.08.08-.06.04-.02l-.14.1-.04.02c.06 0 .06-.02.02 0l-.12.04a.3.3 0 0 1-.15.04l-.05.02c-.05 0-.09.02-.03 0a2.27 2.27 0 0 1-2.04-.8 1.37 1.37 0 0 1-.16-.2c-.06-.07-.1-.16-.16-.26l-.12-.26-.02-.06c0 .02.02.06 0 0a.73.73 0 0 1-.04-.2l-.04-.35v-.12c0-.06 0-.12.02-.18.02-.07.02-.13.02-.19l.02-.08c-.02.08.02-.12 0 0l.04-.16.06-.22-.02.04c0-.04.02-.06.04-.09.02-.02.04-.1.06-.16l.04-.08c.04-.08-.08.14-.02.02l.1-.16.1-.16c.06-.08-.02.04-.02.04l.06-.1.1-.13.17-.18c-.09.04-.06.06-.02.02l.06-.06.12-.12.14-.12.06-.04c.08-.06-.08.06.04-.02.16-.13.32-.23.48-.33l-.03.02.06-.02.08-.04a.72.72 0 0 1 .22-.08c.14-.06.3-.1.46-.16l1.1-.29c.86-.2 1.59-.3 2.46-.44l2.18-.3.37-.05a.82.82 0 0 0 .56-.53.82.82 0 0 0 .08-.38c-.02-.08-.06-.19-.16-.17-1.62.2-3.25.41-4.85.76a9.4 9.4 0 0 0-2.16.63 5.34 5.34 0 0 0-2.38 2.43c-.47.96-.67 2.2-.09 3.15a2.74 2.74 0 0 0 2.14 1.28c1.14.04 2.05-.88 2.35-1.91.3-1 .02-2.07-.7-2.8a3.48 3.48 0 0 0-3-.75c-1.23.2-2.32.85-3.31 1.58l-.73.55c-.24.16-.4.42-.44.73 0 .08 0 .2.08.26.06.02.16 0 .22-.06Zm-2.14 3.64a11.59 11.59 0 0 1 3.66 6.35c.03.27.3.16.44.02a1 1 0 0 0 .26-.38.84.84 0 0 0 .08-.39 11.97 11.97 0 0 0-3.82-6.66c-.06-.06-.2 0-.26.04-.12.08-.22.2-.3.33-.1.18-.26.5-.06.69Zm15.03 18.88 2.77-3.72c.1-.12.18-.26.22-.4a.45.45 0 0 0 0-.33c-.12-.22-.44.06-.52.16l-2.75 3.72a1 1 0 0 0-.22.4.44.44 0 0 0 0 .33c.12.22.42-.06.5-.16Zm1.45 1.3 2.95-1.63a.98.98 0 0 0 .45-.73c0-.08 0-.2-.08-.26s-.18 0-.26.04l-2.95 1.62a.97.97 0 0 0-.45.73c0 .09 0 .2.08.27.08.06.18 0 .26-.04Z" fill="#000"/>
  </g>
  <defs>
    <clipPath id="a">
      <path d="M0 0h190v158H0z" fill="#fff"/>
    </clipPath>
  </defs>
</svg>