<?xml version="1.0" encoding="utf-8"?>
<svg xmlns="http://www.w3.org/2000/svg" fill="none" height="291" width="329">
  <rect fill="#F7D3CF" height="291" rx="38" width="329"/>
  <path d="M82.53 206.88a5.25 5.25 0 0 1-3.76 1.36c-1.55 0-2.8-.45-3.76-1.36a4.77 4.77 0 0 1-1.44-3.64V194h1.4v9.24c0 1.12.33 2 1 2.66.66.65 1.6.98 2.8.98 1.2 0 2.13-.33 2.8-.98.66-.65 1-1.54 1-2.66V194h1.4v9.24c0 1.52-.48 2.73-1.44 3.64Zm9.6-9.12c1.43 0 2.64.5 3.64 1.52A5.06 5.06 0 0 1 97.3 203c0 1.47-.5 2.7-1.52 3.72a4.92 4.92 0 0 1-3.64 1.52 4.48 4.48 0 0 1-4.04-2.2V212h-1.32v-14h1.32v1.96a4.48 4.48 0 0 1 4.04-2.2Zm-2.9 8.06a3.8 3.8 0 0 0 2.8 1.14 3.87 3.87 0 0 0 3.94-3.96 3.8 3.8 0 0 0-1.14-2.8 3.77 3.77 0 0 0-2.8-1.16 3.8 3.8 0 0 0-2.8 1.16 3.8 3.8 0 0 0-1.14 2.8c0 1.1.38 2.05 1.14 2.82ZM99.5 208v-14.6h1.32V208H99.5Zm5.46-12.4a.92.92 0 0 1-.68.28c-.27 0-.5-.1-.68-.28a.92.92 0 0 1-.28-.68c0-.27.09-.5.28-.68a.92.92 0 0 1 .68-.28.95.95 0 0 1 .96.96c0 .27-.1.5-.28.68ZM103.6 208v-10h1.32v10h-1.32Zm9.42-8.72h-2.88v6.06c0 .55.1.94.32 1.18.21.23.53.35.96.36.42 0 .96-.01 1.6-.04V208c-1.4.21-2.45.11-3.16-.3-.7-.41-1.04-1.2-1.04-2.36v-6.06h-2.1V198h2.1v-2.4l1.32-.4v2.8h2.88v1.28Zm8.54-3.68a.92.92 0 0 1-.68.28c-.27 0-.5-.1-.68-.28a.92.92 0 0 1-.28-.68c0-.27.1-.5.28-.68a.92.92 0 0 1 .68-.28c.27 0 .5.1.68.28.19.19.28.41.28.68 0 .27-.1.5-.28.68Zm-1.34 12.4v-10h1.32v10h-1.32Zm8.8-10.24a3.7 3.7 0 0 1 2.86 1.12c.7.73 1.06 1.73 1.06 2.98V208h-1.32v-6.14c0-.9-.24-1.59-.72-2.08-.47-.5-1.13-.74-2-.74-.96 0-1.74.3-2.34.92-.6.6-.9 1.53-.9 2.8V208h-1.32v-10h1.32v1.56a3.7 3.7 0 0 1 3.36-1.8Zm12.8 1.9c.6-1.21 1.66-1.82 3.15-1.82v1.28c-.9 0-1.66.27-2.26.8-.6.53-.9 1.37-.9 2.52V208h-1.32v-10h1.32v1.66Zm8.97-1.9a4.5 4.5 0 0 1 3.58 1.58 5.4 5.4 0 0 1 1.34 4.32h-8.78a3.64 3.64 0 0 0 1.28 2.42 4.2 4.2 0 0 0 2.7.88c.77 0 1.42-.15 1.97-.46a3.2 3.2 0 0 0 1.26-1.24l1.16.68a4.74 4.74 0 0 1-1.8 1.68 5.4 5.4 0 0 1-2.6.62 5.2 5.2 0 0 1-3.84-1.48 5.1 5.1 0 0 1-1.48-3.76 5.02 5.02 0 0 1 5.22-5.24Zm0 1.28a3.76 3.76 0 0 0-3.86 3.34h7.47a3.73 3.73 0 0 0-1.22-2.46 3.53 3.53 0 0 0-2.38-.88Zm12.42-1.28c1.43 0 2.65.5 3.65 1.52a5.06 5.06 0 0 1 1.51 3.72c0 1.47-.5 2.7-1.51 3.72a4.92 4.92 0 0 1-3.65 1.52 4.48 4.48 0 0 1-4.03-2.2V212h-1.32v-14h1.31v1.96a4.48 4.48 0 0 1 4.04-2.2Zm-2.9 8.06a3.8 3.8 0 0 0 2.8 1.14 3.87 3.87 0 0 0 3.94-3.96 3.8 3.8 0 0 0-1.13-2.8 3.77 3.77 0 0 0-2.8-1.16c-1.11 0-2.04.39-2.8 1.16a3.8 3.8 0 0 0-1.15 2.8c0 1.1.38 2.05 1.14 2.82Zm14.88-8.06a4.5 4.5 0 0 1 3.58 1.58 5.4 5.4 0 0 1 1.34 4.32h-8.78a3.64 3.64 0 0 0 1.28 2.42c.73.59 1.63.88 2.7.88.76 0 1.41-.15 1.96-.46a3.2 3.2 0 0 0 1.26-1.24l1.16.68a4.74 4.74 0 0 1-1.8 1.68 5.4 5.4 0 0 1-2.6.62 5.2 5.2 0 0 1-3.84-1.48 5.1 5.1 0 0 1-1.48-3.76c0-1.5.49-2.74 1.46-3.74s2.23-1.5 3.76-1.5Zm0 1.28a3.75 3.75 0 0 0-3.86 3.34h7.46a3.73 3.73 0 0 0-1.22-2.46 3.53 3.53 0 0 0-2.38-.88Zm15.66-1.04h1.32v10h-1.32v-1.96a4.48 4.48 0 0 1-4.04 2.2 5 5 0 0 1-3.66-1.52 5.1 5.1 0 0 1-1.5-3.72c0-1.47.5-2.7 1.5-3.72a5 5 0 0 1 3.66-1.52c1.77 0 3.12.73 4.04 2.2V198Zm-6.74 7.82a3.8 3.8 0 0 0 2.8 1.14 3.87 3.87 0 0 0 3.94-3.96 3.8 3.8 0 0 0-1.14-2.8 3.77 3.77 0 0 0-2.8-1.16 3.8 3.8 0 0 0-2.8 1.16 3.8 3.8 0 0 0-1.14 2.8c0 1.1.38 2.05 1.14 2.82Zm16.15-6.54h-2.88v6.06c0 .55.11.94.32 1.18.22.23.54.35.96.36.43 0 .96-.01 1.6-.04V208c-1.4.21-2.45.11-3.16-.3-.69-.41-1.04-1.2-1.04-2.36v-6.06h-2.1V198h2.1v-2.4l1.32-.4v2.8h2.88v1.28Zm12.56-1.52c1.43 0 2.64.5 3.64 1.52A5.06 5.06 0 0 1 218 203c0 1.47-.5 2.7-1.52 3.72a4.92 4.92 0 0 1-3.64 1.52 4.48 4.48 0 0 1-4.04-2.2V208h-1.32v-14h1.32v5.96a4.48 4.48 0 0 1 4.04-2.2Zm-2.9 8.06a3.8 3.8 0 0 0 2.8 1.14 3.87 3.87 0 0 0 3.94-3.96 3.8 3.8 0 0 0-1.14-2.8 3.77 3.77 0 0 0-2.8-1.16 3.8 3.8 0 0 0-2.8 1.16 3.8 3.8 0 0 0-1.14 2.8c0 1.1.38 2.05 1.14 2.82Zm18.64.92a5.1 5.1 0 0 1-3.72 1.5 5.16 5.16 0 0 1-5.26-5.24 5 5 0 0 1 1.52-3.72 5.13 5.13 0 0 1 3.74-1.52c1.47 0 2.7.5 3.72 1.52a4.98 4.98 0 0 1 1.54 3.72c0 1.48-.51 2.73-1.54 3.74Zm-6.52-.92a3.8 3.8 0 0 0 2.8 1.14 3.87 3.87 0 0 0 3.94-3.96 3.8 3.8 0 0 0-1.14-2.8 3.77 3.77 0 0 0-2.8-1.16 3.8 3.8 0 0 0-2.8 1.16 3.8 3.8 0 0 0-1.14 2.8c0 1.1.38 2.05 1.14 2.82Zm18.65.92a5.1 5.1 0 0 1-3.72 1.5 5.16 5.16 0 0 1-5.26-5.24 5 5 0 0 1 1.52-3.72 5.13 5.13 0 0 1 3.74-1.52c1.47 0 2.7.5 3.72 1.52a4.98 4.98 0 0 1 1.54 3.72c0 1.48-.52 2.73-1.54 3.74Zm-6.52-.92a3.8 3.8 0 0 0 2.8 1.14 3.87 3.87 0 0 0 3.94-3.96 3.8 3.8 0 0 0-1.14-2.8 3.77 3.77 0 0 0-2.8-1.16 3.8 3.8 0 0 0-2.8 1.16 3.8 3.8 0 0 0-1.14 2.8c0 1.1.38 2.05 1.14 2.82Zm18.35 2.18h-1.76l-5-4.82V208h-1.32v-14h1.32v8.42l4.76-4.42h1.8l-5.16 4.8 5.36 5.2Zm3.14-12.4a.93.93 0 0 1-.68.28c-.27 0-.5-.1-.68-.28a.92.92 0 0 1-.28-.68c0-.27.1-.5.28-.68a.92.92 0 0 1 .68-.28c.27 0 .5.1.68.28.19.19.28.41.28.68 0 .27-.1.5-.28.68Zm-1.34 12.4v-10h1.32v10h-1.32Zm8.8-10.24a3.7 3.7 0 0 1 2.86 1.12c.7.73 1.06 1.73 1.06 2.98V208h-1.32v-6.14c0-.9-.24-1.59-.72-2.08-.47-.5-1.13-.74-2-.74-.96 0-1.74.3-2.34.92-.6.6-.9 1.53-.9 2.8V208h-1.32v-10h1.32v1.56a3.7 3.7 0 0 1 3.36-1.8Zm15.07.24h1.32v9.6a4.2 4.2 0 0 1-1.48 3.4 5.33 5.33 0 0 1-3.54 1.24c-2.34 0-3.92-.81-4.74-2.44l1.16-.66c.6 1.21 1.8 1.82 3.58 1.82 1.15 0 2.05-.3 2.7-.92.67-.6 1-1.41 1-2.44v-1.56a4.48 4.48 0 0 1-4.04 2.2c-1.42 0-2.64-.5-3.66-1.52A5.1 5.1 0 0 1 269 203c0-1.47.5-2.7 1.5-3.72a4.99 4.99 0 0 1 3.66-1.52c1.78 0 3.12.73 4.04 2.2V198Zm-6.74 7.82a3.8 3.8 0 0 0 2.8 1.14 3.87 3.87 0 0 0 3.94-3.96 3.8 3.8 0 0 0-1.14-2.8 3.77 3.77 0 0 0-2.8-1.16 3.8 3.8 0 0 0-2.8 1.16 3.8 3.8 0 0 0-1.14 2.8c0 1.1.38 2.05 1.14 2.82Zm11.9-5.2c0 .45.2.81.6 1.08.4.27.89.47 1.46.62.57.15 1.14.31 1.72.5.57.17 1.06.47 1.46.9.4.41.6.96.6 1.64 0 .85-.34 1.55-1.02 2.08-.67.53-1.54.8-2.6.8a4.5 4.5 0 0 1-2.46-.64 3.44 3.44 0 0 1-1.4-1.66l1.12-.66c.19.52.52.93 1 1.24.5.3 1.07.44 1.74.44.65 0 1.2-.13 1.64-.38.44-.27.66-.67.66-1.22 0-.45-.2-.81-.6-1.08-.4-.27-.89-.47-1.46-.62-.57-.15-1.15-.3-1.72-.48a3.52 3.52 0 0 1-1.46-.9c-.4-.43-.6-.98-.6-1.66 0-.81.32-1.5.96-2.04a3.7 3.7 0 0 1 2.46-.82c.81 0 1.53.19 2.14.56.61.36 1.06.85 1.36 1.48l-1.1.64c-.39-.93-1.19-1.4-2.4-1.4-.57 0-1.07.14-1.48.42a1.3 1.3 0 0 0-.62 1.16ZM51.68 223h1.36l-3.08 10h-1.44l-2.58-8.06-2.58 8.06h-1.44l-3.08-10h1.36l2.46 8.3 2.62-8.3h1.32l2.62 8.3 2.46-8.3Zm4.7-2.4a.92.92 0 0 1-.69.28.97.97 0 0 1-.68-.28.93.93 0 0 1-.28-.68c0-.27.1-.5.28-.68a.92.92 0 0 1 .68-.28c.27 0 .5.1.68.28.19.19.28.41.28.68a.9.9 0 0 1-.28.68ZM55.02 233v-10h1.32v10h-1.32Zm9.42-8.72h-2.88v6.06c0 .55.11.94.32 1.18.22.23.54.35.96.36.43 0 .96-.01 1.6-.04V233c-1.4.21-2.45.11-3.16-.3-.69-.41-1.04-1.2-1.04-2.36v-6.06h-2.1V223h2.1v-2.4l1.32-.4v2.8h2.88v1.28Zm6.88-1.52c1.22 0 2.17.37 2.86 1.12a4.1 4.1 0 0 1 1.06 2.98V233h-1.32v-6.14c0-.9-.24-1.59-.72-2.08-.46-.5-1.13-.74-2-.74-.96 0-1.74.3-2.34.92-.6.6-.9 1.53-.9 2.8V233h-1.32v-14h1.32v5.56a3.7 3.7 0 0 1 3.36-1.8Zm16.84 0c1.42 0 2.64.5 3.64 1.52a5.06 5.06 0 0 1 1.52 3.72c0 1.47-.51 2.7-1.52 3.72a4.92 4.92 0 0 1-3.64 1.52 4.48 4.48 0 0 1-4.04-2.2V233H82.8v-14h1.32v5.96a4.48 4.48 0 0 1 4.04-2.2Zm-2.9 8.06a3.8 3.8 0 0 0 2.8 1.14A3.87 3.87 0 0 0 92 228a3.8 3.8 0 0 0-1.14-2.8 3.77 3.77 0 0 0-2.8-1.16c-1.11 0-2.04.39-2.8 1.16a3.8 3.8 0 0 0-1.14 2.8c0 1.1.38 2.05 1.14 2.82Zm17.3-7.82h1.31v10h-1.32v-1.56a3.7 3.7 0 0 1-3.36 1.8 3.81 3.81 0 0 1-2.88-1.1 4.23 4.23 0 0 1-1.04-3V223h1.32v6.14c0 .9.23 1.59.7 2.08.48.5 1.15.74 2.02.74.96 0 1.74-.3 2.34-.9.6-.61.9-1.55.9-2.82V223Zm11.3 0h1.4L111 233.92a5.3 5.3 0 0 1-1.66 2.32c-.7.57-1.5.83-2.38.76v-1.24c1.2.13 2.12-.56 2.74-2.08l.26-.62-4.48-10.06h1.4l3.76 8.38 3.24-8.38Zm16.6 0h1.32v10h-1.32v-1.96a4.48 4.48 0 0 1-4.04 2.2c-1.43 0-2.65-.5-3.66-1.52a5.1 5.1 0 0 1-1.5-3.72c0-1.47.5-2.7 1.5-3.72a4.99 4.99 0 0 1 3.66-1.52c1.77 0 3.12.73 4.04 2.2V223Zm-6.74 7.82a3.8 3.8 0 0 0 2.8 1.14 3.87 3.87 0 0 0 3.94-3.96 3.8 3.8 0 0 0-1.14-2.8 3.78 3.78 0 0 0-2.8-1.16 3.8 3.8 0 0 0-2.8 1.16 3.8 3.8 0 0 0-1.14 2.8c0 1.1.38 2.05 1.14 2.82Zm19.45-7.82h1.32v9.6a4.2 4.2 0 0 1-1.48 3.4 5.33 5.33 0 0 1-3.54 1.24c-2.34 0-3.92-.81-4.74-2.44l1.16-.66c.6 1.21 1.8 1.82 3.58 1.82a3.8 3.8 0 0 0 2.7-.92c.67-.6 1-1.41 1-2.44v-1.56a4.48 4.48 0 0 1-4.04 2.2c-1.42 0-2.64-.5-3.66-1.52a5.1 5.1 0 0 1-1.5-3.72c0-1.47.5-2.7 1.5-3.72a4.99 4.99 0 0 1 3.66-1.52c1.78 0 3.12.73 4.04 2.2V223Zm-6.74 7.82a3.8 3.8 0 0 0 2.8 1.14 3.87 3.87 0 0 0 3.94-3.96 3.8 3.8 0 0 0-1.14-2.8 3.78 3.78 0 0 0-2.8-1.16 3.8 3.8 0 0 0-2.8 1.16 3.8 3.8 0 0 0-1.14 2.8c0 1.1.38 2.05 1.14 2.82ZM155.9 223h1.32v10h-1.32v-1.96a4.48 4.48 0 0 1-4.04 2.2 5 5 0 0 1-3.66-1.52 5.1 5.1 0 0 1-1.5-3.72c0-1.47.5-2.7 1.5-3.72a5 5 0 0 1 3.66-1.52c1.77 0 3.12.73 4.04 2.2V223Zm-6.74 7.82a3.8 3.8 0 0 0 2.8 1.14 3.87 3.87 0 0 0 3.94-3.96 3.8 3.8 0 0 0-1.14-2.8 3.77 3.77 0 0 0-2.8-1.16 3.8 3.8 0 0 0-2.8 1.16 3.8 3.8 0 0 0-1.14 2.8c0 1.1.38 2.05 1.14 2.82Zm12.2-10.22a.92.92 0 0 1-.69.28.97.97 0 0 1-.68-.28.93.93 0 0 1-.28-.68c0-.27.1-.5.28-.68a.93.93 0 0 1 .68-.28c.27 0 .5.1.68.28.19.19.28.41.28.68a.9.9 0 0 1-.28.68ZM160 233v-10h1.32v10H160Zm8.8-10.24a3.7 3.7 0 0 1 2.86 1.12 4.1 4.1 0 0 1 1.06 2.98V233h-1.32v-6.14c0-.9-.24-1.59-.72-2.08-.46-.5-1.13-.74-2-.74-.96 0-1.74.3-2.34.92-.6.6-.9 1.53-.9 2.8V233h-1.32v-10h1.32v1.56a3.7 3.7 0 0 1 3.36-1.8Zm13.64 3.08c0 .27.17.49.52.66.36.16.79.3 1.3.44.5.12 1.01.28 1.52.48.5.19.93.5 1.28.96.36.45.54 1.02.54 1.7 0 1.03-.39 1.82-1.16 2.38-.76.55-1.72.82-2.86.82-2.06 0-3.46-.8-4.2-2.38l2.24-1.26c.29.87.94 1.3 1.96 1.3.92 0 1.38-.29 1.38-.86 0-.27-.18-.48-.54-.64a6.73 6.73 0 0 0-1.28-.46c-.51-.13-1.02-.3-1.52-.5-.51-.2-.94-.51-1.3-.94a2.57 2.57 0 0 1-.52-1.64c0-.99.36-1.76 1.08-2.32a4.28 4.28 0 0 1 2.72-.86c.81 0 1.55.19 2.22.56.66.36 1.19.88 1.58 1.56l-2.2 1.2a1.65 1.65 0 0 0-1.6-1.02c-.34 0-.62.07-.84.22a.69.69 0 0 0-.32.6Zm13.42-2.84h2.58v10h-2.58v-1.12c-.63.93-1.62 1.4-2.98 1.4-1.1 0-2-.37-2.72-1.1a4.2 4.2 0 0 1-1.06-3.04V223h2.58v5.82c0 .67.18 1.18.54 1.54.36.35.84.52 1.44.52.66 0 1.2-.2 1.6-.62.4-.41.6-1.03.6-1.86V223Zm12.6 0h2.52v9.52c0 1.55-.51 2.73-1.54 3.54a5.7 5.7 0 0 1-3.68 1.22c-1.08 0-2.03-.2-2.86-.62a4.35 4.35 0 0 1-1.88-1.82l2.2-1.26c.5.93 1.38 1.4 2.62 1.4.81 0 1.45-.21 1.92-.64.47-.43.7-1.03.7-1.82v-1.08a3.77 3.77 0 0 1-3.2 1.52 4.8 4.8 0 0 1-3.56-1.48 5.1 5.1 0 0 1-1.42-3.64 5.04 5.04 0 0 1 4.98-5.12c1.37 0 2.44.5 3.2 1.52V223Zm-4.82 6.82c.53.5 1.2.76 2.02.76a2.66 2.66 0 0 0 2.8-2.74 2.7 2.7 0 0 0-2.8-2.72c-.81 0-1.49.26-2.02.78a2.6 2.6 0 0 0-.78 1.94c0 .8.26 1.46.78 1.98Zm17.34-6.82h2.52v9.52c0 1.55-.51 2.73-1.54 3.54a5.7 5.7 0 0 1-3.68 1.22c-1.08 0-2.03-.2-2.86-.62a4.35 4.35 0 0 1-1.88-1.82l2.2-1.26c.5.93 1.38 1.4 2.62 1.4.81 0 1.45-.21 1.92-.64.47-.43.7-1.03.7-1.82v-1.08a3.77 3.77 0 0 1-3.2 1.52 4.8 4.8 0 0 1-3.56-1.48 5.1 5.1 0 0 1-1.42-3.64 5.04 5.04 0 0 1 4.98-5.12c1.37 0 2.44.5 3.2 1.52V223Zm-4.82 6.82c.53.5 1.2.76 2.02.76a2.66 2.66 0 0 0 2.8-2.74 2.7 2.7 0 0 0-2.8-2.72c-.81 0-1.49.26-2.02.78a2.6 2.6 0 0 0-.78 1.94c0 .8.26 1.46.78 1.98Zm11.86-.76c.34 1.25 1.28 1.88 2.82 1.88.99 0 1.73-.33 2.24-1l2.08 1.2a4.96 4.96 0 0 1-4.36 2.14c-1.66 0-2.98-.5-3.98-1.5s-1.5-2.26-1.5-3.78a5.13 5.13 0 0 1 5.28-5.28c1.46 0 2.67.5 3.62 1.52a5.26 5.26 0 0 1 1.44 3.76 6 6 0 0 1-.1 1.06h-7.54Zm-.04-2h5.1a2.4 2.4 0 0 0-.92-1.52c-.45-.33-.97-.5-1.56-.5a2.5 2.5 0 0 0-2.62 2.02Zm11.47-1.22c0 .27.17.49.52.66.36.16.8.3 1.3.44.5.12 1.01.28 1.52.48.5.19.93.5 1.28.96.36.45.54 1.02.54 1.7 0 1.03-.39 1.82-1.16 2.38-.76.55-1.72.82-2.86.82-2.06 0-3.45-.8-4.2-2.38l2.24-1.26c.3.87.95 1.3 1.96 1.3.92 0 1.38-.29 1.38-.86 0-.27-.18-.48-.54-.64a6.67 6.67 0 0 0-1.28-.46c-.5-.13-1.01-.3-1.52-.5-.5-.2-.94-.51-1.3-.94a2.57 2.57 0 0 1-.52-1.64c0-.99.36-1.76 1.08-2.32a4.28 4.28 0 0 1 2.72-.86c.81 0 1.55.19 2.22.56.66.36 1.2.88 1.58 1.56l-2.2 1.2a1.65 1.65 0 0 0-1.6-1.02c-.34 0-.62.07-.84.22a.7.7 0 0 0-.32.6Zm12.25-.36h-2.27v4.16c0 .35.1.6.27.76.17.16.42.25.75.28.34.01.75 0 1.25-.02V233c-1.78.2-3.03.03-3.77-.5-.72-.53-1.07-1.49-1.07-2.86v-4.16h-1.75V223h1.75v-2.02l2.57-.78v2.8h2.27v2.48Zm3.1-3.68a1.57 1.57 0 0 1-1.59-1.58c0-.43.16-.8.46-1.12a1.55 1.55 0 0 1 2.24 0 1.53 1.53 0 0 1 0 2.24c-.3.3-.68.46-1.12.46Zm-1.29 11.2v-10h2.58v10h-2.58Zm13.47-1.24a5.15 5.15 0 0 1-3.76 1.52 5.15 5.15 0 0 1-5.29-5.28 5.1 5.1 0 0 1 1.52-3.74 5.11 5.11 0 0 1 3.77-1.54c1.47 0 2.73.51 3.75 1.54a5.05 5.05 0 0 1 1.54 3.74 5.1 5.1 0 0 1-1.53 3.76Zm-5.7-1.78a2.6 2.6 0 0 0 1.94.78 2.68 2.68 0 0 0 2.72-2.76 2.68 2.68 0 0 0-2.72-2.76 2.63 2.63 0 0 0-2.7 2.76c0 .8.25 1.46.76 1.98Zm14.61-7.26c1.1 0 2 .37 2.7 1.1a4.15 4.15 0 0 1 1.08 3.04V233h-2.58v-5.82c0-.67-.18-1.17-.54-1.52a1.95 1.95 0 0 0-1.44-.54c-.67 0-1.2.2-1.6.62-.4.41-.6 1.03-.6 1.86v5.4h-2.58v-10h2.58v1.12c.63-.93 1.62-1.4 2.98-1.4Zm8.36 3.12c0 .27.18.49.52.66.36.16.8.3 1.3.44.51.12 1.02.28 1.52.48a2.74 2.74 0 0 1 1.82 2.66c0 1.03-.38 1.82-1.16 2.38-.76.55-1.71.82-2.86.82-2.05 0-3.45-.8-4.2-2.38l2.24-1.26c.3.87.95 1.3 1.96 1.3.92 0 1.38-.29 1.38-.86 0-.27-.18-.48-.54-.64a6.7 6.7 0 0 0-1.28-.46c-.5-.13-1.01-.3-1.52-.5-.5-.2-.94-.51-1.3-.94a2.57 2.57 0 0 1-.52-1.64c0-.99.36-1.76 1.08-2.32a4.28 4.28 0 0 1 2.72-.86c.82 0 1.56.19 2.22.56.67.36 1.2.88 1.58 1.56l-2.2 1.2a1.65 1.65 0 0 0-1.6-1.02c-.33 0-.61.07-.84.22a.7.7 0 0 0-.32.6Zm-86.82-98.44h9.86V168h-11.6v-28.48l-7.02 1.68-2.67-9.68 11.43-4.12Zm11 0h28.42v9.51L224.8 168h-12.76l11.37-29.35h-14.97V127.4Zm40.33 21.11c-3.21 0-5.9-1.06-8.07-3.19a10.67 10.67 0 0 1-3.24-7.83 10.5 10.5 0 0 1 3.24-7.77 10.95 10.95 0 0 1 8.07-3.25 10.7 10.7 0 0 1 7.94 3.25 10.48 10.48 0 0 1 3.25 7.77c0 3.06-1.08 5.67-3.25 7.83a10.79 10.79 0 0 1-7.94 3.2Zm-3.95 13.05 27.26-28.88 4.24 2.43-27.32 28.83-4.18-2.38Zm1.86-21.98c.54.54 1.22.81 2.03.81a2.9 2.9 0 0 0 2.84-2.9c0-.81-.27-1.49-.81-2.03a2.66 2.66 0 0 0-2.03-.87c-.81 0-1.5.3-2.03.87-.5.54-.76 1.22-.76 2.03 0 .81.25 1.51.76 2.09Zm26.45 29.35c-3.21 0-5.9-1.06-8.07-3.2a10.67 10.67 0 0 1-3.24-7.82c0-3.06 1.08-5.65 3.24-7.77a10.95 10.95 0 0 1 8.07-3.25c3.17 0 5.81 1.08 7.94 3.25a10.48 10.48 0 0 1 3.25 7.77c0 3.05-1.08 5.66-3.25 7.83a10.79 10.79 0 0 1-7.94 3.19Zm-2.1-8.93c.55.54 1.23.8 2.04.8s1.49-.28 2.03-.86a2.9 2.9 0 0 0 .81-2.03c0-.81-.27-1.5-.81-2.03a2.66 2.66 0 0 0-2.03-.87c-.81 0-1.5.29-2.03.87-.5.54-.76 1.22-.76 2.03 0 .81.25 1.5.76 2.09Z" fill="#141414"/>
  <g clip-path="url(#a)">
    <path d="m46.06 95.8 2.5-.66-8.7-32.44-2.5.67a5.17 5.17 0 0 0-3.65 6.33l6.02 22.45a5.17 5.17 0 0 0 6.33 3.66Zm31.23-43.13-17.47 4.68.55-9.15a5.17 5.17 0 0 0-6.5-5.3l-.56.15-8.84 16.91 9.07 33.84L81 86.45l4-24.07-.05-1.07-1.33-4.99a5.17 5.17 0 0 0-6.33-3.65Z" fill="#CC7066"/>
  </g>
  <defs>
    <clipPath id="a">
      <path d="m22.03 46.08 59.9-16.05 16.04 59.89-59.89 16.05z" fill="#fff"/>
    </clipPath>
  </defs>
</svg>