<?xml version="1.0" encoding="utf-8"?>
<svg xmlns="http://www.w3.org/2000/svg" fill="none" height="301" width="507">
  <path d="M0 38A38 38 0 0 1 38 0h431a38 38 0 0 1 38 38v225a38 38 0 0 1-38 38H38a38 38 0 0 1-38-38V38Z" fill="#C8DBD4"/>
  <path d="M360.58 177v-8.47l13.23-14.32a47.22 47.22 0 0 1 1.91-2.1c.2-.19.43-.44.7-.75a3.73 3.73 0 0 0 .87-1.5c.11-.28.17-.55.17-.82 0-.65-.23-1.2-.7-1.62-.46-.46-1.13-.7-2.02-.7-2.17 0-3.77 1.38-4.82 4.12l-10.2-5.57a15.46 15.46 0 0 1 5.97-7.3 16.44 16.44 0 0 1 8.87-2.5c3.99 0 7.39 1.14 10.21 3.42 2.86 2.25 4.3 5.36 4.3 9.34 0 2.44-.55 4.56-1.63 6.38a41.5 41.5 0 0 1-4.99 6.56l-4.12 4.58h11.6V177h-29.35Zm46.16-26.39c4.02 0 7.35 1.14 9.98 3.42 2.63 2.25 3.94 5.5 3.94 9.75 0 4.52-1.43 8.02-4.3 10.5-2.85 2.43-6.45 3.65-10.78 3.65-3.83 0-7.11-.81-9.86-2.44a13.48 13.48 0 0 1-5.8-7.19l10.2-5.86c.82 2.82 2.64 4.24 5.46 4.24a3.8 3.8 0 0 0 2.5-.76c.65-.5.98-1.23.98-2.2 0-1.9-1.16-2.84-3.48-2.84h-13.34l1.68-24.48h24.42v11.25h-13.8l-.24 2.96h2.44Zm24.96 6.9c-3.21 0-5.9-1.06-8.07-3.19a10.67 10.67 0 0 1-3.24-7.83 10.5 10.5 0 0 1 3.24-7.77 10.95 10.95 0 0 1 8.07-3.25c3.17 0 5.82 1.09 7.94 3.25a10.48 10.48 0 0 1 3.25 7.77c0 3.06-1.08 5.67-3.25 7.83a10.78 10.78 0 0 1-7.94 3.2Zm-3.95 13.05 27.26-28.88 4.24 2.43-27.32 28.83-4.18-2.38Zm1.86-21.98c.54.54 1.22.81 2.03.81a2.9 2.9 0 0 0 2.84-2.9c0-.81-.27-1.49-.81-2.03a2.66 2.66 0 0 0-2.03-.87c-.81 0-1.49.3-2.03.87-.5.54-.76 1.22-.76 2.03 0 .81.26 1.51.76 2.09Zm26.45 29.35c-3.21 0-5.9-1.06-8.07-3.2a10.67 10.67 0 0 1-3.24-7.82c0-3.06 1.08-5.65 3.24-7.77a10.95 10.95 0 0 1 8.07-3.25c3.17 0 5.82 1.08 7.94 3.25a10.48 10.48 0 0 1 3.25 7.77c0 3.05-1.08 5.66-3.25 7.83a10.78 10.78 0 0 1-7.94 3.19Zm-2.1-8.93c.55.54 1.23.8 2.04.8s1.49-.28 2.03-.86a2.9 2.9 0 0 0 .81-2.03c0-.81-.27-1.5-.81-2.03A2.66 2.66 0 0 0 456 164c-.81 0-1.49.29-2.03.87-.5.54-.76 1.22-.76 2.03 0 .81.26 1.5.76 2.09Zm-340.21 38.76c1.12 0 2.02.36 2.7 1.08.7.72 1.04 1.7 1.04 2.92V218h-1.32v-6.24c0-.87-.23-1.53-.68-2a2.27 2.27 0 0 0-1.76-.72c-.83 0-1.5.28-2.02.84-.5.55-.76 1.4-.76 2.58V218h-1.32v-6.24c0-.88-.21-1.55-.64-2.02-.41-.47-.98-.7-1.7-.7-.8 0-1.48.28-2.04.84-.56.56-.84 1.42-.84 2.58V218h-1.32v-10h1.32v1.46a3.43 3.43 0 0 1 3.06-1.7c1.44 0 2.45.6 3.04 1.82a3.53 3.53 0 0 1 3.24-1.82Zm14.68 8.98a5.1 5.1 0 0 1-3.73 1.5 5.16 5.16 0 0 1-5.26-5.24 5 5 0 0 1 1.53-3.72 5.13 5.13 0 0 1 3.73-1.52c1.47 0 2.71.5 3.73 1.52a4.99 4.99 0 0 1 1.53 3.72c0 1.48-.5 2.73-1.53 3.74Zm-6.53-.92a3.8 3.8 0 0 0 2.8 1.14 3.87 3.87 0 0 0 3.94-3.96 3.8 3.8 0 0 0-1.13-2.8 3.78 3.78 0 0 0-2.8-1.16c-1.11 0-2.04.39-2.8 1.16a3.8 3.8 0 0 0-1.14 2.8c0 1.1.38 2.05 1.14 2.82Zm11.6-6.16c.6-1.21 1.66-1.82 3.15-1.82v1.28c-.9 0-1.66.27-2.26.8-.6.53-.9 1.37-.9 2.52V218h-1.32v-10h1.32v1.66Zm8.98-1.9a4.5 4.5 0 0 1 3.58 1.58 5.4 5.4 0 0 1 1.34 4.32h-8.78a3.64 3.64 0 0 0 1.28 2.42c.73.59 1.63.88 2.7.88.76 0 1.41-.15 1.96-.46a3.2 3.2 0 0 0 1.26-1.24l1.16.68a4.74 4.74 0 0 1-1.8 1.68 5.4 5.4 0 0 1-2.6.62 5.2 5.2 0 0 1-3.84-1.48 5.1 5.1 0 0 1-1.48-3.76c0-1.5.48-2.74 1.46-3.74a5 5 0 0 1 3.76-1.5Zm0 1.28a3.76 3.76 0 0 0-3.86 3.34h7.46a3.73 3.73 0 0 0-1.22-2.46 3.53 3.53 0 0 0-2.38-.88Zm16.68-1.28a4.5 4.5 0 0 1 3.58 1.58 5.4 5.4 0 0 1 1.34 4.32h-8.78a3.64 3.64 0 0 0 1.28 2.42c.73.59 1.63.88 2.7.88.76 0 1.41-.15 1.96-.46a3.2 3.2 0 0 0 1.26-1.24l1.16.68a4.74 4.74 0 0 1-1.8 1.68 5.4 5.4 0 0 1-2.6.62 5.2 5.2 0 0 1-3.84-1.48 5.1 5.1 0 0 1-1.48-3.76c0-1.5.48-2.74 1.46-3.74a5 5 0 0 1 3.76-1.5Zm0 1.28a3.75 3.75 0 0 0-3.86 3.34h7.46a3.73 3.73 0 0 0-1.22-2.46 3.53 3.53 0 0 0-2.38-.88Zm15.66-1.04h1.32v10h-1.32v-1.96a4.48 4.48 0 0 1-4.04 2.2 5 5 0 0 1-3.66-1.52 5.1 5.1 0 0 1-1.5-3.72c0-1.47.5-2.7 1.5-3.72a5 5 0 0 1 3.66-1.52c1.77 0 3.12.73 4.04 2.2V208Zm-6.74 7.82a3.8 3.8 0 0 0 2.8 1.14 3.87 3.87 0 0 0 3.94-3.96 3.8 3.8 0 0 0-1.14-2.8 3.77 3.77 0 0 0-2.8-1.16c-1.11 0-2.04.39-2.8 1.16a3.8 3.8 0 0 0-1.14 2.8c0 1.1.38 2.05 1.14 2.82Zm12.17-6.16c.62-1.21 1.67-1.82 3.16-1.82v1.28c-.9 0-1.66.27-2.26.8-.6.53-.9 1.37-.9 2.52V218h-1.32v-10h1.32v1.66Zm9.65-1.9a3.7 3.7 0 0 1 2.86 1.12c.7.73 1.06 1.73 1.06 2.98V218h-1.32v-6.14c0-.9-.24-1.59-.72-2.08-.47-.5-1.13-.74-2-.74-.96 0-1.74.3-2.34.92-.6.6-.9 1.53-.9 2.8V218h-1.32v-10h1.32v1.56a3.7 3.7 0 0 1 3.36-1.8Zm7.81-2.16a.93.93 0 0 1-.68.28c-.26 0-.5-.1-.68-.28a.92.92 0 0 1-.28-.68c0-.27.1-.5.28-.68a.92.92 0 0 1 .68-.28c.27 0 .5.1.68.28.19.19.28.41.28.68 0 .27-.1.5-.28.68Zm-1.34 12.4v-10h1.32v10h-1.32Zm8.8-10.24c1.22 0 2.17.37 2.86 1.12a4.1 4.1 0 0 1 1.06 2.98V218h-1.32v-6.14c0-.9-.24-1.59-.72-2.08-.46-.5-1.13-.74-2-.74-.96 0-1.74.3-2.34.92-.6.6-.9 1.53-.9 2.8V218h-1.32v-10h1.32v1.56a3.7 3.7 0 0 1 3.36-1.8Zm15.08.24h1.32v9.6a4.2 4.2 0 0 1-1.48 3.4 5.33 5.33 0 0 1-3.54 1.24c-2.35 0-3.93-.81-4.74-2.44l1.16-.66c.6 1.21 1.79 1.82 3.58 1.82 1.14 0 2.04-.3 2.7-.92.66-.6 1-1.41 1-2.44v-1.56a4.48 4.48 0 0 1-4.04 2.2c-1.43 0-2.65-.5-3.66-1.52a5.1 5.1 0 0 1-1.5-3.72c0-1.47.5-2.7 1.5-3.72a4.99 4.99 0 0 1 3.66-1.52c1.77 0 3.12.73 4.04 2.2V208Zm-6.74 7.82a3.8 3.8 0 0 0 2.8 1.14 3.87 3.87 0 0 0 3.94-3.96 3.8 3.8 0 0 0-1.14-2.8 3.77 3.77 0 0 0-2.8-1.16c-1.11 0-2.04.39-2.8 1.16a3.8 3.8 0 0 0-1.14 2.8c0 1.1.38 2.05 1.14 2.82Zm11.9-5.2c0 .45.2.81.6 1.08.4.27.88.47 1.45.62.57.15 1.15.31 1.72.5.57.17 1.06.47 1.46.9.4.41.6.96.6 1.64 0 .85-.34 1.55-1.02 2.08-.67.53-1.53.8-2.6.8a4.5 4.5 0 0 1-2.46-.64 3.44 3.44 0 0 1-1.4-1.66l1.12-.66c.19.52.52.93 1 1.24.5.3 1.07.44 1.74.44.65 0 1.2-.13 1.64-.38.44-.27.66-.67.66-1.22 0-.45-.2-.81-.6-1.08-.4-.27-.89-.47-1.46-.62-.57-.15-1.15-.3-1.72-.48a3.52 3.52 0 0 1-1.46-.9c-.4-.43-.6-.98-.6-1.66 0-.81.32-1.5.96-2.04a3.7 3.7 0 0 1 2.46-.82c.81 0 1.53.19 2.14.56a3.3 3.3 0 0 1 1.36 1.48l-1.1.64c-.39-.93-1.19-1.4-2.4-1.4-.57 0-1.07.14-1.48.42a1.3 1.3 0 0 0-.62 1.16Zm25.07-2.62h1.36l-3.08 10h-1.44l-2.58-8.06-2.58 8.06h-1.44l-3.08-10H239l2.46 8.3 2.62-8.3h1.32l2.62 8.3 2.46-8.3Zm4.7-2.4a.93.93 0 0 1-.69.28.97.97 0 0 1-.68-.28.92.92 0 0 1-.28-.68c0-.27.1-.5.28-.68a.92.92 0 0 1 .68-.28c.27 0 .5.1.68.28.19.19.28.41.28.68a.9.9 0 0 1-.28.68Zm-1.35 12.4v-10h1.32v10h-1.32Zm9.42-8.72h-2.88v6.06c0 .55.11.94.32 1.18.22.23.54.35.96.36.43 0 .97-.01 1.6-.04V218c-1.4.21-2.45.11-3.15-.3-.7-.41-1.05-1.2-1.05-2.36v-6.06h-2.1V208h2.1v-2.4l1.32-.4v2.8h2.88v1.28Zm6.88-1.52c1.22 0 2.17.37 2.87 1.12.7.73 1.06 1.73 1.06 2.98V218h-1.32v-6.14c0-.9-.25-1.59-.73-2.08-.46-.5-1.13-.74-2-.74-.95 0-1.74.3-2.33.92-.6.6-.9 1.53-.9 2.8V218h-1.32v-14h1.31v5.56a3.7 3.7 0 0 1 3.37-1.8Zm17.08-.04c1.34 0 2.49.51 3.44 1.54a5.23 5.23 0 0 1 1.44 3.74 5.3 5.3 0 0 1-1.44 3.76 4.54 4.54 0 0 1-3.44 1.52c-1.4 0-2.48-.49-3.24-1.46V222h-2.58v-14h2.58v1.18a3.87 3.87 0 0 1 3.24-1.46Zm-2.46 7.32c.52.52 1.18.78 1.98.78s1.46-.26 1.98-.78c.53-.53.8-1.21.8-2.04 0-.83-.27-1.5-.8-2.02a2.65 2.65 0 0 0-1.98-.8c-.8 0-1.46.27-1.98.8-.52.52-.78 1.2-.78 2.02 0 .83.26 1.5.78 2.04ZM301.5 208h2.58v10h-2.58v-1.18a3.93 3.93 0 0 1-3.26 1.46c-1.34 0-2.48-.5-3.44-1.52a5.34 5.34 0 0 1-1.42-3.76c0-1.48.47-2.73 1.42-3.74a4.55 4.55 0 0 1 3.44-1.54c1.4 0 2.48.49 3.26 1.46V208Zm-4.76 7.04c.52.52 1.18.78 1.98.78s1.46-.26 1.98-.78c.53-.53.8-1.21.8-2.04 0-.83-.27-1.5-.8-2.02a2.65 2.65 0 0 0-1.98-.8c-.8 0-1.46.27-1.98.8-.52.52-.78 1.2-.78 2.02 0 .83.26 1.5.78 2.04Zm16.2-7.04h2.76l-3.64 10a6.48 6.48 0 0 1-2.08 3.12 4.7 4.7 0 0 1-3.2.88v-2.4c.69.01 1.24-.13 1.64-.44.4-.3.74-.8.98-1.48l-4.1-9.68h2.82l2.6 6.72 2.22-6.72Zm20.24 0h2.74l-3.18 10h-2.46l-1.84-6.06-1.84 6.06h-2.46l-3.18-10h2.74l1.7 6.14 1.82-6.14h2.44l1.82 6.16 1.7-6.16Zm9.7-.28c1.09 0 1.99.37 2.7 1.1a4.15 4.15 0 0 1 1.08 3.04V218h-2.59v-5.82c0-.67-.18-1.17-.53-1.52a1.95 1.95 0 0 0-1.44-.54c-.67 0-1.2.2-1.6.62-.4.41-.6 1.03-.6 1.86v5.4h-2.59v-14h2.58v5.12c.63-.93 1.63-1.4 2.99-1.4Zm13.58.28h2.58v10h-2.58v-1.18a3.93 3.93 0 0 1-3.26 1.46c-1.34 0-2.48-.5-3.44-1.52a5.34 5.34 0 0 1-1.42-3.76c0-1.48.47-2.73 1.42-3.74a4.55 4.55 0 0 1 3.44-1.54c1.4 0 2.48.49 3.26 1.46V208Zm-4.76 7.04c.52.52 1.18.78 1.98.78s1.46-.26 1.98-.78c.53-.53.8-1.21.8-2.04 0-.83-.27-1.5-.8-2.02a2.65 2.65 0 0 0-1.98-.8c-.8 0-1.46.27-1.98.8-.52.52-.78 1.2-.78 2.02 0 .83.26 1.5.78 2.04Zm15.4-4.56h-2.26v4.16c0 .35.08.6.26.76.17.16.42.25.76.28.33.01.74 0 1.24-.02V218c-1.78.2-3.03.03-3.76-.5-.72-.53-1.08-1.49-1.08-2.86v-4.16h-1.74V208h1.74v-2.02l2.58-.78v2.8h2.26v2.48Zm13.5-2.48h2.75l-3.64 10a6.48 6.48 0 0 1-2.08 3.12c-.85.65-1.92.95-3.2.88v-2.4c.7.01 1.24-.13 1.64-.44.42-.3.74-.8.98-1.48l-4.1-9.68h2.82l2.6 6.72 2.22-6.72Zm12.11 8.76a5.15 5.15 0 0 1-3.76 1.52c-1.48 0-2.73-.5-3.76-1.52a5.15 5.15 0 0 1-1.52-3.76c0-1.48.5-2.73 1.52-3.74a5.11 5.11 0 0 1 3.76-1.54 5.1 5.1 0 0 1 3.76 1.54 5.05 5.05 0 0 1 1.54 3.74 5.1 5.1 0 0 1-1.54 3.76Zm-5.7-1.78c.52.52 1.17.78 1.94.78s1.42-.26 1.94-.78.78-1.18.78-1.98a2.68 2.68 0 0 0-2.72-2.76 2.63 2.63 0 0 0-2.7 2.76c0 .8.25 1.46.76 1.98Zm15.66-6.98h2.57v10h-2.57v-1.12c-.63.93-1.63 1.4-2.99 1.4-1.09 0-2-.37-2.71-1.1a4.2 4.2 0 0 1-1.06-3.04V208h2.57v5.82c0 .67.19 1.18.55 1.54.35.35.83.52 1.44.52.66 0 1.2-.2 1.6-.62.4-.41.6-1.03.6-1.86V208Zm21.2 0h2.74l-3.18 10h-2.46l-1.84-6.06-1.84 6.06h-2.46l-3.18-10h2.74l1.7 6.14 1.82-6.14h2.44l1.82 6.16 1.7-6.16Zm11.34 0h2.58v10h-2.58v-1.18a3.93 3.93 0 0 1-3.26 1.46c-1.34 0-2.48-.5-3.44-1.52a5.34 5.34 0 0 1-1.42-3.76c0-1.48.47-2.73 1.42-3.74a4.55 4.55 0 0 1 3.44-1.54c1.4 0 2.48.49 3.26 1.46V208Zm-4.76 7.04c.52.52 1.18.78 1.98.78s1.46-.26 1.98-.78c.53-.53.8-1.21.8-2.04 0-.83-.27-1.5-.8-2.02a2.65 2.65 0 0 0-1.98-.8c-.8 0-1.46.27-1.98.8-.52.52-.78 1.2-.78 2.02 0 .83.26 1.5.78 2.04Zm15.24-7.32c1.09 0 1.99.37 2.7 1.1a4.15 4.15 0 0 1 1.08 3.04V218h-2.58v-5.82c0-.67-.18-1.17-.54-1.52a1.95 1.95 0 0 0-1.44-.54c-.67 0-1.2.2-1.6.62-.4.41-.6 1.03-.6 1.86v5.4h-2.58v-10h2.58v1.12c.62-.93 1.62-1.4 2.98-1.4Zm11.7 2.76h-2.26v4.16c0 .35.09.6.26.76.17.16.43.25.76.28.33.01.75 0 1.24-.02V218c-1.77.2-3.03.03-3.76-.5-.72-.53-1.08-1.49-1.08-2.86v-4.16h-1.74V208h1.74v-2.02l2.58-.78v2.8h2.26v2.48Zm4.4 5.82-1.2 4.5h-1.2l.8-4.5h1.6ZM220 232.76a4.5 4.5 0 0 1 3.58 1.58 5.4 5.4 0 0 1 1.34 4.32h-8.78a3.64 3.64 0 0 0 1.28 2.42c.73.59 1.63.88 2.7.88.76 0 1.41-.15 1.96-.46a3.2 3.2 0 0 0 1.26-1.24l1.16.68a4.74 4.74 0 0 1-1.8 1.68 5.4 5.4 0 0 1-2.6.62 5.2 5.2 0 0 1-3.84-1.48 5.1 5.1 0 0 1-1.48-3.76c0-1.5.48-2.74 1.46-3.74a5 5 0 0 1 3.76-1.5Zm0 1.28a3.75 3.75 0 0 0-3.86 3.34h7.46a3.73 3.73 0 0 0-1.22-2.46 3.53 3.53 0 0 0-2.38-.88Zm15.66-1.04h1.32v10h-1.32v-1.96a4.48 4.48 0 0 1-4.04 2.2 5 5 0 0 1-3.66-1.52 5.1 5.1 0 0 1-1.5-3.72c0-1.47.5-2.7 1.5-3.72a5 5 0 0 1 3.66-1.52c1.77 0 3.12.73 4.04 2.2V233Zm-6.74 7.82a3.8 3.8 0 0 0 2.8 1.14 3.87 3.87 0 0 0 3.94-3.96 3.8 3.8 0 0 0-1.14-2.8 3.77 3.77 0 0 0-2.8-1.16c-1.11 0-2.04.39-2.8 1.16a3.8 3.8 0 0 0-1.14 2.8c0 1.1.38 2.05 1.14 2.82Zm11.9-5.2c0 .45.2.81.6 1.08.4.27.88.47 1.45.62.57.15 1.15.31 1.72.5.57.17 1.06.47 1.46.9.4.41.6.96.6 1.64 0 .85-.34 1.55-1.02 2.08-.67.53-1.53.8-2.6.8a4.5 4.5 0 0 1-2.46-.64 3.44 3.44 0 0 1-1.4-1.66l1.12-.66c.19.52.52.93 1 1.24.5.3 1.07.44 1.74.44.65 0 1.2-.13 1.64-.38.44-.27.66-.67.66-1.22 0-.45-.2-.81-.6-1.08-.4-.27-.89-.47-1.46-.62-.57-.15-1.15-.3-1.72-.48a3.52 3.52 0 0 1-1.46-.9c-.4-.43-.6-.98-.6-1.66 0-.81.32-1.5.96-2.04a3.7 3.7 0 0 1 2.46-.82c.81 0 1.53.19 2.14.56a3.3 3.3 0 0 1 1.36 1.48l-1.1.64c-.39-.93-1.19-1.4-2.4-1.4-.57 0-1.07.14-1.48.42a1.3 1.3 0 0 0-.62 1.16Zm9.28-5.02a.92.92 0 0 1-.69.28.93.93 0 0 1-.67-.28.93.93 0 0 1-.28-.68c0-.27.09-.5.28-.68a.93.93 0 0 1 .67-.28.95.95 0 0 1 .97.96c0 .27-.1.5-.28.68Zm-1.34 12.4v-10h1.31v10h-1.31Zm8.74-10.24a4.5 4.5 0 0 1 3.58 1.58 5.4 5.4 0 0 1 1.34 4.32h-8.78a3.64 3.64 0 0 0 1.28 2.42c.73.59 1.63.88 2.7.88.76 0 1.41-.15 1.96-.46a3.2 3.2 0 0 0 1.26-1.24l1.16.68a4.74 4.74 0 0 1-1.8 1.68 5.4 5.4 0 0 1-2.6.62 5.2 5.2 0 0 1-3.84-1.48 5.1 5.1 0 0 1-1.48-3.76c0-1.5.48-2.74 1.46-3.74a5 5 0 0 1 3.76-1.5Zm0 1.28a3.75 3.75 0 0 0-3.86 3.34h7.46a3.73 3.73 0 0 0-1.22-2.46 3.53 3.53 0 0 0-2.38-.88Zm7.7 1.58c0 .45.2.81.6 1.08.4.27.9.47 1.47.62.57.15 1.14.31 1.72.5.57.17 1.06.47 1.46.9.4.41.6.96.6 1.64 0 .85-.34 1.55-1.02 2.08-.67.53-1.54.8-2.6.8a4.5 4.5 0 0 1-2.46-.64 3.43 3.43 0 0 1-1.4-1.66l1.12-.66c.18.52.52.93 1 1.24.49.3 1.07.44 1.74.44.65 0 1.2-.13 1.64-.38.44-.27.66-.67.66-1.22 0-.45-.2-.81-.6-1.08-.4-.27-.9-.47-1.46-.62a42 42 0 0 1-1.72-.48 3.5 3.5 0 0 1-1.46-.9c-.4-.43-.6-.98-.6-1.66 0-.81.32-1.5.96-2.04a3.7 3.7 0 0 1 2.46-.82c.8 0 1.52.19 2.14.56.6.36 1.06.85 1.36 1.48l-1.1.64c-.4-.93-1.2-1.4-2.4-1.4-.58 0-1.07.14-1.48.42a1.3 1.3 0 0 0-.62 1.16Zm12.96-1.34h-2.88v6.06c0 .55.1.94.32 1.18.21.23.53.35.96.36.42 0 .96-.01 1.6-.04V243c-1.4.21-2.46.11-3.16-.3-.7-.41-1.04-1.2-1.04-2.36v-6.06h-2.1V233h2.1v-2.4l1.32-.4v2.8h2.88v1.28ZM297.4 233h1.36l-3.08 10h-1.44l-2.58-8.06-2.58 8.06h-1.44l-3.08-10h1.36l2.46 8.3L291 233h1.32l2.62 8.3 2.46-8.3Zm11.56 0h1.32v10h-1.32v-1.96a4.48 4.48 0 0 1-4.04 2.2c-1.43 0-2.65-.5-3.66-1.52a5.1 5.1 0 0 1-1.5-3.72c0-1.47.5-2.7 1.5-3.72a4.99 4.99 0 0 1 3.66-1.52c1.77 0 3.12.73 4.04 2.2V233Zm-6.74 7.82a3.8 3.8 0 0 0 2.8 1.14 3.87 3.87 0 0 0 3.94-3.96 3.8 3.8 0 0 0-1.14-2.8 3.77 3.77 0 0 0-2.8-1.16c-1.11 0-2.04.39-2.8 1.16a3.8 3.8 0 0 0-1.14 2.8c0 1.1.38 2.05 1.14 2.82Zm18.05-7.82h1.4l-4.28 10.92a5.31 5.31 0 0 1-1.66 2.32c-.7.57-1.5.83-2.38.76v-1.24c1.2.13 2.11-.56 2.74-2.08l.26-.62-4.48-10.06h1.4l3.76 8.38 3.24-8.38Zm13.3 1.28h-2.88v6.06c0 .55.1.94.32 1.18.21.23.53.35.96.36.42 0 .96-.01 1.6-.04V243c-1.4.21-2.46.11-3.16-.3-.7-.41-1.04-1.2-1.04-2.36v-6.06h-2.1V233h2.1v-2.4l1.32-.4v2.8h2.88v1.28Zm9.97 7.46a5.1 5.1 0 0 1-3.72 1.5 5.16 5.16 0 0 1-5.26-5.24 5 5 0 0 1 1.52-3.72 5.13 5.13 0 0 1 3.74-1.52c1.47 0 2.7.5 3.72 1.52a4.99 4.99 0 0 1 1.54 3.72c0 1.48-.51 2.73-1.54 3.74Zm-6.52-.92a3.8 3.8 0 0 0 2.8 1.14 3.87 3.87 0 0 0 3.94-3.96 3.8 3.8 0 0 0-1.14-2.8 3.78 3.78 0 0 0-2.8-1.16 3.8 3.8 0 0 0-2.8 1.16 3.8 3.8 0 0 0-1.14 2.8c0 1.1.38 2.05 1.14 2.82Zm16.31-5.2c0 .45.2.81.6 1.08.4.27.89.47 1.46.62.57.15 1.15.31 1.72.5.57.17 1.06.47 1.46.9.4.41.6.96.6 1.64 0 .85-.34 1.55-1.02 2.08-.67.53-1.53.8-2.6.8a4.5 4.5 0 0 1-2.46-.64 3.43 3.43 0 0 1-1.4-1.66l1.12-.66c.19.52.52.93 1 1.24.5.3 1.07.44 1.74.44.65 0 1.2-.13 1.64-.38.44-.27.66-.67.66-1.22 0-.45-.2-.81-.6-1.08-.4-.27-.89-.47-1.46-.62a42 42 0 0 1-1.72-.48 3.5 3.5 0 0 1-1.46-.9c-.4-.43-.6-.98-.6-1.66 0-.81.32-1.5.96-2.04a3.7 3.7 0 0 1 2.46-.82c.81 0 1.53.19 2.14.56a3.3 3.3 0 0 1 1.36 1.48l-1.1.64c-.39-.93-1.19-1.4-2.4-1.4-.57 0-1.07.14-1.48.42a1.3 1.3 0 0 0-.62 1.16Zm12.95-1.34h-2.88v6.06c0 .55.1.94.32 1.18.21.23.53.35.96.36.43 0 .96-.01 1.6-.04V243c-1.4.21-2.45.11-3.16-.3-.7-.41-1.04-1.2-1.04-2.36v-6.06h-2.1V233h2.1v-2.4l1.32-.4v2.8h2.88v1.28Zm10.2-1.28h1.32v10h-1.32v-1.96a4.48 4.48 0 0 1-4.04 2.2c-1.43 0-2.65-.5-3.66-1.52a5.1 5.1 0 0 1-1.5-3.72c0-1.47.5-2.7 1.5-3.72a4.99 4.99 0 0 1 3.66-1.52c1.77 0 3.12.73 4.04 2.2V233Zm-6.74 7.82a3.8 3.8 0 0 0 2.8 1.14 3.87 3.87 0 0 0 3.94-3.96 3.8 3.8 0 0 0-1.14-2.8 3.78 3.78 0 0 0-2.8-1.16c-1.11 0-2.04.39-2.8 1.16a3.8 3.8 0 0 0-1.14 2.8c0 1.1.38 2.05 1.14 2.82Zm12.17-6.16c.61-1.21 1.67-1.82 3.16-1.82v1.28c-.9 0-1.66.27-2.26.8-.6.53-.9 1.37-.9 2.52V243h-1.32v-10h1.32v1.66Zm10.47-.38h-2.88v6.06c0 .55.1.94.32 1.18.2.23.53.35.96.36.42 0 .96-.01 1.6-.04V243c-1.4.21-2.46.11-3.16-.3-.7-.41-1.04-1.2-1.04-2.36v-6.06h-2.1V233h2.1v-2.4l1.32-.4v2.8h2.88v1.28Zm11.82-1.52a4.5 4.5 0 0 1 3.58 1.58 5.4 5.4 0 0 1 1.34 4.32h-8.78a3.64 3.64 0 0 0 1.28 2.42c.73.59 1.63.88 2.7.88.76 0 1.4-.15 1.96-.46a3.2 3.2 0 0 0 1.26-1.24l1.16.68a4.74 4.74 0 0 1-1.8 1.68 5.4 5.4 0 0 1-2.6.62 5.2 5.2 0 0 1-3.84-1.48 5.1 5.1 0 0 1-1.48-3.76c0-1.5.48-2.74 1.46-3.74a5 5 0 0 1 3.76-1.5Zm0 1.28a3.75 3.75 0 0 0-3.86 3.34h7.46a3.73 3.73 0 0 0-1.22-2.46 3.53 3.53 0 0 0-2.38-.88Zm15.66-1.04h1.31v10h-1.31v-1.96a4.48 4.48 0 0 1-4.05 2.2 5 5 0 0 1-3.66-1.52 5.1 5.1 0 0 1-1.5-3.72c0-1.47.5-2.7 1.5-3.72a5 5 0 0 1 3.67-1.52c1.77 0 3.12.73 4.04 2.2V233Zm-6.75 7.82a3.8 3.8 0 0 0 2.8 1.14 3.87 3.87 0 0 0 3.94-3.96 3.8 3.8 0 0 0-1.13-2.8 3.77 3.77 0 0 0-2.8-1.16c-1.11 0-2.05.39-2.8 1.16a3.8 3.8 0 0 0-1.14 2.8c0 1.1.38 2.05 1.13 2.82Zm12.18-6.16c.61-1.21 1.67-1.82 3.16-1.82v1.28c-.9 0-1.66.27-2.26.8-.6.53-.9 1.37-.9 2.52V243h-1.32v-10h1.32v1.66Zm9.65-1.9a3.7 3.7 0 0 1 2.86 1.12c.7.73 1.06 1.73 1.06 2.98V243h-1.32v-6.14c0-.9-.24-1.59-.72-2.08-.47-.5-1.13-.74-2-.74-.96 0-1.74.3-2.34.92-.6.6-.9 1.53-.9 2.8V243h-1.32v-10h1.32v1.56a3.7 3.7 0 0 1 3.36-1.8Zm7.81-2.16a.93.93 0 0 1-.68.28c-.26 0-.5-.1-.68-.28a.92.92 0 0 1-.28-.68c0-.27.1-.5.28-.68a.92.92 0 0 1 .68-.28c.27 0 .5.1.68.28.19.19.28.41.28.68 0 .27-.1.5-.28.68Zm-1.34 12.4v-10h1.32v10h-1.32Zm8.8-10.24c1.22 0 2.17.37 2.86 1.12.7.73 1.06 1.73 1.06 2.98V243h-1.32v-6.14c0-.9-.24-1.59-.72-2.08-.46-.5-1.13-.74-2-.74-.96 0-1.74.3-2.34.92-.6.6-.9 1.53-.9 2.8V243h-1.32v-10h1.32v1.56a3.7 3.7 0 0 1 3.36-1.8Zm15.08.24h1.31v9.6a4.2 4.2 0 0 1-1.48 3.4 5.33 5.33 0 0 1-3.54 1.24c-2.34 0-3.92-.81-4.73-2.44l1.15-.66c.6 1.21 1.8 1.82 3.58 1.82 1.15 0 2.05-.3 2.7-.92.67-.6 1-1.41 1-2.44v-1.56a4.48 4.48 0 0 1-4.03 2.2 5 5 0 0 1-3.67-1.52 5.1 5.1 0 0 1-1.5-3.72c0-1.47.5-2.7 1.5-3.72a4.99 4.99 0 0 1 3.67-1.52c1.77 0 3.12.73 4.04 2.2V233Zm-6.75 7.82a3.8 3.8 0 0 0 2.8 1.14 3.87 3.87 0 0 0 3.94-3.96 3.8 3.8 0 0 0-1.13-2.8 3.77 3.77 0 0 0-2.8-1.16c-1.11 0-2.05.39-2.8 1.16a3.8 3.8 0 0 0-1.15 2.8c0 1.1.39 2.05 1.15 2.82Z" fill="#141414"/>
  <path d="M96.52 58.12a13.95 13.95 0 0 0-1.48-3.6 15.12 15.12 0 0 0-7.24-6.4 14.96 14.96 0 0 0-16 3l-.2.24-2.6 2.6-2.6-2.6-.2-.24a14.96 14.96 0 0 0-16-3 15.12 15.12 0 0 0-7.28 6.4 15.4 15.4 0 0 0 0 14.92 15.2 15.2 0 0 0 2.44 3.16L69 96.24 92.64 72.6c.95-.93 1.76-2 2.4-3.16A14.31 14.31 0 0 0 97 62.12c.02-1.35-.14-2.7-.48-4Z" fill="#779A8D"/>
</svg>