<?xml version="1.0" encoding="utf-8"?>
<svg xmlns="http://www.w3.org/2000/svg" fill="none" height="299" width="296">
  <path d="M0 38A38 38 0 0 1 38 0h220a38 38 0 0 1 38 38v223a38 38 0 0 1-38 38H38a38 38 0 0 1-38-38V38Z" fill="#ECE3D0"/>
  <path d="M167.95 135.4h9.86V176h-11.6v-28.48l-7.02 1.68-2.66-9.68 11.42-4.12Zm33.4 16.59c2.62.77 4.71 2.13 6.26 4.06 1.58 1.9 2.38 4.29 2.38 7.19 0 4.48-1.43 7.89-4.3 10.2-2.86 2.33-6.45 3.49-10.78 3.49a17.6 17.6 0 0 1-9.34-2.44 13.57 13.57 0 0 1-5.74-7.19l10.2-5.86c.82 2.82 2.44 4.24 4.88 4.24a3.7 3.7 0 0 0 2.5-.82 2.7 2.7 0 0 0 .98-2.2c0-1.93-1.16-2.9-3.48-2.9h-2.5l-4.52-6.73 5.45-6.38H181.1V135.4h26.68v8.93l-6.44 7.66Zm19.35 4.52c-3.21 0-5.9-1.06-8.07-3.19a10.67 10.67 0 0 1-3.24-7.83 10.5 10.5 0 0 1 3.24-7.77 10.95 10.95 0 0 1 8.07-3.25c3.17 0 5.82 1.09 7.94 3.25a10.48 10.48 0 0 1 3.25 7.77c0 3.06-1.08 5.67-3.25 7.83a10.78 10.78 0 0 1-7.94 3.2Zm-3.95 13.05 27.26-28.88 4.24 2.43-27.32 28.83-4.18-2.38Zm1.86-21.98c.54.54 1.22.81 2.03.81a2.9 2.9 0 0 0 2.84-2.9c0-.81-.27-1.49-.81-2.03a2.66 2.66 0 0 0-2.03-.87c-.81 0-1.49.3-2.03.87-.5.54-.76 1.22-.76 2.03 0 .81.26 1.51.76 2.09Zm26.45 29.35c-3.21 0-5.9-1.06-8.07-3.2a10.67 10.67 0 0 1-3.24-7.82c0-3.06 1.08-5.65 3.24-7.77a10.95 10.95 0 0 1 8.07-3.25c3.17 0 5.82 1.08 7.94 3.25a10.48 10.48 0 0 1 3.25 7.77c0 3.05-1.08 5.66-3.25 7.83a10.78 10.78 0 0 1-7.94 3.19Zm-2.1-8.93c.55.54 1.23.8 2.04.8s1.49-.28 2.03-.86a2.9 2.9 0 0 0 .81-2.03c0-.81-.27-1.5-.81-2.03A2.66 2.66 0 0 0 245 163c-.81 0-1.49.29-2.03.87-.5.54-.76 1.22-.76 2.03 0 .81.26 1.5.76 2.09ZM62.67 207h1.32v10h-1.32v-1.56a3.7 3.7 0 0 1-3.36 1.8 3.81 3.81 0 0 1-2.88-1.1 4.23 4.23 0 0 1-1.04-3V207h1.32v6.14c0 .9.23 1.59.7 2.08.48.5 1.15.74 2.02.74.96 0 1.74-.3 2.34-.9.6-.61.9-1.55.9-2.82V207Zm9.47-.24c1.43 0 2.64.5 3.64 1.52A5.06 5.06 0 0 1 77.3 212c0 1.47-.5 2.7-1.52 3.72a4.92 4.92 0 0 1-3.64 1.52 4.48 4.48 0 0 1-4.04-2.2V221h-1.32v-14h1.32v1.96a4.48 4.48 0 0 1 4.04-2.2Zm-2.9 8.06a3.8 3.8 0 0 0 2.8 1.14 3.87 3.87 0 0 0 3.94-3.96 3.8 3.8 0 0 0-1.14-2.8 3.77 3.77 0 0 0-2.8-1.16 3.8 3.8 0 0 0-2.8 1.16 3.8 3.8 0 0 0-1.14 2.8c0 1.1.38 2.05 1.14 2.82ZM79.5 217v-14.6h1.32V217H79.5Zm5.46-12.4a.92.92 0 0 1-.68.28c-.27 0-.5-.1-.68-.28a.93.93 0 0 1-.28-.68c0-.27.1-.5.28-.68a.92.92 0 0 1 .68-.28c.27 0 .5.1.68.28.19.19.28.41.28.68 0 .27-.1.5-.28.68ZM83.62 217v-10h1.32v10h-1.32Zm9.12-12.96c-.97-.08-1.7.09-2.18.5-.47.41-.7 1.1-.7 2.06v.4h2.88v1.28h-2.88V217h-1.32v-8.72h-1.7V207h1.7v-.4c0-1.3.36-2.3 1.08-2.96.73-.68 1.77-.97 3.12-.88v1.28Zm7.1 4.24h-2.88v6.06c0 .55.1.94.32 1.18.21.23.53.35.96.36.42 0 .96-.01 1.6-.04V217c-1.4.21-2.46.11-3.16-.3-.7-.41-1.04-1.2-1.04-2.36v-6.06h-2.1V207h2.1v-2.4l1.32-.4v2.8h2.88v1.28Zm8.54-3.68a.93.93 0 0 1-.68.28c-.27 0-.5-.1-.68-.28a.92.92 0 0 1-.28-.68c0-.27.09-.5.28-.68a.92.92 0 0 1 .68-.28.95.95 0 0 1 .96.96c0 .27-.1.5-.28.68Zm-1.34 12.4v-10h1.32v10h-1.32Zm8.8-10.24c1.21 0 2.16.37 2.86 1.12.7.73 1.06 1.73 1.06 2.98V217h-1.32v-6.14c0-.9-.24-1.59-.72-2.08-.47-.5-1.14-.74-2-.74-.96 0-1.74.3-2.34.92-.6.6-.9 1.53-.9 2.8V217h-1.32v-10h1.32v1.56a3.7 3.7 0 0 1 3.36-1.8Zm16.83 0c1.43 0 2.64.5 3.64 1.52a5.06 5.06 0 0 1 1.52 3.72c0 1.47-.5 2.7-1.52 3.72a4.92 4.92 0 0 1-3.64 1.52 4.48 4.48 0 0 1-4.04-2.2V217h-1.32v-14h1.32v5.96a4.48 4.48 0 0 1 4.04-2.2Zm-2.9 8.06a3.8 3.8 0 0 0 2.8 1.14 3.87 3.87 0 0 0 3.94-3.96 3.8 3.8 0 0 0-1.14-2.8 3.77 3.77 0 0 0-2.8-1.16 3.8 3.8 0 0 0-2.8 1.16 3.8 3.8 0 0 0-1.14 2.8c0 1.1.38 2.05 1.14 2.82Zm18.63.92a5.1 5.1 0 0 1-3.72 1.5 5.16 5.16 0 0 1-5.25-5.24c0-1.48.5-2.72 1.51-3.72a5.13 5.13 0 0 1 3.75-1.52c1.46 0 2.7.5 3.72 1.52a4.98 4.98 0 0 1 1.53 3.72c0 1.48-.5 2.73-1.53 3.74Zm-6.52-.92a3.8 3.8 0 0 0 2.8 1.14 3.87 3.87 0 0 0 3.94-3.96 3.8 3.8 0 0 0-1.13-2.8 3.77 3.77 0 0 0-2.8-1.16c-1.11 0-2.04.39-2.8 1.16a3.8 3.8 0 0 0-1.14 2.8c0 1.1.38 2.05 1.13 2.82Zm18.65.92a5.1 5.1 0 0 1-3.72 1.5 5.16 5.16 0 0 1-5.26-5.24c0-1.48.51-2.72 1.52-3.72a5.13 5.13 0 0 1 3.74-1.52c1.47 0 2.71.5 3.72 1.52a4.98 4.98 0 0 1 1.54 3.72 5 5 0 0 1-1.54 3.74Zm-6.52-.92a3.8 3.8 0 0 0 2.8 1.14 3.87 3.87 0 0 0 3.94-3.96 3.8 3.8 0 0 0-1.14-2.8 3.77 3.77 0 0 0-2.8-1.16 3.8 3.8 0 0 0-2.8 1.16 3.8 3.8 0 0 0-1.14 2.8c0 1.1.38 2.05 1.14 2.82Zm18.35 2.18h-1.76l-5-4.82V217h-1.32v-14h1.32v8.42l4.76-4.42h1.8l-5.16 4.8 5.36 5.2Zm3.15-12.4a.93.93 0 0 1-.68.28c-.27 0-.5-.1-.68-.28a.92.92 0 0 1-.28-.68c0-.27.09-.5.28-.68a.92.92 0 0 1 .68-.28.95.95 0 0 1 .96.96c0 .27-.1.5-.28.68Zm-1.34 12.4v-10h1.32v10h-1.32Zm8.8-10.24c1.21 0 2.16.37 2.86 1.12.7.73 1.06 1.73 1.06 2.98V217h-1.32v-6.14c0-.9-.24-1.59-.72-2.08-.47-.5-1.14-.74-2-.74-.96 0-1.74.3-2.34.92-.6.6-.9 1.53-.9 2.8V217h-1.32v-10h1.32v1.56a3.7 3.7 0 0 1 3.36-1.8Zm15.07.24h1.32v9.6a4.2 4.2 0 0 1-1.48 3.4 5.33 5.33 0 0 1-3.54 1.24c-2.35 0-3.93-.81-4.74-2.44l1.16-.66c.6 1.21 1.8 1.82 3.58 1.82 1.15 0 2.05-.3 2.7-.92.67-.6 1-1.41 1-2.44v-1.56a4.48 4.48 0 0 1-4.04 2.2c-1.43 0-2.65-.5-3.66-1.52a5.1 5.1 0 0 1-1.5-3.72c0-1.47.5-2.7 1.5-3.72a4.99 4.99 0 0 1 3.66-1.52c1.77 0 3.12.73 4.04 2.2V207Zm-6.74 7.82a3.8 3.8 0 0 0 2.8 1.14 3.87 3.87 0 0 0 3.94-3.96 3.8 3.8 0 0 0-1.14-2.8 3.77 3.77 0 0 0-2.8-1.16 3.8 3.8 0 0 0-2.8 1.16 3.8 3.8 0 0 0-1.14 2.8c0 1.1.38 2.05 1.14 2.82Zm11.9-5.2c0 .45.2.81.6 1.08.4.27.88.47 1.45.62.58.15 1.15.31 1.72.5.58.17 1.06.47 1.46.9.4.41.6.96.6 1.64 0 .85-.34 1.55-1.02 2.08-.66.53-1.53.8-2.6.8a4.5 4.5 0 0 1-2.46-.64 3.44 3.44 0 0 1-1.4-1.66l1.12-.66c.2.52.52.93 1 1.24.5.3 1.08.44 1.74.44.66 0 1.2-.13 1.64-.38.44-.27.66-.67.66-1.22 0-.45-.2-.81-.6-1.08-.4-.27-.88-.47-1.46-.62-.57-.15-1.14-.3-1.72-.48a3.52 3.52 0 0 1-1.46-.9c-.4-.43-.6-.98-.6-1.66 0-.81.32-1.5.96-2.04a3.7 3.7 0 0 1 2.46-.82c.82 0 1.53.19 2.14.56.62.36 1.07.85 1.36 1.48l-1.1.64c-.38-.93-1.18-1.4-2.4-1.4a2.6 2.6 0 0 0-1.48.42 1.3 1.3 0 0 0-.62 1.16Zm25.08-2.62h1.36l-3.08 10h-1.44l-2.58-8.06-2.58 8.06h-1.44l-3.08-10h1.36l2.46 8.3 2.62-8.3h1.32l2.62 8.3 2.46-8.3Zm4.69-2.4a.93.93 0 0 1-.68.28c-.27 0-.5-.1-.68-.28a.92.92 0 0 1-.28-.68c0-.27.09-.5.28-.68a.92.92 0 0 1 .68-.28.95.95 0 0 1 .96.96c0 .27-.1.5-.28.68Zm-1.34 12.4v-10h1.32v10h-1.32Zm9.42-8.72h-2.88v6.06c0 .55.1.94.32 1.18.21.23.53.35.96.36.42 0 .96-.01 1.6-.04V217c-1.4.21-2.46.11-3.16-.3-.7-.41-1.04-1.2-1.04-2.36v-6.06h-2.1V207h2.1v-2.4l1.32-.4v2.8h2.88v1.28Zm6.88-1.52c1.21 0 2.16.37 2.86 1.12.7.73 1.06 1.73 1.06 2.98V217h-1.32v-6.14c0-.9-.24-1.59-.72-2.08-.47-.5-1.14-.74-2-.74-.96 0-1.74.3-2.34.92-.6.6-.9 1.53-.9 2.8V217h-1.32v-14h1.32v5.56a3.7 3.7 0 0 1 3.36-1.8ZM73.36 232h2.58v10h-2.58v-1.18a3.93 3.93 0 0 1-3.26 1.46c-1.33 0-2.48-.5-3.44-1.52a5.34 5.34 0 0 1-1.42-3.76 5.3 5.3 0 0 1 1.42-3.74 4.55 4.55 0 0 1 3.44-1.54c1.4 0 2.49.49 3.26 1.46V232Zm-4.76 7.04c.52.52 1.18.78 1.98.78s1.46-.26 1.98-.78c.54-.53.8-1.21.8-2.04 0-.83-.26-1.5-.8-2.02a2.65 2.65 0 0 0-1.98-.8c-.8 0-1.46.27-1.98.8-.52.52-.78 1.2-.78 2.02 0 .83.26 1.5.78 2.04Zm15.5-7.32c1.35 0 2.5.51 3.44 1.54a5.23 5.23 0 0 1 1.44 3.74 5.3 5.3 0 0 1-1.44 3.76 4.54 4.54 0 0 1-3.44 1.52c-1.4 0-2.48-.49-3.24-1.46V242h-2.58v-14h2.58v5.18a3.87 3.87 0 0 1 3.24-1.46Zm-2.46 7.32c.52.52 1.18.78 1.98.78s1.46-.26 1.98-.78c.53-.53.8-1.21.8-2.04 0-.83-.27-1.5-.8-2.02a2.65 2.65 0 0 0-1.98-.8c-.8 0-1.46.27-1.98.8-.52.52-.78 1.2-.78 2.02 0 .83.26 1.5.78 2.04ZM98.4 232h2.58v10H98.4v-1.18a3.93 3.93 0 0 1-3.26 1.46c-1.33 0-2.48-.5-3.44-1.52a5.34 5.34 0 0 1-1.42-3.76c0-1.48.47-2.73 1.42-3.74a4.55 4.55 0 0 1 3.44-1.54c1.4 0 2.49.49 3.26 1.46V232Zm-4.76 7.04c.52.52 1.18.78 1.98.78s1.46-.26 1.98-.78c.53-.53.8-1.21.8-2.04 0-.83-.27-1.5-.8-2.02a2.65 2.65 0 0 0-1.98-.8c-.8 0-1.46.27-1.98.8-.52.52-.78 1.2-.78 2.02 0 .83.26 1.5.78 2.04Zm15.24-7.32c1.1 0 2 .37 2.7 1.1a4.15 4.15 0 0 1 1.08 3.04V242h-2.58v-5.82c0-.67-.18-1.17-.54-1.52a1.95 1.95 0 0 0-1.44-.54c-.67 0-1.2.2-1.6.62-.4.41-.6 1.03-.6 1.86v5.4h-2.58v-10h2.58v1.12c.63-.93 1.62-1.4 2.98-1.4Zm13.56-3.72h2.58v14h-2.58v-1.18a3.87 3.87 0 0 1-3.24 1.46 4.6 4.6 0 0 1-3.46-1.52 5.34 5.34 0 0 1-1.42-3.76 5.3 5.3 0 0 1 1.42-3.74 4.57 4.57 0 0 1 3.46-1.54c1.4 0 2.48.49 3.24 1.46V228Zm-4.76 11.04c.54.52 1.2.78 2 .78s1.46-.26 1.98-.78a2.8 2.8 0 0 0 .78-2.04c0-.83-.26-1.5-.78-2.02a2.65 2.65 0 0 0-1.98-.8c-.8 0-1.46.27-2 .8-.52.52-.78 1.2-.78 2.02 0 .83.26 1.5.78 2.04Zm18.22 1.72a5.15 5.15 0 0 1-3.76 1.52 5.15 5.15 0 0 1-5.28-5.28 5.1 5.1 0 0 1 1.52-3.74 5.11 5.11 0 0 1 3.76-1.54 5.1 5.1 0 0 1 3.76 1.54 5.05 5.05 0 0 1 1.54 3.74 5.1 5.1 0 0 1-1.54 3.76Zm-5.7-1.78c.52.52 1.17.78 1.94.78a2.68 2.68 0 0 0 2.72-2.76 2.68 2.68 0 0 0-2.72-2.76 2.63 2.63 0 0 0-2.7 2.76c0 .8.26 1.46.76 1.98Zm14.62-7.26c1.1 0 2 .37 2.7 1.1a4.15 4.15 0 0 1 1.08 3.04V242h-2.58v-5.82c0-.67-.18-1.17-.54-1.52a1.95 1.95 0 0 0-1.44-.54c-.67 0-1.2.2-1.6.62-.4.41-.6 1.03-.6 1.86v5.4h-2.58v-10h2.58v1.12c.63-.93 1.62-1.4 2.98-1.4Zm15.74 10.56a5.13 5.13 0 0 1-5.28-5.28 5.14 5.14 0 0 1 5.28-5.28c.97 0 1.86.23 2.66.7s1.4 1.1 1.82 1.88l-2.22 1.3c-.2-.41-.5-.74-.92-.98a2.6 2.6 0 0 0-1.36-.36 2.65 2.65 0 0 0-2.68 2.74 2.6 2.6 0 0 0 2.68 2.72c.52 0 .98-.11 1.38-.34.41-.24.72-.57.92-.98l2.24 1.28a5.08 5.08 0 0 1-4.52 2.6ZM173.9 232h2.58v10h-2.58v-1.18a3.93 3.93 0 0 1-3.26 1.46c-1.33 0-2.48-.5-3.44-1.52a5.35 5.35 0 0 1-1.42-3.76c0-1.48.47-2.73 1.42-3.74a4.55 4.55 0 0 1 3.44-1.54c1.4 0 2.49.49 3.26 1.46V232Zm-4.76 7.04c.52.52 1.18.78 1.98.78s1.46-.26 1.98-.78c.53-.53.8-1.21.8-2.04 0-.83-.27-1.5-.8-2.02a2.65 2.65 0 0 0-1.98-.8c-.8 0-1.46.27-1.98.8-.52.52-.78 1.2-.78 2.02 0 .83.26 1.5.78 2.04Zm12.26-5.32a2.7 2.7 0 0 1 1.18-1.44 3.68 3.68 0 0 1 1.86-.48v2.88c-.79-.1-1.5.07-2.12.48-.61.41-.92 1.1-.92 2.06V242h-2.58v-10h2.58v1.72Zm10.54.76h-2.26v4.16c0 .35.09.6.26.76.17.16.43.25.76.28.34.01.75 0 1.24-.02V242c-1.77.2-3.03.03-3.76-.5-.72-.53-1.08-1.49-1.08-2.86v-4.16h-1.74V232h1.74v-2.02l2.58-.78v2.8h2.26v2.48Zm9.16 3.58c.34 1.25 1.28 1.88 2.82 1.88.98 0 1.73-.33 2.24-1l2.08 1.2a4.96 4.96 0 0 1-4.36 2.14c-1.66 0-2.98-.5-3.98-1.5s-1.5-2.26-1.5-3.78a5.13 5.13 0 0 1 5.28-5.28c1.46 0 2.67.5 3.62 1.52a5.26 5.26 0 0 1 1.44 3.76c0 .33-.04.69-.1 1.06h-7.54Zm-.04-2h5.1a2.4 2.4 0 0 0-.92-1.52c-.46-.33-.98-.5-1.56-.5-.7 0-1.27.18-1.72.54-.46.35-.76.84-.9 1.48Zm20.54-4.34c1.14 0 2.06.37 2.74 1.12.7.75 1.04 1.75 1.04 3V242h-2.58v-5.98c0-.6-.15-1.07-.44-1.4-.3-.33-.7-.5-1.24-.5-.59 0-1.05.2-1.38.58-.32.39-.48.95-.48 1.68V242h-2.58v-5.98c0-.6-.15-1.07-.44-1.4-.3-.33-.7-.5-1.24-.5-.58 0-1.04.2-1.38.58-.34.39-.5.95-.5 1.68V242h-2.58v-10h2.58v1.06c.6-.9 1.52-1.34 2.78-1.34 1.22 0 2.13.48 2.72 1.44.66-.96 1.66-1.44 2.98-1.44Zm13.57.28h2.58v10h-2.58v-1.18a3.93 3.93 0 0 1-3.26 1.46c-1.33 0-2.48-.5-3.44-1.52a5.34 5.34 0 0 1-1.42-3.76c0-1.48.47-2.73 1.42-3.74a4.55 4.55 0 0 1 3.44-1.54c1.4 0 2.49.49 3.26 1.46V232Zm-4.76 7.04c.52.52 1.18.78 1.98.78s1.46-.26 1.98-.78c.53-.53.8-1.21.8-2.04 0-.83-.27-1.5-.8-2.02a2.65 2.65 0 0 0-1.98-.8c-.8 0-1.46.27-1.98.8-.52.52-.78 1.2-.78 2.02 0 .83.26 1.5.78 2.04Zm10.96-8.24a1.57 1.57 0 0 1-1.58-1.58c0-.43.15-.8.46-1.12a1.55 1.55 0 0 1 2.24 0 1.53 1.53 0 0 1 0 2.24c-.3.3-.68.46-1.12.46Zm-1.28 11.2v-10h2.58v10h-2.58Zm4.94 0v-14.6h2.58V242h-2.58Zm7.24-7.16c0 .27.18.49.52.66.36.16.8.3 1.3.44.51.12 1.02.28 1.52.48a2.74 2.74 0 0 1 1.82 2.66c0 1.03-.38 1.82-1.16 2.38-.76.55-1.71.82-2.86.82-2.05 0-3.45-.8-4.2-2.38l2.24-1.26c.3.87.95 1.3 1.96 1.3.92 0 1.38-.29 1.38-.86 0-.27-.18-.48-.54-.64a6.7 6.7 0 0 0-1.28-.46c-.5-.13-1.01-.3-1.52-.5-.5-.2-.94-.51-1.3-.94a2.57 2.57 0 0 1-.52-1.64c0-.99.36-1.76 1.08-2.32a4.28 4.28 0 0 1 2.72-.86c.82 0 1.56.19 2.22.56.67.36 1.2.88 1.58 1.56l-2.2 1.2a1.65 1.65 0 0 0-1.6-1.02c-.33 0-.61.07-.84.22a.7.7 0 0 0-.32.6Z" fill="#141414"/>
  <g clip-path="url(#a)">
    <path d="M35.81 46.63a1.81 1.81 0 0 0 0 3.62h4.03l1.45 5.83 5.43 28.94a1.81 1.81 0 0 0 1.78 1.48h3.63a7.25 7.25 0 1 0 0 14.5 7.25 7.25 0 0 0 0-14.5H77.5a7.25 7.25 0 1 0 0 14.5 7.25 7.25 0 0 0 0-14.5h3.63a1.81 1.81 0 0 0 1.77-1.48l5.44-29a1.81 1.81 0 0 0-1.78-2.15H44.48L43 48a1.81 1.81 0 0 0-1.76-1.38H35.8Zm19.94 47.12a3.63 3.63 0 1 1-7.25 0 3.63 3.63 0 0 1 7.25 0Zm25.38 0a3.63 3.63 0 1 1-7.26 0 3.63 3.63 0 0 1 7.25 0Zm-5.97-27.72L64.28 76.91a1.81 1.81 0 0 1-2.56 0l-5.44-5.44a1.82 1.82 0 0 1 2.57-2.57L63 73.06l9.6-9.6a1.81 1.81 0 1 1 2.56 2.57Z" fill="#C6A664"/>
  </g>
  <defs>
    <clipPath id="a">
      <path d="M34 43h58v58H34z" fill="#fff"/>
    </clipPath>
  </defs>
</svg>