<?xml version="1.0" encoding="utf-8"?>
<svg xmlns="http://www.w3.org/2000/svg" fill="none" height="609" width="402">
  <g clip-path="url(#a)">
    <path d="M0 38A38 38 0 0 1 38 0h326a38 38 0 0 1 38 38v533a38 38 0 0 1-38 38H38a38 38 0 0 1-38-38V38Z" fill="#9BCF60"/>
    <path d="M100 364c107.7 0 195-87.63 195-196S207.7-27 100-27-94 59.63-94 168s86.3 196 194 196Z" fill="#000" fill-opacity=".1"/>
    <path d="M27.1 255.1c1.02-8.5 7.82-18.26 4-25.93-4.28-8.55-16.2-6.13-24.99-9.97-12.26-5.38-15.97-21.22-23.98-31.92-7.18-9.57-24.23-18.84-36.98-15.96-9.25 2.08-12.04 6.23-13 12.97-.4-.07-.6-.94-1-1-3.42-.37-7.11.82-9-2-2.18-3.27-.73-7.75-2.99-10.97a15.31 15.31 0 0 0-4-3.99c-1.66-1.16-4.02-3.2-3-4.99.83-1.5 2.93-1.6 4-2.99.86-1.1.9-2.95 0-3.99-3.5-4.14-8.05 3.98-10 5.99-.55.58.51 1.59 0 2-.02.36 0 .62 0 .99-.03 1.15.03 1.83 0 3v6.98c.02.94-.02 1.04 0 1.99 2.1.7 3.06 1.85 5 2.99 3.8 2.18 7.76 4.62 8 8.98.03.7.58 1.41 1 2 .4.55 1.32 1.84 2 1.99 3.24.77 6.67-.15 10 0 .06 3.9.06 8.1 0 11.97-.1 5.61-1.63 11.4-1 16.95.9 7.85 6.21 14.63 10.99 20.95 18.18 24.17 28.34 52.4 38.98 80.8 1.97 1.56 2.96 3.55 5 4.98 1.6 1.15 3.35 2.9 5 4 1.62 1.09 3.3.95 4.99 1.99 1.17.73 1.8 1.29 3 2-.15-.35.15.33 0 0-4.29-9.36-5.22-22.31 4-26.94 1.75-.9 3.54-1.64 5-3 4.09-3.86 1.88-12.1 5.99-15.95 2.31-2.15 5.13-2.7 8-4 5.14-2.34 6.4-8.31 6-13.95-.37-5.63-1.65-10.36-1-15.97ZM-82.84 111.47c3.63-3.1 10.2-2.86 13 1 2 2.76 1.51 6.6 1 9.97-.71 4.53-1.26 9.43-2 13.97-.22 1.35-.59 2.73 0 3.99 1.35 2.88 6.18 1.57 8-1 1.84-2.61 1.48-5.85.99-8.98-.49-3.15-1.24-6.03 0-8.97 3.09-7.3 14.64-7.23 20.99-11.98 3.94-2.94 5.66-6.64 8-10.97 2.33-4.33 6.05-9.2 10.99-8.97 1.66.06 3.32.06 5 0 4.87-.15 6.45-6.54 3-9.98-.71-.73-1.5-1.1-2-2-.86-1.62.53-4.87 2-5.98 1.48-1.07 2.17-.73 4-1 4.15-.67 8.82-1.34 12.99-2 4.6-.7 10.63-2.41 10-6.97-.57-3.95-5.2-6.05-6-9.98-.22-.95-.57-2.1-1-2.99-1.27-2.52-4.57-1.35-7 0-1-3.65-7.07-6.39-10-3.99-2.46 2.03-2.14 5.93-3 8.98-2.03 7.36-7.37 12.77-12.99 17.95-1.88 1.72-4.44 3.87-7 4-2.55.11-5.16-1.77-4-4 .81-1.53 3.22-3.27 3-4.99-.3-2.15-3.26-1.93-4-3.99 1.49-6.07 7.64-7.7 13-10.97 6.5-3.92 11.46-10.78 14-17.95.43-1.14.58-2.92 0-4-.8-1.52-2.25-1.99-4-1.99-4.14-.06-9.49 1.15-11 4.99-.8 2.06-.5 3.83-1 5.98-1.45 6.38-9.62 8.17-14.99 11.97-2.1 1.48-3.68 2.87-6 4-2.5 1.19-5.22.79-8 1-.48.02-2.5-.08-3 0-1.7 2.33-3.42 4.54-4.99 6.97-1.58 2.44-2.53 6.48-4 8.98-6.9 11.75-11.68 23.73-15.99 36.9-1.5 4.6-3.84 9.24-5 13.97a183.2 183.2 0 0 0-3 13.97 54.9 54.9 0 0 0 4-11.97c1.01-4.63 2.38-9.88 6-12.97ZM81.08 24.69c1.83-2.4.8-6.2 2-8.98 1.98-4.61 7.85-6.42 9.99-10.97.81-1.74.56-4.68 2-5.98 1.2-1.09 3.7-1.01 5-2 2.87-2.2 2.06-7.04-1-8.98-7.65-4.85-22.38 1.24-28.99 5.99C61.6-.13 53.38 6.46 42.1 5.74c-3.12-.2-6.09-1.1-9 0s-5.51 6.14-3 7.98c1.4 1.03 4.42 1.28 6 2 2.9 1.33 2.41 5.12 1 7.97-1.42 2.86-3.33 5.26-5 7.98-1.63 2.64-3.27 5.9-3 8.98.2 2.14 1.31 3.65 3 4.99 3.5 2.78 9.02 1.36 12-2 2.97-3.35 5.14-7.69 8.99-9.97 1.93-1.15 3.82-2.48 6-3 4.9-1.16 10.1-2.83 14.99-3.98 2.34-.57 5.53-.1 7-2Zm213.88 141.64c-.01-2.79-.85-5.23-1-7.98-.15-2.75.28-6.24 0-8.98-.21-2.2-.68-3.8-1-5.98-.3-2.3-.61-4.7-1-6.98-1.15-6.84-2.13-13.38-4-19.95-.71-2.53-2.18-5.5-3-7.98-.8-2.5-2.07-4.52-2.99-6.98v-1c-1-1.84-.87-3.22-2-4.99C269.16 78.46 252.9 64.93 241 48.63c-3.89-5.3-7.12-9.93-14-10.97-10.16-1.57-14.76 4.6-21.98-4.99-1.94-2.57-6.13-4.52-9-3 .74 2.06 1.27 2.91 2 5 .15.43.07 1.53 0 1.99-.15 1.45-1.76 1.8-3 1-1.23-.83-2.14-2.8-3-4-3.2-4.57-11.08-3.96-14.98 0-.16-1.93-.22-4.18-2-4.98-.4 3.78-5.37 6.18-9 4.99-.58-1.87 2.83-1.4 4-3 1.07-1.5-.61-4.72-2-5.98a20.12 20.12 0 0 0-13-4.99c-3.1-.06-6.28.6-8.99-1-1.58-.91-3.4-2.1-5-2.99-3.42-1.93-7.55.1-11 2-4.71 2.61-9.33 5.84-10.98 10.97-1.7 5.09 2.63 11.62 8 10.97 1.35-.19 1.67-.36 2.99 0 1.92.53 2.85 2.03 3 4 .15 1.93.03 5.26 1 6.97.92 1.72 4.92 2.63 6 1 2.52-2.4.63-6.58 0-9.97-.62-3.41-1.03-8.19 1-10.97 2.06-2.8 8.38-1.43 7.99 1.99-.25 2.03-2.1 2.93-2 4.99.1 2.08 1.9 4.08 4 3.99 2.1-.07 4.96-1.51 7-1 2.06.49 2.48 3.49 1 4.99-2.56 2.88-8.68-2.6-10 1-.37.91.1 3 0 3.98-.25 3-3.98 3.63-7 4-3.02.33-6.26.3-9-1-2.74-1.29-4.57-4.4-3-6.99-1.53-1.1-4.14.28-4.99 2-.83 1.7-.24 3.12 0 4.99-3.2-.7-6.17 2.32-8 4.98-1.84 2.7-2.88 5.04-6 5.99-3.13.95-7.34.16-8.99 3-2.12 3.67 3.17 9.3 1 12.96-1.23 2.06-4.65 1.34-7 2-6.18 1.74-7.2 11.14-3 15.95 4.2 4.82 12.53 4.59 17 0 3.11-3.15 3.75-8.16 6-11.97 2.24-3.77 6.73-7.21 11-5.98 1.65.49 2.67 1.88 3.99 3 2.07 1.7 4.94 3.23 7 4.98 1.31 1.1 2.12 2.28 2 3.99-.13 1.38-.54 2.7-1 3.99-1.3 3.7 3.6 7.02 7 4.98 3.42-2.02 4.29-7.79 1.99-10.97-3.21-4.4-11.17-5.5-11-10.97 3.7-3 9.84-.27 12 4 2.16 4.23 2.18 9.57 4 13.96 1.82 4.4 6.75 8.13 11 5.98-1.12-3.8-1.9-8.2-3-11.97 2.7-2.03 5.75 3.98 8.99 3 1.97-.62 1.85-3.1 1-5-.83-1.89-2.62-3.92-3-5.98-.61-3.73 4.2-6.6 8-5.98 3.75.6 6.28 4.25 7 7.98.26 1.47.35 2.63 1 3.99 1.4 2.95 4.97 3.75 7.99 4.98 3.04 1.23 6.26 4.98 5 7.98-.6 1.32-1.5 2.64-1 4 .46 1.18 2 .7 2 1.99-.03.85-1.2 1.65-2 2-2.05.82-4.03 2.04-6 2.98a5.06 5.06 0 0 0-3 5c.24 3.06 3.27 4.43 5 6.97 1.66 2.43 1.95 5.22 3 7.98.99 2.55 2.36 4.8 4 6.99 5.1 6.92 6.5 15.72 8.99 23.94 1.11 3.7 3.17 8.27 7 8.97 2.09.37 4.02-.24 6-1 5.51-2.17 11.14-4.52 14.98-8.97 3.9-4.48 4.99-12.58 1-16.96-.49-.58-1.26.08-2 0-1.04-.12-1.07-.43-2 0-2.8 1.29-6.65 1.06-8.99-1-2.31-2.03-3.61-6.21-5-8.97-1.5-3.03-2.46-5.9-4-8.98 1.83-1.53 4.13-.5 6 1 1.85 1.5 2.49 4.14 4 5.98 4.6 5.7 12.69 8.11 19.99 8.98 1.85.22 4.27.23 6 1 5.45 2.49 6.24 10.25 11.99 11.97 1.6.48 3.49.28 5 1 2.28 1.06 3.33 4.55 4 6.98 1.26 4.5 2.09 8.66 4 12.96 1.87 4.3 6.3 6.92 10.99 6.98 2.92.07 4.86-.94 7-2.99.24-4.23 1-7.66 1-11.97.02-.89.06-2.1 0-2.99Zm-79.95 80.8c-2.9.56-2.43.84-4 2.99-2.06 2.78-5.14 6.24-7 8.98-3.17 4.65-.82 12.04-5 15.95-.84.8-2.23 1.12-3 2-1.67 1.93-1.04 5.44 1 6.98s5.78 2.3 8 1c2.2-1.3 3.24-4.55 4-6.98.56-1.76 1.6-3.79 3-5 2.38-2.06 5.85-.56 9-.99 13.35-1.85 6.7-27.42-6-24.94Z" fill="#000" fill-opacity=".1"/>
    <path d="M219.99 210.22c7.65-6.58 10.5-21.47 1-24.92-3.6-1.3-7.42-.62-10.98-1.99-4.66-1.79-7.29-7.27-8.98-11.96-4.42-12.27-8.56-24.6-12.97-36.87-2.67-7.39-7.15-15.85-14.97-16.94-4.43-.62-8.57 1.2-12.97 1.99-15.16 2.75-40.36-33.5-51.9-8.97-1.6-6.67-11.47-3.94-14.96 2-3.48 5.92-4.47 13.81-9.98 17.93-4.21 3.14-11.51 3.02-14.97 6.98-2.42 2.78-1.68 7.29-2 10.96-.58 7.01-1.4 13.92-1.99 20.93-.47 5.65-.82 12.01 2 16.94 2.81 4.94 9.76 6.81 13.97 3 1.93-1.77 3.4-3.9 4.99-5.99 2.56-3.36 6.88-5.07 10.97-3.99 3.44.9 6.56 3.39 8.98 5.98 19.73 21.12 27.08 50.93 27.94 79.73.17 5.28-.95 11.05 1 15.95 2.29 5.74 7.57 9.92 8.98 15.94 1.09 4.62 0 10.64 2 14.95 3.67 7.94 15.27 7.69 21.95 2 6.68-5.7 9.62-15.3 10.98-23.93 1.35-8.64 2.12-17.63 6.98-24.9 3.02-4.53 6.88-8.96 8.98-13.96 2.96-6.99.25-14.86 3-21.93 3.67-9.35 15.3-12.35 22.95-18.93Z" fill="#000" fill-opacity=".1"/>
    <rect fill="#fff" fill-opacity=".91" height="43.48" rx="17.52" width="101.14" x="212" y="282"/>
    <path d="M255.38 297.22h2.27v13.24h-2.6v-10.48l-2.5.7-.64-2.23 3.47-1.23Zm9.58 13.5a4.62 4.62 0 0 1-3.9-1.87c-.92-1.26-1.39-2.93-1.39-5 0-2.09.47-3.75 1.4-5a4.6 4.6 0 0 1 3.9-1.9c1.66 0 2.95.64 3.89 1.9.93 1.25 1.4 2.91 1.4 5 0 2.07-.47 3.74-1.4 5a4.59 4.59 0 0 1-3.9 1.87Zm-2-3.65a2.2 2.2 0 0 0 2 1.1 2.2 2.2 0 0 0 2-1.12 6 6 0 0 0 .7-3.2 6.1 6.1 0 0 0-.7-3.24 2.2 2.2 0 0 0-2-1.12 2.2 2.2 0 0 0-2 1.12 6.26 6.26 0 0 0-.68 3.23c0 1.41.23 2.49.68 3.23Zm13.91 3.65a4.62 4.62 0 0 1-3.9-1.87c-.93-1.26-1.4-2.93-1.4-5 0-2.09.47-3.75 1.4-5a4.6 4.6 0 0 1 3.9-1.9c1.67 0 2.96.64 3.9 1.9.93 1.25 1.4 2.91 1.4 5 0 2.07-.47 3.74-1.4 5a4.58 4.58 0 0 1-3.9 1.87Zm-2-3.65a2.2 2.2 0 0 0 2 1.1 2.2 2.2 0 0 0 2-1.12 6 6 0 0 0 .7-3.2 6.1 6.1 0 0 0-.7-3.24 2.2 2.2 0 0 0-2-1.12 2.2 2.2 0 0 0-2 1.12 6.27 6.27 0 0 0-.68 3.23c0 1.41.22 2.49.68 3.23Zm17.86-.32a3.6 3.6 0 0 1-1.06 2.7 4.66 4.66 0 0 1-2.76 1.23v1.67h-1.27v-1.65a5.41 5.41 0 0 1-2.72-.89 4.28 4.28 0 0 1-1.62-2.1l2.25-1.3a2.53 2.53 0 0 0 2.1 1.72v-3.27h-.02l-.04-.02a8.34 8.34 0 0 1-2.06-.98 4.03 4.03 0 0 1-.87-.74 3.74 3.74 0 0 1-.77-2.32c0-1.11.35-2 1.07-2.67a4.5 4.5 0 0 1 2.68-1.15v-1.65h1.27v1.69a4.28 4.28 0 0 1 3.63 2.66l-2.2 1.29c-.3-.76-.77-1.22-1.43-1.38v3.15c1.17.47 1.96.84 2.36 1.12.97.7 1.46 1.66 1.46 2.9Zm-6.26-5.93c0 .27.09.52.27.73a3 3 0 0 0 .9.63v-2.65c-.37.08-.66.23-.87.45-.2.23-.3.5-.3.84Zm2.44 7.27c.8-.17 1.21-.61 1.21-1.32 0-.31-.1-.58-.3-.8-.2-.2-.5-.4-.9-.6v2.72Z" fill="#141414"/>
    <g clip-path="url(#b)">
      <path d="M221.37 306.64v3.07a2.17 2.17 0 0 0 2.25 2.18h18.75c1.24 0 2.25-.9 2.25-2.18v-3.07h-23.25Z" fill="#359846"/>
      <path d="M242.37 296.14h-18.75c-1.23 0-2.25.9-2.25 2.17v3.08h23.25v-3.08a2.17 2.17 0 0 0-2.25-2.17Z" fill="#EA8634"/>
      <path d="M221.37 301.39h23.25v5.25h-23.25v-5.25Z" fill="#FCFBF0"/>
      <path d="M242.3 311.89c1.24 0 2.32-.9 2.32-2.18v-3.07h-8.47l6.15 5.25Z" fill="#21872F"/>
      <path d="M242.37 296.14h-18.75l6.23 5.25h14.77v-3.08a2.17 2.17 0 0 0-2.25-2.17Z" fill="#E27423"/>
      <path d="M236.19 306.64h8.43v-5.25h-14.8l6.37 5.25Z" fill="#F7F4E2"/>
      <path d="M242.37 296.14h-18.75l17.37 5.25h3.63v-3.08a2.17 2.17 0 0 0-2.25-2.17Z" fill="#D86619"/>
      <path d="M244.62 302.44v-1.05h-3.82l3.82 1.05Z" fill="#F2E9C2"/>
      <path d="M244.62 309.67c0 1.35-1 2.22-2.25 2.22h-18.75a2.23 2.23 0 0 1-2.25-2.25" fill="#167A20"/>
      <path d="M233 301.65a2.35 2.35 0 0 0-2.36 2.36 2.35 2.35 0 0 0 2.36 2.36 2.35 2.35 0 0 0 2.36-2.36 2.35 2.35 0 0 0-2.36-2.36Zm1.95 2.62c0 .04.04.12.07.12-.03.1-.03.22-.07.33-.04-.03-.11 0-.15.04-.04.04 0 .11.04.15-.04.11-.12.19-.15.3-.04-.04-.12-.04-.15.04a.1.1 0 0 0 0 .15l-.12.11-.82-.94-.34-.26.04-.04.34.27 1.08.56-.97-.75-.38-.15c0-.04 0-.04.04-.08l.38.15 1.2.27-1.17-.38-.4-.07V304l.4.04 1.24-.08-1.24-.07-.4.04v-.08l.4-.07 1.17-.38-1.2.26-.38.15c0-.03 0-.03-.04-.07l.38-.15 1.05-.68-1.09.57-.34.26-.03-.04.33-.26.83-.94.11.11c-.04.04-.04.12 0 .15.04.04.11.04.15.04.08.08.11.19.15.3-.04.04-.07.08-.04.15.04.04.08.08.15.04.04.11.08.22.08.34-.04 0-.08.07-.08.1 0 .05.08.12.12.08v.3c-.15.04-.2.08-.2.15Zm-3.26-1.83c.03.03.1.03.15 0 .03-.04.03-.12.03-.15a.75.75 0 0 1 .3-.15c.04.03.08.07.15.03.04-.03.08-.07.04-.15.11-.03.23-.07.34-.07 0 .04.07.07.11.07.04 0 .11-.07.08-.1h.3c0 .03.03.1.07.1.04 0 .11-.03.11-.07.12.04.23.04.34.07-.04.04 0 .12.04.15.04.04.11 0 .15-.03.11.03.19.1.3.15-.04.03-.04.1.04.15.03.03.1.03.15 0l.1.1-.93.83-.26.34-.04-.04.26-.33.57-1.1-.75 1.02-.15.38c-.04 0-.04 0-.08-.04l.15-.38.26-1.2-.37 1.17-.08.4H233l.04-.4-.04-1.24-.08 1.24.04.4h-.07l-.08-.4-.37-1.17.26 1.2.15.38c-.04 0-.04 0-.08.04l-.15-.38-.67-1.05.56 1.09.26.34-.03.03-.27-.33-.93-.83c.03 0 .07-.04.15-.07Zm-.15 3.03-.12-.1c.04-.05.04-.12 0-.16-.03-.04-.1-.04-.15-.04-.07-.07-.1-.18-.15-.3.04-.03.08-.07.04-.15-.04-.03-.07-.07-.15-.03a1.08 1.08 0 0 1-.07-.34c.03 0 .07-.08.07-.11 0-.04-.07-.12-.11-.08v-.3c.04 0 .11-.04.11-.07 0-.04-.04-.12-.07-.12.03-.1.03-.22.07-.33.04.03.11 0 .15-.04.04-.04 0-.11-.04-.15.04-.11.12-.19.15-.3.04.04.12.04.15-.04.04-.07.04-.11 0-.15l.12-.11.82.94.34.26-.04.04-.34-.27-1.08-.56 1.05.68.37.15c0 .03 0 .03-.04.07l-.37-.15-1.2-.26 1.16.37.41.08v.07l-.4-.03-1.28.07 1.23.08.42-.04v.07l-.42.08-1.16.37 1.2-.26.38-.15c0 .04 0 .04.03.08l-.37.15-1.05.67 1.09-.56.33-.26.04.03-.34.27-.78.93Zm1.3.6c0-.03-.03-.1-.07-.1-.03 0-.1.03-.1.07-.12-.04-.23-.04-.35-.08.04-.04 0-.11-.03-.15-.04-.04-.12 0-.15.04-.12-.04-.2-.11-.3-.15.03-.04.03-.11-.04-.15a.1.1 0 0 0-.15 0l-.11-.11.93-.83.27-.34.03.04-.26.34-.56 1.09.67-1.05.15-.38c.04 0 .04 0 .08.04l-.15.37-.26 1.2.37-1.16.08-.41h.07l-.04.41.08 1.24.07-1.24-.03-.41h.07l.08.41.37 1.16-.26-1.2-.15-.37c.04 0 .04 0 .07-.04l.15.38.68 1.05-.56-1.1-.27-.33.04-.04.26.34.94.83-.11.1a.14.14 0 0 0-.15 0c-.04.05-.04.12-.04.16a.75.75 0 0 1-.3.15c-.04-.04-.07-.08-.15-.04-.07.04-.07.08-.04.15a.94.94 0 0 1-.33.08c0-.04-.08-.08-.12-.08-.03 0-.1.08-.07.11h-.3Z" fill="#7D7DBC"/>
      <path d="m233.52 304.46.12.11v-.03l-.12-.08Zm-.52-2.81a2.5 2.5 0 0 0-1.8.82l.22.2.12-.12.1-.11c.05.03.12.03.16 0 .04-.04.04-.12.04-.15.03-.04.1-.04.15-.08l.56 1.09.26.34-.04.03-.26-.33-.94-.83.8.9.1.08.23.18.64.53.03-.04.34.26 1.09.57c-.04.03-.04.1-.08.15-.03-.04-.1-.04-.15.03-.03.04-.03.12 0 .15l.23.2a2.34 2.34 0 0 0-1.8-3.86Zm-.19 1.99-.15-.38-.67-1.01c.03-.04.07-.08.15-.08.03.04.07.08.15.04.03-.04.07-.07.03-.15.04 0 .12-.04.15-.04l.27 1.2.15.38c-.04.04-.04.04-.08.04Zm.23-.04.03-.41-.07-1.24-.08 1.24.04.4h-.07l-.08-.4-.37-1.17.15-.03c0 .03.07.07.1.07.05 0 .12-.07.08-.11h.3c0 .04.04.11.08.11s.11-.04.11-.07l.15.03-.37 1.17-.08.4h.08Zm.07.04.15-.38.26-1.2c.04 0 .12.04.15.04-.03.04 0 .11.04.15.04.04.11 0 .15-.04.04.04.11.04.15.08l-.67.97-.15.38h-.08Zm1.69 1.12c-.04.04 0 .11.04.15-.04.04-.04.11-.08.15l-1.01-.71-.38-.15c0-.04 0-.04.04-.08l.38.15 1.2.27c0 .03-.04.1-.04.15-.08 0-.11.03-.15.07Zm.26-.9v.3c-.04 0-.11.04-.11.08 0 .03.04.1.07.1l-.03.16-1.17-.38-.4-.07v-.08l.4.04 1.24-.07-1.24-.08-.4.04v-.08l.4-.07 1.17-.38.03.15c-.03 0-.07.08-.07.12 0 .18.04.22.11.22Zm-.26-.6c.04.04.07.08.15.04 0 .04.04.11.04.15l-1.2.26-.38.15c0-.04 0-.04-.04-.07l.38-.15 1.01-.68c.04.04.08.08.08.15-.04.04-.08.11-.04.15Zm-.04-.26-1.09.56-.33.26-.04-.03.34-.27.82-.93-.94.82-.26.34-.04-.04.27-.34.56-1.08c.04.03.11.03.15.07-.04.04-.04.11.04.15.03.04.1.04.15 0l.1.11.12.12c-.04.03-.04.1 0 .15.04.03.11.03.15.03-.04-.03 0 0 0 .08Z" fill="#6060B2"/>
    </g>
    <path d="M188.02 456h10.73v29h-10.73v-2.84c-1.78 2.43-4.37 3.65-7.77 3.65-3.17 0-5.72-1.08-7.66-3.25-1.9-2.2-2.84-5.47-2.84-9.8V456h10.73v15.6c0 2.6 1.2 3.89 3.6 3.89 1.27 0 2.24-.4 2.9-1.22a5 5 0 0 0 1.04-3.36V456Zm32.14-.81a12 12 0 0 1 9.58 4.35c2.47 2.9 3.7 6.55 3.7 10.96 0 4.4-1.23 8.06-3.7 10.96a12 12 0 0 1-9.58 4.35c-3.32 0-5.91-1.14-7.77-3.42v14.21h-10.73V456h10.73v2.61c1.86-2.28 4.45-3.42 7.78-3.42Zm-6.38 19.2a4.9 4.9 0 0 0 3.78 1.56 4.7 4.7 0 0 0 3.7-1.56 5.5 5.5 0 0 0 1.46-3.89 5.5 5.5 0 0 0-1.45-3.89 4.72 4.72 0 0 0-3.72-1.56 4.9 4.9 0 0 0-3.77 1.56 5.64 5.64 0 0 0-1.39 3.89c0 1.55.47 2.84 1.4 3.89Zm39.89-8.18h-6.09v6.26c0 .97.23 1.68.7 2.15.46.46 1.14.73 2.03.81.92.04 2.04.02 3.36-.06V485c-6.07.85-10.4.33-13-1.57-2.54-1.9-3.82-5.35-3.82-10.38v-6.84h-4.06V456h4.06v-4.93l10.73-3.19V456h6.09v10.2Zm16.1 19.6a15.4 15.4 0 0 1-11.08-4.4 14.62 14.62 0 0 1-4.52-10.91c0-4.33 1.5-7.96 4.52-10.9 3.02-2.94 6.71-4.41 11.08-4.41s8.06 1.47 11.08 4.4a14.62 14.62 0 0 1 4.52 10.91c0 4.33-1.5 7.96-4.52 10.9a15.27 15.27 0 0 1-11.08 4.41Zm-3.54-11.6a4.8 4.8 0 0 0 3.54 1.4 4.6 4.6 0 0 0 3.48-1.4c.93-.96 1.4-2.2 1.4-3.71 0-1.5-.47-2.73-1.4-3.65a4.5 4.5 0 0 0-3.48-1.45 4.7 4.7 0 0 0-3.54 1.45 5.06 5.06 0 0 0-1.33 3.65c0 1.5.45 2.75 1.33 3.71Zm61.4-5.57v10.44h-4.07V485H312.2v-5.92h-17.05v-10.44l11.2-24.24h13.16l-11.37 24.24h4.06v-5.68h11.37v5.68h4.06Zm35.4 16.36h-12.88l-5.8-9.74-5.86 9.74h-12.87l12.3-20.53-12.01-20.07h12.87l5.57 9.28 5.51-9.28h12.88l-11.95 20.07L363.03 485Zm-239.87 31h1.4l-4.28 10.92a5.31 5.31 0 0 1-1.66 2.32c-.7.57-1.5.83-2.38.76v-1.24c1.2.13 2.11-.56 2.74-2.08l.26-.62-4.48-10.06h1.4l3.76 8.38 3.24-8.38Zm10.98 8.74a5.1 5.1 0 0 1-3.72 1.5 5.16 5.16 0 0 1-5.26-5.24c0-1.48.51-2.72 1.52-3.72a5.13 5.13 0 0 1 3.74-1.52c1.47 0 2.71.5 3.72 1.52a4.98 4.98 0 0 1 1.54 3.72c0 1.48-.51 2.73-1.54 3.74Zm-6.52-.92a3.8 3.8 0 0 0 2.8 1.14 3.87 3.87 0 0 0 3.94-3.96 3.8 3.8 0 0 0-1.14-2.8 3.77 3.77 0 0 0-2.8-1.16 3.8 3.8 0 0 0-2.8 1.16 3.8 3.8 0 0 0-1.14 2.8c0 1.1.38 2.05 1.14 2.82Zm17.31-7.82h1.32v10h-1.32v-1.56a3.7 3.7 0 0 1-3.36 1.8 3.81 3.81 0 0 1-2.88-1.1 4.24 4.24 0 0 1-1.04-3V516h1.32v6.14c0 .9.24 1.59.7 2.08.48.5 1.16.74 2.02.74.96 0 1.74-.3 2.34-.9.6-.61.9-1.55.9-2.82V516Zm5.44 1.66c.6-1.21 1.66-1.82 3.16-1.82v1.28c-.91 0-1.66.27-2.27.8-.6.53-.9 1.37-.9 2.52V526h-1.32v-10h1.33v1.66Zm14.58-1.9a4.5 4.5 0 0 1 3.58 1.58 5.4 5.4 0 0 1 1.34 4.32h-8.78a3.64 3.64 0 0 0 1.28 2.42 4.2 4.2 0 0 0 2.7.88 3.9 3.9 0 0 0 1.96-.46 3.2 3.2 0 0 0 1.26-1.24l1.16.68a4.74 4.74 0 0 1-1.8 1.68c-.76.41-1.62.62-2.6.62a5.2 5.2 0 0 1-3.84-1.48 5.1 5.1 0 0 1-1.48-3.76 5.03 5.03 0 0 1 5.22-5.24Zm0 1.28a3.75 3.75 0 0 0-3.86 3.34h7.46a3.73 3.73 0 0 0-1.22-2.46 3.53 3.53 0 0 0-2.38-.88Zm15.66-1.04h1.32v10h-1.32v-1.96a4.48 4.48 0 0 1-4.04 2.2 5 5 0 0 1-3.66-1.52 5.1 5.1 0 0 1-1.5-3.72c0-1.47.5-2.7 1.5-3.72a5 5 0 0 1 3.66-1.52c1.78 0 3.12.73 4.04 2.2V516Zm-6.74 7.82a3.8 3.8 0 0 0 2.8 1.14 3.87 3.87 0 0 0 3.94-3.96 3.8 3.8 0 0 0-1.14-2.8 3.77 3.77 0 0 0-2.8-1.16 3.8 3.8 0 0 0-2.8 1.16 3.8 3.8 0 0 0-1.14 2.8c0 1.1.38 2.05 1.14 2.82Zm12.18-6.16c.61-1.21 1.66-1.82 3.16-1.82v1.28c-.9 0-1.66.27-2.26.8-.6.53-.9 1.37-.9 2.52V526h-1.32v-10h1.32v1.66Zm9.65-1.9a3.7 3.7 0 0 1 2.86 1.12c.7.73 1.06 1.73 1.06 2.98V526h-1.32v-6.14c0-.9-.24-1.59-.72-2.08-.47-.5-1.14-.74-2-.74-.96 0-1.74.3-2.34.92-.6.6-.9 1.53-.9 2.8V526h-1.32v-10h1.32v1.56a3.7 3.7 0 0 1 3.36-1.8Zm7.81-2.16a.93.93 0 0 1-.68.28c-.27 0-.5-.1-.68-.28a.92.92 0 0 1-.28-.68c0-.27.1-.5.28-.68a.92.92 0 0 1 .68-.28c.27 0 .5.1.68.28.19.19.28.41.28.68 0 .27-.1.5-.28.68Zm-1.34 12.4v-10h1.32v10h-1.32Zm8.8-10.24a3.7 3.7 0 0 1 2.86 1.12c.7.73 1.06 1.73 1.06 2.98V526h-1.32v-6.14c0-.9-.24-1.59-.72-2.08-.47-.5-1.13-.74-2-.74-.96 0-1.74.3-2.34.92-.6.6-.9 1.53-.9 2.8V526h-1.32v-10h1.32v1.56a3.7 3.7 0 0 1 3.36-1.8Zm15.07.24h1.32v9.6a4.2 4.2 0 0 1-1.48 3.4 5.33 5.33 0 0 1-3.54 1.24c-2.34 0-3.92-.81-4.74-2.44l1.16-.66c.6 1.21 1.8 1.82 3.58 1.82 1.15 0 2.05-.3 2.7-.92.67-.6 1-1.41 1-2.44v-1.56a4.48 4.48 0 0 1-4.04 2.2c-1.42 0-2.64-.5-3.66-1.52a5.1 5.1 0 0 1-1.5-3.72c0-1.47.5-2.7 1.5-3.72a4.99 4.99 0 0 1 3.66-1.52c1.78 0 3.12.73 4.04 2.2V516Zm-6.74 7.82a3.8 3.8 0 0 0 2.8 1.14 3.87 3.87 0 0 0 3.94-3.96 3.8 3.8 0 0 0-1.14-2.8 3.77 3.77 0 0 0-2.8-1.16 3.8 3.8 0 0 0-2.8 1.16 3.8 3.8 0 0 0-1.14 2.8c0 1.1.38 2.05 1.14 2.82Zm11.9-5.2c0 .45.2.81.6 1.08.4.27.88.47 1.46.62.57.15 1.14.31 1.72.5.57.17 1.06.47 1.46.9.4.41.6.96.6 1.64 0 .85-.34 1.55-1.02 2.08-.67.53-1.54.8-2.6.8a4.5 4.5 0 0 1-2.46-.64 3.43 3.43 0 0 1-1.4-1.66l1.12-.66c.18.52.52.93 1 1.24.5.3 1.07.44 1.74.44.65 0 1.2-.13 1.64-.38.44-.27.66-.67.66-1.22 0-.45-.2-.81-.6-1.08-.4-.27-.89-.47-1.46-.62a42 42 0 0 1-1.72-.48 3.5 3.5 0 0 1-1.46-.9c-.4-.43-.6-.98-.6-1.66 0-.81.32-1.5.96-2.04a3.7 3.7 0 0 1 2.46-.82c.81 0 1.52.19 2.14.56.61.36 1.06.85 1.36 1.48l-1.1.64c-.39-.93-1.19-1.4-2.4-1.4-.58 0-1.07.14-1.48.42a1.3 1.3 0 0 0-.62 1.16Zm25.08-2.62h1.36l-3.08 10h-1.44l-2.58-8.06-2.58 8.06h-1.44l-3.08-10h1.36l2.46 8.3 2.62-8.3h1.32l2.62 8.3 2.46-8.3Zm4.69-2.4a.92.92 0 0 1-.68.28c-.27 0-.5-.1-.68-.28a.93.93 0 0 1-.28-.68c0-.27.1-.5.28-.68a.93.93 0 0 1 .68-.28c.27 0 .5.1.68.28.19.19.28.41.28.68 0 .27-.1.5-.28.68Zm-1.34 12.4v-10h1.32v10h-1.32Zm9.42-8.72h-2.88v6.06c0 .55.1.94.32 1.18.21.23.53.35.96.36.43 0 .96-.01 1.6-.04V526c-1.4.21-2.45.11-3.16-.3-.7-.41-1.04-1.2-1.04-2.36v-6.06h-2.1V516h2.1v-2.4l1.32-.4v2.8h2.88v1.28Zm6.88-1.52a3.7 3.7 0 0 1 2.86 1.12c.7.73 1.06 1.73 1.06 2.98V526h-1.32v-6.14c0-.9-.24-1.59-.72-2.08-.46-.5-1.13-.74-2-.74-.96 0-1.74.3-2.34.92-.6.6-.9 1.53-.9 2.8V526h-1.32v-14h1.32v5.56a3.7 3.7 0 0 1 3.36-1.8Zm16.01 10.52a5.13 5.13 0 0 1-5.28-5.28 5.14 5.14 0 0 1 5.28-5.28c.98 0 1.86.23 2.66.7s1.41 1.1 1.82 1.88l-2.22 1.3c-.2-.41-.5-.74-.92-.98a2.6 2.6 0 0 0-1.36-.36 2.65 2.65 0 0 0-2.68 2.74 2.6 2.6 0 0 0 2.68 2.72c.52 0 .98-.11 1.38-.34.42-.24.72-.57.92-.98l2.24 1.28a5.08 5.08 0 0 1-4.52 2.6Zm14.25-1.52a5.15 5.15 0 0 1-3.76 1.52 5.15 5.15 0 0 1-5.28-5.28c0-1.48.5-2.73 1.52-3.74a5.11 5.11 0 0 1 3.76-1.54 5.1 5.1 0 0 1 3.76 1.54 5.05 5.05 0 0 1 1.54 3.74 5.1 5.1 0 0 1-1.54 3.76Zm-5.7-1.78c.52.52 1.17.78 1.94.78a2.68 2.68 0 0 0 2.72-2.76 2.68 2.68 0 0 0-2.72-2.76 2.63 2.63 0 0 0-2.7 2.76c0 .8.26 1.46.76 1.98Zm15.66-6.98h2.58v10h-2.58v-1.12c-.63.93-1.62 1.4-2.98 1.4-1.1 0-2-.37-2.72-1.1a4.2 4.2 0 0 1-1.06-3.04V516h2.58v5.82c0 .67.18 1.18.54 1.54.36.35.84.52 1.44.52.66 0 1.2-.2 1.6-.62.4-.41.6-1.03.6-1.86V516Zm10.5-.28c1.1 0 2 .37 2.7 1.1a4.15 4.15 0 0 1 1.08 3.04V526h-2.58v-5.82c0-.67-.18-1.17-.54-1.52a1.95 1.95 0 0 0-1.44-.54c-.67 0-1.2.2-1.6.62-.4.41-.6 1.03-.6 1.86v5.4h-2.58v-10h2.58v1.12c.63-.93 1.62-1.4 2.98-1.4Zm11.7 2.76h-2.26v4.16c0 .35.09.6.26.76.18.16.43.25.76.28.34.01.75 0 1.24-.02V526c-1.77.2-3.02.03-3.76-.5-.72-.53-1.08-1.49-1.08-2.86v-4.16h-1.74V516h1.74v-2.02l2.58-.78v2.8h2.26v2.48Zm4.56-.76a2.7 2.7 0 0 1 1.18-1.44 3.68 3.68 0 0 1 1.86-.48v2.88c-.79-.1-1.5.07-2.12.48-.62.41-.92 1.1-.92 2.06V526h-2.58v-10h2.58v1.72Zm11.28-1.72h2.76l-3.64 10a6.48 6.48 0 0 1-2.08 3.12c-.85.65-1.92.95-3.2.88v-2.4c.7.01 1.24-.13 1.64-.44.42-.3.74-.8.98-1.48l-4.1-9.68h2.82l2.6 6.72 2.22-6.72Zm-117.51 24.72c1.34 0 2.49.51 3.44 1.54a5.23 5.23 0 0 1 1.44 3.74 5.3 5.3 0 0 1-1.44 3.76 4.54 4.54 0 0 1-3.44 1.52c-1.4 0-2.48-.49-3.24-1.46V551h-2.58v-14h2.58v5.18a3.87 3.87 0 0 1 3.24-1.46Zm-2.46 7.32c.52.52 1.18.78 1.98.78s1.46-.26 1.98-.78c.53-.53.8-1.21.8-2.04 0-.83-.27-1.5-.8-2.02a2.65 2.65 0 0 0-1.98-.8c-.8 0-1.46.27-1.98.8-.52.52-.78 1.2-.78 2.02 0 .83.26 1.5.78 2.04Zm16.75-7.04h2.59v10h-2.59v-1.18a3.93 3.93 0 0 1-3.25 1.46c-1.34 0-2.48-.5-3.44-1.52a5.35 5.35 0 0 1-1.43-3.76c0-1.48.48-2.73 1.43-3.74a4.55 4.55 0 0 1 3.44-1.54c1.4 0 2.48.49 3.25 1.46V541Zm-4.75 7.04c.52.52 1.18.78 1.97.78a2.7 2.7 0 0 0 2.79-2.82c0-.83-.27-1.5-.8-2.02a2.65 2.65 0 0 0-1.99-.8 2.7 2.7 0 0 0-2.75 2.82c0 .83.25 1.5.78 2.04Zm11.98-4.2c0 .27.17.49.52.66.36.16.79.3 1.3.44.5.12 1.01.28 1.52.48.5.19.93.5 1.28.96.36.45.54 1.02.54 1.7 0 1.03-.39 1.82-1.16 2.38-.76.55-1.72.82-2.86.82-2.06 0-3.46-.8-4.2-2.38l2.24-1.26c.29.87.94 1.3 1.96 1.3.92 0 1.38-.29 1.38-.86 0-.27-.18-.48-.54-.64a6.73 6.73 0 0 0-1.28-.46c-.51-.13-1.02-.3-1.52-.5-.51-.2-.94-.51-1.3-.94a2.57 2.57 0 0 1-.52-1.64c0-.99.36-1.76 1.08-2.32a4.28 4.28 0 0 1 2.72-.86c.81 0 1.55.19 2.22.56.66.36 1.19.88 1.58 1.56l-2.2 1.2a1.65 1.65 0 0 0-1.6-1.02c-.34 0-.62.07-.84.22a.69.69 0 0 0-.32.6Zm8.86 3.22c.35 1.25 1.29 1.88 2.82 1.88.99 0 1.73-.33 2.24-1l2.08 1.2a4.96 4.96 0 0 1-4.36 2.14c-1.65 0-2.98-.5-3.98-1.5s-1.5-2.26-1.5-3.78a5.14 5.14 0 0 1 5.28-5.28c1.47 0 2.67.5 3.62 1.52a5.26 5.26 0 0 1 1.44 3.76 6 6 0 0 1-.1 1.06h-7.54Zm-.04-2h5.1a2.4 2.4 0 0 0-.92-1.52c-.45-.33-.97-.5-1.56-.5a2.5 2.5 0 0 0-2.62 2.02ZM284 537h2.58v14H284v-1.18a3.87 3.87 0 0 1-3.24 1.46 4.6 4.6 0 0 1-3.46-1.52 5.35 5.35 0 0 1-1.42-3.76 5.3 5.3 0 0 1 1.42-3.74 4.57 4.57 0 0 1 3.46-1.54c1.4 0 2.48.49 3.24 1.46V537Zm-4.76 11.04c.54.52 1.2.78 2 .78s1.46-.26 1.98-.78A2.8 2.8 0 0 0 284 546c0-.83-.26-1.5-.78-2.02a2.65 2.65 0 0 0-1.98-.8c-.8 0-1.46.27-2 .8-.52.52-.78 1.2-.78 2.02 0 .83.26 1.5.78 2.04Zm20.52-7.32c1.35 0 2.5.51 3.44 1.54a5.23 5.23 0 0 1 1.44 3.74 5.3 5.3 0 0 1-1.44 3.76 4.54 4.54 0 0 1-3.44 1.52c-1.4 0-2.48-.49-3.24-1.46V555h-2.58v-14h2.58v1.18a3.87 3.87 0 0 1 3.24-1.46Zm-2.46 7.32c.52.52 1.18.78 1.98.78s1.46-.26 1.98-.78c.54-.53.8-1.21.8-2.04 0-.83-.26-1.5-.8-2.02a2.65 2.65 0 0 0-1.98-.8c-.8 0-1.46.27-1.98.8-.52.52-.78 1.2-.78 2.02 0 .83.26 1.5.78 2.04Zm11.74-5.32a2.7 2.7 0 0 1 1.18-1.44 3.68 3.68 0 0 1 1.86-.48v2.88c-.78-.1-1.5.07-2.12.48-.61.41-.92 1.1-.92 2.06V551h-2.58v-10h2.58v1.72Zm5.83-2.92a1.57 1.57 0 0 1-1.58-1.58c0-.43.15-.8.46-1.12a1.55 1.55 0 0 1 2.24 0 1.53 1.53 0 0 1 0 2.24c-.3.3-.68.46-1.12.46Zm-1.28 11.2v-10h2.58v10h-2.58Zm9.7.28a5.13 5.13 0 0 1-5.28-5.28 5.14 5.14 0 0 1 5.28-5.28c.97 0 1.86.23 2.66.7s1.4 1.1 1.82 1.88l-2.22 1.3c-.2-.41-.5-.74-.92-.98a2.6 2.6 0 0 0-1.36-.36 2.65 2.65 0 0 0-2.68 2.74 2.6 2.6 0 0 0 2.68 2.72c.52 0 .98-.11 1.38-.34.42-.24.72-.57.92-.98l2.24 1.28a5.08 5.08 0 0 1-4.52 2.6Zm7.17-11.48a1.57 1.57 0 0 1-1.58-1.58c0-.43.15-.8.46-1.12.32-.32.69-.48 1.12-.48.44 0 .8.16 1.12.48a1.53 1.53 0 0 1 0 2.24c-.31.3-.68.46-1.12.46Zm-1.28 11.2v-10h2.58v10h-2.58Zm10.5-10.28c1.1 0 2 .37 2.7 1.1a4.15 4.15 0 0 1 1.08 3.04V551h-2.58v-5.82c0-.67-.18-1.17-.54-1.52a1.95 1.95 0 0 0-1.44-.54c-.67 0-1.2.2-1.6.62-.4.41-.6 1.03-.6 1.86v5.4h-2.58v-10h2.58v1.12c.62-.93 1.62-1.4 2.98-1.4Zm13.64.28h2.52v9.52c0 1.55-.51 2.73-1.54 3.54a5.7 5.7 0 0 1-3.68 1.22c-1.08 0-2.03-.2-2.86-.62a4.35 4.35 0 0 1-1.88-1.82l2.2-1.26c.5.93 1.38 1.4 2.62 1.4.81 0 1.45-.21 1.92-.64.47-.43.7-1.03.7-1.82v-1.08a3.77 3.77 0 0 1-3.2 1.52 4.8 4.8 0 0 1-3.56-1.48 5.1 5.1 0 0 1-1.42-3.64 5.04 5.04 0 0 1 4.98-5.12c1.37 0 2.44.5 3.2 1.52V541Zm-4.82 6.82c.53.5 1.2.76 2.02.76a2.66 2.66 0 0 0 2.8-2.74 2.7 2.7 0 0 0-2.8-2.72c-.81 0-1.49.26-2.02.78a2.6 2.6 0 0 0-.78 1.94c0 .8.26 1.46.78 1.98Z" fill="#141414"/>
    <rect fill="#fff" fill-opacity=".91" height="43.48" rx="17.52" width="97.36" x="236" y="136"/>
    <path d="M284.5 159.79v2.42h-1.41v2.25h-2.63v-2.25h-6.25v-2.42l4.4-8.57h2.8l-4.39 8.57h3.44v-3.14h2.63v3.14h1.42Zm6.23 4.93a4.62 4.62 0 0 1-3.9-1.87c-.93-1.26-1.4-2.93-1.4-5 0-2.09.47-3.75 1.4-5a4.6 4.6 0 0 1 3.9-1.9 4.6 4.6 0 0 1 3.9 1.9c.93 1.25 1.4 2.91 1.4 5 0 2.07-.47 3.74-1.4 5a4.59 4.59 0 0 1-3.9 1.87Zm-2-3.65a2.2 2.2 0 0 0 2 1.1 2.2 2.2 0 0 0 2-1.12 6 6 0 0 0 .7-3.2 6.1 6.1 0 0 0-.7-3.24 2.2 2.2 0 0 0-2-1.12 2.2 2.2 0 0 0-2 1.12 6.28 6.28 0 0 0-.69 3.23c0 1.41.23 2.49.68 3.23Zm13.9 3.65a4.62 4.62 0 0 1-3.89-1.87c-.93-1.26-1.4-2.93-1.4-5 0-2.09.47-3.75 1.4-5a4.6 4.6 0 0 1 3.9-1.9c1.66 0 2.96.64 3.89 1.9.93 1.25 1.4 2.91 1.4 5 0 2.07-.47 3.74-1.4 5a4.59 4.59 0 0 1-3.9 1.87Zm-2-3.65c.46.73 1.12 1.1 2 1.1a2.2 2.2 0 0 0 2-1.12c.48-.74.7-1.81.7-3.2 0-1.42-.22-2.5-.7-3.24a2.2 2.2 0 0 0-2-1.12 2.2 2.2 0 0 0-2 1.12 6.26 6.26 0 0 0-.68 3.23c0 1.41.23 2.49.68 3.23Zm17.86-.32a3.6 3.6 0 0 1-1.06 2.7 4.66 4.66 0 0 1-2.75 1.23v1.67h-1.27v-1.65a5.41 5.41 0 0 1-2.72-.89 4.27 4.27 0 0 1-1.63-2.1l2.25-1.3a2.53 2.53 0 0 0 2.1 1.72v-3.27h-.02l-.04-.02a8.26 8.26 0 0 1-2.06-.98 4 4 0 0 1-.87-.74 3.72 3.72 0 0 1-.78-2.33c0-1.1.37-2 1.08-2.66a4.5 4.5 0 0 1 2.69-1.15v-1.65h1.26v1.69a4.29 4.29 0 0 1 3.63 2.66l-2.19 1.29c-.3-.76-.78-1.22-1.44-1.38v3.15c1.18.47 1.96.84 2.37 1.12.97.7 1.45 1.66 1.45 2.9Zm-6.25-5.93c0 .27.08.52.26.73a3 3 0 0 0 .9.63v-2.65c-.37.08-.66.23-.86.45-.2.23-.3.5-.3.84Zm2.44 7.27c.8-.17 1.2-.61 1.2-1.32 0-.31-.1-.58-.3-.8a2.7 2.7 0 0 0-.9-.6v2.72Z" fill="#141414"/>
    <g clip-path="url(#c)">
      <path d="M267.1 164.03h-19.69v-5.61l6.24-2.52 2.84-4.46h10.62v12.59Z" fill="#F0F5F9"/>
      <path d="M267.1 152.42h-11.55l.55-.65.4-.33h10.6v.98Zm0 1.02h-11.55v.98h11.56v-.98Zm0 2h-11.55v.98h11.56v-.98Zm0 2.01h-19.69v.97h19.7v-.97Zm0 2h-19.69v.97h19.7v-.97Zm0 2h-19.69v.98h19.7v-.98Zm0 2h-19.69v.98h19.7v-.98Z" fill="#D11536"/>
      <path d="M256.5 151.44h-9.09v6.98h9.08v-6.98Z" fill="#002868"/>
      <path d="m248.35 152.01.15.29.3.04-.22.22.05.31-.28-.15-.27.15.05-.3-.22-.23.3-.04.14-.29Zm1.8 0 .14.29.31.04-.22.22.05.31-.28-.15-.28.15.06-.3-.23-.23.31-.04.14-.29Zm1.8 0 .14.29.31.04-.22.22.05.31-.28-.15-.28.15.06-.3-.23-.23.31-.04.14-.29Zm1.8 0 .14.29.31.04-.22.22.05.31-.28-.15-.28.15.06-.3-.23-.23.31-.04.14-.29Zm1.8 0 .14.29.31.04-.22.22.05.31-.28-.15-.28.15.05-.3-.22-.23.31-.04.14-.29Zm-2.65 1.18.15.28.31.05-.23.22.06.3-.28-.14-.28.15.05-.31-.22-.22.3-.05.15-.28Zm-1.85 0 .14.28.31.05-.22.22.05.3-.28-.14-.28.15.06-.31-.23-.22.31-.05.14-.28Zm3.71 0 .14.28.31.05-.22.22.05.3-.28-.14-.27.15.05-.31-.23-.22.31-.05.14-.28Zm.79 1.39.14.28.31.05-.22.22.05.3-.28-.14-.28.15.05-.31-.22-.22.31-.05.14-.28Zm-.79 1.18.14.28.31.04-.22.22.05.31-.28-.14-.27.14.05-.3-.23-.23.31-.04.14-.28Zm.79 1.39.14.28.31.05-.22.22.05.3-.28-.14-.28.15.05-.31-.22-.22.31-.05.14-.28Zm-6.35-3.96.14.28.3.05-.22.22.06.3-.28-.14-.28.15.05-.31-.22-.22.3-.05.15-.28Zm-.85 1.36.15.29.3.04-.22.22.05.31-.28-.15-.27.15.05-.3-.22-.23.3-.04.14-.29Zm1.8 0 .14.29.31.04-.22.22.05.31-.28-.15-.28.15.06-.3-.23-.23.31-.04.14-.29Zm1.8 0 .14.29.31.04-.22.22.05.31-.28-.15-.28.15.06-.3-.23-.23.31-.04.14-.29Zm1.8 0 .14.29.31.04-.22.22.05.31-.28-.15-.28.15.06-.3-.23-.23.31-.04.14-.29Zm-.85 1.18.15.28.31.05-.23.22.06.3-.28-.14-.28.15.05-.31-.22-.22.3-.05.15-.28Zm-1.85 0 .14.28.31.05-.22.22.05.3-.28-.14-.28.15.06-.31-.23-.22.31-.05.14-.28Zm-1.85 0 .14.28.3.05-.22.22.06.3-.28-.14-.28.15.05-.31-.22-.22.3-.05.15-.28Zm-.85 1.37.15.28.3.04-.22.22.05.31-.28-.14-.27.14.05-.3-.22-.23.3-.04.14-.28Zm1.8 0 .14.28.31.04-.22.22.05.31-.28-.14-.28.14.06-.3-.23-.23.31-.04.14-.28Zm1.8 0 .14.28.31.04-.22.22.05.31-.28-.14-.28.14.06-.3-.23-.23.31-.04.14-.28Zm1.8 0 .14.28.31.04-.22.22.05.31-.28-.14-.28.14.06-.3-.23-.23.31-.04.14-.28Z" fill="#F0F5F9"/>
    </g>
  </g>
  <defs>
    <clipPath id="a">
      <path d="M0 38A38 38 0 0 1 38 0h326a38 38 0 0 1 38 38v533a38 38 0 0 1-38 38H38a38 38 0 0 1-38-38V38Z" fill="#fff"/>
    </clipPath>
    <clipPath id="b">
      <path d="M221 292.01h24v24h-24z" fill="#fff"/>
    </clipPath>
    <clipPath id="c">
      <path d="M247.26 147.93h20v20h-20z" fill="#fff"/>
    </clipPath>
  </defs>
</svg>