<?xml version="1.0" encoding="utf-8"?>
<svg xmlns="http://www.w3.org/2000/svg" fill="none" height="97" viewBox="0 0 504 97" width="504">
<path d="M47 97C71.8528 97 92 76.8528 92 52C92 27.1472 71.8528 7 47 7C22.1472 7 2 27.1472 2 52C2 76.8528 22.1472 97 47 97Z" fill="black"/>
<path d="M81 46C81 68.1629 63.0214 86 40.9999 86C18.9787 86 1 68.1629 1 46C1 23.8374 18.9787 6 40.9999 6C63.0214 6 81 23.8374 81 46Z" fill="#E44332" stroke="black" stroke-width="2"/>
<path d="M59.3151 58.9226C56.5022 62.8991 52.4785 65.8591 47.8448 67.3603C43.2111 68.8616 38.2161 68.8237 33.6057 67.2523C28.9953 65.6808 25.017 62.6601 22.2648 58.6413C19.5127 54.6226 18.1343 49.8213 18.3357 44.9546C18.5371 40.088 20.3073 35.417 23.3821 31.6393C26.4569 27.8617 30.6712 25.18 35.3956 23.9948C40.12 22.8096 45.1011 23.1844 49.5949 25.0634C54.0888 26.9424 57.8542 30.2246 60.329 34.4199L40.8878 45.8878L59.3151 58.9226Z" fill="white"/>
<path d="M136.86 74V61.08H125.46V38.755H138.38V26.5H125.46V15.005H117.195L110.45 26.88L100.76 31.155V38.755H109.12V55.285C109.12 67.54 113.68 74 128.215 74H136.86ZM168.992 75.52C189.132 75.52 196.257 62.98 196.257 50.25C196.257 37.52 189.132 24.98 168.992 24.98C148.852 24.98 141.822 37.52 141.822 50.25C141.822 63.075 148.852 75.52 168.992 75.52ZM158.162 50.25C158.162 40.75 161.202 37.71 168.992 37.71C176.782 37.71 179.822 40.75 179.822 50.25C179.822 59.75 176.782 62.79 168.992 62.79C161.202 62.79 158.162 59.75 158.162 50.25ZM236.055 24.98C227.98 24.98 222.565 27.925 219.335 32.96V26.5H202.995V93H219.335V67.35C222.565 72.48 227.98 75.52 236.055 75.52C251.635 75.52 257.81 63.55 257.81 50.345C257.81 36.665 251.635 24.98 236.055 24.98ZM230.545 62.79C222.185 62.79 219.335 58.705 219.335 50.25C219.335 41.795 222.185 37.71 230.545 37.71C238.62 37.71 241.47 41.415 241.47 50.25C241.47 59.085 238.62 62.79 230.545 62.79ZM329.859 24.98C321.214 24.98 315.989 29.16 313.044 35.525C310.669 28.875 305.539 24.98 297.369 24.98C289.199 24.98 284.164 28.685 281.219 34.575V26.5H264.879V74H281.219V51.675C281.219 42.365 284.259 38.185 290.624 38.185C296.039 38.185 298.414 41.51 298.414 47.59V74H314.469V51.675C314.469 42.365 317.414 38.185 323.874 38.185C329.289 38.185 331.664 41.51 331.664 47.59V74H348.004V45.12C348.004 32.675 342.304 24.98 329.859 24.98ZM371.353 75.235C380.948 75.235 386.838 71.055 389.213 64.12C389.213 68.015 389.498 71.245 389.973 74H404.033C403.463 70.105 403.178 65.925 403.178 60.89V41.985C403.178 31.155 395.768 24.98 380.758 24.98C365.748 24.98 357.008 32.2 356.533 42.27H372.398C372.493 38.09 375.248 35.81 380.948 35.81C386.363 35.81 388.073 37.52 388.073 40.37C388.073 42.84 386.933 43.98 382.563 44.74L371.828 46.64C358.718 48.825 355.583 53.86 355.583 61.46C355.583 69.82 361.853 75.235 371.353 75.235ZM377.528 64.595C374.203 64.595 371.638 62.885 371.638 59.56C371.638 56.33 373.348 54.715 377.908 53.575L380.663 52.91C383.608 52.15 385.793 51.58 388.073 49.87V51.675C388.073 60.225 383.703 64.595 377.528 64.595ZM444.033 74V61.08H432.633V38.755H445.553V26.5H432.633V15.005H424.368L417.623 26.88L407.933 31.155V38.755H416.293V55.285C416.293 67.54 420.853 74 435.388 74H444.033ZM475.594 64.595C469.514 64.595 465.809 62.03 464.859 54.43H500.484C500.674 53.385 500.769 51.96 500.769 50.44C500.769 37.235 494.594 24.98 475.214 24.98C456.974 24.98 448.994 36.38 448.994 50.155C448.994 63.17 455.834 75.52 475.214 75.52C492.504 75.52 498.964 67.825 500.579 59.655H484.714C483.384 62.505 480.439 64.595 475.594 64.595ZM475.404 35.715C481.769 35.715 484.714 38.945 485.284 44.93H465.049C466.094 38.09 469.514 35.715 475.404 35.715Z" fill="white"/>
</svg>